<?xml version="1.0" standalone="yes"?><svg version="1.1" xmlns = 'http://www.w3.org/2000/svg'><defs><font id='web' horiz-adv-x="1000">
<font-face font-family="web" descent="-492" cap-height="1434" units-per-em="2048" bbox="-186,-463,2925,1868" x-height="1120" ascent="1556" />
<missing-glyph horiz-adv-x="477" d="" /><glyph horiz-adv-x="1642" d="M 944 846 L 569 846 L 569 0 L 186 0 L 186 846 L 25 846 L 25 1098 L 186 1098 L 186 1122 C 186 1267 227 1375 310 1445 C 392 1515 512 1550 670 1550 C 750 1550 822 1541 886 1523 C 950 1505 1010 1482 1067 1454 C 1110 1494 1162 1523 1222 1541 C 1282 1559 1349 1569 1421 1569 C 1471 1569 1522 1563 1574 1552 C 1626 1540 1674 1526 1718 1509 L 1630 1257 C 1603 1266 1576 1274 1550 1280 C 1523 1286 1491 1290 1454 1290 C 1408 1290 1376 1277 1357 1252 C 1338 1226 1329 1192 1329 1149 L 1329 1096 L 1593 1096 L 1593 846 L 1329 846 L 1329 0 L 944 0 L 944 846 Z M 569 1096 L 944 1096 L 944 1124 C 944 1143 944 1161 945 1179 C 946 1197 948 1214 952 1231 C 918 1247 882 1260 846 1269 C 810 1277 771 1282 729 1282 C 699 1282 673 1278 653 1271 C 633 1263 616 1253 604 1240 C 592 1226 583 1210 577 1192 C 571 1174 569 1154 569 1133 L 569 1096 Z" unicode="ﬀ" />
<glyph horiz-adv-x="1374" d="M 1270 547 C 1270 451 1256 368 1228 297 C 1200 225 1160 166 1109 119 C 1058 71 997 36 926 12 C 855 -11 776 -23 690 -23 C 594 -23 509 -9 436 17 C 362 43 301 80 251 127 C 201 173 164 228 139 292 C 114 355 102 424 102 498 C 102 572 114 638 138 697 C 162 755 195 805 238 846 C 280 886 330 917 388 939 C 445 960 507 971 575 971 C 629 971 681 965 729 953 C 777 941 826 921 874 893 C 866 946 855 991 841 1027 C 827 1063 808 1093 784 1115 C 760 1137 731 1153 696 1163 C 661 1173 619 1178 571 1178 C 543 1178 514 1176 485 1173 C 455 1169 426 1165 398 1159 C 370 1153 342 1145 315 1137 C 287 1129 262 1120 238 1110 L 125 1366 C 151 1378 181 1389 216 1400 C 250 1411 287 1421 326 1430 C 365 1439 405 1446 447 1452 C 488 1457 529 1460 569 1460 C 691 1460 796 1444 884 1412 C 972 1380 1045 1329 1102 1257 C 1159 1185 1201 1091 1229 975 C 1256 859 1270 716 1270 547 Z M 891 535 C 891 556 891 576 891 596 C 891 616 890 635 889 655 C 871 667 854 677 838 685 C 821 693 804 700 787 706 C 770 712 752 716 734 719 C 716 721 696 723 676 723 C 654 723 632 719 610 713 C 588 706 568 694 551 677 C 533 660 519 637 508 608 C 497 579 492 542 492 498 C 492 462 496 429 505 399 C 514 369 527 343 544 322 C 561 300 582 284 607 272 C 631 260 659 254 690 254 C 718 254 745 260 770 272 C 794 284 816 302 834 326 C 852 350 866 379 876 414 C 886 449 891 489 891 535 Z" unicode="∂" />
<glyph horiz-adv-x="1843" d="M 920 403 L 1290 207 L 1219 618 L 1520 913 L 1104 973 L 920 1350 L 735 973 L 319 913 L 621 618 L 547 207 L 920 403 Z M 178 715 C 178 783 186 848 204 912 C 222 975 247 1034 279 1089 C 311 1144 350 1194 395 1240 C 440 1285 490 1324 545 1356 C 600 1388 659 1413 722 1431 C 785 1449 851 1458 920 1458 C 988 1458 1053 1449 1117 1431 C 1180 1413 1239 1388 1294 1356 C 1349 1324 1399 1285 1445 1240 C 1490 1194 1529 1144 1561 1089 C 1593 1034 1618 975 1636 912 C 1654 848 1663 783 1663 715 C 1663 647 1654 581 1636 518 C 1618 454 1593 395 1561 340 C 1529 285 1490 235 1445 190 C 1399 145 1349 106 1294 74 C 1239 42 1180 17 1117 0 C 1053 -18 988 -27 920 -27 C 852 -27 786 -18 723 0 C 659 17 600 42 545 74 C 490 106 440 145 395 190 C 350 235 311 285 279 340 C 247 395 222 454 204 517 C 186 580 178 646 178 715 Z" unicode="★" />
<glyph horiz-adv-x="1851" d="M 928 1452 L 1749 0 L 102 0 L 928 1452 Z M 633 309 L 1208 309 L 926 831 L 633 309 Z" unicode="∆" />
<glyph horiz-adv-x="1315" d="M 43 541 L 201 541 L 201 584 C 201 593 201 602 201 612 C 201 622 201 631 203 641 L 43 641 L 43 821 L 240 821 C 260 879 287 931 322 979 C 357 1026 399 1066 447 1100 C 495 1134 549 1160 609 1178 C 669 1196 735 1206 805 1206 C 889 1206 970 1192 1047 1164 C 1124 1136 1194 1088 1257 1022 L 1047 805 C 1019 833 987 857 949 876 C 911 895 871 905 827 905 C 726 905 653 869 608 797 L 848 797 L 848 641 L 561 641 C 559 631 559 622 559 613 C 559 603 559 594 559 584 C 559 576 559 569 559 561 C 559 553 559 547 561 541 L 848 541 L 848 387 L 614 387 C 640 351 672 323 712 304 C 752 285 796 276 844 276 C 885 276 923 283 958 297 C 993 311 1023 332 1049 360 L 1262 154 C 1207 97 1144 53 1072 21 C 1000 -11 915 -27 819 -27 C 749 -27 683 -17 622 2 C 560 21 505 48 455 83 C 405 117 361 159 324 207 C 287 255 258 307 238 365 L 43 365 L 43 541 Z" unicode="€" />
<glyph horiz-adv-x="1737" d="M 1389 1143 L 1389 0 L 1004 0 L 1004 1143 L 731 1143 L 731 0 L 348 0 L 348 1143 L 102 1143 L 102 1434 L 1634 1434 L 1634 1143 L 1389 1143 Z" unicode="∏" />
<glyph horiz-adv-x="1352" d="M 102 0 L 102 219 L 559 733 L 129 1229 L 129 1434 L 1227 1434 L 1227 1143 L 637 1143 L 985 733 L 594 291 L 1249 291 L 1249 0 L 102 0 Z" unicode="∑" />
<glyph horiz-adv-x="1317" d="M 66 721 L 1251 721 L 1251 408 L 66 408 L 66 721 Z" unicode="–" />
<glyph horiz-adv-x="1833" d="M 78 721 L 1755 721 L 1755 408 L 78 408 L 78 721 Z" unicode="—" />
<glyph horiz-adv-x="541" d="M 455 745 L 86 745 L 86 1024 C 86 1142 111 1235 162 1303 C 213 1371 291 1418 397 1446 L 463 1307 C 407 1291 366 1266 338 1231 C 310 1195 297 1156 297 1114 L 455 1114 L 455 745 Z" unicode="‘" />
<glyph horiz-adv-x="541" d="M 86 1434 L 455 1434 L 455 1155 C 455 1037 429 944 378 876 C 326 808 248 760 143 733 L 78 872 C 105 880 129 890 150 903 C 170 916 188 931 202 948 C 216 964 226 983 233 1003 C 240 1023 244 1043 244 1065 L 86 1065 L 86 1434 Z" unicode="’" />
<glyph horiz-adv-x="541" d="M 86 369 L 455 369 L 455 90 C 455 -27 429 -120 378 -188 C 326 -256 248 -304 143 -332 L 78 -193 C 105 -185 129 -174 150 -161 C 170 -148 188 -133 202 -117 C 216 -100 226 -82 233 -62 C 240 -42 244 -21 244 0 L 86 0 L 86 369 Z" unicode="‚" />
<glyph horiz-adv-x="1077" d="M 455 745 L 86 745 L 86 1024 C 86 1142 111 1235 162 1303 C 213 1371 291 1418 397 1446 L 463 1307 C 407 1291 366 1266 338 1231 C 310 1195 297 1156 297 1114 L 455 1114 L 455 745 Z M 991 745 L 623 745 L 623 1024 C 623 1142 648 1235 699 1303 C 750 1371 828 1418 934 1446 L 999 1307 C 943 1291 902 1266 875 1231 C 847 1195 834 1156 834 1114 L 991 1114 L 991 745 Z" unicode="“" />
<glyph horiz-adv-x="1077" d="M 625 1434 L 993 1434 L 993 1155 C 993 1037 967 944 916 876 C 865 808 787 760 682 733 L 616 872 C 644 880 668 890 689 903 C 709 916 726 931 740 948 C 754 964 764 983 771 1003 C 778 1023 782 1043 782 1065 L 625 1065 L 625 1434 Z M 86 1434 L 455 1434 L 455 1155 C 455 1037 429 944 378 876 C 326 808 248 760 143 733 L 78 872 C 105 880 129 890 150 903 C 170 916 188 931 202 948 C 216 964 226 983 233 1003 C 240 1023 244 1043 244 1065 L 86 1065 L 86 1434 Z" unicode="”" />
<glyph horiz-adv-x="1077" d="M 625 369 L 993 369 L 993 90 C 993 -27 967 -120 916 -188 C 865 -256 787 -304 682 -332 L 616 -193 C 644 -185 668 -174 689 -161 C 709 -148 726 -133 740 -117 C 754 -100 764 -82 771 -62 C 778 -42 782 -21 782 0 L 625 0 L 625 369 Z M 86 369 L 455 369 L 455 90 C 455 -27 429 -120 378 -188 C 326 -256 248 -304 143 -332 L 78 -193 C 105 -185 129 -174 150 -161 C 170 -148 188 -133 202 -117 C 216 -100 226 -82 233 -62 C 240 -42 244 -21 244 0 L 86 0 L 86 369 Z" unicode="„" />
<glyph horiz-adv-x="477" d="" unicode=" " />
<glyph horiz-adv-x="578" d="M 96 1137 L 96 1434 L 479 1434 L 479 1137 L 385 463 L 193 463 L 96 1137 Z M 106 309 L 467 309 L 467 0 L 106 0 L 106 309 Z" unicode="!" />
<glyph horiz-adv-x="1022" d="M 74 1434 L 449 1434 L 285 745 L 74 745 L 74 1434 Z M 573 1434 L 948 1434 L 784 745 L 573 745 L 573 1434 Z" unicode="&#x22;" />
<glyph horiz-adv-x="1401" d="M 113 940 L 369 940 L 408 1180 L 694 1180 L 653 940 L 860 940 L 899 1180 L 1182 1180 L 1143 940 L 1350 940 L 1350 690 L 1104 690 L 1071 489 L 1290 489 L 1290 242 L 1032 242 L 993 0 L 707 0 L 745 242 L 539 242 L 500 0 L 217 0 L 256 242 L 51 242 L 51 489 L 295 489 L 328 690 L 113 690 L 113 940 Z M 580 489 L 786 489 L 819 690 L 612 690 L 580 489 Z" unicode="#" />
<glyph horiz-adv-x="1196" d="M 227 371 C 279 341 334 316 390 297 C 446 277 501 265 555 260 L 555 461 C 520 469 484 477 447 486 C 410 495 374 506 339 518 C 303 530 270 545 238 563 C 206 580 179 601 155 626 C 131 650 113 679 99 712 C 85 744 78 783 78 827 C 78 879 88 926 109 970 C 129 1014 159 1052 198 1085 C 237 1117 285 1144 341 1164 C 397 1184 460 1196 532 1202 L 532 1368 L 686 1368 L 686 1200 C 752 1196 817 1186 882 1170 C 947 1154 1011 1132 1073 1102 L 932 842 C 886 863 840 881 793 895 C 745 909 702 918 662 924 L 662 737 C 696 729 731 721 767 712 C 803 702 838 691 872 678 C 906 665 939 649 970 631 C 1001 613 1028 590 1052 564 C 1075 538 1093 507 1107 472 C 1121 437 1128 396 1128 350 C 1128 301 1118 255 1100 213 C 1081 171 1053 133 1016 101 C 979 68 933 41 878 20 C 822 0 758 -14 686 -20 L 686 -272 L 532 -272 L 532 -23 C 444 -17 361 -3 282 21 C 202 45 130 75 66 113 L 227 371 Z M 782 340 C 782 362 771 381 749 395 C 727 409 698 422 662 434 L 662 260 C 707 264 738 273 756 287 C 773 301 782 319 782 340 Z M 430 850 C 430 827 441 809 464 796 C 487 782 517 771 555 762 L 555 928 C 509 924 476 916 458 902 C 439 888 430 871 430 850 Z" unicode="$" />
<glyph horiz-adv-x="1763" d="M 1462 1180 L 516 0 L 293 0 L 1243 1180 L 1462 1180 Z M 70 868 C 70 917 79 962 97 1002 C 115 1042 141 1077 173 1106 C 205 1134 243 1156 287 1172 C 331 1188 378 1196 430 1196 C 482 1196 530 1188 574 1172 C 618 1156 657 1134 689 1106 C 721 1077 747 1042 765 1002 C 783 962 793 917 793 868 C 793 816 784 770 766 729 C 748 687 724 652 692 623 C 660 594 621 572 577 556 C 533 540 484 532 430 532 C 377 532 329 540 285 556 C 241 572 203 594 171 623 C 139 652 114 687 96 729 C 78 770 70 816 70 868 Z M 301 868 C 301 822 312 785 334 757 C 356 729 388 715 430 715 C 473 715 506 729 529 757 C 551 785 563 822 563 868 C 563 888 559 908 553 926 C 547 944 538 959 527 972 C 515 985 501 995 485 1003 C 469 1010 450 1014 430 1014 C 410 1014 393 1010 377 1003 C 361 995 347 985 336 972 C 324 959 316 944 310 926 C 304 908 301 888 301 868 Z M 971 319 C 971 368 980 413 998 453 C 1016 493 1042 528 1074 557 C 1106 585 1145 607 1189 623 C 1233 639 1281 647 1333 647 C 1385 647 1433 639 1477 623 C 1521 607 1559 585 1592 557 C 1624 528 1650 493 1668 453 C 1686 413 1696 368 1696 319 C 1696 267 1687 221 1669 180 C 1651 139 1626 104 1594 75 C 1562 45 1523 23 1479 7 C 1435 -8 1386 -16 1333 -16 C 1280 -16 1231 -8 1187 7 C 1143 23 1105 45 1073 75 C 1041 104 1016 139 998 180 C 980 221 971 267 971 319 Z M 1202 319 C 1202 273 1213 236 1236 208 C 1258 180 1291 166 1333 166 C 1376 166 1409 180 1431 208 C 1453 236 1464 273 1464 319 C 1464 339 1461 359 1455 377 C 1449 395 1440 411 1429 424 C 1417 437 1404 447 1388 455 C 1372 463 1353 467 1333 467 C 1313 467 1295 463 1279 455 C 1263 447 1249 437 1237 424 C 1225 411 1217 395 1211 377 C 1205 359 1202 339 1202 319 Z" unicode="%" />
<glyph horiz-adv-x="1540" d="M 61 408 C 61 452 67 493 81 532 C 95 571 114 608 138 642 C 162 676 190 707 223 735 C 255 763 291 789 330 813 C 302 852 279 894 263 938 C 246 982 238 1031 238 1083 C 238 1137 249 1187 272 1233 C 294 1279 326 1319 366 1353 C 406 1386 453 1412 507 1431 C 561 1450 620 1460 684 1460 C 732 1460 778 1455 820 1445 C 862 1435 902 1421 940 1403 C 977 1385 1012 1363 1045 1339 C 1077 1314 1109 1287 1139 1257 L 911 1057 C 875 1091 839 1118 805 1138 C 770 1158 735 1169 700 1169 C 682 1169 667 1166 653 1161 C 639 1155 628 1148 618 1139 C 608 1129 601 1118 596 1106 C 590 1094 588 1081 588 1067 C 588 1049 591 1032 598 1016 C 604 999 613 983 624 968 C 634 952 646 937 660 922 C 674 907 688 893 702 879 C 754 828 809 778 867 730 C 924 681 982 633 1042 586 C 1065 652 1077 726 1077 809 L 1409 809 C 1409 731 1400 657 1382 587 C 1364 516 1337 449 1303 385 C 1339 358 1376 332 1413 307 C 1449 281 1486 256 1524 231 L 1321 -16 C 1285 8 1248 33 1211 59 C 1173 84 1136 111 1098 139 C 1031 87 956 47 873 17 C 790 -12 699 -27 600 -27 C 516 -27 441 -15 375 7 C 309 30 252 61 206 101 C 159 140 123 186 98 239 C 73 292 61 348 61 408 Z M 846 330 C 786 376 727 423 670 472 C 612 520 557 571 504 623 C 472 601 448 575 431 545 C 414 515 406 483 406 449 C 406 419 411 394 423 372 C 434 350 450 331 470 316 C 490 301 515 290 543 283 C 571 275 601 272 635 272 C 674 272 711 277 746 287 C 781 297 814 311 846 330 Z" unicode="&#x26;" />
<glyph horiz-adv-x="520" d="M 74 1434 L 449 1434 L 285 745 L 74 745 L 74 1434 Z" unicode="'" />
<glyph horiz-adv-x="870" d="M 96 567 C 96 673 105 772 123 866 C 141 959 165 1046 196 1128 C 227 1209 263 1284 304 1353 C 345 1422 389 1486 436 1544 L 834 1544 C 784 1486 737 1423 692 1353 C 646 1283 606 1208 572 1127 C 538 1045 510 958 490 864 C 469 770 459 671 459 567 C 459 461 469 362 490 269 C 510 176 538 89 572 8 C 606 -73 646 -148 692 -218 C 737 -288 784 -352 834 -410 L 440 -410 C 392 -352 348 -288 306 -219 C 264 -150 228 -75 197 5 C 166 86 141 173 123 267 C 105 360 96 460 96 567 Z" unicode="(" />
<glyph horiz-adv-x="870" d="M 774 567 C 774 460 764 360 746 267 C 728 173 703 86 672 5 C 641 -75 605 -150 563 -219 C 521 -288 476 -352 430 -410 L 37 -410 C 85 -352 132 -288 178 -218 C 223 -148 263 -73 298 8 C 332 89 360 176 381 269 C 401 362 412 461 412 567 C 412 671 401 770 381 864 C 360 958 332 1045 298 1127 C 263 1208 223 1283 178 1353 C 132 1423 85 1486 37 1544 L 434 1544 C 480 1486 524 1422 566 1353 C 607 1284 643 1209 674 1128 C 704 1046 729 959 747 866 C 765 772 774 673 774 567 Z" unicode=")" />
<glyph horiz-adv-x="860" d="M 297 1042 L 293 1047 L 78 1020 L 80 1253 L 299 1223 L 303 1227 L 219 1427 L 426 1487 L 471 1274 L 477 1272 L 643 1403 L 772 1223 L 586 1130 L 586 1124 L 764 1010 L 625 838 L 469 991 L 461 989 L 395 772 L 199 842 L 297 1042 Z" unicode="*" />
<glyph horiz-adv-x="1260" d="M 66 717 L 457 717 L 457 1122 L 803 1122 L 803 717 L 1192 717 L 1192 410 L 803 410 L 803 0 L 457 0 L 457 410 L 66 410 L 66 717 Z" unicode="+" />
<glyph horiz-adv-x="541" d="M 86 369 L 455 369 L 455 90 C 455 -27 429 -120 378 -188 C 326 -256 248 -304 143 -332 L 78 -193 C 105 -185 129 -174 150 -161 C 170 -148 188 -133 202 -117 C 216 -100 226 -82 233 -62 C 240 -42 244 -21 244 0 L 86 0 L 86 369 Z" unicode="," />
<glyph horiz-adv-x="782" d="M 66 721 L 717 721 L 717 408 L 66 408 L 66 721 Z" unicode="-" />
<glyph horiz-adv-x="537" d="M 86 369 L 455 369 L 455 0 L 86 0 L 86 369 Z" unicode="." />
<glyph horiz-adv-x="1202" d="M 877 1546 L 1227 1546 L 326 -410 L -25 -410 L 877 1546 Z" unicode="/" />
<glyph horiz-adv-x="1411" d="M 76 592 C 76 688 92 773 125 849 C 158 925 203 989 260 1042 C 317 1095 384 1136 461 1164 C 537 1192 619 1206 707 1206 C 793 1206 875 1192 951 1164 C 1027 1136 1094 1095 1151 1042 C 1208 989 1253 925 1286 849 C 1318 773 1335 688 1335 592 C 1335 495 1318 408 1286 332 C 1253 255 1208 190 1151 137 C 1094 84 1027 43 951 15 C 875 -12 793 -27 707 -27 C 619 -27 537 -12 461 15 C 384 43 317 84 260 137 C 203 190 158 255 125 332 C 92 408 76 495 76 592 Z M 481 592 C 481 546 486 505 496 467 C 506 429 520 397 540 371 C 559 344 583 323 611 309 C 639 294 671 287 707 287 C 743 287 774 294 802 309 C 830 323 853 344 873 371 C 892 397 907 429 917 467 C 927 505 932 546 932 592 C 932 636 927 677 917 714 C 907 751 892 783 873 809 C 853 835 830 855 802 869 C 774 883 743 891 707 891 C 671 891 639 883 611 869 C 583 855 559 835 540 809 C 520 783 506 751 496 714 C 486 677 481 636 481 592 Z" unicode="0" />
<glyph horiz-adv-x="848" d="M 311 0 L 311 807 L 115 741 L -4 1012 L 438 1188 L 715 1188 L 715 0 L 311 0 Z" unicode="1" />
<glyph horiz-adv-x="1260" d="M 111 0 L 109 66 C 106 142 114 208 133 265 C 151 322 177 372 209 414 C 241 456 279 492 321 522 C 363 552 407 577 451 599 C 495 621 539 640 582 656 C 624 672 662 688 696 704 C 730 719 757 735 778 751 C 798 767 809 787 809 809 C 809 837 796 860 770 878 C 744 896 705 905 651 905 C 584 905 517 892 449 868 C 381 844 314 811 250 770 L 98 1038 C 138 1062 180 1085 224 1106 C 268 1126 314 1144 362 1159 C 410 1173 459 1185 509 1193 C 559 1201 610 1206 662 1206 C 747 1206 823 1197 890 1179 C 956 1161 1013 1136 1059 1104 C 1105 1071 1140 1031 1164 985 C 1188 939 1200 887 1200 831 C 1200 783 1191 740 1175 704 C 1159 668 1137 636 1109 608 C 1081 580 1050 555 1014 534 C 978 513 940 494 902 477 C 863 460 824 445 785 431 C 745 417 709 404 675 390 C 641 376 612 361 586 346 C 560 331 540 314 528 295 L 1167 295 L 1167 0 L 111 0 Z" unicode="2" />
<glyph horiz-adv-x="1278" d="M 195 121 C 256 89 317 63 378 45 C 439 27 503 18 569 18 C 609 18 646 22 679 30 C 711 38 739 49 763 63 C 786 77 804 95 817 115 C 829 135 836 157 836 182 C 836 211 829 235 816 255 C 803 274 785 289 762 301 C 739 313 712 321 681 326 C 649 331 615 334 578 334 L 367 334 L 367 612 L 567 612 C 601 612 633 614 661 619 C 689 624 712 632 732 644 C 752 656 767 671 777 691 C 787 710 793 734 793 762 C 793 781 788 799 780 817 C 772 835 759 850 743 864 C 726 877 705 887 680 895 C 655 903 626 907 594 907 C 562 907 531 904 503 899 C 475 893 447 886 419 877 C 391 868 364 858 337 846 C 310 834 282 821 254 807 L 100 1065 C 140 1086 180 1105 220 1123 C 260 1140 302 1155 346 1167 C 389 1179 434 1189 481 1196 C 528 1202 579 1206 633 1206 C 716 1206 792 1196 861 1178 C 929 1160 988 1133 1037 1099 C 1085 1064 1123 1022 1150 973 C 1176 924 1190 869 1190 809 C 1190 770 1185 736 1176 706 C 1167 676 1154 650 1137 626 C 1120 602 1100 580 1076 561 C 1052 542 1025 524 995 508 C 1079 466 1140 416 1178 359 C 1216 302 1235 236 1235 162 C 1235 86 1217 20 1181 -35 C 1145 -90 1096 -136 1036 -173 C 976 -209 906 -236 828 -254 C 750 -272 668 -281 584 -281 C 401 -281 223 -238 49 -152 L 195 121 Z" unicode="3" />
<glyph horiz-adv-x="1399" d="M 66 285 L 817 1180 L 1178 1180 L 1178 287 L 1331 287 L 1331 2 L 1178 2 L 1178 -254 L 797 -254 L 797 2 L 193 2 L 66 285 Z M 797 287 L 797 756 L 424 287 L 797 287 Z" unicode="4" />
<glyph horiz-adv-x="1268" d="M 219 135 C 247 119 276 104 306 92 C 336 80 367 69 398 61 C 429 53 460 46 491 42 C 522 37 552 35 582 35 C 616 35 647 39 675 47 C 703 55 727 67 748 83 C 768 99 784 118 796 141 C 807 163 813 189 813 217 C 813 243 808 267 798 288 C 788 309 775 327 759 342 C 742 356 722 367 700 375 C 678 383 654 387 629 387 C 555 387 479 369 403 334 L 170 471 L 201 1180 L 1108 1180 L 1108 899 L 557 899 L 545 627 C 579 639 618 648 660 656 C 702 664 744 668 788 668 C 840 668 891 659 941 641 C 991 623 1036 595 1076 559 C 1116 523 1148 477 1173 423 C 1197 368 1210 304 1210 231 C 1210 175 1201 123 1185 76 C 1169 29 1146 -13 1117 -51 C 1087 -89 1053 -122 1013 -151 C 973 -179 929 -203 882 -223 C 834 -242 784 -256 731 -266 C 677 -276 623 -281 569 -281 C 521 -281 475 -278 431 -272 C 387 -266 345 -257 304 -245 C 262 -233 222 -219 182 -203 C 142 -187 103 -168 63 -147 L 219 135 Z" unicode="5" />
<glyph horiz-adv-x="1321" d="M 74 682 C 74 818 93 935 132 1033 C 170 1131 222 1212 287 1275 C 351 1338 425 1385 509 1415 C 593 1445 680 1460 770 1460 C 836 1460 905 1450 978 1430 C 1050 1410 1121 1380 1190 1341 L 1036 1087 C 1000 1107 959 1124 914 1138 C 868 1152 820 1159 768 1159 C 720 1159 680 1151 646 1135 C 612 1119 583 1097 561 1069 C 538 1041 520 1007 508 969 C 495 930 487 888 483 844 C 501 858 522 870 546 882 C 570 894 595 904 622 913 C 648 922 676 929 705 934 C 734 939 763 942 793 942 C 859 942 920 932 976 912 C 1032 892 1080 863 1120 824 C 1160 785 1191 737 1213 680 C 1235 622 1247 556 1247 481 C 1247 411 1233 346 1206 285 C 1179 223 1140 169 1090 123 C 1040 77 979 40 908 13 C 837 -13 758 -27 670 -27 C 568 -27 480 -8 405 27 C 330 63 268 113 219 177 C 170 240 134 315 110 402 C 86 488 74 582 74 682 Z M 485 598 C 486 488 503 406 535 350 C 567 294 616 266 682 266 C 707 266 730 271 752 281 C 773 291 791 306 807 325 C 822 343 834 366 843 392 C 851 418 856 447 856 479 C 856 543 842 593 814 629 C 786 665 744 684 688 684 C 648 684 612 675 579 659 C 545 643 514 622 485 598 Z" unicode="6" />
<glyph horiz-adv-x="1180" d="M 721 866 L 72 866 L 72 1180 L 1118 1180 L 1118 897 L 616 -254 L 199 -254 L 721 866 Z" unicode="7" />
<glyph horiz-adv-x="1411" d="M 80 385 C 80 427 87 467 102 504 C 116 540 137 574 163 605 C 189 635 221 663 257 687 C 293 711 333 732 377 750 C 345 763 314 780 284 800 C 254 820 228 842 206 868 C 184 894 166 922 153 954 C 139 985 133 1019 133 1055 C 133 1119 147 1177 176 1227 C 205 1277 245 1320 297 1355 C 348 1389 409 1415 479 1433 C 549 1451 625 1460 707 1460 C 789 1460 864 1451 934 1433 C 1004 1415 1064 1389 1115 1355 C 1166 1320 1206 1277 1235 1227 C 1263 1177 1278 1119 1278 1055 C 1278 1019 1271 985 1258 954 C 1244 922 1226 894 1204 868 C 1181 842 1155 820 1125 800 C 1095 780 1064 763 1032 750 C 1076 732 1116 711 1153 687 C 1190 663 1222 635 1248 605 C 1274 574 1295 540 1310 504 C 1325 467 1333 427 1333 385 C 1333 318 1317 259 1285 208 C 1253 157 1210 114 1154 79 C 1098 44 1031 18 955 0 C 879 -18 796 -27 707 -27 C 617 -27 533 -18 457 0 C 381 18 315 44 259 79 C 203 114 159 157 127 208 C 95 259 80 318 80 385 Z M 477 410 C 477 385 483 362 495 342 C 507 322 523 304 544 290 C 564 275 589 264 617 256 C 645 248 675 244 707 244 C 739 244 768 248 796 256 C 824 264 848 275 868 290 C 888 304 904 322 916 342 C 928 362 934 385 934 410 C 934 432 928 454 916 475 C 904 496 888 515 868 532 C 847 549 823 564 796 577 C 768 589 739 598 707 604 C 673 598 643 589 615 577 C 587 564 562 549 542 532 C 522 515 506 496 494 475 C 482 454 477 432 477 410 Z M 707 881 C 733 884 757 891 779 901 C 800 911 818 923 833 938 C 848 953 860 970 868 989 C 876 1008 881 1029 881 1051 C 881 1071 876 1089 867 1106 C 858 1122 846 1137 830 1149 C 814 1161 796 1170 775 1177 C 754 1184 731 1188 707 1188 C 681 1188 657 1184 635 1177 C 613 1170 595 1161 579 1149 C 563 1137 551 1122 543 1106 C 534 1089 530 1071 530 1051 C 530 1029 534 1008 542 989 C 550 970 561 953 577 938 C 592 923 610 911 632 901 C 654 891 679 884 707 881 Z" unicode="8" />
<glyph horiz-adv-x="1327" d="M 281 94 C 317 71 357 52 403 38 C 449 23 499 16 553 16 C 600 16 641 24 675 40 C 709 56 737 78 760 106 C 782 134 800 167 812 205 C 824 243 832 285 836 330 C 817 316 796 304 773 292 C 750 280 725 269 699 261 C 673 252 645 245 617 240 C 588 235 559 233 530 233 C 462 233 400 242 344 262 C 288 282 239 311 199 350 C 158 389 126 437 104 495 C 81 552 70 618 70 694 C 70 763 83 828 110 890 C 137 952 176 1006 226 1052 C 276 1098 337 1134 408 1161 C 479 1188 559 1202 647 1202 C 748 1202 836 1184 911 1148 C 986 1112 1048 1062 1098 998 C 1147 934 1184 859 1208 773 C 1232 687 1245 594 1245 494 C 1245 403 1236 321 1218 247 C 1200 173 1176 107 1145 49 C 1113 -8 1076 -58 1033 -100 C 989 -142 942 -176 891 -204 C 839 -231 785 -251 727 -265 C 669 -278 611 -285 551 -285 C 517 -285 483 -282 447 -277 C 411 -271 374 -263 338 -253 C 302 -243 266 -230 230 -214 C 194 -198 159 -180 125 -160 L 281 94 Z M 635 494 C 674 494 710 501 743 517 C 775 532 806 552 836 578 C 833 687 815 769 783 825 C 750 881 701 909 635 909 C 609 909 585 903 563 893 C 541 883 523 868 508 850 C 493 831 481 809 473 783 C 465 757 461 728 461 696 C 461 633 475 584 505 548 C 535 512 578 494 635 494 Z" unicode="9" />
<glyph horiz-adv-x="537" d="M 86 369 L 455 369 L 455 0 L 86 0 L 86 369 Z M 86 1122 L 455 1122 L 455 754 L 86 754 L 86 1122 Z" unicode=":" />
<glyph horiz-adv-x="541" d="M 86 369 L 455 369 L 455 90 C 455 -27 429 -120 378 -188 C 326 -256 248 -304 143 -332 L 78 -193 C 105 -185 129 -174 150 -161 C 170 -148 188 -133 202 -117 C 216 -100 226 -82 233 -62 C 240 -42 244 -21 244 0 L 86 0 L 86 369 Z M 86 1122 L 455 1122 L 455 754 L 86 754 L 86 1122 Z" unicode=";" />
<glyph horiz-adv-x="1178" d="M 1092 0 L 68 395 L 68 733 L 1092 1122 L 1092 745 L 522 561 L 1092 377 L 1092 0 Z" unicode="&#x3C;" />
<glyph horiz-adv-x="1260" d="M 66 973 L 1192 973 L 1192 666 L 66 666 L 66 973 Z M 66 459 L 1192 459 L 1192 152 L 66 152 L 66 459 Z" unicode="=" />
<glyph horiz-adv-x="1178" d="M 86 377 L 655 561 L 86 745 L 86 1122 L 1110 733 L 1110 395 L 86 0 L 86 377 Z" unicode="&#x3E;" />
<glyph horiz-adv-x="1194" d="M 408 463 C 406 470 404 478 402 488 C 400 497 399 507 398 517 C 396 527 395 536 394 546 C 393 555 393 563 393 571 C 393 620 401 662 419 696 C 436 730 458 760 484 785 C 510 810 538 832 568 850 C 598 868 626 886 652 904 C 678 922 699 941 717 961 C 734 981 743 1005 743 1034 C 743 1054 738 1071 730 1087 C 721 1103 709 1116 695 1126 C 680 1136 663 1144 645 1150 C 626 1156 606 1159 586 1159 C 533 1159 481 1148 431 1126 C 380 1104 330 1070 281 1024 L 59 1223 C 95 1259 133 1291 173 1321 C 213 1350 255 1375 299 1396 C 343 1416 389 1432 438 1443 C 487 1454 539 1460 594 1460 C 672 1460 743 1451 807 1434 C 871 1416 927 1391 973 1357 C 1019 1323 1054 1282 1080 1233 C 1105 1184 1118 1128 1118 1065 C 1118 1006 1107 956 1087 915 C 1067 873 1041 837 1010 807 C 979 776 945 749 909 726 C 873 703 839 681 807 659 C 775 637 749 615 727 591 C 705 567 692 540 690 508 L 686 463 L 408 463 Z M 369 309 L 729 309 L 729 0 L 369 0 L 369 309 Z" unicode="?" />
<glyph horiz-adv-x="1663" d="M 111 586 C 111 654 119 719 137 783 C 155 846 180 905 212 960 C 244 1015 282 1065 327 1111 C 372 1156 422 1195 477 1227 C 532 1259 591 1284 654 1302 C 717 1320 783 1329 852 1329 C 950 1329 1041 1311 1127 1276 C 1212 1241 1286 1193 1350 1132 C 1413 1071 1463 999 1499 917 C 1535 834 1554 745 1554 651 C 1554 595 1547 545 1535 500 C 1522 454 1505 414 1484 379 C 1462 343 1438 313 1410 287 C 1382 261 1352 239 1321 222 C 1289 205 1257 192 1225 184 C 1193 176 1162 172 1133 172 C 1097 172 1066 175 1039 182 C 1012 189 989 199 969 211 C 949 223 932 238 919 254 C 905 270 895 287 887 305 C 860 276 829 251 793 231 C 757 211 716 201 668 201 C 636 201 606 207 578 220 C 550 233 525 252 503 276 C 481 300 464 329 451 364 C 438 399 432 439 432 483 C 432 519 435 556 442 594 C 449 632 459 669 473 705 C 487 741 504 776 525 808 C 545 840 569 869 597 893 C 625 917 656 937 691 951 C 726 965 765 973 807 973 C 851 973 888 963 919 943 C 949 923 973 899 991 870 L 1030 952 L 1251 952 L 1114 469 C 1098 414 1098 374 1112 349 C 1126 323 1152 311 1190 311 C 1214 311 1241 318 1269 332 C 1297 346 1324 367 1348 395 C 1372 423 1392 459 1408 502 C 1424 544 1432 594 1432 651 C 1432 703 1425 752 1411 800 C 1397 848 1378 892 1353 933 C 1328 974 1298 1011 1263 1045 C 1228 1079 1189 1107 1147 1131 C 1104 1155 1058 1173 1008 1186 C 958 1199 907 1206 854 1206 C 797 1206 742 1198 690 1184 C 637 1169 588 1148 542 1121 C 496 1094 455 1062 417 1024 C 379 986 347 945 320 899 C 293 853 272 803 258 750 C 243 697 236 642 236 586 C 236 529 243 474 258 422 C 272 369 293 320 320 274 C 347 228 379 187 417 150 C 455 112 496 80 542 53 C 588 26 637 5 690 -9 C 742 -23 797 -31 854 -31 C 918 -31 980 -21 1039 -2 C 1097 17 1152 44 1202 78 L 1272 -25 C 1211 -67 1145 -99 1075 -122 C 1005 -144 930 -156 852 -156 C 784 -156 718 -147 655 -129 C 591 -111 532 -86 477 -54 C 422 -22 372 16 327 61 C 282 106 244 156 212 211 C 180 266 155 325 137 388 C 119 451 111 517 111 586 Z M 684 498 C 684 464 690 437 704 419 C 717 400 736 391 762 391 C 788 391 812 401 834 421 C 856 441 872 470 883 508 L 944 735 C 936 745 924 755 910 764 C 895 773 876 778 854 778 C 827 778 803 768 782 750 C 761 732 743 709 729 681 C 714 653 703 622 695 590 C 687 557 684 526 684 498 Z" unicode="@" />
<glyph horiz-adv-x="1473" d="M 516 1434 L 956 1434 L 1456 0 L 1032 0 L 967 213 L 504 213 L 440 0 L 14 0 L 516 1434 Z M 592 506 L 879 506 L 737 975 L 733 975 L 592 506 Z" unicode="A" />
<glyph horiz-adv-x="1391" d="M 115 1434 L 748 1434 C 838 1434 916 1424 982 1406 C 1048 1388 1102 1362 1146 1328 C 1189 1294 1221 1253 1242 1205 C 1263 1157 1274 1105 1274 1047 C 1274 971 1255 909 1217 861 C 1179 812 1127 772 1059 741 C 1096 729 1131 713 1163 694 C 1195 675 1224 652 1248 625 C 1272 598 1290 567 1304 532 C 1318 496 1325 456 1325 412 C 1325 345 1311 286 1285 235 C 1258 183 1220 140 1171 106 C 1122 71 1063 45 995 27 C 926 9 850 0 766 0 L 115 0 L 115 1434 Z M 754 307 C 808 307 851 319 884 343 C 917 367 934 404 934 455 C 934 479 929 501 921 519 C 912 537 900 553 884 565 C 868 577 849 587 827 593 C 805 599 780 602 754 602 L 508 602 L 508 307 L 754 307 Z M 709 848 C 762 848 803 860 833 884 C 862 908 877 943 877 989 C 877 1033 862 1066 833 1090 C 803 1114 762 1126 709 1126 L 508 1126 L 508 848 L 709 848 Z" unicode="B" />
<glyph horiz-adv-x="1436" d="M 66 719 C 66 789 74 855 91 919 C 108 983 132 1042 164 1097 C 196 1152 234 1202 280 1247 C 325 1291 376 1329 432 1361 C 488 1393 550 1417 616 1434 C 682 1451 753 1460 827 1460 C 935 1460 1034 1443 1124 1409 C 1214 1375 1298 1326 1376 1262 L 1159 997 C 1137 1015 1115 1032 1093 1048 C 1070 1064 1046 1077 1020 1089 C 994 1101 965 1110 935 1117 C 905 1124 872 1128 836 1128 C 778 1128 727 1118 681 1099 C 635 1079 596 1052 564 1017 C 531 981 506 938 489 888 C 471 838 463 781 463 719 C 463 655 471 598 488 547 C 505 496 530 453 562 417 C 594 381 634 353 680 334 C 726 314 778 305 836 305 C 905 305 966 317 1019 342 C 1071 367 1119 400 1161 442 L 1391 201 C 1311 127 1224 70 1130 31 C 1036 -7 931 -27 813 -27 C 702 -27 601 -8 509 29 C 417 67 339 119 273 186 C 207 252 156 331 120 422 C 84 513 66 612 66 719 Z" unicode="C" />
<glyph horiz-adv-x="1487" d="M 115 1434 L 623 1434 C 753 1434 869 1418 969 1386 C 1069 1354 1152 1308 1219 1248 C 1286 1187 1337 1113 1371 1026 C 1405 938 1423 839 1423 727 C 1423 611 1406 509 1374 419 C 1342 329 1293 253 1227 191 C 1161 129 1077 81 977 49 C 877 16 759 0 623 0 L 115 0 L 115 1434 Z M 659 313 C 720 313 774 322 820 341 C 866 360 904 387 934 423 C 964 459 987 502 1003 552 C 1018 602 1026 659 1026 723 C 1026 783 1018 838 1002 887 C 986 935 962 977 931 1012 C 899 1046 861 1073 815 1092 C 769 1110 717 1120 659 1120 L 510 1120 L 510 313 L 659 313 Z" unicode="D" />
<glyph horiz-adv-x="1292" d="M 115 1434 L 1196 1434 L 1196 1094 L 510 1094 L 510 874 L 1116 874 L 1116 580 L 510 580 L 510 340 L 1202 340 L 1202 0 L 115 0 L 115 1434 Z" unicode="E" />
<glyph horiz-adv-x="1268" d="M 115 1434 L 1180 1434 L 1180 1094 L 512 1094 L 512 848 L 1087 848 L 1087 530 L 512 530 L 512 0 L 115 0 L 115 1434 Z" unicode="F" />
<glyph horiz-adv-x="1501" d="M 66 719 C 66 786 73 851 89 914 C 105 977 128 1036 158 1091 C 188 1145 225 1195 269 1241 C 313 1286 363 1325 419 1357 C 475 1389 538 1415 606 1433 C 674 1451 748 1460 827 1460 C 887 1460 943 1455 995 1445 C 1047 1435 1095 1421 1141 1403 C 1186 1385 1229 1365 1269 1341 C 1309 1317 1348 1290 1384 1262 L 1176 1006 C 1129 1040 1078 1069 1024 1093 C 970 1116 909 1128 842 1128 C 783 1128 730 1117 684 1096 C 637 1075 597 1046 565 1010 C 533 973 508 929 491 879 C 473 829 465 775 465 717 C 465 653 473 596 490 546 C 507 495 532 452 564 416 C 596 380 636 353 683 334 C 729 314 782 305 842 305 C 882 305 918 309 950 317 C 982 325 1013 338 1042 354 L 1042 571 L 764 571 L 764 819 L 1397 819 L 1397 154 C 1322 98 1237 53 1142 21 C 1047 -10 941 -27 825 -27 C 709 -27 604 -8 511 29 C 417 67 338 119 272 185 C 206 251 155 330 119 421 C 83 512 66 611 66 719 Z" unicode="G" />
<glyph horiz-adv-x="1470" d="M 115 1434 L 512 1434 L 512 893 L 961 893 L 961 1434 L 1356 1434 L 1356 0 L 961 0 L 961 559 L 512 559 L 512 0 L 115 0 L 115 1434 Z" unicode="H" />
<glyph horiz-adv-x="627" d="M 115 1434 L 512 1434 L 512 0 L 115 0 L 115 1434 Z" unicode="I" />
<glyph horiz-adv-x="1155" d="M 326 444 C 352 407 381 377 411 354 C 441 330 476 319 514 319 C 554 319 587 332 613 359 C 639 386 653 425 653 477 L 653 1434 L 1049 1434 L 1049 469 C 1049 385 1036 311 1011 249 C 985 187 950 135 905 94 C 860 53 807 23 745 3 C 683 -17 615 -27 543 -27 C 437 -27 342 -4 258 40 C 174 85 101 154 39 248 L 326 444 Z" unicode="J" />
<glyph horiz-adv-x="1452" d="M 115 1434 L 512 1434 L 512 834 L 975 1434 L 1399 1434 L 973 911 L 1438 0 L 999 0 L 721 600 L 512 342 L 512 0 L 115 0 L 115 1434 Z" unicode="K" />
<glyph horiz-adv-x="1221" d="M 115 1434 L 512 1434 L 512 338 L 1161 338 L 1161 0 L 115 0 L 115 1434 Z" unicode="L" />
<glyph horiz-adv-x="1776" d="M 115 1434 L 510 1434 L 889 901 L 1270 1434 L 1659 1434 L 1659 0 L 1288 0 L 1288 889 L 889 344 L 489 889 L 489 0 L 115 0 L 115 1434 Z" unicode="M" />
<glyph horiz-adv-x="1513" d="M 115 1434 L 489 1434 L 1026 618 L 1026 1434 L 1399 1434 L 1399 0 L 1026 0 L 487 811 L 487 0 L 115 0 L 115 1434 Z" unicode="N" />
<glyph horiz-adv-x="1647" d="M 66 717 C 66 819 83 915 119 1005 C 155 1095 205 1174 271 1242 C 337 1309 416 1362 510 1401 C 603 1440 707 1460 823 1460 C 939 1460 1043 1440 1137 1401 C 1230 1362 1309 1309 1375 1242 C 1441 1174 1491 1095 1527 1005 C 1563 915 1581 819 1581 717 C 1581 614 1563 517 1528 427 C 1492 337 1442 258 1376 191 C 1310 123 1231 70 1137 31 C 1043 -7 939 -27 823 -27 C 707 -27 602 -7 509 31 C 415 70 336 123 270 191 C 204 258 154 337 119 427 C 83 517 66 614 66 717 Z M 467 717 C 467 657 475 602 491 552 C 507 502 530 458 560 421 C 590 384 628 355 672 334 C 716 313 767 303 823 303 C 879 303 930 313 975 334 C 1019 355 1057 384 1088 421 C 1118 458 1142 502 1158 552 C 1174 602 1182 657 1182 717 C 1182 775 1174 830 1158 880 C 1142 930 1118 974 1088 1011 C 1058 1048 1020 1077 976 1098 C 931 1119 880 1130 823 1130 C 766 1130 715 1119 671 1098 C 627 1077 589 1048 559 1011 C 529 974 506 930 490 880 C 474 830 467 775 467 717 Z" unicode="O" />
<glyph horiz-adv-x="1411" d="M 115 1434 L 737 1434 C 847 1434 940 1420 1016 1394 C 1091 1368 1152 1333 1198 1289 C 1244 1245 1277 1194 1297 1138 C 1317 1081 1327 1023 1327 963 C 1327 901 1317 842 1297 785 C 1277 728 1244 677 1198 633 C 1152 589 1091 553 1017 527 C 942 500 850 487 741 487 L 512 487 L 512 0 L 115 0 L 115 1434 Z M 737 786 C 799 786 847 800 881 830 C 915 860 932 902 932 956 C 932 1012 914 1055 879 1083 C 844 1111 797 1126 737 1126 L 512 1126 L 512 786 L 737 786 Z" unicode="P" />
<glyph horiz-adv-x="1651" d="M 66 717 C 66 819 83 915 119 1005 C 155 1095 205 1174 271 1242 C 337 1309 416 1362 510 1401 C 603 1440 707 1460 823 1460 C 939 1460 1043 1440 1137 1401 C 1230 1362 1309 1309 1375 1242 C 1441 1174 1491 1095 1527 1005 C 1563 915 1581 819 1581 717 C 1581 630 1568 548 1544 471 C 1519 394 1483 324 1436 262 L 1587 135 L 1401 -61 L 1239 82 C 1181 46 1117 19 1048 1 C 978 -17 903 -27 823 -27 C 707 -27 602 -7 509 31 C 415 70 336 123 270 191 C 204 258 154 337 119 427 C 83 517 66 614 66 717 Z M 946 684 L 1141 508 C 1154 538 1164 571 1171 606 C 1178 640 1182 677 1182 717 C 1182 775 1174 830 1158 880 C 1142 930 1118 974 1088 1011 C 1058 1048 1020 1077 976 1098 C 931 1119 880 1130 823 1130 C 766 1130 715 1119 671 1098 C 627 1077 589 1048 559 1011 C 529 974 506 930 490 880 C 474 830 467 775 467 717 C 467 657 475 602 491 552 C 507 502 530 458 560 421 C 590 384 628 355 672 334 C 716 313 767 303 823 303 C 851 303 877 305 903 310 C 928 315 951 323 973 334 L 780 500 L 946 684 Z" unicode="Q" />
<glyph horiz-adv-x="1446" d="M 115 1434 L 760 1434 C 870 1434 962 1420 1037 1394 C 1112 1368 1173 1333 1219 1289 C 1265 1245 1298 1194 1318 1138 C 1338 1081 1348 1023 1348 963 C 1348 921 1343 882 1334 844 C 1324 806 1310 770 1290 736 C 1270 702 1244 672 1214 644 C 1184 616 1148 593 1106 573 L 1362 0 L 942 0 L 754 508 L 512 508 L 512 0 L 115 0 L 115 1434 Z M 756 786 C 816 786 864 800 898 829 C 932 858 950 900 950 956 C 950 1013 932 1056 896 1084 C 860 1112 814 1126 756 1126 L 512 1126 L 512 786 L 756 786 Z" unicode="R" />
<glyph horiz-adv-x="1303" d="M 242 444 C 274 426 307 409 342 393 C 377 377 412 364 447 353 C 482 341 517 332 551 326 C 585 320 619 317 651 317 C 703 317 744 326 774 344 C 804 362 819 386 819 418 C 819 442 808 461 787 476 C 766 491 738 504 704 516 C 670 527 631 538 587 548 C 543 558 499 571 453 585 C 407 599 363 617 319 638 C 275 659 236 686 202 719 C 168 752 140 793 119 841 C 98 889 88 946 88 1014 C 88 1074 100 1132 125 1186 C 149 1240 185 1287 232 1328 C 278 1368 335 1400 403 1424 C 471 1448 548 1460 635 1460 C 727 1460 817 1448 905 1426 C 992 1403 1082 1371 1174 1329 L 1030 1024 C 960 1059 894 1083 832 1097 C 770 1111 711 1118 655 1118 C 605 1118 566 1108 539 1089 C 511 1070 498 1046 498 1018 C 498 994 508 975 529 961 C 550 946 578 933 612 922 C 646 911 685 901 729 891 C 773 881 817 869 863 855 C 909 841 953 823 997 802 C 1041 781 1080 754 1114 721 C 1148 687 1176 647 1197 599 C 1218 551 1229 492 1229 424 C 1229 360 1217 301 1193 247 C 1169 192 1133 144 1085 104 C 1037 63 977 31 905 8 C 833 -15 749 -27 653 -27 C 598 -27 543 -22 487 -13 C 431 -4 376 7 324 23 C 272 38 222 56 176 76 C 130 96 89 117 55 139 L 242 444 Z" unicode="S" />
<glyph horiz-adv-x="1376" d="M 492 1085 L 45 1085 L 45 1434 L 1331 1434 L 1331 1085 L 885 1085 L 885 0 L 492 0 L 492 1085 Z" unicode="T" />
<glyph horiz-adv-x="1479" d="M 109 1434 L 508 1434 L 508 553 C 508 515 513 481 523 451 C 533 421 548 395 568 374 C 588 352 612 336 641 324 C 669 312 702 307 739 307 C 775 307 808 312 837 324 C 866 336 891 352 911 374 C 931 395 946 421 957 451 C 967 481 973 515 973 553 L 973 1434 L 1370 1434 L 1370 555 C 1370 456 1354 370 1324 297 C 1294 224 1251 164 1196 116 C 1141 68 1075 32 997 8 C 919 -15 833 -27 739 -27 C 645 -27 559 -15 481 8 C 403 32 337 68 282 116 C 227 164 184 224 154 297 C 124 370 109 456 109 555 L 109 1434 Z" unicode="U" />
<glyph horiz-adv-x="1464" d="M 14 1434 L 440 1434 L 729 467 L 733 467 L 1024 1434 L 1450 1434 L 950 0 L 514 0 L 14 1434 Z" unicode="V" />
<glyph horiz-adv-x="2257" d="M 31 1434 L 442 1434 L 698 571 L 702 571 L 952 1434 L 1307 1434 L 1556 571 L 1561 571 L 1819 1434 L 2228 1434 L 1778 0 L 1384 0 L 1133 868 L 1128 868 L 872 0 L 481 0 L 31 1434 Z" unicode="W" />
<glyph horiz-adv-x="1501" d="M 498 729 L 39 1434 L 514 1434 L 760 1040 L 1001 1434 L 1466 1434 L 1006 729 L 1475 0 L 1004 0 L 748 422 L 489 0 L 27 0 L 498 729 Z" unicode="X" />
<glyph horiz-adv-x="1475" d="M 537 571 L 6 1434 L 457 1434 L 737 967 L 741 967 L 1020 1434 L 1468 1434 L 938 571 L 938 0 L 537 0 L 537 571 Z" unicode="Y" />
<glyph horiz-adv-x="1335" d="M 78 287 L 723 1081 L 76 1081 L 76 1434 L 1245 1434 L 1245 1143 L 608 352 L 1274 352 L 1274 0 L 78 0 L 78 287 Z" unicode="Z" />
<glyph horiz-adv-x="946" d="M 848 -147 L 848 -410 L 141 -410 L 141 1546 L 848 1546 L 848 1288 L 524 1288 L 524 -147 L 848 -147 Z" unicode="[" />
<glyph horiz-adv-x="1202" d="M 1227 -410 L 877 -410 L -25 1546 L 326 1546 L 1227 -410 Z" unicode="\" />
<glyph horiz-adv-x="946" d="M 422 -147 L 422 1288 L 98 1288 L 98 1546 L 805 1546 L 805 -410 L 98 -410 L 98 -147 L 422 -147 Z" unicode="]" />
<glyph horiz-adv-x="1286" d="M 459 1540 L 831 1540 L 1130 1151 L 793 1151 L 645 1309 L 494 1151 L 156 1151 L 459 1540 Z" unicode="^" />
<glyph horiz-adv-x="1137" d="M 1137 -27 L 1137 -342 L 0 -342 L 0 -27 L 1137 -27 Z" unicode="_" />
<glyph horiz-adv-x="1124" d="M 324 1466 L 578 1620 L 803 1233 L 573 1233 L 324 1466 Z" unicode="`" />
<glyph horiz-adv-x="1204" d="M 66 270 C 66 322 76 372 98 418 C 119 464 154 505 204 541 C 254 577 319 607 400 632 C 481 657 582 675 702 686 L 702 748 C 702 782 691 808 671 825 C 650 841 620 850 582 850 C 556 850 531 847 505 843 C 479 838 451 831 422 822 C 393 812 362 800 329 786 C 295 772 259 755 219 737 L 90 1008 C 176 1052 263 1086 351 1110 C 439 1134 522 1147 602 1147 C 688 1147 762 1137 823 1117 C 884 1097 934 1069 973 1033 C 1011 997 1039 953 1057 902 C 1074 851 1083 795 1083 733 L 1083 313 C 1083 290 1089 273 1103 262 C 1117 251 1135 246 1159 246 L 1159 -6 C 1099 -6 1047 -4 1003 0 C 959 3 920 10 888 21 C 856 31 828 46 805 64 C 781 82 760 107 741 137 C 717 109 692 85 667 65 C 642 44 616 27 588 13 C 560 0 529 -10 497 -17 C 465 -23 429 -27 391 -27 C 343 -27 300 -19 260 -5 C 220 8 186 29 158 55 C 129 81 106 112 90 148 C 74 184 66 225 66 270 Z M 446 328 C 446 302 455 280 473 262 C 491 244 515 236 547 236 C 579 236 609 243 636 257 C 662 271 684 289 702 311 L 702 494 C 664 491 630 486 599 478 C 567 470 540 459 518 446 C 495 432 477 416 465 396 C 452 376 446 354 446 328 Z" unicode="a" />
<glyph horiz-adv-x="1266" d="M 102 1546 L 489 1546 L 489 1004 C 527 1049 572 1084 624 1108 C 676 1132 731 1145 788 1145 C 850 1145 907 1133 959 1109 C 1010 1085 1054 1050 1091 1002 C 1127 954 1156 895 1176 823 C 1196 751 1206 666 1206 569 C 1206 471 1195 385 1175 311 C 1154 237 1125 175 1089 125 C 1053 75 1010 38 961 14 C 911 -10 858 -23 801 -23 C 763 -23 729 -19 698 -12 C 666 -5 637 4 610 17 C 583 30 558 46 534 64 C 510 82 488 102 467 125 L 442 0 L 102 0 L 102 1546 Z M 489 338 C 515 311 541 291 568 279 C 594 266 625 260 659 260 C 688 260 713 267 734 283 C 755 299 772 320 786 348 C 799 376 809 408 815 446 C 821 484 825 525 825 569 C 825 662 812 734 786 784 C 760 834 717 860 659 860 C 625 860 594 852 566 837 C 538 822 513 802 489 778 L 489 338 Z" unicode="b" />
<glyph horiz-adv-x="1087" d="M 55 563 C 55 654 70 736 100 808 C 130 880 171 942 224 992 C 277 1042 340 1080 412 1107 C 484 1133 563 1147 647 1147 C 677 1147 710 1144 744 1139 C 778 1134 812 1126 847 1115 C 882 1103 917 1088 953 1070 C 988 1051 1023 1028 1057 1001 L 868 762 C 838 786 806 806 772 820 C 738 834 702 842 662 842 C 634 842 607 836 581 825 C 555 814 531 797 511 774 C 491 751 474 722 462 687 C 450 652 444 611 444 563 C 444 515 450 473 462 437 C 474 401 490 372 510 349 C 530 325 554 308 580 296 C 606 284 634 279 662 279 C 702 279 738 285 769 299 C 799 312 830 330 860 354 L 1063 141 C 1000 83 934 41 866 14 C 797 -13 724 -27 647 -27 C 564 -27 487 -13 415 13 C 343 39 280 78 227 129 C 173 179 131 241 101 314 C 70 387 55 470 55 563 Z" unicode="c" />
<glyph horiz-adv-x="1266" d="M 467 -23 C 409 -23 356 -10 306 14 C 256 38 213 75 177 125 C 140 175 111 237 90 311 C 69 385 59 471 59 569 C 59 666 69 751 89 823 C 109 895 138 954 175 1002 C 212 1050 256 1085 308 1109 C 359 1133 416 1145 479 1145 C 535 1145 590 1132 643 1108 C 696 1084 741 1049 778 1004 L 778 1546 L 1163 1546 L 1163 0 L 825 0 L 803 125 C 759 79 710 43 657 17 C 603 -9 540 -23 467 -23 Z M 606 260 C 672 260 730 286 778 338 L 778 778 C 755 802 729 822 701 837 C 673 852 641 860 606 860 C 548 860 506 834 480 784 C 453 734 440 662 440 569 C 440 525 443 484 450 446 C 456 408 466 376 480 348 C 494 320 511 299 532 283 C 552 267 577 260 606 260 Z" unicode="d" />
<glyph horiz-adv-x="1223" d="M 59 563 C 59 655 74 737 105 809 C 136 881 178 943 231 993 C 283 1043 344 1081 414 1107 C 484 1133 557 1147 635 1147 C 715 1147 788 1135 853 1111 C 918 1087 974 1052 1020 1008 C 1066 964 1101 910 1126 848 C 1150 785 1163 715 1163 637 C 1163 609 1161 580 1159 550 C 1156 520 1153 494 1149 473 L 451 473 C 461 403 483 352 519 320 C 555 288 605 272 670 272 C 723 272 775 279 825 295 C 875 310 923 332 971 360 L 1126 129 C 1052 74 973 34 891 10 C 808 -14 722 -27 633 -27 C 553 -27 478 -13 408 12 C 338 38 278 77 226 127 C 174 177 133 239 103 312 C 73 385 59 469 59 563 Z M 647 881 C 624 881 602 876 582 868 C 562 860 543 847 526 830 C 509 813 494 791 482 765 C 470 739 461 708 455 672 L 805 672 C 805 702 802 729 796 755 C 790 780 780 802 768 821 C 755 839 739 854 719 865 C 699 875 675 881 647 881 Z" unicode="e" />
<glyph horiz-adv-x="885" d="M 186 846 L 25 846 L 25 1098 L 186 1098 L 186 1141 C 186 1221 198 1288 222 1343 C 246 1397 280 1441 323 1475 C 365 1509 416 1533 474 1547 C 532 1561 596 1569 664 1569 C 688 1569 712 1567 738 1564 C 764 1561 789 1557 815 1552 C 841 1546 866 1540 891 1533 C 915 1525 939 1517 961 1509 L 872 1257 C 844 1266 817 1274 791 1280 C 764 1286 732 1290 694 1290 C 648 1290 616 1277 597 1252 C 578 1226 569 1192 569 1149 L 569 1098 L 831 1098 L 831 846 L 569 846 L 569 0 L 186 0 L 186 846 Z" unicode="f" />
<glyph horiz-adv-x="1245" d="M 12 -139 C 12 -89 24 -46 50 -10 C 75 26 113 57 164 84 C 141 109 125 135 115 162 C 105 189 100 216 100 242 C 100 280 110 315 130 349 C 150 383 179 411 219 434 C 171 469 132 512 103 563 C 73 613 59 673 59 741 C 59 801 71 857 97 907 C 122 957 157 999 201 1035 C 245 1071 298 1098 359 1118 C 420 1137 487 1147 559 1147 C 623 1147 683 1138 739 1122 C 794 1106 843 1083 887 1053 C 926 1079 972 1101 1024 1118 C 1076 1134 1140 1143 1214 1143 L 1214 915 C 1178 915 1144 913 1112 910 C 1080 907 1050 902 1020 895 C 1030 872 1038 848 1044 822 C 1050 796 1053 769 1053 741 C 1053 675 1039 617 1011 567 C 983 516 947 473 901 439 C 855 404 802 378 743 360 C 683 342 622 334 559 334 C 503 334 451 340 401 352 C 381 340 371 323 371 303 C 371 291 374 282 382 274 C 390 266 403 260 423 255 C 442 250 469 246 503 243 C 537 240 580 238 633 238 C 813 233 950 204 1043 151 C 1135 98 1182 16 1182 -94 C 1182 -148 1170 -195 1146 -237 C 1122 -279 1086 -314 1038 -342 C 989 -370 927 -392 853 -407 C 778 -422 690 -430 588 -430 C 500 -430 420 -424 349 -412 C 278 -400 218 -383 168 -359 C 118 -335 79 -304 52 -268 C 25 -232 12 -189 12 -139 Z M 559 573 C 602 573 636 588 660 618 C 684 648 696 689 696 739 C 696 791 684 832 660 863 C 636 893 602 909 559 909 C 517 909 484 893 459 863 C 434 832 422 791 422 739 C 422 689 434 648 459 618 C 484 588 517 573 559 573 Z M 606 -61 C 566 -59 530 -57 497 -53 C 463 -49 432 -45 403 -39 C 389 -50 379 -63 372 -78 C 365 -93 362 -110 362 -129 C 362 -143 365 -155 373 -166 C 381 -177 393 -186 411 -193 C 429 -200 452 -205 481 -209 C 509 -213 545 -215 588 -215 C 634 -215 672 -213 704 -210 C 736 -207 762 -203 782 -197 C 802 -191 816 -183 825 -173 C 833 -163 838 -152 838 -139 C 838 -125 835 -114 829 -105 C 823 -95 811 -88 794 -82 C 777 -76 753 -71 723 -68 C 693 -64 654 -62 606 -61 Z" unicode="g" />
<glyph horiz-adv-x="1253" d="M 102 1546 L 489 1546 L 489 999 C 508 1018 529 1036 553 1054 C 576 1072 601 1087 628 1101 C 655 1114 684 1125 714 1133 C 744 1141 775 1145 809 1145 C 872 1145 926 1136 970 1118 C 1014 1100 1051 1073 1079 1039 C 1107 1004 1127 961 1140 911 C 1152 860 1159 802 1159 737 L 1159 0 L 774 0 L 774 748 C 774 784 765 814 749 836 C 732 858 704 870 666 870 C 634 870 602 861 572 844 C 542 826 514 801 489 768 L 489 0 L 102 0 L 102 1546 Z" unicode="h" />
<glyph horiz-adv-x="592" d="M 102 1098 L 489 1098 L 489 0 L 102 0 L 102 1098 Z M 102 1542 L 489 1542 L 489 1245 L 102 1245 L 102 1542 Z" unicode="i" />
<glyph horiz-adv-x="621" d="M 131 1098 L 516 1098 L 516 20 C 516 -280 375 -430 94 -430 C 37 -430 -13 -424 -59 -413 C -105 -402 -147 -390 -186 -377 L -96 -106 C -75 -112 -54 -117 -34 -121 C -14 -125 6 -127 27 -127 C 59 -127 85 -118 103 -100 C 121 -82 131 -51 131 -6 L 131 1098 Z M 131 1542 L 516 1542 L 516 1243 L 131 1243 L 131 1542 Z" unicode="j" />
<glyph horiz-adv-x="1262" d="M 102 1546 L 489 1546 L 489 670 L 856 1120 L 1239 1120 L 893 719 L 1251 0 L 821 0 L 641 424 L 489 248 L 489 0 L 102 0 L 102 1546 Z" unicode="k" />
<glyph horiz-adv-x="596" d="M 104 1546 L 492 1546 L 492 0 L 104 0 L 104 1546 Z" unicode="l" />
<glyph horiz-adv-x="1866" d="M 100 1120 L 469 1120 L 483 1012 C 504 1031 527 1049 553 1066 C 579 1082 605 1097 632 1109 C 659 1121 686 1130 714 1137 C 742 1143 769 1147 795 1147 C 868 1147 927 1133 973 1106 C 1019 1079 1053 1042 1077 995 C 1133 1045 1189 1083 1245 1109 C 1301 1134 1363 1147 1430 1147 C 1488 1147 1538 1137 1580 1119 C 1622 1101 1658 1074 1686 1040 C 1714 1005 1734 963 1748 913 C 1762 863 1769 807 1769 745 L 1769 0 L 1384 0 L 1384 756 C 1384 832 1353 870 1292 870 C 1264 870 1236 862 1208 847 C 1180 831 1153 809 1126 780 C 1126 768 1126 757 1127 745 C 1127 733 1128 721 1128 709 L 1128 0 L 743 0 L 743 756 C 743 795 735 824 720 842 C 705 860 682 870 651 870 C 622 870 592 861 562 843 C 531 825 505 802 485 772 L 485 0 L 100 0 L 100 1120 Z" unicode="m" />
<glyph horiz-adv-x="1251" d="M 100 1120 L 467 1120 L 483 999 C 502 1018 523 1037 547 1055 C 571 1073 596 1088 624 1102 C 651 1116 680 1127 711 1135 C 741 1143 773 1147 807 1147 C 870 1147 924 1138 968 1120 C 1012 1102 1049 1075 1077 1040 C 1105 1005 1125 962 1138 911 C 1150 860 1157 802 1157 737 L 1157 0 L 772 0 L 772 748 C 772 784 763 814 747 836 C 730 858 702 870 664 870 C 632 870 600 861 570 844 C 539 826 511 801 485 768 L 485 0 L 100 0 L 100 1120 Z" unicode="n" />
<glyph horiz-adv-x="1272" d="M 59 569 C 59 655 73 733 103 804 C 132 875 172 936 224 987 C 276 1037 337 1077 407 1105 C 477 1133 554 1147 637 1147 C 719 1147 795 1133 865 1105 C 935 1077 995 1037 1047 987 C 1099 936 1139 875 1168 804 C 1197 733 1212 655 1212 569 C 1212 477 1198 394 1170 320 C 1142 246 1102 184 1052 133 C 1002 81 941 42 871 14 C 800 -13 722 -27 637 -27 C 550 -27 471 -13 400 14 C 329 42 268 81 218 133 C 167 184 128 246 100 320 C 72 394 59 477 59 569 Z M 446 567 C 446 519 450 475 458 437 C 466 398 478 365 494 337 C 510 309 529 288 553 274 C 577 259 605 252 637 252 C 668 252 695 259 719 274 C 742 288 761 309 777 337 C 793 365 805 398 813 437 C 821 475 825 519 825 567 C 825 613 820 654 812 691 C 803 728 791 760 775 786 C 759 812 739 832 716 846 C 692 860 666 868 637 868 C 607 868 580 860 557 846 C 533 832 513 812 497 786 C 480 760 467 728 459 691 C 450 654 446 613 446 567 Z" unicode="o" />
<glyph horiz-adv-x="1264" d="M 483 -410 L 102 -410 L 102 1120 L 451 1120 L 479 987 C 518 1037 563 1075 615 1103 C 666 1131 722 1145 784 1145 C 846 1145 903 1133 955 1109 C 1006 1085 1050 1050 1087 1002 C 1124 954 1153 895 1173 823 C 1193 751 1204 666 1204 569 C 1204 471 1193 385 1172 311 C 1151 237 1122 175 1086 125 C 1050 75 1007 38 958 14 C 908 -10 855 -23 799 -23 C 731 -23 671 -11 621 13 C 570 37 524 69 483 109 L 483 -410 Z M 483 338 C 509 311 535 291 563 279 C 590 266 621 260 655 260 C 684 260 709 267 730 283 C 751 299 768 320 782 348 C 796 376 806 408 813 446 C 819 484 823 525 823 569 C 823 662 809 734 783 784 C 756 834 713 860 655 860 C 620 860 588 852 560 837 C 532 822 506 802 483 778 L 483 338 Z" unicode="p" />
<glyph horiz-adv-x="1266" d="M 610 260 C 644 260 674 266 702 279 C 730 291 756 311 782 338 L 782 778 C 757 802 731 822 704 837 C 676 852 645 860 610 860 C 552 860 509 834 481 784 C 453 733 440 661 440 569 C 440 525 443 484 450 446 C 456 408 467 376 481 348 C 495 320 512 299 534 283 C 555 267 580 260 610 260 Z M 467 -23 C 409 -23 356 -10 306 14 C 256 38 213 75 177 125 C 140 175 111 237 90 311 C 69 385 59 471 59 569 C 59 666 69 751 89 823 C 109 895 138 954 175 1002 C 212 1050 256 1085 308 1109 C 359 1133 416 1145 479 1145 C 541 1145 598 1131 650 1103 C 702 1075 747 1037 786 987 L 815 1120 L 1163 1120 L 1163 -410 L 782 -410 L 782 109 C 740 69 694 37 644 13 C 594 -11 535 -23 467 -23 Z" unicode="q" />
<glyph horiz-adv-x="950" d="M 100 1120 L 461 1120 L 483 963 C 504 1001 527 1033 551 1058 C 575 1083 601 1103 627 1117 C 653 1131 681 1141 709 1147 C 737 1152 765 1155 795 1155 C 815 1155 836 1153 858 1151 C 879 1148 899 1144 918 1139 L 872 788 C 854 794 831 800 805 804 C 779 808 749 811 715 811 C 662 811 617 796 581 768 C 545 739 513 697 485 643 L 485 0 L 100 0 L 100 1120 Z" unicode="r" />
<glyph horiz-adv-x="1069" d="M 184 352 C 242 323 299 300 357 282 C 415 264 470 256 524 256 C 568 256 599 262 618 274 C 637 286 647 302 647 324 C 647 342 638 356 622 367 C 606 378 584 388 557 397 C 530 405 499 414 465 422 C 431 430 396 439 360 450 C 324 461 289 475 255 492 C 221 508 190 529 163 555 C 136 581 114 612 98 649 C 82 686 74 731 74 784 C 74 844 86 897 112 943 C 138 988 172 1026 216 1056 C 260 1086 310 1109 367 1124 C 423 1139 483 1147 545 1147 C 575 1147 606 1145 638 1142 C 670 1139 704 1134 740 1126 C 776 1118 813 1108 853 1095 C 892 1081 934 1064 979 1044 L 848 793 C 820 806 791 817 762 827 C 733 836 705 843 679 849 C 653 855 629 859 607 862 C 585 864 567 866 553 866 C 513 866 485 860 468 848 C 450 836 442 820 442 799 C 442 781 450 766 466 756 C 482 745 504 736 531 728 C 557 720 588 712 622 705 C 656 697 691 688 727 678 C 762 667 797 654 831 638 C 865 622 896 601 923 576 C 949 551 971 520 987 483 C 1003 446 1012 402 1012 350 C 1012 288 1000 234 976 188 C 952 141 918 102 876 70 C 833 38 782 13 724 -2 C 665 -18 601 -27 532 -27 C 445 -27 361 -16 281 4 C 201 24 123 54 49 92 L 184 352 Z" unicode="s" />
<glyph horiz-adv-x="950" d="M 186 862 L 25 862 L 25 1120 L 186 1120 L 186 1374 L 571 1374 L 571 1120 L 870 1120 L 870 862 L 571 862 L 571 383 C 571 347 577 320 591 304 C 605 287 627 279 657 279 C 682 279 706 283 730 292 C 753 301 774 312 793 326 L 928 104 C 877 64 820 32 756 8 C 692 -15 625 -27 555 -27 C 491 -27 436 -19 390 -3 C 344 12 305 36 275 69 C 245 102 222 144 208 194 C 193 244 186 305 186 375 L 186 862 Z" unicode="t" />
<glyph horiz-adv-x="1251" d="M 94 1120 L 479 1120 L 479 375 C 479 339 487 309 503 286 C 519 263 546 252 586 252 C 620 252 651 261 681 279 C 711 297 739 321 766 352 L 766 1120 L 1151 1120 L 1151 0 L 791 0 L 770 123 C 751 103 730 84 706 66 C 682 48 656 32 628 18 C 600 4 570 -7 539 -15 C 507 -23 476 -27 444 -27 C 381 -27 327 -18 283 0 C 239 18 203 44 175 79 C 147 114 126 157 113 209 C 100 260 94 319 94 385 L 94 1120 Z" unicode="u" />
<glyph horiz-adv-x="1147" d="M 16 1120 L 387 1120 L 580 414 L 584 414 L 776 1120 L 1130 1120 L 772 0 L 373 0 L 16 1120 Z" unicode="v" />
<glyph horiz-adv-x="1753" d="M 16 1120 L 383 1120 L 561 496 L 565 496 L 733 1120 L 1022 1120 L 1190 496 L 1194 496 L 1370 1120 L 1735 1120 L 1384 0 L 1051 0 L 877 584 L 872 584 L 700 0 L 367 0 L 16 1120 Z" unicode="w" />
<glyph horiz-adv-x="1153" d="M 358 569 L 20 1120 L 408 1120 L 575 827 L 743 1120 L 1130 1120 L 795 569 L 1135 0 L 762 0 L 575 311 L 391 0 L 16 0 L 358 569 Z" unicode="x" />
<glyph horiz-adv-x="1200" d="M 113 -96 C 138 -105 164 -113 190 -120 C 216 -127 241 -131 266 -131 C 285 -131 302 -129 317 -126 C 331 -123 344 -118 355 -110 C 366 -102 376 -91 384 -77 C 392 -63 399 -46 406 -25 L 424 20 L 18 1120 L 399 1120 L 606 467 L 610 467 L 817 1120 L 1184 1120 L 803 31 C 769 -61 734 -137 699 -197 C 664 -257 626 -304 586 -338 C 546 -372 502 -396 455 -410 C 407 -423 355 -430 297 -430 C 242 -430 191 -426 145 -418 C 99 -410 55 -399 14 -387 L 113 -96 L 113 -96 Z" unicode="y" />
<glyph horiz-adv-x="1094" d="M 74 244 L 547 840 L 88 840 L 88 1120 L 1008 1120 L 1008 868 L 547 281 L 1028 281 L 1028 0 L 74 0 L 74 244 Z" unicode="z" />
<glyph horiz-adv-x="1047" d="M 944 -143 L 944 -410 L 772 -410 C 614 -410 496 -379 417 -318 C 338 -256 299 -162 299 -35 L 299 268 C 299 294 297 315 293 332 C 289 348 281 362 271 372 C 261 382 247 389 230 393 C 212 397 190 399 164 399 L 55 399 L 55 735 L 164 735 C 190 735 212 737 230 741 C 247 745 261 751 271 761 C 281 771 289 784 293 801 C 297 818 299 840 299 866 L 299 1171 C 299 1297 338 1391 416 1453 C 494 1515 613 1546 772 1546 L 944 1546 L 944 1280 L 801 1280 C 779 1280 761 1278 746 1274 C 730 1270 718 1264 709 1255 C 699 1246 692 1234 688 1220 C 684 1205 682 1187 682 1165 L 682 872 C 682 838 678 805 672 774 C 666 743 654 714 637 688 C 619 662 596 638 566 618 C 536 597 497 580 451 567 L 451 565 C 497 551 536 533 566 512 C 596 491 619 468 637 442 C 654 416 666 387 672 357 C 678 326 682 294 682 260 L 682 -31 C 682 -52 684 -70 688 -84 C 692 -98 699 -110 709 -119 C 718 -127 730 -133 746 -137 C 761 -141 779 -143 801 -143 L 944 -143 Z" unicode="{" />
<glyph horiz-adv-x="690" d="M 172 1546 L 518 1546 L 518 -410 L 172 -410 L 172 1546 Z" unicode="|" />
<glyph horiz-adv-x="1047" d="M 246 -143 C 267 -143 285 -141 300 -137 C 315 -133 327 -127 337 -119 C 347 -110 354 -98 358 -84 C 362 -70 365 -52 365 -31 L 365 260 C 365 294 368 326 374 357 C 380 387 392 416 410 442 C 427 468 450 491 480 512 C 510 533 548 551 596 565 L 596 567 C 548 580 510 597 480 618 C 450 638 427 662 410 688 C 392 714 380 743 374 774 C 368 805 365 838 365 872 L 365 1165 C 365 1209 355 1239 337 1255 C 319 1271 288 1280 246 1280 L 102 1280 L 102 1546 L 274 1546 C 432 1546 551 1515 630 1453 C 708 1391 748 1297 748 1171 L 748 866 C 748 840 750 818 754 801 C 758 784 765 771 775 761 C 785 751 799 745 817 741 C 834 737 856 735 883 735 L 991 735 L 991 399 L 883 399 C 856 399 834 397 817 393 C 799 389 785 382 775 372 C 765 362 758 348 754 332 C 750 315 748 294 748 268 L 748 -35 C 748 -162 708 -256 629 -318 C 550 -379 432 -410 274 -410 L 102 -410 L 102 -143 L 246 -143 Z" unicode="}" />
<glyph horiz-adv-x="1200" d="M 121 371 C 119 380 119 389 119 398 C 119 407 119 416 119 424 C 119 477 125 526 137 570 C 149 614 168 653 192 685 C 216 717 247 741 283 759 C 319 777 360 786 408 786 C 452 786 491 779 524 765 C 557 751 587 736 615 720 C 643 704 669 689 694 675 C 719 661 746 655 774 655 C 802 655 822 664 833 682 C 844 700 850 726 850 758 L 1079 758 C 1080 749 1081 740 1081 731 C 1081 721 1081 713 1081 705 C 1081 651 1074 601 1062 557 C 1050 512 1032 474 1008 442 C 984 410 954 386 918 368 C 882 350 840 342 793 342 C 749 342 710 348 677 362 C 644 376 614 391 586 407 C 558 423 532 438 508 452 C 483 466 457 473 430 473 C 400 473 380 463 369 445 C 357 426 352 401 354 371 L 121 371 L 121 371 Z" unicode="~" />
<glyph horiz-adv-x="1843" d="M 354 702 L 1489 1376 L 1489 27 L 354 702 Z" unicode="◀" />
<glyph horiz-adv-x="1038" d="M 340 285 L 387 502 L 233 473 L 82 473 L 82 793 L 233 793 L 387 774 L 369 897 L 387 1022 L 233 1004 L 82 1004 L 82 1323 L 233 1323 L 387 1294 L 340 1509 L 340 1546 L 698 1546 L 698 1509 L 649 1296 L 803 1323 L 956 1323 L 956 1004 L 803 1004 L 649 1024 L 670 897 L 649 772 L 803 793 L 956 793 L 956 473 L 803 473 L 649 502 L 698 285 L 698 172 L 340 172 L 340 285 Z" unicode="‡" />
<glyph horiz-adv-x="2193" d="M 944 846 L 569 846 L 569 0 L 186 0 L 186 846 L 25 846 L 25 1098 L 186 1098 L 186 1122 C 186 1267 227 1375 310 1445 C 392 1515 512 1550 670 1550 C 750 1550 822 1541 886 1523 C 950 1505 1010 1482 1067 1454 C 1154 1529 1294 1567 1487 1567 C 1532 1567 1579 1564 1627 1558 C 1675 1552 1723 1543 1771 1532 C 1818 1521 1863 1508 1907 1492 C 1951 1476 1991 1458 2028 1438 L 1894 1196 C 1871 1208 1845 1219 1817 1230 C 1788 1241 1758 1251 1726 1260 C 1694 1269 1661 1276 1628 1282 C 1595 1287 1563 1290 1532 1290 C 1492 1290 1460 1286 1434 1280 C 1408 1273 1387 1263 1372 1249 C 1356 1235 1345 1217 1339 1195 C 1332 1173 1329 1148 1329 1118 L 1329 1096 L 1591 1096 L 1591 846 L 1329 846 L 1329 0 L 944 0 L 944 846 Z M 1706 1096 L 2089 1096 L 2089 20 C 2089 -280 1949 -430 1669 -430 C 1612 -430 1561 -424 1515 -413 C 1469 -402 1427 -390 1389 -377 L 1477 -106 C 1498 -112 1519 -117 1540 -121 C 1560 -125 1581 -127 1602 -127 C 1634 -127 1660 -118 1678 -100 C 1696 -82 1706 -51 1706 -6 L 1706 1096 Z M 569 1096 L 944 1096 L 944 1126 C 944 1144 944 1162 945 1180 C 946 1197 948 1214 952 1231 C 918 1247 882 1260 846 1269 C 810 1277 771 1282 729 1282 C 699 1282 673 1278 653 1271 C 633 1263 616 1253 604 1240 C 592 1226 583 1210 577 1192 C 571 1174 569 1154 569 1133 L 569 1096 Z" unicode="" />
<glyph horiz-adv-x="1278" d="M 70 211 L 1188 211 L 70 518 L 70 879 L 1196 1122 L 1196 799 L 655 694 L 1196 539 L 1196 0 L 70 0 L 70 211 Z" unicode="≤" />
<glyph horiz-adv-x="1679" d="M 504 436 C 522 436 539 439 557 446 C 574 453 591 463 607 475 C 623 487 637 500 651 516 C 664 531 676 547 686 563 C 676 579 664 595 651 610 C 637 625 623 638 607 650 C 591 661 574 670 557 677 C 539 684 522 688 504 688 C 488 688 474 685 460 680 C 446 674 434 666 424 656 C 413 645 404 632 398 617 C 392 601 389 583 389 563 C 389 541 392 523 398 507 C 404 491 413 478 424 468 C 434 457 446 449 460 444 C 474 438 488 436 504 436 Z M 446 139 C 388 139 336 149 289 169 C 241 189 201 217 167 254 C 133 291 107 336 89 388 C 70 440 61 499 61 563 C 61 626 70 684 89 736 C 107 788 133 832 167 869 C 201 906 241 935 289 955 C 336 975 388 985 446 985 C 488 985 526 980 560 970 C 594 960 627 946 658 927 C 688 908 718 885 748 857 C 777 829 808 798 840 762 C 872 798 902 829 932 857 C 961 885 991 908 1022 927 C 1052 946 1085 960 1119 970 C 1153 980 1191 985 1233 985 C 1290 985 1342 975 1389 955 C 1436 935 1476 906 1510 869 C 1544 832 1570 788 1588 736 C 1606 684 1616 626 1616 563 C 1616 499 1606 440 1588 388 C 1570 336 1544 291 1510 254 C 1476 217 1436 189 1389 169 C 1342 149 1290 139 1233 139 C 1191 139 1153 144 1119 154 C 1085 164 1052 178 1022 197 C 991 216 961 240 932 268 C 902 296 872 328 840 365 C 808 328 777 296 748 268 C 718 240 688 216 658 197 C 627 178 594 164 560 154 C 526 144 488 139 446 139 Z M 995 563 C 1004 547 1015 531 1029 516 C 1042 500 1057 487 1073 475 C 1089 463 1105 453 1123 446 C 1141 439 1159 436 1178 436 C 1192 436 1206 438 1220 444 C 1234 449 1246 457 1256 468 C 1266 478 1275 491 1281 507 C 1287 523 1290 541 1290 563 C 1290 583 1287 601 1281 617 C 1275 632 1266 645 1256 656 C 1246 666 1234 674 1220 680 C 1206 685 1192 688 1178 688 C 1159 688 1141 684 1123 677 C 1105 670 1089 661 1073 650 C 1057 638 1042 625 1029 610 C 1015 595 1004 579 995 563 Z" unicode="∞" />
<glyph horiz-adv-x="1675" d="M 0 920 L 590 1135 L 784 539 L 1298 1434 L 1675 1434 L 836 -25 L 635 -25 L 383 721 L 117 621 L 0 920 Z" unicode="√" />
<glyph horiz-adv-x="573" d="M 193 659 L 385 659 L 479 -14 L 479 -311 L 96 -311 L 96 -14 L 193 659 Z M 106 1122 L 467 1122 L 467 813 L 106 813 L 106 1122 Z" unicode="¡" />
<glyph horiz-adv-x="1311" d="M 78 594 C 78 676 93 755 123 829 C 153 903 197 967 255 1023 C 312 1079 382 1123 465 1155 C 547 1187 641 1204 745 1204 L 774 1204 L 815 1372 L 989 1372 L 940 1178 C 988 1165 1035 1147 1082 1123 C 1129 1099 1173 1070 1214 1034 L 1030 797 C 1002 819 973 840 943 858 C 913 876 882 889 850 899 L 696 268 C 704 266 713 264 722 264 C 731 264 740 264 750 264 C 808 264 859 275 903 299 C 947 322 988 353 1028 393 L 1239 184 C 1207 153 1174 125 1138 99 C 1102 73 1064 51 1024 33 C 983 15 939 0 893 -9 C 847 -19 797 -25 745 -25 C 729 -25 714 -24 700 -23 C 686 -22 672 -21 659 -20 L 596 -272 L 434 -272 L 504 10 C 436 30 375 60 322 98 C 269 136 224 181 188 232 C 152 283 124 339 106 401 C 87 462 78 526 78 594 Z M 440 594 C 440 529 453 471 481 421 C 508 370 546 331 594 303 L 737 915 C 693 913 654 904 618 888 C 582 872 550 850 524 822 C 497 794 476 760 462 722 C 447 683 440 640 440 594 Z" unicode="¢" />
<glyph horiz-adv-x="1339" d="M 133 702 L 299 702 C 284 729 272 758 263 790 C 254 822 250 857 250 895 C 250 937 259 977 278 1015 C 297 1053 325 1086 361 1114 C 397 1142 442 1165 496 1181 C 550 1197 612 1206 682 1206 C 737 1206 788 1200 834 1189 C 880 1178 921 1163 959 1144 C 997 1124 1030 1101 1059 1074 C 1087 1046 1112 1017 1133 985 L 872 858 C 852 886 828 908 800 925 C 771 941 741 950 711 950 C 677 950 652 942 635 928 C 618 913 610 893 610 868 C 610 840 616 812 629 785 C 641 758 657 730 676 700 L 948 700 L 948 514 L 778 514 C 785 494 791 474 795 453 C 799 432 801 410 801 387 C 801 358 798 331 792 305 C 786 279 777 255 766 231 C 786 225 807 221 828 218 C 848 214 869 213 891 213 C 915 213 934 217 950 226 C 966 234 978 246 986 261 C 994 275 998 292 999 312 C 999 331 997 351 991 373 L 1294 373 C 1310 315 1316 261 1310 212 C 1304 163 1289 121 1264 86 C 1238 50 1204 23 1160 3 C 1116 -17 1064 -27 1004 -27 C 928 -27 861 -16 801 3 C 741 23 686 48 637 78 C 589 44 536 18 478 0 C 420 -18 361 -27 301 -27 C 265 -27 232 -21 202 -11 C 172 -1 146 13 124 32 C 102 50 84 73 72 99 C 59 125 53 154 53 186 C 53 217 58 246 70 272 C 81 298 97 321 117 340 C 137 359 162 374 191 385 C 219 395 251 401 287 401 C 319 401 352 396 384 387 C 416 378 448 366 481 352 C 477 384 471 413 461 439 C 451 465 439 490 426 514 L 133 514 L 133 702 Z M 291 113 C 325 113 355 121 382 138 C 409 154 431 175 449 201 C 419 218 392 232 366 244 C 340 256 315 262 291 262 C 268 262 249 256 233 244 C 217 232 209 214 209 190 C 209 165 216 146 231 133 C 245 119 265 113 291 113 Z" unicode="£" />
<glyph horiz-adv-x="1444" d="M 131 582 C 131 644 139 703 157 759 C 175 815 200 867 233 915 L 106 1049 L 254 1184 L 369 1059 C 418 1096 473 1125 533 1146 C 593 1167 656 1178 723 1178 C 789 1178 851 1167 911 1146 C 971 1125 1025 1096 1075 1059 L 1192 1184 L 1337 1049 L 1210 920 C 1243 871 1269 818 1288 761 C 1307 704 1317 644 1317 582 C 1317 520 1307 461 1289 405 C 1271 349 1245 297 1212 250 L 1337 121 L 1192 -12 L 1075 109 C 1025 71 971 42 911 22 C 851 2 789 -8 723 -8 C 656 -8 593 2 533 22 C 473 42 418 71 369 109 L 254 -12 L 106 121 L 231 252 C 199 299 174 350 157 406 C 139 461 131 520 131 582 Z M 483 584 C 483 550 489 519 502 490 C 514 461 531 436 553 415 C 575 393 600 376 629 364 C 658 352 689 346 723 346 C 756 346 787 352 817 364 C 846 376 872 393 894 415 C 916 436 933 461 946 490 C 958 519 965 550 965 584 C 965 618 958 649 946 679 C 933 708 916 733 894 755 C 872 777 846 794 817 806 C 787 818 756 825 723 825 C 689 825 658 818 629 806 C 600 794 575 777 553 755 C 531 733 514 708 502 679 C 489 649 483 618 483 584 Z" unicode="¤" />
<glyph horiz-adv-x="1290" d="M 147 598 L 451 598 L 14 1180 L 463 1180 L 641 915 L 645 915 L 825 1180 L 1276 1180 L 838 598 L 1137 598 L 1137 422 L 838 422 L 838 332 L 1137 332 L 1137 156 L 838 156 L 838 0 L 451 0 L 451 156 L 147 156 L 147 332 L 451 332 L 451 422 L 147 422 L 147 598 Z" unicode="¥" />
<glyph horiz-adv-x="1155" d="M 1053 471 C 1053 447 1049 425 1043 405 C 1036 385 1027 366 1016 349 C 1005 331 993 316 979 302 C 965 288 950 275 936 264 C 966 241 989 213 1007 179 C 1025 145 1034 103 1034 53 C 1034 1 1023 -45 1001 -87 C 979 -129 946 -164 904 -194 C 862 -223 810 -245 748 -261 C 686 -277 615 -285 535 -285 C 501 -285 466 -282 430 -277 C 394 -271 358 -263 322 -253 C 286 -242 250 -229 215 -215 C 180 -200 147 -183 117 -164 L 311 47 C 329 35 349 25 371 17 C 393 8 414 1 436 -5 C 457 -11 478 -15 498 -18 C 518 -21 536 -23 553 -23 C 637 -23 680 0 680 47 C 680 64 671 78 655 90 C 638 101 616 111 589 119 C 562 127 531 135 496 143 C 461 150 426 159 390 169 C 354 179 318 191 283 205 C 248 219 217 237 190 259 C 163 281 141 307 125 339 C 108 370 100 408 100 453 C 100 476 103 498 110 518 C 116 538 125 557 136 574 C 147 591 160 607 174 621 C 188 635 203 647 219 659 C 189 682 165 710 147 744 C 129 778 121 820 121 872 C 121 923 132 969 154 1010 C 176 1051 208 1086 250 1115 C 292 1144 345 1166 407 1182 C 469 1198 540 1206 621 1206 C 654 1206 689 1203 725 1198 C 761 1193 797 1185 833 1175 C 869 1165 904 1152 939 1137 C 973 1122 1006 1105 1036 1085 L 844 877 C 804 899 762 916 718 928 C 674 940 635 946 602 946 C 517 946 475 923 475 879 C 475 861 483 847 500 836 C 516 824 538 814 565 806 C 592 797 623 789 658 781 C 692 773 728 765 764 755 C 800 745 835 732 870 718 C 904 704 935 686 962 664 C 989 642 1011 615 1028 584 C 1044 552 1053 515 1053 471 Z M 737 420 C 737 444 728 464 712 480 C 696 495 674 508 647 518 C 619 528 588 537 553 544 C 518 551 482 559 446 567 C 438 559 431 549 425 538 C 419 527 416 516 416 504 C 416 479 424 459 440 444 C 456 428 478 415 506 405 C 533 395 564 386 599 378 C 633 370 669 362 707 354 C 715 362 722 372 728 383 C 734 394 737 406 737 420 Z" unicode="§" />
<glyph horiz-adv-x="1212" d="M 725 1534 L 1001 1534 L 1001 1264 L 725 1264 L 725 1534 Z M 211 1534 L 494 1534 L 494 1264 L 211 1264 L 211 1534 Z" unicode="¨" />
<glyph horiz-adv-x="1673" d="M 428 584 C 428 638 437 689 457 739 C 477 788 505 831 542 869 C 578 906 623 936 676 958 C 728 980 788 991 854 991 C 908 991 964 982 1020 964 C 1076 946 1130 914 1182 868 L 1030 696 C 1005 716 980 734 954 749 C 928 764 900 772 868 772 C 844 772 821 767 801 758 C 780 749 762 736 747 720 C 732 703 720 683 712 660 C 704 637 700 612 700 584 C 700 526 715 481 745 449 C 775 417 814 401 864 401 C 898 401 928 407 955 419 C 982 431 1008 449 1034 475 L 1192 313 C 1148 273 1099 240 1045 216 C 991 192 926 180 852 180 C 784 180 724 190 672 211 C 620 232 575 261 539 297 C 503 333 475 376 456 425 C 437 474 428 527 428 584 Z M 94 586 C 94 654 102 719 120 783 C 138 846 163 905 195 960 C 227 1015 266 1065 311 1111 C 356 1156 406 1195 461 1227 C 516 1259 575 1284 638 1302 C 701 1320 767 1329 836 1329 C 904 1329 969 1320 1033 1302 C 1096 1284 1155 1259 1210 1227 C 1265 1195 1315 1156 1361 1111 C 1406 1065 1445 1015 1477 960 C 1509 905 1534 846 1552 783 C 1570 719 1579 654 1579 586 C 1579 518 1570 452 1552 389 C 1534 325 1509 266 1477 211 C 1445 156 1406 106 1361 61 C 1315 16 1265 -22 1210 -54 C 1155 -86 1096 -111 1033 -129 C 969 -147 904 -156 836 -156 C 768 -156 702 -147 639 -129 C 575 -111 516 -86 461 -54 C 406 -22 356 16 311 61 C 266 106 227 156 195 211 C 163 266 138 325 120 388 C 102 451 94 517 94 586 Z M 221 586 C 221 500 237 420 269 346 C 301 271 346 206 402 150 C 458 94 523 49 598 17 C 672 -14 752 -31 838 -31 C 894 -31 949 -23 1002 -9 C 1054 5 1103 26 1149 53 C 1195 80 1236 112 1274 150 C 1312 187 1344 228 1371 274 C 1398 320 1419 369 1434 422 C 1448 474 1456 529 1456 586 C 1456 642 1448 697 1434 750 C 1419 803 1398 853 1371 899 C 1344 945 1312 986 1274 1024 C 1236 1062 1195 1094 1149 1121 C 1103 1148 1054 1169 1002 1184 C 949 1198 894 1206 838 1206 C 781 1206 726 1198 674 1184 C 621 1169 572 1148 526 1121 C 480 1094 439 1062 402 1024 C 364 986 332 945 305 899 C 278 853 257 803 243 750 C 228 697 221 642 221 586 Z" unicode="©" />
<glyph horiz-adv-x="827" d="M 49 862 C 49 899 57 933 75 965 C 92 997 119 1025 155 1049 C 191 1073 237 1093 293 1109 C 349 1125 415 1136 492 1143 L 492 1186 C 492 1232 460 1255 397 1255 C 362 1255 325 1249 286 1237 C 246 1225 201 1206 150 1182 L 68 1360 C 123 1390 180 1412 240 1428 C 299 1444 355 1452 408 1452 C 465 1452 514 1445 555 1432 C 595 1418 628 1400 654 1376 C 680 1352 699 1323 711 1289 C 723 1255 729 1217 729 1176 L 729 893 C 729 875 733 863 743 856 C 752 849 766 846 784 846 L 784 678 C 745 678 711 679 683 681 C 655 683 630 688 610 695 C 590 702 572 712 558 724 C 543 736 530 752 518 772 C 484 736 449 709 412 691 C 375 673 331 664 279 664 C 245 664 214 668 186 678 C 158 688 133 701 113 719 C 93 736 77 757 66 781 C 54 805 49 832 49 862 Z M 287 901 C 287 882 294 867 308 855 C 322 843 341 838 365 838 C 393 838 417 842 438 852 C 459 861 477 873 492 889 L 492 1014 C 464 1012 438 1008 414 1003 C 389 997 367 990 348 981 C 329 972 314 961 303 948 C 292 934 287 919 287 901 Z" unicode="ª" />
<glyph horiz-adv-x="1389" d="M 717 176 L 479 0 L 68 567 L 479 1122 L 719 948 L 416 567 L 717 176 Z M 1305 176 L 1067 0 L 655 567 L 1067 1122 L 1307 948 L 1004 567 L 1305 176 Z" unicode="«" />
<glyph horiz-adv-x="1386" d="M 102 1180 L 1284 1180 L 1284 522 L 893 522 L 893 889 L 102 889 L 102 1180 Z" unicode="¬" />
<glyph horiz-adv-x="1673" d="M 506 979 L 922 979 C 976 979 1022 971 1061 955 C 1099 939 1131 919 1157 894 C 1182 868 1201 840 1213 808 C 1225 776 1231 743 1231 711 C 1231 667 1221 626 1202 587 C 1182 548 1151 516 1108 492 C 1109 488 1113 479 1119 465 C 1125 450 1133 433 1141 413 C 1149 393 1158 371 1168 349 C 1177 326 1186 305 1195 285 C 1203 265 1211 248 1217 234 C 1223 220 1228 211 1231 209 L 954 209 L 866 461 L 776 461 L 776 209 L 506 209 L 506 979 Z M 872 631 C 889 631 904 633 916 638 C 928 643 937 649 945 657 C 952 665 957 673 960 683 C 963 692 965 701 965 711 C 965 721 963 731 960 741 C 957 751 952 760 945 768 C 937 776 928 783 916 789 C 904 794 889 797 872 797 L 776 797 L 776 631 L 872 631 Z M 94 586 C 94 654 102 719 120 783 C 138 846 163 905 195 960 C 227 1015 266 1065 311 1111 C 356 1156 406 1195 461 1227 C 516 1259 575 1284 638 1302 C 701 1320 767 1329 836 1329 C 904 1329 969 1320 1033 1302 C 1096 1284 1155 1259 1210 1227 C 1265 1195 1315 1156 1361 1111 C 1406 1065 1445 1015 1477 960 C 1509 905 1534 846 1552 783 C 1570 719 1579 654 1579 586 C 1579 518 1570 452 1552 389 C 1534 325 1509 266 1477 211 C 1445 156 1406 106 1361 61 C 1315 16 1265 -22 1210 -54 C 1155 -86 1096 -111 1033 -129 C 969 -147 904 -156 836 -156 C 768 -156 702 -147 639 -129 C 575 -111 516 -86 461 -54 C 406 -22 356 16 311 61 C 266 106 227 156 195 211 C 163 266 138 325 120 388 C 102 451 94 517 94 586 Z M 221 586 C 221 500 237 420 269 346 C 301 271 346 206 402 150 C 458 94 523 49 598 17 C 672 -14 752 -31 838 -31 C 894 -31 949 -23 1002 -9 C 1054 5 1103 26 1149 53 C 1195 80 1236 112 1274 150 C 1312 187 1344 228 1371 274 C 1398 320 1419 369 1434 422 C 1448 474 1456 529 1456 586 C 1456 642 1448 697 1434 750 C 1419 803 1398 853 1371 899 C 1344 945 1312 986 1274 1024 C 1236 1062 1195 1094 1149 1121 C 1103 1148 1054 1169 1002 1184 C 949 1198 894 1206 838 1206 C 781 1206 726 1198 674 1184 C 621 1169 572 1148 526 1121 C 480 1094 439 1062 402 1024 C 364 986 332 945 305 899 C 278 853 257 803 243 750 C 228 697 221 642 221 586 Z" unicode="®" />
<glyph horiz-adv-x="1190" d="M 264 1509 L 985 1509 L 985 1288 L 264 1288 L 264 1509 Z" unicode="¯" />
<glyph horiz-adv-x="811" d="M 406 766 C 357 766 311 774 267 790 C 223 806 185 829 152 859 C 119 889 93 925 74 968 C 54 1011 45 1060 45 1114 C 45 1166 54 1213 74 1256 C 93 1299 119 1336 152 1366 C 185 1396 223 1420 267 1437 C 311 1453 357 1462 406 1462 C 454 1462 500 1453 544 1437 C 587 1420 625 1396 658 1366 C 691 1336 717 1299 737 1256 C 756 1213 766 1166 766 1114 C 766 1060 756 1011 737 968 C 718 925 692 889 659 859 C 626 829 588 806 544 790 C 500 774 454 766 406 766 Z M 406 971 C 425 971 443 974 461 981 C 478 987 493 997 506 1010 C 519 1022 529 1037 537 1055 C 545 1073 549 1092 549 1114 C 549 1135 545 1154 537 1172 C 529 1190 519 1205 506 1217 C 493 1229 478 1239 461 1246 C 443 1253 425 1257 406 1257 C 386 1257 368 1253 351 1246 C 333 1239 318 1229 304 1217 C 290 1205 280 1190 272 1172 C 264 1154 260 1135 260 1114 C 260 1092 264 1073 272 1055 C 280 1037 290 1022 304 1010 C 318 997 333 987 351 981 C 368 974 386 971 406 971 Z" unicode="°" />
<glyph horiz-adv-x="1260" d="M 66 211 L 457 211 L 457 489 L 66 489 L 66 795 L 457 795 L 457 1122 L 803 1122 L 803 795 L 1192 795 L 1192 489 L 803 489 L 803 211 L 1192 211 L 1192 0 L 66 0 L 66 211 Z" unicode="±" />
<glyph horiz-adv-x="1124" d="M 551 1620 L 801 1466 L 553 1233 L 322 1233 L 551 1620 Z" unicode="´" />
<glyph horiz-adv-x="1282" d="M 449 -410 L 102 -410 L 102 1180 L 494 1180 L 494 371 C 494 354 497 339 501 325 C 505 311 511 300 519 290 C 527 280 538 272 552 266 C 566 260 582 258 602 258 C 637 258 670 266 701 283 C 732 300 760 324 786 354 L 786 1180 L 1180 1180 L 1180 0 L 811 0 L 797 88 C 767 56 736 31 702 14 C 668 -3 634 -12 598 -12 C 571 -12 547 -9 525 -4 C 503 1 484 8 467 18 L 449 -410 Z" unicode="µ" />
<glyph horiz-adv-x="1610" d="M 649 545 L 618 545 C 526 545 448 558 382 585 C 316 612 261 647 219 689 C 177 731 146 779 126 832 C 106 884 96 937 96 989 C 96 1043 105 1097 125 1151 C 144 1204 174 1252 216 1294 C 258 1336 311 1369 377 1395 C 442 1421 521 1434 614 1434 L 1475 1434 L 1475 0 L 1149 0 L 1149 1190 L 977 1190 L 977 0 L 649 0 L 649 545 Z" unicode="¶" />
<glyph horiz-adv-x="537" d="M 86 750 L 455 750 L 455 381 L 86 381 L 86 750 Z" unicode="·" />
<glyph horiz-adv-x="1124" d="M 340 -338 C 367 -315 394 -290 422 -263 C 449 -235 474 -206 498 -175 C 521 -144 541 -111 557 -77 C 573 -43 584 -7 590 29 L 799 29 C 795 -74 774 -166 737 -248 C 699 -329 648 -401 584 -463 L 340 -338 L 340 -338 Z" unicode="¸" />
<glyph horiz-adv-x="2937" d="M 944 846 L 569 846 L 569 0 L 186 0 L 186 846 L 25 846 L 25 1098 L 186 1098 L 186 1122 C 186 1267 227 1375 310 1445 C 392 1515 512 1550 670 1550 C 754 1550 829 1540 895 1522 C 961 1503 1023 1478 1081 1448 C 1181 1528 1331 1569 1532 1569 C 1723 1569 1866 1531 1961 1456 C 2055 1381 2103 1267 2103 1114 L 2103 670 L 2470 1120 L 2853 1120 L 2546 762 L 2925 0 L 2494 0 L 2294 471 L 2103 248 L 2103 0 L 1718 0 L 1718 1116 C 1718 1145 1714 1170 1708 1192 C 1702 1214 1691 1232 1676 1247 C 1661 1261 1641 1272 1616 1279 C 1591 1286 1560 1290 1524 1290 C 1486 1290 1455 1286 1431 1279 C 1406 1272 1386 1261 1371 1247 C 1355 1233 1344 1215 1338 1193 C 1332 1171 1329 1146 1329 1118 L 1329 1096 L 1593 1096 L 1593 846 L 1329 846 L 1329 0 L 944 0 L 944 846 Z M 569 1096 L 944 1096 L 944 1126 C 944 1144 944 1162 945 1180 C 946 1197 948 1214 952 1231 C 919 1247 884 1260 847 1269 C 810 1277 771 1282 729 1282 C 699 1282 673 1278 653 1271 C 633 1263 616 1253 604 1240 C 592 1226 583 1210 577 1192 C 571 1174 569 1154 569 1133 L 569 1096 Z" unicode="" />
<glyph horiz-adv-x="881" d="M 45 1065 C 45 1123 55 1175 75 1223 C 95 1270 122 1311 158 1345 C 193 1379 234 1405 282 1424 C 330 1442 382 1452 438 1452 C 494 1452 546 1442 594 1424 C 642 1405 683 1379 718 1345 C 752 1311 779 1270 799 1223 C 819 1175 829 1123 829 1065 C 829 1002 819 946 801 896 C 782 846 755 804 721 770 C 687 736 646 709 598 691 C 550 673 496 664 438 664 C 379 664 325 673 277 691 C 229 709 187 736 153 770 C 119 804 92 846 73 896 C 54 946 45 1002 45 1065 Z M 285 1063 C 285 997 298 944 324 906 C 350 867 388 848 438 848 C 486 848 524 867 550 906 C 576 944 590 997 590 1063 C 590 1093 586 1121 579 1147 C 571 1172 561 1194 548 1212 C 535 1230 519 1243 500 1253 C 481 1263 460 1268 438 1268 C 414 1268 393 1263 374 1253 C 355 1243 339 1230 326 1212 C 312 1194 302 1172 295 1147 C 288 1121 285 1093 285 1063 Z" unicode="º" />
<glyph horiz-adv-x="1389" d="M 385 567 L 82 948 L 322 1122 L 733 567 L 322 0 L 84 176 L 385 567 Z M 973 567 L 670 948 L 909 1122 L 1321 567 L 909 0 L 672 176 L 973 567 Z" unicode="»" />
<glyph horiz-adv-x="1653" d="M 1008 291 L 1372 752 L 1583 752 L 1583 283 L 1659 283 L 1659 129 L 1583 129 L 1583 0 L 1368 0 L 1368 129 L 1071 129 L 1008 291 Z M 1368 283 L 1368 518 L 1194 283 L 1368 283 Z M 319 1257 L 178 1192 L 102 1346 L 385 1468 L 545 1468 L 545 715 L 319 715 L 319 1257 Z M 1430 1434 L 1653 1434 L 434 0 L 211 0 L 1430 1434 Z" unicode="¼" />
<glyph horiz-adv-x="1792" d="M 1208 96 C 1207 148 1215 193 1233 229 C 1251 265 1273 296 1300 322 C 1327 348 1357 370 1389 388 C 1421 406 1450 422 1477 437 C 1504 451 1527 466 1545 480 C 1563 494 1573 510 1573 530 C 1573 546 1565 560 1551 570 C 1537 580 1515 586 1485 586 C 1457 586 1426 578 1392 564 C 1358 550 1327 530 1298 506 L 1178 641 C 1226 679 1278 709 1336 732 C 1393 754 1452 766 1513 766 C 1559 766 1601 760 1637 748 C 1673 736 1703 719 1727 699 C 1751 679 1770 655 1783 628 C 1795 600 1802 571 1802 541 C 1802 501 1793 466 1776 438 C 1758 410 1737 385 1711 365 C 1685 344 1656 326 1626 311 C 1595 295 1566 280 1539 266 C 1512 252 1489 237 1470 222 C 1451 206 1440 188 1438 168 L 1780 168 L 1780 0 L 1208 0 L 1208 96 Z M 319 1257 L 178 1192 L 102 1346 L 385 1468 L 545 1468 L 545 715 L 319 715 L 319 1257 Z M 1427 1434 L 1651 1434 L 432 0 L 209 0 L 1427 1434 Z" unicode="½" />
<glyph horiz-adv-x="1579" d="M 123 934 C 155 914 187 899 219 889 C 250 879 282 874 315 874 C 353 874 383 881 405 896 C 427 911 438 928 438 948 C 438 973 427 991 405 1002 C 383 1012 354 1018 317 1018 L 205 1018 L 205 1176 L 309 1176 C 344 1176 371 1181 390 1192 C 408 1202 418 1220 418 1245 C 418 1261 411 1276 398 1288 C 384 1300 364 1307 336 1307 C 302 1307 271 1302 243 1292 C 215 1282 186 1269 158 1253 L 72 1399 C 114 1422 157 1441 203 1457 C 248 1473 298 1481 352 1481 C 394 1481 434 1476 470 1466 C 506 1456 536 1443 562 1425 C 587 1407 607 1386 621 1362 C 635 1337 643 1310 643 1280 C 643 1257 640 1237 636 1221 C 632 1204 625 1189 617 1176 C 609 1163 599 1151 587 1141 C 575 1130 563 1120 549 1110 C 589 1091 618 1067 637 1038 C 656 1009 666 977 666 942 C 666 898 656 861 637 831 C 618 801 593 776 562 756 C 530 736 494 722 454 713 C 414 704 372 700 330 700 C 280 700 230 706 181 719 C 132 731 86 749 43 772 L 123 934 Z M 940 291 L 1305 752 L 1516 752 L 1516 283 L 1591 283 L 1591 129 L 1516 129 L 1516 0 L 1300 0 L 1300 129 L 1004 129 L 940 291 Z M 1300 283 L 1300 518 L 1126 283 L 1300 283 Z M 1362 1434 L 1585 1434 L 367 0 L 143 0 L 1362 1434 Z" unicode="¾" />
<glyph horiz-adv-x="1180" d="M 815 659 C 816 651 817 643 819 634 C 821 624 822 615 824 605 C 825 595 826 585 827 576 C 828 566 829 558 829 551 C 829 501 820 459 803 425 C 785 391 764 361 738 336 C 712 311 684 289 654 271 C 624 253 596 235 570 217 C 544 199 522 180 505 160 C 487 140 479 116 479 88 C 479 68 483 50 492 34 C 500 18 512 5 527 -4 C 541 -14 558 -22 577 -28 C 596 -34 616 -37 637 -37 C 689 -37 740 -26 791 -4 C 842 18 892 52 942 98 L 1163 -100 C 1090 -173 1010 -231 923 -274 C 836 -316 738 -338 629 -338 C 551 -338 479 -329 415 -312 C 351 -294 295 -269 249 -236 C 203 -202 167 -161 142 -112 C 116 -62 104 -6 104 57 C 104 101 110 140 122 174 C 134 208 149 239 169 266 C 188 292 210 316 235 337 C 260 358 286 378 312 396 C 338 414 364 430 390 446 C 416 462 439 478 459 495 C 479 512 496 530 509 549 C 522 568 530 590 532 614 L 537 659 L 815 659 Z M 854 813 L 494 813 L 494 1122 L 854 1122 L 854 813 Z" unicode="¿" />
<glyph horiz-adv-x="1473" d="M 516 1434 L 956 1434 L 1456 0 L 1032 0 L 967 213 L 504 213 L 440 0 L 14 0 L 516 1434 Z M 387 1714 L 688 1868 L 911 1546 L 633 1546 L 387 1714 Z M 592 506 L 879 506 L 737 975 L 733 975 L 592 506 Z" unicode="À" />
<glyph horiz-adv-x="1473" d="M 516 1434 L 956 1434 L 1456 0 L 1032 0 L 967 213 L 504 213 L 440 0 L 14 0 L 516 1434 Z M 784 1868 L 1087 1714 L 840 1546 L 563 1546 L 784 1868 Z M 592 506 L 879 506 L 737 975 L 733 975 L 592 506 Z" unicode="Á" />
<glyph horiz-adv-x="1473" d="M 516 1434 L 956 1434 L 1456 0 L 1032 0 L 967 213 L 504 213 L 440 0 L 14 0 L 516 1434 Z M 547 1845 L 926 1845 L 1149 1546 L 891 1546 L 739 1686 L 735 1686 L 582 1546 L 322 1546 L 547 1845 Z M 592 506 L 879 506 L 737 975 L 733 975 L 592 506 Z" unicode="Â" />
<glyph horiz-adv-x="1473" d="M 516 1434 L 956 1434 L 1456 0 L 1032 0 L 967 213 L 504 213 L 440 0 L 14 0 L 516 1434 Z M 334 1550 C 328 1600 331 1644 341 1684 C 351 1723 368 1756 391 1784 C 413 1811 441 1832 475 1846 C 509 1860 546 1868 588 1868 C 622 1868 651 1862 677 1852 C 702 1841 725 1829 746 1816 C 767 1803 787 1791 805 1781 C 823 1770 843 1765 864 1765 C 891 1765 910 1771 921 1785 C 931 1799 935 1818 932 1843 L 1135 1843 C 1140 1793 1138 1748 1128 1708 C 1118 1668 1101 1634 1079 1607 C 1057 1579 1029 1558 995 1544 C 961 1529 924 1522 883 1522 C 847 1522 817 1527 792 1538 C 766 1548 743 1560 722 1573 C 701 1585 681 1597 662 1608 C 643 1618 623 1624 602 1624 C 577 1624 559 1617 548 1604 C 537 1590 533 1572 537 1550 L 334 1550 Z M 592 506 L 879 506 L 737 975 L 733 975 L 592 506 Z" unicode="Ã" />
<glyph horiz-adv-x="1473" d="M 516 1434 L 956 1434 L 1456 0 L 1032 0 L 967 213 L 504 213 L 440 0 L 14 0 L 516 1434 Z M 330 1829 L 610 1829 L 610 1561 L 330 1561 L 330 1829 Z M 866 1829 L 1143 1829 L 1143 1561 L 866 1561 L 866 1829 Z M 592 506 L 879 506 L 737 975 L 733 975 L 592 506 Z" unicode="Ä" />
<glyph horiz-adv-x="1473" d="M 514 1430 C 488 1467 475 1512 475 1565 C 475 1601 482 1635 496 1666 C 510 1697 528 1724 552 1747 C 576 1769 603 1787 635 1800 C 667 1812 701 1819 737 1819 C 773 1819 806 1812 838 1800 C 870 1787 897 1769 921 1747 C 944 1724 962 1697 976 1666 C 990 1635 997 1601 997 1565 C 997 1539 993 1514 987 1491 C 980 1467 970 1446 958 1427 L 1456 0 L 1032 0 L 967 213 L 504 213 L 440 0 L 14 0 L 514 1430 Z M 592 506 L 879 506 L 737 975 L 733 975 L 592 506 Z M 737 1434 C 755 1434 772 1437 788 1444 C 804 1450 817 1459 829 1471 C 841 1483 850 1497 857 1513 C 864 1529 868 1546 868 1565 C 868 1584 864 1602 857 1618 C 850 1634 841 1647 829 1659 C 817 1671 804 1680 788 1686 C 772 1692 755 1696 737 1696 C 719 1696 702 1692 686 1686 C 670 1680 657 1671 645 1659 C 633 1647 623 1634 616 1618 C 609 1602 606 1584 606 1565 C 606 1546 609 1529 616 1513 C 623 1497 633 1483 645 1471 C 657 1459 670 1450 686 1444 C 702 1437 719 1434 737 1434 Z" unicode="Å" />
<glyph horiz-adv-x="2177" d="M 1059 213 L 541 213 L 457 0 L 4 0 L 637 1434 L 2079 1434 L 2079 1094 L 1243 1094 L 1300 881 L 1999 881 L 1999 573 L 1380 573 L 1442 340 L 2087 340 L 2087 0 L 1110 0 L 1059 213 Z M 666 522 L 985 522 L 866 1022 L 666 522 Z" unicode="Æ" />
<glyph horiz-adv-x="1436" d="M 66 719 C 66 789 74 855 91 919 C 108 983 132 1042 164 1097 C 196 1152 234 1202 280 1247 C 325 1291 376 1329 432 1361 C 488 1393 550 1417 616 1434 C 682 1451 753 1460 827 1460 C 935 1460 1034 1443 1124 1409 C 1214 1375 1298 1326 1376 1262 L 1159 997 C 1137 1015 1115 1032 1093 1048 C 1070 1064 1046 1077 1020 1089 C 994 1101 965 1110 935 1117 C 905 1124 872 1128 836 1128 C 778 1128 727 1118 681 1099 C 635 1079 596 1052 564 1017 C 531 981 506 938 489 888 C 471 838 463 781 463 719 C 463 655 471 598 488 547 C 505 496 530 453 562 417 C 594 381 634 353 680 334 C 726 314 778 305 836 305 C 905 305 966 317 1019 342 C 1071 367 1119 400 1161 442 L 1391 201 C 1317 133 1238 81 1154 43 C 1070 5 976 -17 874 -25 C 864 -115 842 -197 806 -269 C 770 -341 722 -406 664 -463 L 420 -338 C 444 -317 469 -294 494 -270 C 518 -246 541 -220 563 -192 C 585 -164 604 -135 621 -105 C 637 -75 650 -44 659 -12 C 569 4 488 33 415 76 C 342 118 280 172 228 236 C 176 300 136 373 108 455 C 80 537 66 625 66 719 Z" unicode="Ç" />
<glyph horiz-adv-x="1292" d="M 309 1714 L 610 1868 L 834 1546 L 555 1546 L 309 1714 Z M 115 1434 L 1196 1434 L 1196 1094 L 510 1094 L 510 874 L 1116 874 L 1116 580 L 510 580 L 510 340 L 1202 340 L 1202 0 L 115 0 L 115 1434 Z" unicode="È" />
<glyph horiz-adv-x="1292" d="M 709 1868 L 1012 1714 L 764 1546 L 487 1546 L 709 1868 Z M 115 1434 L 1196 1434 L 1196 1094 L 510 1094 L 510 874 L 1116 874 L 1116 580 L 510 580 L 510 340 L 1202 340 L 1202 0 L 115 0 L 115 1434 Z" unicode="É" />
<glyph horiz-adv-x="1292" d="M 471 1845 L 850 1845 L 1073 1546 L 815 1546 L 664 1686 L 659 1686 L 506 1546 L 246 1546 L 471 1845 Z M 115 1434 L 1196 1434 L 1196 1094 L 510 1094 L 510 874 L 1116 874 L 1116 580 L 510 580 L 510 340 L 1202 340 L 1202 0 L 115 0 L 115 1434 Z" unicode="Ê" />
<glyph horiz-adv-x="1292" d="M 791 1829 L 1067 1829 L 1067 1561 L 791 1561 L 791 1829 Z M 254 1829 L 535 1829 L 535 1561 L 254 1561 L 254 1829 Z M 115 1434 L 1196 1434 L 1196 1094 L 510 1094 L 510 874 L 1116 874 L 1116 580 L 510 580 L 510 340 L 1202 340 L 1202 0 L 115 0 L 115 1434 Z" unicode="Ë" />
<glyph horiz-adv-x="627" d="M -35 1714 L 266 1868 L 489 1546 L 211 1546 L -35 1714 Z M 115 1434 L 512 1434 L 512 0 L 115 0 L 115 1434 Z" unicode="Ì" />
<glyph horiz-adv-x="627" d="M 365 1868 L 668 1714 L 420 1546 L 143 1546 L 365 1868 Z M 115 1434 L 512 1434 L 512 0 L 115 0 L 115 1434 Z" unicode="Í" />
<glyph horiz-adv-x="627" d="M 125 1845 L 504 1845 L 727 1546 L 469 1546 L 317 1686 L 313 1686 L 160 1546 L -100 1546 L 125 1845 Z M 115 1434 L 512 1434 L 512 0 L 115 0 L 115 1434 Z" unicode="Î" />
<glyph horiz-adv-x="627" d="M 444 1829 L 721 1829 L 721 1561 L 444 1561 L 444 1829 Z M -92 1829 L 188 1829 L 188 1561 L -92 1561 L -92 1829 Z M 115 1434 L 512 1434 L 512 0 L 115 0 L 115 1434 Z" unicode="Ï" />
<glyph horiz-adv-x="1513" d="M 356 1550 C 350 1600 353 1644 363 1684 C 373 1723 390 1756 413 1784 C 435 1811 463 1832 497 1846 C 531 1860 568 1868 610 1868 C 644 1868 674 1862 700 1852 C 725 1841 748 1829 769 1816 C 790 1803 810 1791 828 1781 C 846 1770 866 1765 887 1765 C 913 1765 932 1771 943 1785 C 953 1799 957 1818 954 1843 L 1157 1843 C 1163 1793 1161 1748 1151 1708 C 1141 1668 1124 1634 1102 1607 C 1079 1579 1051 1558 1017 1544 C 983 1529 946 1522 905 1522 C 870 1522 840 1527 815 1538 C 789 1548 766 1560 745 1573 C 724 1585 704 1597 685 1608 C 666 1618 646 1624 625 1624 C 599 1624 581 1617 570 1604 C 559 1590 555 1572 559 1550 L 356 1550 Z M 115 1434 L 489 1434 L 1026 618 L 1026 1434 L 1399 1434 L 1399 0 L 1026 0 L 487 811 L 487 0 L 115 0 L 115 1434 Z" unicode="Ñ" />
<glyph horiz-adv-x="1647" d="M 475 1714 L 776 1868 L 999 1546 L 721 1546 L 475 1714 Z M 66 717 C 66 819 83 915 119 1005 C 155 1095 205 1174 271 1242 C 337 1309 416 1362 510 1401 C 603 1440 707 1460 823 1460 C 939 1460 1043 1440 1137 1401 C 1230 1362 1309 1309 1375 1242 C 1441 1174 1491 1095 1527 1005 C 1563 915 1581 819 1581 717 C 1581 614 1563 517 1528 427 C 1492 337 1442 258 1376 191 C 1310 123 1231 70 1137 31 C 1043 -7 939 -27 823 -27 C 707 -27 602 -7 509 31 C 415 70 336 123 270 191 C 204 258 154 337 119 427 C 83 517 66 614 66 717 Z M 467 717 C 467 657 475 602 491 552 C 507 502 530 458 560 421 C 590 384 628 355 672 334 C 716 313 767 303 823 303 C 879 303 930 313 975 334 C 1019 355 1057 384 1088 421 C 1118 458 1142 502 1158 552 C 1174 602 1182 657 1182 717 C 1182 775 1174 830 1158 880 C 1142 930 1118 974 1088 1011 C 1058 1048 1020 1077 976 1098 C 931 1119 880 1130 823 1130 C 766 1130 715 1119 671 1098 C 627 1077 589 1048 559 1011 C 529 974 506 930 490 880 C 474 830 467 775 467 717 Z" unicode="Ò" />
<glyph horiz-adv-x="1647" d="M 874 1868 L 1178 1714 L 930 1546 L 653 1546 L 874 1868 Z M 66 717 C 66 819 83 915 119 1005 C 155 1095 205 1174 271 1242 C 337 1309 416 1362 510 1401 C 603 1440 707 1460 823 1460 C 939 1460 1043 1440 1137 1401 C 1230 1362 1309 1309 1375 1242 C 1441 1174 1491 1095 1527 1005 C 1563 915 1581 819 1581 717 C 1581 614 1563 517 1528 427 C 1492 337 1442 258 1376 191 C 1310 123 1231 70 1137 31 C 1043 -7 939 -27 823 -27 C 707 -27 602 -7 509 31 C 415 70 336 123 270 191 C 204 258 154 337 119 427 C 83 517 66 614 66 717 Z M 467 717 C 467 657 475 602 491 552 C 507 502 530 458 560 421 C 590 384 628 355 672 334 C 716 313 767 303 823 303 C 879 303 930 313 975 334 C 1019 355 1057 384 1088 421 C 1118 458 1142 502 1158 552 C 1174 602 1182 657 1182 717 C 1182 775 1174 830 1158 880 C 1142 930 1118 974 1088 1011 C 1058 1048 1020 1077 976 1098 C 931 1119 880 1130 823 1130 C 766 1130 715 1119 671 1098 C 627 1077 589 1048 559 1011 C 529 974 506 930 490 880 C 474 830 467 775 467 717 Z" unicode="Ó" />
<glyph horiz-adv-x="1647" d="M 635 1845 L 1014 1845 L 1237 1546 L 979 1546 L 827 1686 L 823 1686 L 670 1546 L 410 1546 L 635 1845 Z M 66 717 C 66 819 83 915 119 1005 C 155 1095 205 1174 271 1242 C 337 1309 416 1362 510 1401 C 603 1440 707 1460 823 1460 C 939 1460 1043 1440 1137 1401 C 1230 1362 1309 1309 1375 1242 C 1441 1174 1491 1095 1527 1005 C 1563 915 1581 819 1581 717 C 1581 614 1563 517 1528 427 C 1492 337 1442 258 1376 191 C 1310 123 1231 70 1137 31 C 1043 -7 939 -27 823 -27 C 707 -27 602 -7 509 31 C 415 70 336 123 270 191 C 204 258 154 337 119 427 C 83 517 66 614 66 717 Z M 467 717 C 467 657 475 602 491 552 C 507 502 530 458 560 421 C 590 384 628 355 672 334 C 716 313 767 303 823 303 C 879 303 930 313 975 334 C 1019 355 1057 384 1088 421 C 1118 458 1142 502 1158 552 C 1174 602 1182 657 1182 717 C 1182 775 1174 830 1158 880 C 1142 930 1118 974 1088 1011 C 1058 1048 1020 1077 976 1098 C 931 1119 880 1130 823 1130 C 766 1130 715 1119 671 1098 C 627 1077 589 1048 559 1011 C 529 974 506 930 490 880 C 474 830 467 775 467 717 Z" unicode="Ô" />
<glyph horiz-adv-x="1647" d="M 422 1550 C 416 1600 419 1644 429 1684 C 439 1723 456 1756 479 1784 C 501 1811 529 1832 563 1846 C 597 1860 634 1868 676 1868 C 710 1868 739 1862 765 1852 C 790 1841 813 1829 834 1816 C 855 1803 875 1791 893 1781 C 911 1770 931 1765 952 1765 C 979 1765 998 1771 1009 1785 C 1019 1799 1023 1818 1020 1843 L 1223 1843 C 1228 1793 1226 1748 1216 1708 C 1206 1668 1189 1634 1167 1607 C 1145 1579 1117 1558 1083 1544 C 1049 1529 1012 1522 971 1522 C 935 1522 905 1527 880 1538 C 854 1548 831 1560 810 1573 C 789 1585 769 1597 750 1608 C 731 1618 711 1624 690 1624 C 665 1624 647 1617 636 1604 C 625 1590 621 1572 625 1550 L 422 1550 Z M 66 717 C 66 819 83 915 119 1005 C 155 1095 205 1174 271 1242 C 337 1309 416 1362 510 1401 C 603 1440 707 1460 823 1460 C 939 1460 1043 1440 1137 1401 C 1230 1362 1309 1309 1375 1242 C 1441 1174 1491 1095 1527 1005 C 1563 915 1581 819 1581 717 C 1581 614 1563 517 1528 427 C 1492 337 1442 258 1376 191 C 1310 123 1231 70 1137 31 C 1043 -7 939 -27 823 -27 C 707 -27 602 -7 509 31 C 415 70 336 123 270 191 C 204 258 154 337 119 427 C 83 517 66 614 66 717 Z M 467 717 C 467 657 475 602 491 552 C 507 502 530 458 560 421 C 590 384 628 355 672 334 C 716 313 767 303 823 303 C 879 303 930 313 975 334 C 1019 355 1057 384 1088 421 C 1118 458 1142 502 1158 552 C 1174 602 1182 657 1182 717 C 1182 775 1174 830 1158 880 C 1142 930 1118 974 1088 1011 C 1058 1048 1020 1077 976 1098 C 931 1119 880 1130 823 1130 C 766 1130 715 1119 671 1098 C 627 1077 589 1048 559 1011 C 529 974 506 930 490 880 C 474 830 467 775 467 717 Z" unicode="Õ" />
<glyph horiz-adv-x="1647" d="M 954 1829 L 1231 1829 L 1231 1561 L 954 1561 L 954 1829 Z M 418 1829 L 698 1829 L 698 1561 L 418 1561 L 418 1829 Z M 66 717 C 66 819 83 915 119 1005 C 155 1095 205 1174 271 1242 C 337 1309 416 1362 510 1401 C 603 1440 707 1460 823 1460 C 939 1460 1043 1440 1137 1401 C 1230 1362 1309 1309 1375 1242 C 1441 1174 1491 1095 1527 1005 C 1563 915 1581 819 1581 717 C 1581 614 1563 517 1528 427 C 1492 337 1442 258 1376 191 C 1310 123 1231 70 1137 31 C 1043 -7 939 -27 823 -27 C 707 -27 602 -7 509 31 C 415 70 336 123 270 191 C 204 258 154 337 119 427 C 83 517 66 614 66 717 Z M 467 717 C 467 657 475 602 491 552 C 507 502 530 458 560 421 C 590 384 628 355 672 334 C 716 313 767 303 823 303 C 879 303 930 313 975 334 C 1019 355 1057 384 1088 421 C 1118 458 1142 502 1158 552 C 1174 602 1182 657 1182 717 C 1182 775 1174 830 1158 880 C 1142 930 1118 974 1088 1011 C 1058 1048 1020 1077 976 1098 C 931 1119 880 1130 823 1130 C 766 1130 715 1119 671 1098 C 627 1077 589 1048 559 1011 C 529 974 506 930 490 880 C 474 830 467 775 467 717 Z" unicode="Ö" />
<glyph horiz-adv-x="1647" d="M 66 717 C 66 819 83 915 119 1005 C 155 1095 205 1174 271 1242 C 337 1309 416 1362 510 1401 C 603 1440 707 1460 823 1460 C 903 1460 978 1450 1047 1431 C 1115 1411 1179 1384 1237 1350 L 1366 1507 L 1499 1395 L 1372 1245 C 1438 1177 1490 1098 1526 1008 C 1562 918 1581 821 1581 717 C 1581 614 1563 517 1528 427 C 1492 337 1442 258 1376 191 C 1310 123 1231 70 1137 31 C 1043 -7 939 -27 823 -27 C 743 -27 668 -17 598 1 C 528 19 465 46 408 82 L 276 -74 L 145 33 L 274 186 C 207 254 156 334 120 425 C 84 515 66 613 66 717 Z M 1182 717 C 1182 811 1161 894 1120 965 L 623 362 C 651 342 681 328 714 318 C 747 308 783 303 823 303 C 879 303 930 313 975 334 C 1019 355 1057 384 1088 421 C 1118 458 1142 502 1158 552 C 1174 602 1182 657 1182 717 Z M 467 717 C 467 671 471 627 481 586 C 491 544 505 507 524 473 L 1020 1073 C 993 1091 963 1105 931 1115 C 898 1125 862 1130 823 1130 C 766 1130 715 1119 671 1098 C 627 1077 589 1048 559 1011 C 529 974 506 930 490 880 C 474 830 467 775 467 717 Z" unicode="Ø" />
<glyph horiz-adv-x="1479" d="M 389 1714 L 690 1868 L 913 1546 L 635 1546 L 389 1714 Z M 109 1434 L 508 1434 L 508 553 C 508 515 513 481 523 451 C 533 421 548 395 568 374 C 588 352 612 336 641 324 C 669 312 702 307 739 307 C 775 307 808 312 837 324 C 866 336 891 352 911 374 C 931 395 946 421 957 451 C 967 481 973 515 973 553 L 973 1434 L 1370 1434 L 1370 555 C 1370 456 1354 370 1324 297 C 1294 224 1251 164 1196 116 C 1141 68 1075 32 997 8 C 919 -15 833 -27 739 -27 C 645 -27 559 -15 481 8 C 403 32 337 68 282 116 C 227 164 184 224 154 297 C 124 370 109 456 109 555 L 109 1434 Z" unicode="Ù" />
<glyph horiz-adv-x="1479" d="M 788 1868 L 1092 1714 L 844 1546 L 567 1546 L 788 1868 Z M 109 1434 L 508 1434 L 508 553 C 508 515 513 481 523 451 C 533 421 548 395 568 374 C 588 352 612 336 641 324 C 669 312 702 307 739 307 C 775 307 808 312 837 324 C 866 336 891 352 911 374 C 931 395 946 421 957 451 C 967 481 973 515 973 553 L 973 1434 L 1370 1434 L 1370 555 C 1370 456 1354 370 1324 297 C 1294 224 1251 164 1196 116 C 1141 68 1075 32 997 8 C 919 -15 833 -27 739 -27 C 645 -27 559 -15 481 8 C 403 32 337 68 282 116 C 227 164 184 224 154 297 C 124 370 109 456 109 555 L 109 1434 Z" unicode="Ú" />
<glyph horiz-adv-x="1479" d="M 551 1845 L 930 1845 L 1153 1546 L 895 1546 L 743 1686 L 739 1686 L 586 1546 L 326 1546 L 551 1845 Z M 109 1434 L 508 1434 L 508 553 C 508 515 513 481 523 451 C 533 421 548 395 568 374 C 588 352 612 336 641 324 C 669 312 702 307 739 307 C 775 307 808 312 837 324 C 866 336 891 352 911 374 C 931 395 946 421 957 451 C 967 481 973 515 973 553 L 973 1434 L 1370 1434 L 1370 555 C 1370 456 1354 370 1324 297 C 1294 224 1251 164 1196 116 C 1141 68 1075 32 997 8 C 919 -15 833 -27 739 -27 C 645 -27 559 -15 481 8 C 403 32 337 68 282 116 C 227 164 184 224 154 297 C 124 370 109 456 109 555 L 109 1434 Z" unicode="Û" />
<glyph horiz-adv-x="1479" d="M 870 1829 L 1147 1829 L 1147 1561 L 870 1561 L 870 1829 Z M 334 1829 L 614 1829 L 614 1561 L 334 1561 L 334 1829 Z M 109 1434 L 508 1434 L 508 553 C 508 515 513 481 523 451 C 533 421 548 395 568 374 C 588 352 612 336 641 324 C 669 312 702 307 739 307 C 775 307 808 312 837 324 C 866 336 891 352 911 374 C 931 395 946 421 957 451 C 967 481 973 515 973 553 L 973 1434 L 1370 1434 L 1370 555 C 1370 456 1354 370 1324 297 C 1294 224 1251 164 1196 116 C 1141 68 1075 32 997 8 C 919 -15 833 -27 739 -27 C 645 -27 559 -15 481 8 C 403 32 337 68 282 116 C 227 164 184 224 154 297 C 124 370 109 456 109 555 L 109 1434 Z" unicode="Ü" />
<glyph horiz-adv-x="1243" d="M 414 1620 L 668 1470 L 422 1233 L 195 1233 L 414 1620 Z M 860 1620 L 1112 1470 L 866 1233 L 641 1233 L 860 1620 Z" unicode="˝" />
<glyph horiz-adv-x="1411" d="M 98 1077 C 98 1159 113 1230 143 1292 C 173 1353 215 1404 268 1445 C 320 1486 382 1517 453 1538 C 524 1558 600 1569 682 1569 C 768 1569 846 1558 917 1536 C 988 1514 1049 1483 1100 1444 C 1150 1404 1190 1357 1218 1303 C 1246 1248 1260 1188 1260 1124 C 1260 1084 1254 1047 1242 1014 C 1230 980 1214 950 1194 923 C 1173 896 1148 872 1120 852 C 1092 831 1061 813 1028 799 L 1028 797 C 1072 785 1113 769 1152 749 C 1190 728 1224 702 1253 672 C 1282 641 1305 605 1322 565 C 1339 524 1348 478 1348 428 C 1348 356 1334 292 1307 236 C 1279 180 1243 134 1198 96 C 1153 58 1102 30 1044 11 C 986 -8 926 -18 864 -18 C 812 -18 765 -15 723 -9 C 680 -3 639 4 600 16 L 653 303 C 672 297 694 291 720 287 C 745 283 768 281 788 281 C 813 281 836 284 858 292 C 879 299 897 310 913 324 C 929 338 941 356 950 378 C 958 400 963 425 963 453 C 963 484 957 511 947 533 C 937 555 922 574 904 589 C 885 603 862 614 836 621 C 809 627 780 631 748 631 L 672 631 L 672 930 L 702 930 C 728 930 751 933 773 941 C 794 949 812 960 828 975 C 843 989 855 1007 864 1029 C 872 1050 877 1074 877 1102 C 877 1162 859 1208 825 1242 C 790 1275 742 1292 680 1292 C 618 1292 570 1274 536 1238 C 502 1202 485 1151 485 1085 L 485 0 L 98 0 L 98 1077 Z" unicode="ß" />
<glyph horiz-adv-x="1204" d="M 66 270 C 66 322 76 372 98 418 C 119 464 154 505 204 541 C 254 577 319 607 400 632 C 481 657 582 675 702 686 L 702 748 C 702 782 691 808 671 825 C 650 841 620 850 582 850 C 556 850 531 847 505 843 C 479 838 451 831 422 822 C 393 812 362 800 329 786 C 295 772 259 755 219 737 L 90 1008 C 176 1052 263 1086 351 1110 C 439 1134 522 1147 602 1147 C 688 1147 762 1137 823 1117 C 884 1097 934 1069 973 1033 C 1011 997 1039 953 1057 902 C 1074 851 1083 795 1083 733 L 1083 313 C 1083 290 1089 273 1103 262 C 1117 251 1135 246 1159 246 L 1159 -6 C 1099 -6 1047 -4 1003 0 C 959 3 920 10 888 21 C 856 31 828 46 805 64 C 781 82 760 107 741 137 C 717 109 692 85 667 65 C 642 44 616 27 588 13 C 560 0 529 -10 497 -17 C 465 -23 429 -27 391 -27 C 343 -27 300 -19 260 -5 C 220 8 186 29 158 55 C 129 81 106 112 90 148 C 74 184 66 225 66 270 Z M 446 328 C 446 302 455 280 473 262 C 491 244 515 236 547 236 C 579 236 609 243 636 257 C 662 271 684 289 702 311 L 702 494 C 664 491 630 486 599 478 C 567 470 540 459 518 446 C 495 432 477 416 465 396 C 452 376 446 354 446 328 Z M 287 1466 L 541 1620 L 766 1233 L 537 1233 L 287 1466 Z" unicode="à" />
<glyph horiz-adv-x="1204" d="M 66 270 C 66 322 76 372 98 418 C 119 464 154 505 204 541 C 254 577 319 607 400 632 C 481 657 582 675 702 686 L 702 748 C 702 782 691 808 671 825 C 650 841 620 850 582 850 C 556 850 531 847 505 843 C 479 838 451 831 422 822 C 393 812 362 800 329 786 C 295 772 259 755 219 737 L 90 1008 C 176 1052 263 1086 351 1110 C 439 1134 522 1147 602 1147 C 688 1147 762 1137 823 1117 C 884 1097 934 1069 973 1033 C 1011 997 1039 953 1057 902 C 1074 851 1083 795 1083 733 L 1083 313 C 1083 290 1089 273 1103 262 C 1117 251 1135 246 1159 246 L 1159 -6 C 1099 -6 1047 -4 1003 0 C 959 3 920 10 888 21 C 856 31 828 46 805 64 C 781 82 760 107 741 137 C 717 109 692 85 667 65 C 642 44 616 27 588 13 C 560 0 529 -10 497 -17 C 465 -23 429 -27 391 -27 C 343 -27 300 -19 260 -5 C 220 8 186 29 158 55 C 129 81 106 112 90 148 C 74 184 66 225 66 270 Z M 446 328 C 446 302 455 280 473 262 C 491 244 515 236 547 236 C 579 236 609 243 636 257 C 662 271 684 289 702 311 L 702 494 C 664 491 630 486 599 478 C 567 470 540 459 518 446 C 495 432 477 416 465 396 C 452 376 446 354 446 328 Z M 666 1620 L 915 1466 L 668 1233 L 436 1233 L 666 1620 Z" unicode="á" />
<glyph horiz-adv-x="1204" d="M 66 270 C 66 322 76 372 98 418 C 119 464 154 505 204 541 C 254 577 319 607 400 632 C 481 657 582 675 702 686 L 702 748 C 702 782 691 808 671 825 C 650 841 620 850 582 850 C 556 850 531 847 505 843 C 479 838 451 831 422 822 C 393 812 362 800 329 786 C 295 772 259 755 219 737 L 90 1008 C 176 1052 263 1086 351 1110 C 439 1134 522 1147 602 1147 C 688 1147 762 1137 823 1117 C 884 1097 934 1069 973 1033 C 1011 997 1039 953 1057 902 C 1074 851 1083 795 1083 733 L 1083 313 C 1083 290 1089 273 1103 262 C 1117 251 1135 246 1159 246 L 1159 -6 C 1099 -6 1047 -4 1003 0 C 959 3 920 10 888 21 C 856 31 828 46 805 64 C 781 82 760 107 741 137 C 717 109 692 85 667 65 C 642 44 616 27 588 13 C 560 0 529 -10 497 -17 C 465 -23 429 -27 391 -27 C 343 -27 300 -19 260 -5 C 220 8 186 29 158 55 C 129 81 106 112 90 148 C 74 184 66 225 66 270 Z M 446 328 C 446 302 455 280 473 262 C 491 244 515 236 547 236 C 579 236 609 243 636 257 C 662 271 684 289 702 311 L 702 494 C 664 491 630 486 599 478 C 567 470 540 459 518 446 C 495 432 477 416 465 396 C 452 376 446 354 446 328 Z M 381 1561 L 827 1561 L 1055 1233 L 762 1233 L 608 1403 L 600 1403 L 446 1233 L 156 1233 L 381 1561 Z" unicode="â" />
<glyph horiz-adv-x="1204" d="M 66 270 C 66 322 76 372 98 418 C 119 464 154 505 204 541 C 254 577 319 607 400 632 C 481 657 582 675 702 686 L 702 748 C 702 782 691 808 671 825 C 650 841 620 850 582 850 C 556 850 531 847 505 843 C 479 838 451 831 422 822 C 393 812 362 800 329 786 C 295 772 259 755 219 737 L 90 1008 C 176 1052 263 1086 351 1110 C 439 1134 522 1147 602 1147 C 688 1147 762 1137 823 1117 C 884 1097 934 1069 973 1033 C 1011 997 1039 953 1057 902 C 1074 851 1083 795 1083 733 L 1083 313 C 1083 290 1089 273 1103 262 C 1117 251 1135 246 1159 246 L 1159 -6 C 1099 -6 1047 -4 1003 0 C 959 3 920 10 888 21 C 856 31 828 46 805 64 C 781 82 760 107 741 137 C 717 109 692 85 667 65 C 642 44 616 27 588 13 C 560 0 529 -10 497 -17 C 465 -23 429 -27 391 -27 C 343 -27 300 -19 260 -5 C 220 8 186 29 158 55 C 129 81 106 112 90 148 C 74 184 66 225 66 270 Z M 446 328 C 446 302 455 280 473 262 C 491 244 515 236 547 236 C 579 236 609 243 636 257 C 662 271 684 289 702 311 L 702 494 C 664 491 630 486 599 478 C 567 470 540 459 518 446 C 495 432 477 416 465 396 C 452 376 446 354 446 328 Z M 211 1245 C 205 1297 208 1344 218 1385 C 228 1425 244 1459 266 1487 C 288 1514 316 1535 349 1549 C 382 1563 419 1571 461 1571 C 495 1571 524 1565 549 1554 C 573 1543 596 1531 616 1518 C 636 1505 656 1493 674 1482 C 692 1471 711 1466 733 1466 C 757 1466 775 1473 787 1487 C 798 1501 802 1523 799 1554 L 999 1554 C 1004 1500 1002 1453 992 1413 C 982 1372 965 1338 943 1310 C 921 1282 893 1262 860 1248 C 827 1234 790 1227 750 1227 C 716 1227 687 1232 663 1242 C 638 1252 615 1264 595 1277 C 574 1289 555 1301 537 1311 C 519 1321 499 1327 479 1327 C 453 1327 435 1320 424 1308 C 413 1296 408 1275 410 1245 L 211 1245 Z" unicode="ã" />
<glyph horiz-adv-x="1204" d="M 66 270 C 66 322 76 372 98 418 C 119 464 154 505 204 541 C 254 577 319 607 400 632 C 481 657 582 675 702 686 L 702 748 C 702 782 691 808 671 825 C 650 841 620 850 582 850 C 556 850 531 847 505 843 C 479 838 451 831 422 822 C 393 812 362 800 329 786 C 295 772 259 755 219 737 L 90 1008 C 176 1052 263 1086 351 1110 C 439 1134 522 1147 602 1147 C 688 1147 762 1137 823 1117 C 884 1097 934 1069 973 1033 C 1011 997 1039 953 1057 902 C 1074 851 1083 795 1083 733 L 1083 313 C 1083 290 1089 273 1103 262 C 1117 251 1135 246 1159 246 L 1159 -6 C 1099 -6 1047 -4 1003 0 C 959 3 920 10 888 21 C 856 31 828 46 805 64 C 781 82 760 107 741 137 C 717 109 692 85 667 65 C 642 44 616 27 588 13 C 560 0 529 -10 497 -17 C 465 -23 429 -27 391 -27 C 343 -27 300 -19 260 -5 C 220 8 186 29 158 55 C 129 81 106 112 90 148 C 74 184 66 225 66 270 Z M 446 328 C 446 302 455 280 473 262 C 491 244 515 236 547 236 C 579 236 609 243 636 257 C 662 271 684 289 702 311 L 702 494 C 664 491 630 486 599 478 C 567 470 540 459 518 446 C 495 432 477 416 465 396 C 452 376 446 354 446 328 Z M 723 1534 L 999 1534 L 999 1264 L 723 1264 L 723 1534 Z M 209 1534 L 492 1534 L 492 1264 L 209 1264 L 209 1534 Z" unicode="ä" />
<glyph horiz-adv-x="1204" d="M 66 270 C 66 322 76 372 98 418 C 119 464 154 505 204 541 C 254 577 319 607 400 632 C 481 657 582 675 702 686 L 702 748 C 702 782 691 808 671 825 C 650 841 620 850 582 850 C 556 850 531 847 505 843 C 479 838 451 831 422 822 C 393 812 362 800 329 786 C 295 772 259 755 219 737 L 90 1008 C 176 1052 263 1086 351 1110 C 439 1134 522 1147 602 1147 C 688 1147 762 1137 823 1117 C 884 1097 934 1069 973 1033 C 1011 997 1039 953 1057 902 C 1074 851 1083 795 1083 733 L 1083 313 C 1083 290 1089 273 1103 262 C 1117 251 1135 246 1159 246 L 1159 -6 C 1099 -6 1047 -4 1003 0 C 959 3 920 10 888 21 C 856 31 828 46 805 64 C 781 82 760 107 741 137 C 717 109 692 85 667 65 C 642 44 616 27 588 13 C 560 0 529 -10 497 -17 C 465 -23 429 -27 391 -27 C 343 -27 300 -19 260 -5 C 220 8 186 29 158 55 C 129 81 106 112 90 148 C 74 184 66 225 66 270 Z M 446 328 C 446 302 455 280 473 262 C 491 244 515 236 547 236 C 579 236 609 243 636 257 C 662 271 684 289 702 311 L 702 494 C 664 491 630 486 599 478 C 567 470 540 459 518 446 C 495 432 477 416 465 396 C 452 376 446 354 446 328 Z M 602 1221 C 566 1221 532 1227 500 1239 C 468 1251 441 1269 417 1291 C 393 1313 375 1339 361 1370 C 347 1400 340 1434 340 1470 C 340 1506 347 1540 361 1572 C 375 1603 393 1630 417 1652 C 441 1674 468 1692 500 1705 C 532 1717 566 1724 602 1724 C 638 1724 671 1717 703 1705 C 734 1692 761 1674 785 1652 C 809 1630 827 1603 841 1572 C 855 1540 862 1506 862 1470 C 862 1434 855 1400 841 1370 C 827 1339 809 1313 785 1291 C 761 1269 734 1251 703 1239 C 671 1227 638 1221 602 1221 Z M 602 1339 C 620 1339 637 1342 653 1349 C 669 1356 682 1366 694 1378 C 706 1390 715 1403 722 1419 C 729 1435 733 1452 733 1470 C 733 1489 729 1507 722 1523 C 715 1539 706 1554 694 1566 C 682 1578 669 1587 653 1594 C 637 1600 620 1604 602 1604 C 583 1604 566 1600 550 1594 C 534 1587 520 1578 508 1566 C 496 1554 487 1539 481 1523 C 474 1507 471 1489 471 1470 C 471 1452 474 1435 481 1419 C 487 1403 496 1390 508 1378 C 520 1366 534 1356 550 1349 C 566 1342 583 1339 602 1339 Z" unicode="å" />
<glyph horiz-adv-x="1860" d="M 825 172 C 773 111 712 63 641 27 C 569 -9 491 -27 406 -27 C 354 -27 307 -19 265 -5 C 223 8 188 29 159 55 C 129 81 107 112 91 148 C 75 184 66 225 66 270 C 65 322 75 371 97 417 C 118 463 154 503 204 539 C 254 575 320 605 402 630 C 484 654 585 672 705 682 L 705 748 C 705 782 695 808 675 825 C 655 841 627 850 590 850 C 564 850 539 847 513 843 C 487 839 459 832 430 823 C 400 814 368 802 334 788 C 300 774 262 757 221 737 L 90 1008 C 180 1053 267 1087 351 1111 C 434 1135 516 1147 598 1147 C 643 1147 684 1144 720 1138 C 756 1132 788 1123 816 1112 C 844 1101 868 1088 889 1072 C 910 1056 928 1038 944 1018 C 985 1057 1034 1088 1091 1112 C 1148 1135 1213 1147 1286 1147 C 1364 1147 1434 1135 1498 1111 C 1561 1087 1615 1052 1660 1008 C 1705 964 1740 910 1765 848 C 1789 785 1802 715 1802 637 C 1802 609 1800 580 1797 550 C 1793 520 1790 494 1786 473 L 1094 473 C 1101 406 1122 356 1156 322 C 1190 288 1241 272 1309 272 C 1363 272 1414 279 1464 295 C 1514 310 1562 332 1610 360 L 1765 129 C 1725 99 1686 74 1647 54 C 1607 34 1568 18 1528 6 C 1488 -6 1447 -14 1406 -19 C 1365 -24 1324 -27 1282 -27 C 1189 -27 1103 -10 1025 24 C 946 58 879 107 825 172 Z M 1442 672 C 1442 702 1439 729 1433 755 C 1427 780 1418 802 1406 821 C 1393 839 1377 854 1357 865 C 1337 875 1312 881 1284 881 C 1261 881 1239 876 1219 868 C 1199 860 1180 847 1163 830 C 1146 813 1131 791 1119 765 C 1107 739 1098 708 1092 672 L 1442 672 Z M 446 328 C 446 300 455 278 474 261 C 493 244 517 236 547 236 C 583 236 615 244 645 262 C 674 280 702 308 729 348 C 721 370 715 393 712 417 C 709 440 707 466 705 494 C 668 490 634 485 603 477 C 571 469 544 459 521 446 C 497 432 479 416 466 397 C 452 377 446 354 446 328 Z" unicode="æ" />
<glyph horiz-adv-x="1087" d="M 240 -338 C 264 -317 289 -294 314 -269 C 339 -244 363 -218 385 -190 C 407 -162 426 -132 443 -101 C 460 -70 473 -38 481 -6 C 419 8 362 32 310 64 C 258 96 213 137 175 185 C 137 233 107 289 86 353 C 65 416 55 486 55 563 C 55 654 70 736 100 808 C 130 880 171 942 224 992 C 277 1042 340 1080 412 1107 C 484 1133 563 1147 647 1147 C 677 1147 710 1144 744 1139 C 778 1134 812 1126 847 1115 C 882 1103 917 1088 953 1070 C 988 1051 1023 1028 1057 1001 L 868 762 C 838 786 806 806 772 820 C 738 834 702 842 662 842 C 634 842 607 836 581 825 C 555 814 531 797 511 774 C 491 751 474 722 462 687 C 450 652 444 611 444 563 C 444 515 450 473 462 437 C 474 401 490 372 510 349 C 530 325 554 308 580 296 C 606 284 634 279 662 279 C 702 279 738 285 769 299 C 799 312 830 330 860 354 L 1063 141 C 1006 89 947 50 887 23 C 826 -3 762 -19 694 -25 C 684 -115 661 -197 625 -269 C 589 -341 541 -406 483 -463 L 240 -338 L 240 -338 Z" unicode="ç" />
<glyph horiz-adv-x="1223" d="M 59 563 C 59 655 74 737 105 809 C 136 881 178 943 231 993 C 283 1043 344 1081 414 1107 C 484 1133 557 1147 635 1147 C 715 1147 788 1135 853 1111 C 918 1087 974 1052 1020 1008 C 1066 964 1101 910 1126 848 C 1150 785 1163 715 1163 637 C 1163 609 1161 580 1159 550 C 1156 520 1153 494 1149 473 L 451 473 C 461 403 483 352 519 320 C 555 288 605 272 670 272 C 723 272 775 279 825 295 C 875 310 923 332 971 360 L 1126 129 C 1052 74 973 34 891 10 C 808 -14 722 -27 633 -27 C 553 -27 478 -13 408 12 C 338 38 278 77 226 127 C 174 177 133 239 103 312 C 73 385 59 469 59 563 Z M 317 1466 L 571 1620 L 797 1233 L 567 1233 L 317 1466 Z M 647 881 C 624 881 602 876 582 868 C 562 860 543 847 526 830 C 509 813 494 791 482 765 C 470 739 461 708 455 672 L 805 672 C 805 702 802 729 796 755 C 790 780 780 802 768 821 C 755 839 739 854 719 865 C 699 875 675 881 647 881 Z" unicode="è" />
<glyph horiz-adv-x="1223" d="M 59 563 C 59 655 74 737 105 809 C 136 881 178 943 231 993 C 283 1043 344 1081 414 1107 C 484 1133 557 1147 635 1147 C 715 1147 788 1135 853 1111 C 918 1087 974 1052 1020 1008 C 1066 964 1101 910 1126 848 C 1150 785 1163 715 1163 637 C 1163 609 1161 580 1159 550 C 1156 520 1153 494 1149 473 L 451 473 C 461 403 483 352 519 320 C 555 288 605 272 670 272 C 723 272 775 279 825 295 C 875 310 923 332 971 360 L 1126 129 C 1052 74 973 34 891 10 C 808 -14 722 -27 633 -27 C 553 -27 478 -13 408 12 C 338 38 278 77 226 127 C 174 177 133 239 103 312 C 73 385 59 469 59 563 Z M 698 1620 L 948 1466 L 700 1233 L 469 1233 L 698 1620 Z M 647 881 C 624 881 602 876 582 868 C 562 860 543 847 526 830 C 509 813 494 791 482 765 C 470 739 461 708 455 672 L 805 672 C 805 702 802 729 796 755 C 790 780 780 802 768 821 C 755 839 739 854 719 865 C 699 875 675 881 647 881 Z" unicode="é" />
<glyph horiz-adv-x="1223" d="M 59 563 C 59 655 74 737 105 809 C 136 881 178 943 231 993 C 283 1043 344 1081 414 1107 C 484 1133 557 1147 635 1147 C 715 1147 788 1135 853 1111 C 918 1087 974 1052 1020 1008 C 1066 964 1101 910 1126 848 C 1150 785 1163 715 1163 637 C 1163 609 1161 580 1159 550 C 1156 520 1153 494 1149 473 L 451 473 C 461 403 483 352 519 320 C 555 288 605 272 670 272 C 723 272 775 279 825 295 C 875 310 923 332 971 360 L 1126 129 C 1052 74 973 34 891 10 C 808 -14 722 -27 633 -27 C 553 -27 478 -13 408 12 C 338 38 278 77 226 127 C 174 177 133 239 103 312 C 73 385 59 469 59 563 Z M 422 1561 L 868 1561 L 1096 1233 L 803 1233 L 649 1403 L 641 1403 L 487 1233 L 197 1233 L 422 1561 Z M 647 881 C 624 881 602 876 582 868 C 562 860 543 847 526 830 C 509 813 494 791 482 765 C 470 739 461 708 455 672 L 805 672 C 805 702 802 729 796 755 C 790 780 780 802 768 821 C 755 839 739 854 719 865 C 699 875 675 881 647 881 Z" unicode="ê" />
<glyph horiz-adv-x="1223" d="M 59 563 C 59 655 74 737 105 809 C 136 881 178 943 231 993 C 283 1043 344 1081 414 1107 C 484 1133 557 1147 635 1147 C 715 1147 788 1135 853 1111 C 918 1087 974 1052 1020 1008 C 1066 964 1101 910 1126 848 C 1150 785 1163 715 1163 637 C 1163 609 1161 580 1159 550 C 1156 520 1153 494 1149 473 L 451 473 C 461 403 483 352 519 320 C 555 288 605 272 670 272 C 723 272 775 279 825 295 C 875 310 923 332 971 360 L 1126 129 C 1052 74 973 34 891 10 C 808 -14 722 -27 633 -27 C 553 -27 478 -13 408 12 C 338 38 278 77 226 127 C 174 177 133 239 103 312 C 73 385 59 469 59 563 Z M 248 1534 L 530 1534 L 530 1264 L 248 1264 L 248 1534 Z M 762 1534 L 1038 1534 L 1038 1264 L 762 1264 L 762 1534 Z M 647 881 C 624 881 602 876 582 868 C 562 860 543 847 526 830 C 509 813 494 791 482 765 C 470 739 461 708 455 672 L 805 672 C 805 702 802 729 796 755 C 790 780 780 802 768 821 C 755 839 739 854 719 865 C 699 875 675 881 647 881 Z" unicode="ë" />
<glyph horiz-adv-x="592" d="M 102 1098 L 489 1098 L 489 0 L 102 0 L 102 1098 Z M -23 1466 L 231 1620 L 457 1233 L 227 1233 L -23 1466 Z" unicode="ì" />
<glyph horiz-adv-x="592" d="M 356 1620 L 606 1466 L 358 1233 L 127 1233 L 356 1620 Z M 102 1098 L 489 1098 L 489 0 L 102 0 L 102 1098 Z" unicode="í" />
<glyph horiz-adv-x="592" d="M 70 1561 L 516 1561 L 743 1233 L 451 1233 L 297 1403 L 289 1403 L 135 1233 L -156 1233 L 70 1561 Z M 102 1098 L 489 1098 L 489 0 L 102 0 L 102 1098 Z" unicode="î" />
<glyph horiz-adv-x="592" d="M 414 1534 L 690 1534 L 690 1264 L 414 1264 L 414 1534 Z M -100 1534 L 182 1534 L 182 1264 L -100 1264 L -100 1534 Z M 102 1098 L 489 1098 L 489 0 L 102 0 L 102 1098 Z" unicode="ï" />
<glyph horiz-adv-x="1251" d="M 100 1120 L 467 1120 L 483 999 C 502 1018 523 1037 547 1055 C 571 1073 596 1088 624 1102 C 651 1116 680 1127 711 1135 C 741 1143 773 1147 807 1147 C 870 1147 924 1138 968 1120 C 1012 1102 1049 1075 1077 1040 C 1105 1005 1125 962 1138 911 C 1150 860 1157 802 1157 737 L 1157 0 L 772 0 L 772 748 C 772 784 763 814 747 836 C 730 858 702 870 664 870 C 632 870 600 861 570 844 C 539 826 511 801 485 768 L 485 0 L 100 0 L 100 1120 Z M 231 1245 C 225 1297 228 1344 238 1385 C 248 1425 265 1459 287 1487 C 309 1514 336 1535 369 1549 C 402 1563 439 1571 481 1571 C 515 1571 544 1565 569 1554 C 593 1543 616 1531 636 1518 C 656 1505 676 1493 694 1482 C 712 1471 732 1466 754 1466 C 778 1466 796 1473 807 1487 C 818 1501 822 1523 819 1554 L 1020 1554 C 1024 1500 1022 1453 1012 1413 C 1002 1372 986 1338 964 1310 C 942 1282 914 1262 881 1248 C 847 1234 810 1227 770 1227 C 736 1227 707 1232 683 1242 C 658 1252 635 1264 615 1277 C 595 1289 576 1301 558 1311 C 540 1321 520 1327 500 1327 C 474 1327 456 1320 445 1308 C 433 1296 428 1275 430 1245 L 231 1245 Z" unicode="ñ" />
<glyph horiz-adv-x="1272" d="M 313 1466 L 567 1620 L 793 1233 L 563 1233 L 313 1466 Z M 59 569 C 59 655 73 733 103 804 C 132 875 172 936 224 987 C 276 1037 337 1077 407 1105 C 477 1133 554 1147 637 1147 C 719 1147 795 1133 865 1105 C 935 1077 995 1037 1047 987 C 1099 936 1139 875 1168 804 C 1197 733 1212 655 1212 569 C 1212 477 1198 394 1170 320 C 1142 246 1102 184 1052 133 C 1002 81 941 42 871 14 C 800 -13 722 -27 637 -27 C 550 -27 471 -13 400 14 C 329 42 268 81 218 133 C 167 184 128 246 100 320 C 72 394 59 477 59 569 Z M 446 567 C 446 519 450 475 458 437 C 466 398 478 365 494 337 C 510 309 529 288 553 274 C 577 259 605 252 637 252 C 668 252 695 259 719 274 C 742 288 761 309 777 337 C 793 365 805 398 813 437 C 821 475 825 519 825 567 C 825 613 820 654 812 691 C 803 728 791 760 775 786 C 759 812 739 832 716 846 C 692 860 666 868 637 868 C 607 868 580 860 557 846 C 533 832 513 812 497 786 C 480 760 467 728 459 691 C 450 654 446 613 446 567 Z" unicode="ò" />
<glyph horiz-adv-x="1272" d="M 694 1620 L 944 1466 L 696 1233 L 465 1233 L 694 1620 Z M 59 569 C 59 655 73 733 103 804 C 132 875 172 936 224 987 C 276 1037 337 1077 407 1105 C 477 1133 554 1147 637 1147 C 719 1147 795 1133 865 1105 C 935 1077 995 1037 1047 987 C 1099 936 1139 875 1168 804 C 1197 733 1212 655 1212 569 C 1212 477 1198 394 1170 320 C 1142 246 1102 184 1052 133 C 1002 81 941 42 871 14 C 800 -13 722 -27 637 -27 C 550 -27 471 -13 400 14 C 329 42 268 81 218 133 C 167 184 128 246 100 320 C 72 394 59 477 59 569 Z M 446 567 C 446 519 450 475 458 437 C 466 398 478 365 494 337 C 510 309 529 288 553 274 C 577 259 605 252 637 252 C 668 252 695 259 719 274 C 742 288 761 309 777 337 C 793 365 805 398 813 437 C 821 475 825 519 825 567 C 825 613 820 654 812 691 C 803 728 791 760 775 786 C 759 812 739 832 716 846 C 692 860 666 868 637 868 C 607 868 580 860 557 846 C 533 832 513 812 497 786 C 480 760 467 728 459 691 C 450 654 446 613 446 567 Z" unicode="ó" />
<glyph horiz-adv-x="1272" d="M 410 1561 L 856 1561 L 1083 1233 L 791 1233 L 637 1403 L 629 1403 L 475 1233 L 184 1233 L 410 1561 Z M 59 569 C 59 655 73 733 103 804 C 132 875 172 936 224 987 C 276 1037 337 1077 407 1105 C 477 1133 554 1147 637 1147 C 719 1147 795 1133 865 1105 C 935 1077 995 1037 1047 987 C 1099 936 1139 875 1168 804 C 1197 733 1212 655 1212 569 C 1212 477 1198 394 1170 320 C 1142 246 1102 184 1052 133 C 1002 81 941 42 871 14 C 800 -13 722 -27 637 -27 C 550 -27 471 -13 400 14 C 329 42 268 81 218 133 C 167 184 128 246 100 320 C 72 394 59 477 59 569 Z M 446 567 C 446 519 450 475 458 437 C 466 398 478 365 494 337 C 510 309 529 288 553 274 C 577 259 605 252 637 252 C 668 252 695 259 719 274 C 742 288 761 309 777 337 C 793 365 805 398 813 437 C 821 475 825 519 825 567 C 825 613 820 654 812 691 C 803 728 791 760 775 786 C 759 812 739 832 716 846 C 692 860 666 868 637 868 C 607 868 580 860 557 846 C 533 832 513 812 497 786 C 480 760 467 728 459 691 C 450 654 446 613 446 567 Z" unicode="ô" />
<glyph horiz-adv-x="1272" d="M 59 569 C 59 655 73 733 103 804 C 132 875 172 936 224 987 C 276 1037 337 1077 407 1105 C 477 1133 554 1147 637 1147 C 719 1147 795 1133 865 1105 C 935 1077 995 1037 1047 987 C 1099 936 1139 875 1168 804 C 1197 733 1212 655 1212 569 C 1212 477 1198 394 1170 320 C 1142 246 1102 184 1052 133 C 1002 81 941 42 871 14 C 800 -13 722 -27 637 -27 C 550 -27 471 -13 400 14 C 329 42 268 81 218 133 C 167 184 128 246 100 320 C 72 394 59 477 59 569 Z M 446 567 C 446 519 450 475 458 437 C 466 398 478 365 494 337 C 510 309 529 288 553 274 C 577 259 605 252 637 252 C 668 252 695 259 719 274 C 742 288 761 309 777 337 C 793 365 805 398 813 437 C 821 475 825 519 825 567 C 825 613 820 654 812 691 C 803 728 791 760 775 786 C 759 812 739 832 716 846 C 692 860 666 868 637 868 C 607 868 580 860 557 846 C 533 832 513 812 497 786 C 480 760 467 728 459 691 C 450 654 446 613 446 567 Z M 240 1245 C 234 1297 237 1344 247 1385 C 257 1425 273 1459 295 1487 C 317 1514 345 1535 378 1549 C 411 1563 448 1571 489 1571 C 523 1571 552 1565 577 1554 C 601 1543 624 1531 645 1518 C 665 1505 685 1493 703 1482 C 721 1471 740 1466 762 1466 C 786 1466 804 1473 815 1487 C 826 1501 830 1523 827 1554 L 1028 1554 C 1033 1500 1031 1453 1021 1413 C 1011 1372 994 1338 972 1310 C 950 1282 922 1262 889 1248 C 855 1234 818 1227 778 1227 C 744 1227 715 1232 691 1242 C 666 1252 643 1264 623 1277 C 603 1289 584 1301 566 1311 C 548 1321 528 1327 508 1327 C 482 1327 464 1320 453 1308 C 441 1296 436 1275 438 1245 L 240 1245 Z" unicode="õ" />
<glyph horiz-adv-x="1272" d="M 752 1534 L 1028 1534 L 1028 1264 L 752 1264 L 752 1534 Z M 238 1534 L 520 1534 L 520 1264 L 238 1264 L 238 1534 Z M 59 569 C 59 655 73 733 103 804 C 132 875 172 936 224 987 C 276 1037 337 1077 407 1105 C 477 1133 554 1147 637 1147 C 719 1147 795 1133 865 1105 C 935 1077 995 1037 1047 987 C 1099 936 1139 875 1168 804 C 1197 733 1212 655 1212 569 C 1212 477 1198 394 1170 320 C 1142 246 1102 184 1052 133 C 1002 81 941 42 871 14 C 800 -13 722 -27 637 -27 C 550 -27 471 -13 400 14 C 329 42 268 81 218 133 C 167 184 128 246 100 320 C 72 394 59 477 59 569 Z M 446 567 C 446 519 450 475 458 437 C 466 398 478 365 494 337 C 510 309 529 288 553 274 C 577 259 605 252 637 252 C 668 252 695 259 719 274 C 742 288 761 309 777 337 C 793 365 805 398 813 437 C 821 475 825 519 825 567 C 825 613 820 654 812 691 C 803 728 791 760 775 786 C 759 812 739 832 716 846 C 692 860 666 868 637 868 C 607 868 580 860 557 846 C 533 832 513 812 497 786 C 480 760 467 728 459 691 C 450 654 446 613 446 567 Z" unicode="ö" />
<glyph horiz-adv-x="1260" d="M 481 1112 L 778 1112 L 778 858 L 481 858 L 481 1112 Z M 481 268 L 778 268 L 778 12 L 481 12 L 481 268 Z M 66 717 L 1192 717 L 1192 410 L 66 410 L 66 717 Z" unicode="÷" />
<glyph horiz-adv-x="1272" d="M 59 569 C 59 655 73 733 103 804 C 132 875 172 936 224 987 C 276 1037 337 1077 407 1105 C 477 1133 554 1147 637 1147 C 688 1147 737 1141 785 1130 C 832 1118 876 1102 918 1081 L 1024 1223 L 1163 1114 L 1055 979 C 1104 929 1142 869 1170 800 C 1198 730 1212 653 1212 569 C 1212 477 1198 394 1170 320 C 1142 246 1102 184 1052 133 C 1002 81 941 42 871 14 C 800 -13 722 -27 637 -27 C 577 -27 521 -20 470 -7 C 418 5 371 24 328 49 L 209 -109 L 68 -6 L 197 156 C 153 206 119 265 95 335 C 71 404 59 482 59 569 Z M 825 567 C 825 589 824 611 822 632 C 820 653 816 673 811 692 L 512 309 C 544 271 585 252 637 252 C 668 252 695 259 719 274 C 742 288 761 309 777 337 C 793 365 805 398 813 437 C 821 475 825 519 825 567 Z M 446 567 C 446 547 446 529 448 512 C 449 494 451 477 453 461 L 739 829 C 709 855 675 868 637 868 C 607 868 580 860 557 846 C 533 832 513 812 497 786 C 480 760 467 728 459 691 C 450 654 446 613 446 567 Z" unicode="ø" />
<glyph horiz-adv-x="1251" d="M 94 1120 L 479 1120 L 479 375 C 479 339 487 309 503 286 C 519 263 546 252 586 252 C 620 252 651 261 681 279 C 711 297 739 321 766 352 L 766 1120 L 1151 1120 L 1151 0 L 791 0 L 770 123 C 751 103 730 84 706 66 C 682 48 656 32 628 18 C 600 4 570 -7 539 -15 C 507 -23 476 -27 444 -27 C 381 -27 327 -18 283 0 C 239 18 203 44 175 79 C 147 114 126 157 113 209 C 100 260 94 319 94 385 L 94 1120 Z M 268 1466 L 522 1620 L 748 1233 L 518 1233 L 268 1466 Z" unicode="ù" />
<glyph horiz-adv-x="1251" d="M 702 1620 L 952 1466 L 705 1233 L 473 1233 L 702 1620 Z M 94 1120 L 479 1120 L 479 375 C 479 339 487 309 503 286 C 519 263 546 252 586 252 C 620 252 651 261 681 279 C 711 297 739 321 766 352 L 766 1120 L 1151 1120 L 1151 0 L 791 0 L 770 123 C 751 103 730 84 706 66 C 682 48 656 32 628 18 C 600 4 570 -7 539 -15 C 507 -23 476 -27 444 -27 C 381 -27 327 -18 283 0 C 239 18 203 44 175 79 C 147 114 126 157 113 209 C 100 260 94 319 94 385 L 94 1120 Z" unicode="ú" />
<glyph horiz-adv-x="1251" d="M 399 1561 L 846 1561 L 1073 1233 L 780 1233 L 627 1403 L 618 1403 L 465 1233 L 174 1233 L 399 1561 Z M 94 1120 L 479 1120 L 479 375 C 479 339 487 309 503 286 C 519 263 546 252 586 252 C 620 252 651 261 681 279 C 711 297 739 321 766 352 L 766 1120 L 1151 1120 L 1151 0 L 791 0 L 770 123 C 751 103 730 84 706 66 C 682 48 656 32 628 18 C 600 4 570 -7 539 -15 C 507 -23 476 -27 444 -27 C 381 -27 327 -18 283 0 C 239 18 203 44 175 79 C 147 114 126 157 113 209 C 100 260 94 319 94 385 L 94 1120 Z" unicode="û" />
<glyph horiz-adv-x="1251" d="M 743 1534 L 1020 1534 L 1020 1264 L 743 1264 L 743 1534 Z M 229 1534 L 512 1534 L 512 1264 L 229 1264 L 229 1534 Z M 94 1120 L 479 1120 L 479 375 C 479 339 487 309 503 286 C 519 263 546 252 586 252 C 620 252 651 261 681 279 C 711 297 739 321 766 352 L 766 1120 L 1151 1120 L 1151 0 L 791 0 L 770 123 C 751 103 730 84 706 66 C 682 48 656 32 628 18 C 600 4 570 -7 539 -15 C 507 -23 476 -27 444 -27 C 381 -27 327 -18 283 0 C 239 18 203 44 175 79 C 147 114 126 157 113 209 C 100 260 94 319 94 385 L 94 1120 Z" unicode="ü" />
<glyph horiz-adv-x="1200" d="M 113 -96 C 138 -105 164 -113 190 -120 C 216 -127 241 -131 266 -131 C 285 -131 302 -129 317 -126 C 331 -123 344 -118 355 -110 C 366 -102 376 -91 384 -77 C 392 -63 399 -46 406 -25 L 424 20 L 18 1120 L 399 1120 L 606 467 L 610 467 L 817 1120 L 1184 1120 L 803 31 C 769 -61 734 -137 699 -197 C 664 -257 626 -304 586 -338 C 546 -372 502 -396 455 -410 C 407 -423 355 -430 297 -430 C 242 -430 191 -426 145 -418 C 99 -410 55 -399 14 -387 L 113 -96 Z M 719 1534 L 995 1534 L 995 1264 L 719 1264 L 719 1534 Z M 205 1534 L 487 1534 L 487 1264 L 205 1264 L 205 1534 Z" unicode="ÿ" />
<glyph horiz-adv-x="1843" d="M 340 991 L 631 971 L 606 563 L 838 819 L 1331 1319 L 1530 1120 L 1034 621 L 780 391 L 1184 416 L 1204 127 L 313 100 L 340 991 Z" unicode="↙" />
<glyph horiz-adv-x="1434" d="M 186 846 L 25 846 L 25 1098 L 186 1098 L 186 1126 C 186 1201 196 1266 218 1322 C 239 1377 272 1423 316 1459 C 360 1495 417 1522 485 1540 C 553 1558 635 1567 729 1567 C 774 1567 821 1564 869 1558 C 917 1552 965 1543 1013 1532 C 1060 1521 1105 1508 1149 1492 C 1193 1476 1233 1458 1270 1438 L 1139 1196 C 1115 1208 1089 1219 1060 1230 C 1031 1241 1001 1251 969 1260 C 937 1269 904 1276 871 1282 C 837 1287 805 1290 774 1290 C 734 1290 702 1286 676 1280 C 650 1273 629 1263 613 1249 C 597 1235 585 1217 579 1195 C 572 1173 569 1148 569 1118 L 569 1096 L 831 1096 L 831 846 L 569 846 L 569 0 L 186 0 L 186 846 Z M 948 1096 L 1331 1096 L 1331 0 L 948 0 L 948 1096 Z" unicode="ﬁ" />
<glyph horiz-adv-x="1448" d="M 186 846 L 25 846 L 25 1098 L 186 1098 L 186 1126 C 186 1273 236 1384 337 1458 C 437 1532 583 1569 774 1569 C 966 1569 1109 1531 1203 1456 C 1296 1381 1343 1267 1343 1114 L 1343 0 L 961 0 L 961 1116 C 961 1145 957 1170 951 1192 C 944 1214 933 1232 918 1247 C 903 1261 883 1272 858 1279 C 833 1286 802 1290 766 1290 C 728 1290 697 1286 672 1279 C 647 1272 627 1261 612 1247 C 596 1233 585 1215 579 1193 C 572 1171 569 1146 569 1118 L 569 1096 L 838 1096 L 838 846 L 569 846 L 569 0 L 186 0 L 186 846 Z" unicode="ﬂ" />
<glyph horiz-adv-x="1151" d="M 233 565 C 233 611 242 655 260 697 C 278 738 302 774 333 805 C 364 835 400 860 442 878 C 483 896 527 905 575 905 C 622 905 666 896 708 878 C 750 860 786 835 817 805 C 848 774 873 738 891 697 C 909 655 918 611 918 565 C 918 517 909 473 891 431 C 873 389 848 352 817 321 C 786 290 750 266 708 248 C 666 230 622 221 575 221 C 527 221 483 230 442 248 C 400 266 364 290 333 321 C 302 352 278 389 260 431 C 242 473 233 517 233 565 Z" unicode="•" />
<glyph horiz-adv-x="2208" d="M 944 846 L 569 846 L 569 0 L 186 0 L 186 846 L 25 846 L 25 1098 L 186 1098 L 186 1122 C 186 1267 227 1375 310 1445 C 392 1515 512 1550 670 1550 C 754 1550 829 1540 895 1522 C 961 1503 1023 1478 1081 1448 C 1181 1528 1331 1569 1532 1569 C 1723 1569 1866 1531 1961 1456 C 2055 1381 2103 1267 2103 1114 L 2103 0 L 1718 0 L 1718 1116 C 1718 1145 1714 1170 1708 1192 C 1702 1214 1691 1232 1676 1247 C 1661 1261 1641 1272 1616 1279 C 1591 1286 1560 1290 1524 1290 C 1486 1290 1455 1286 1431 1279 C 1406 1272 1386 1261 1371 1247 C 1355 1233 1344 1215 1338 1193 C 1332 1171 1329 1146 1329 1118 L 1329 1096 L 1593 1096 L 1593 846 L 1329 846 L 1329 0 L 944 0 L 944 846 Z M 569 1096 L 944 1096 L 944 1126 C 944 1144 944 1162 945 1180 C 946 1197 948 1214 952 1231 C 919 1247 884 1260 847 1269 C 810 1277 771 1282 729 1282 C 699 1282 673 1278 653 1271 C 633 1263 616 1253 604 1240 C 592 1226 583 1210 577 1192 C 571 1174 569 1154 569 1133 L 569 1096 Z" unicode="ﬄ" />
<glyph horiz-adv-x="2003" d="M 184 352 C 242 323 299 300 357 282 C 415 264 470 256 524 256 C 568 256 599 261 618 273 C 637 284 647 301 647 324 C 647 342 638 356 622 367 C 606 378 584 388 557 397 C 530 405 499 414 465 422 C 431 430 396 439 360 450 C 324 461 289 475 255 492 C 221 508 190 529 163 555 C 136 581 114 612 98 649 C 82 686 74 731 74 784 C 74 842 86 893 110 937 C 134 981 165 1017 205 1045 C 244 1073 289 1095 339 1109 C 389 1123 440 1130 492 1130 C 543 1130 591 1124 635 1112 C 679 1100 716 1085 748 1067 C 733 1087 721 1111 712 1139 C 702 1166 698 1195 698 1227 C 698 1275 706 1321 724 1363 C 742 1405 768 1442 804 1474 C 839 1505 883 1530 936 1548 C 989 1566 1051 1575 1122 1575 C 1200 1575 1271 1566 1333 1550 C 1395 1533 1447 1507 1490 1473 C 1533 1438 1566 1394 1589 1341 C 1612 1287 1624 1224 1624 1151 L 1624 1120 L 1923 1120 L 1923 862 L 1624 862 L 1624 383 C 1624 345 1631 318 1646 303 C 1661 288 1685 281 1718 281 C 1741 281 1764 285 1787 294 C 1810 302 1829 313 1845 326 L 1980 102 C 1930 62 1874 30 1811 7 C 1748 -15 1682 -27 1612 -27 C 1548 -27 1493 -19 1447 -3 C 1400 12 1361 36 1331 69 C 1300 102 1277 144 1263 194 C 1248 244 1241 305 1241 375 L 1241 862 L 1083 862 L 1083 1120 L 1241 1120 L 1241 1151 C 1241 1205 1227 1249 1199 1282 C 1171 1314 1129 1331 1073 1331 C 1047 1331 1025 1327 1005 1319 C 985 1311 969 1300 956 1287 C 942 1273 932 1257 925 1239 C 918 1220 915 1200 915 1180 C 915 1150 920 1125 930 1103 C 940 1081 955 1061 977 1042 L 848 795 C 820 808 791 819 762 828 C 732 837 704 844 678 850 C 652 856 627 860 605 862 C 583 864 565 866 551 866 C 511 866 483 860 467 848 C 450 836 442 820 442 799 C 442 781 450 766 466 756 C 482 745 504 736 531 728 C 557 720 588 712 622 705 C 656 697 691 688 727 678 C 762 667 797 654 831 638 C 865 622 896 601 923 576 C 949 550 971 519 987 482 C 1003 445 1012 400 1012 348 C 1012 287 1000 233 976 187 C 952 140 918 101 876 69 C 833 37 782 13 724 -2 C 665 -18 601 -27 532 -27 C 445 -27 361 -16 281 4 C 201 24 123 54 49 92 L 184 352 Z" unicode="ﬆ" />
<glyph horiz-adv-x="1184" d="M 627 1210 C 572 1210 523 1218 480 1235 C 437 1252 400 1276 369 1307 C 338 1337 313 1374 295 1418 C 277 1461 265 1509 260 1561 L 489 1561 C 496 1521 512 1490 536 1467 C 560 1443 591 1432 627 1432 C 663 1432 692 1443 716 1467 C 739 1490 754 1521 762 1561 L 987 1561 C 983 1508 972 1460 954 1417 C 936 1373 911 1336 880 1306 C 849 1275 812 1251 769 1235 C 726 1218 679 1210 627 1210 Z" unicode="˘" />
<glyph horiz-adv-x="1266" d="M 102 496 C 143 510 183 524 223 539 C 263 554 302 569 340 584 L 340 1061 C 340 1131 350 1191 372 1242 C 394 1292 423 1334 459 1366 C 495 1398 536 1422 582 1438 C 628 1454 676 1462 725 1462 C 784 1462 840 1454 893 1439 C 946 1423 993 1400 1033 1369 C 1073 1338 1104 1299 1128 1252 C 1151 1204 1163 1149 1163 1085 C 1163 1032 1153 980 1134 930 C 1114 879 1086 830 1049 783 C 1012 735 967 689 913 645 C 859 601 799 558 731 518 L 731 369 C 731 341 738 318 752 301 C 766 284 788 276 819 276 C 842 276 862 281 879 293 C 895 305 908 318 918 334 L 1126 158 C 1102 126 1075 98 1045 75 C 1014 51 981 32 947 17 C 912 2 876 -8 840 -16 C 803 -23 767 -27 731 -27 C 670 -27 616 -20 569 -6 C 521 8 481 29 448 59 C 414 89 388 127 370 173 C 352 219 342 274 340 338 C 313 327 286 317 258 307 C 230 297 202 289 174 281 L 102 496 Z M 731 784 C 783 822 824 862 853 906 C 882 949 897 997 897 1049 C 897 1063 895 1076 891 1088 C 887 1100 881 1111 874 1121 C 867 1130 858 1137 848 1143 C 838 1148 827 1151 815 1151 C 788 1151 767 1141 753 1121 C 738 1101 731 1077 731 1049 L 731 784 Z" unicode="ℓ" />
<glyph horiz-adv-x="2060" d="M 102 1180 L 416 1180 L 752 678 L 752 1180 L 1145 1180 L 1145 0 L 821 0 L 494 504 L 494 0 L 102 0 L 102 1180 Z M 1253 840 C 1253 888 1260 933 1275 975 C 1290 1017 1313 1053 1343 1085 C 1373 1116 1411 1141 1456 1159 C 1501 1177 1554 1186 1614 1186 C 1674 1186 1727 1177 1773 1159 C 1818 1141 1856 1116 1886 1085 C 1916 1053 1938 1017 1953 975 C 1968 933 1976 888 1976 840 C 1976 795 1968 752 1952 710 C 1936 668 1913 631 1883 599 C 1853 567 1815 541 1770 521 C 1724 501 1672 492 1612 492 C 1552 492 1500 501 1455 521 C 1410 541 1373 567 1343 599 C 1313 631 1290 668 1275 710 C 1260 752 1253 795 1253 840 Z M 1507 840 C 1507 824 1509 809 1515 795 C 1521 781 1528 768 1538 758 C 1547 748 1558 740 1571 734 C 1584 728 1598 725 1614 725 C 1630 725 1644 728 1657 734 C 1670 740 1681 748 1691 758 C 1700 768 1707 781 1712 795 C 1717 809 1720 824 1720 840 C 1720 855 1717 870 1712 884 C 1707 898 1700 910 1691 921 C 1681 931 1670 940 1657 946 C 1644 952 1630 956 1614 956 C 1598 956 1584 952 1571 946 C 1558 940 1547 931 1538 921 C 1528 910 1521 898 1515 884 C 1509 870 1507 855 1507 840 Z" unicode="№" />
<glyph horiz-adv-x="1081" d="M 403 1534 L 680 1534 L 680 1264 L 403 1264 L 403 1534 Z" unicode="˙" />
<glyph horiz-adv-x="1135" d="M 590 1221 C 554 1221 520 1227 488 1239 C 456 1251 429 1269 405 1291 C 381 1313 362 1339 348 1370 C 334 1400 328 1434 328 1470 C 328 1506 334 1540 348 1572 C 362 1603 381 1630 405 1652 C 429 1674 456 1692 488 1705 C 520 1717 554 1724 590 1724 C 626 1724 659 1717 691 1705 C 722 1692 749 1674 773 1652 C 797 1630 815 1603 829 1572 C 843 1540 850 1506 850 1470 C 850 1434 843 1400 829 1370 C 815 1339 797 1313 773 1291 C 749 1269 722 1251 691 1239 C 659 1227 626 1221 590 1221 Z M 590 1339 C 608 1339 625 1342 641 1349 C 657 1356 670 1366 682 1378 C 694 1390 703 1403 710 1419 C 717 1435 721 1452 721 1470 C 721 1489 717 1507 710 1523 C 703 1539 694 1554 682 1566 C 670 1578 657 1587 641 1594 C 625 1600 608 1604 590 1604 C 571 1604 554 1600 538 1594 C 522 1587 508 1578 496 1566 C 484 1554 475 1539 469 1523 C 462 1507 459 1489 459 1470 C 459 1452 462 1435 469 1419 C 475 1403 484 1390 496 1378 C 508 1366 522 1356 538 1349 C 554 1342 571 1339 590 1339 Z" unicode="˚" />
<glyph horiz-adv-x="1806" d="M 877 1434 L 1100 1434 L 1294 1196 L 1487 1434 L 1714 1434 L 1714 676 L 1477 676 L 1477 1077 L 1300 862 L 1114 1081 L 1114 676 L 877 676 L 877 1434 Z M 188 932 C 229 902 271 879 314 863 C 357 847 396 840 432 840 C 497 840 530 859 530 897 C 530 915 519 929 498 939 C 476 948 450 956 418 964 C 386 972 351 980 314 989 C 276 998 242 1011 210 1028 C 178 1045 151 1068 130 1098 C 108 1127 98 1166 98 1214 C 98 1248 105 1280 120 1309 C 135 1338 157 1363 185 1384 C 213 1405 247 1421 288 1433 C 328 1444 374 1450 426 1450 C 479 1450 534 1442 591 1428 C 648 1413 703 1392 756 1366 L 664 1204 C 617 1224 573 1241 533 1254 C 492 1267 456 1274 426 1274 C 399 1274 377 1268 361 1258 C 344 1247 336 1232 336 1214 C 336 1201 342 1191 354 1183 C 366 1175 383 1168 404 1162 C 424 1156 448 1151 474 1146 C 500 1140 526 1134 554 1127 C 581 1119 608 1110 634 1099 C 660 1087 683 1073 704 1055 C 724 1037 741 1016 753 990 C 765 964 772 933 772 897 C 772 861 764 829 750 800 C 735 770 713 745 685 724 C 656 702 620 686 578 674 C 536 662 487 657 432 657 C 365 657 300 667 238 687 C 176 707 117 734 61 770 L 188 932 Z" unicode="℠" />
<glyph horiz-adv-x="2544" d="M 1751 319 C 1751 368 1760 413 1778 453 C 1796 493 1822 528 1854 557 C 1886 585 1924 607 1968 623 C 2012 639 2059 647 2111 647 C 2163 647 2211 639 2255 623 C 2299 607 2338 585 2370 557 C 2402 528 2428 493 2446 453 C 2464 413 2474 368 2474 319 C 2474 267 2465 221 2447 180 C 2429 139 2405 104 2373 75 C 2341 45 2303 23 2259 7 C 2214 -8 2165 -16 2111 -16 C 2058 -16 2010 -8 1966 7 C 1922 23 1884 45 1852 75 C 1820 104 1795 139 1777 180 C 1759 221 1751 267 1751 319 Z M 1982 319 C 1982 273 1993 236 2015 208 C 2037 180 2069 166 2111 166 C 2155 166 2188 180 2211 208 C 2233 236 2245 273 2245 319 C 2245 339 2241 359 2235 377 C 2229 395 2220 411 2208 424 C 2196 437 2182 447 2166 455 C 2150 463 2131 467 2111 467 C 2091 467 2074 463 2058 455 C 2042 447 2029 437 2018 424 C 2006 411 1997 395 1991 377 C 1985 359 1982 339 1982 319 Z M 1462 1180 L 516 0 L 293 0 L 1243 1180 L 1462 1180 Z M 70 868 C 70 917 79 962 97 1002 C 115 1042 141 1077 173 1106 C 205 1134 243 1156 287 1172 C 331 1188 378 1196 430 1196 C 482 1196 530 1188 574 1172 C 618 1156 657 1134 689 1106 C 721 1077 747 1042 765 1002 C 783 962 793 917 793 868 C 793 816 784 770 766 729 C 748 687 724 652 692 623 C 660 594 621 572 577 556 C 533 540 484 532 430 532 C 377 532 329 540 285 556 C 241 572 203 594 171 623 C 139 652 114 687 96 729 C 78 770 70 816 70 868 Z M 301 868 C 301 822 312 785 334 757 C 356 729 388 715 430 715 C 473 715 506 729 529 757 C 551 785 563 822 563 868 C 563 888 559 908 553 926 C 547 944 538 959 527 972 C 515 985 501 995 485 1003 C 469 1010 450 1014 430 1014 C 410 1014 393 1010 377 1003 C 361 995 347 985 336 972 C 324 959 316 944 310 926 C 304 908 301 888 301 868 Z M 971 319 C 971 368 980 413 998 453 C 1016 493 1042 528 1074 557 C 1106 585 1145 607 1189 623 C 1233 639 1281 647 1333 647 C 1385 647 1433 639 1477 623 C 1521 607 1559 585 1592 557 C 1624 528 1650 493 1668 453 C 1686 413 1696 368 1696 319 C 1696 267 1687 221 1669 180 C 1651 139 1626 104 1594 75 C 1562 45 1523 23 1479 7 C 1435 -8 1386 -16 1333 -16 C 1280 -16 1231 -8 1187 7 C 1143 23 1105 45 1073 75 C 1041 104 1016 139 998 180 C 980 221 971 267 971 319 Z M 1202 319 C 1202 273 1213 236 1236 208 C 1258 180 1291 166 1333 166 C 1376 166 1409 180 1431 208 C 1453 236 1464 273 1464 319 C 1464 339 1461 359 1455 377 C 1449 395 1440 411 1429 424 C 1417 437 1404 447 1388 455 C 1372 463 1353 467 1333 467 C 1313 467 1295 463 1279 455 C 1263 447 1249 437 1237 424 C 1225 411 1217 395 1211 377 C 1205 359 1202 339 1202 319 Z" unicode="‰" />
<glyph horiz-adv-x="1825" d="M 895 1434 L 1118 1434 L 1311 1196 L 1503 1434 L 1731 1434 L 1731 676 L 1495 676 L 1495 1077 L 1317 862 L 1133 1081 L 1133 676 L 895 676 L 895 1434 Z M 313 1245 L 61 1245 L 61 1434 L 799 1434 L 799 1245 L 553 1245 L 553 676 L 313 676 L 313 1245 Z" unicode="™" />
<glyph horiz-adv-x="1139" d="M 758 -399 C 732 -407 705 -414 676 -419 C 646 -423 616 -426 586 -426 C 544 -426 507 -421 475 -411 C 443 -401 415 -386 392 -368 C 369 -350 352 -328 340 -302 C 328 -276 322 -248 322 -217 C 322 -178 330 -141 347 -105 C 363 -69 387 -35 419 -5 C 451 24 489 52 534 77 C 579 101 630 122 686 139 L 748 55 C 689 24 646 -4 619 -30 C 591 -56 578 -85 578 -115 C 578 -134 585 -149 599 -161 C 613 -172 632 -178 657 -178 C 675 -178 693 -176 709 -173 C 725 -169 738 -165 750 -160 L 758 -166 L 758 -399 Z" unicode="˛" />
<glyph horiz-adv-x="1212" d="M 227 1245 C 221 1297 224 1344 234 1385 C 244 1425 261 1459 283 1487 C 305 1514 332 1535 365 1549 C 398 1563 435 1571 477 1571 C 511 1571 540 1565 565 1554 C 589 1543 612 1531 632 1518 C 652 1505 672 1493 690 1482 C 708 1471 728 1466 750 1466 C 774 1466 792 1473 803 1487 C 814 1501 818 1523 815 1554 L 1016 1554 C 1020 1500 1018 1453 1008 1413 C 998 1372 982 1338 960 1310 C 938 1282 910 1262 877 1248 C 843 1234 806 1227 766 1227 C 732 1227 703 1232 679 1242 C 654 1252 631 1264 611 1277 C 591 1289 572 1301 554 1311 C 536 1321 516 1327 496 1327 C 470 1327 451 1320 440 1308 C 429 1296 424 1275 426 1245 L 227 1245 L 227 1245 Z" unicode="˜" />
<glyph horiz-adv-x="1468" d="M 102 592 C 102 680 118 762 150 838 C 182 913 228 978 288 1032 C 348 1086 420 1129 505 1160 C 589 1190 684 1206 788 1206 C 876 1206 956 1192 1028 1166 C 1099 1140 1160 1103 1210 1056 C 1260 1009 1298 953 1325 889 C 1352 824 1366 753 1366 676 C 1366 652 1365 629 1363 606 C 1361 583 1359 560 1356 537 L 526 537 L 526 260 C 597 208 684 182 788 182 C 860 182 927 192 989 214 C 1051 235 1110 263 1167 297 L 1286 113 C 1207 65 1127 29 1045 6 C 963 -17 878 -29 788 -29 C 684 -29 590 -13 506 17 C 422 48 350 91 290 147 C 230 202 183 267 151 343 C 118 419 102 502 102 592 Z M 780 1018 C 734 1018 690 1012 647 1000 C 603 988 563 971 526 948 L 526 700 L 973 700 L 975 969 C 947 984 916 996 884 1005 C 852 1013 817 1018 780 1018 Z" unicode="℮" />
<glyph horiz-adv-x="592" d="M 102 1098 L 489 1098 L 489 0 L 102 0 L 102 1098 Z" unicode="ı" />
<glyph horiz-adv-x="2109" d="M 186 846 L 25 846 L 25 1098 L 186 1098 L 186 1126 C 186 1273 236 1384 337 1458 C 437 1532 583 1569 774 1569 C 966 1569 1109 1531 1203 1456 C 1296 1381 1343 1267 1343 1114 L 1343 999 C 1363 1018 1384 1037 1408 1055 C 1431 1073 1456 1088 1483 1102 C 1510 1116 1539 1127 1569 1135 C 1599 1143 1631 1147 1665 1147 C 1728 1147 1782 1138 1826 1120 C 1870 1102 1907 1075 1935 1040 C 1963 1005 1983 962 1996 911 C 2008 860 2015 802 2015 737 L 2015 0 L 1630 0 L 1630 748 C 1630 784 1622 814 1606 836 C 1590 858 1562 870 1522 870 C 1490 870 1458 861 1428 844 C 1397 826 1369 801 1343 768 L 1343 0 L 961 0 L 961 1116 C 961 1145 957 1170 951 1192 C 944 1214 933 1232 918 1247 C 903 1261 883 1272 858 1279 C 833 1286 802 1290 766 1290 C 728 1290 697 1286 672 1279 C 647 1272 627 1261 612 1247 C 596 1233 585 1215 579 1193 C 572 1171 569 1146 569 1118 L 569 1096 L 838 1096 L 838 846 L 569 846 L 569 0 L 186 0 L 186 846 Z" unicode="" />
<glyph horiz-adv-x="1239" d="M 428 1561 L 874 1561 L 1102 1233 L 809 1233 L 655 1403 L 647 1403 L 494 1233 L 203 1233 L 428 1561 Z" unicode="ˆ" />
<glyph horiz-adv-x="2357" d="M 66 729 C 66 824 83 916 118 1004 C 152 1092 201 1169 265 1237 C 329 1305 406 1359 496 1399 C 586 1439 687 1460 799 1460 C 877 1460 949 1447 1013 1421 C 1077 1395 1133 1361 1182 1317 L 1182 1434 L 2259 1434 L 2259 1094 L 1577 1094 L 1577 881 L 2179 881 L 2179 573 L 1577 573 L 1577 340 L 2269 340 L 2269 0 L 1182 0 L 1182 113 C 1134 69 1078 34 1014 10 C 950 -14 879 -27 799 -27 C 684 -27 581 -7 491 32 C 400 72 323 126 260 195 C 197 263 149 343 116 435 C 82 527 66 625 66 729 Z M 467 729 C 467 669 474 614 489 562 C 504 510 526 466 556 428 C 586 390 623 360 668 338 C 712 316 765 305 825 305 C 884 305 936 316 981 338 C 1025 360 1062 390 1092 428 C 1122 466 1144 511 1159 563 C 1174 615 1182 670 1182 729 C 1182 782 1174 833 1158 881 C 1142 929 1119 972 1089 1008 C 1058 1044 1020 1073 976 1095 C 932 1117 881 1128 825 1128 C 767 1128 715 1117 671 1095 C 627 1073 589 1044 559 1008 C 529 972 506 929 490 881 C 474 833 467 782 467 729 Z" unicode="Œ" />
<glyph horiz-adv-x="1982" d="M 59 571 C 59 657 73 736 103 807 C 132 878 173 939 225 989 C 277 1039 338 1078 409 1106 C 480 1133 557 1147 641 1147 C 723 1147 796 1132 859 1102 C 922 1072 974 1030 1016 975 C 1060 1030 1114 1072 1178 1102 C 1242 1132 1316 1147 1399 1147 C 1479 1147 1551 1135 1616 1111 C 1680 1087 1735 1052 1781 1008 C 1827 964 1862 910 1887 848 C 1912 785 1925 715 1925 637 C 1925 609 1923 580 1921 550 C 1918 520 1915 494 1911 473 L 1217 473 C 1224 404 1245 353 1280 321 C 1314 288 1364 272 1430 272 C 1485 272 1537 279 1587 295 C 1636 310 1685 332 1733 360 L 1888 129 C 1810 70 1732 29 1652 7 C 1572 -15 1491 -27 1409 -27 C 1237 -27 1107 29 1018 143 C 976 89 923 47 860 17 C 797 -12 724 -27 641 -27 C 553 -27 474 -13 403 15 C 331 43 270 83 219 135 C 168 187 129 249 101 323 C 73 397 59 479 59 571 Z M 449 569 C 449 521 452 477 460 438 C 468 399 479 366 495 338 C 511 310 530 289 554 274 C 577 259 605 252 637 252 C 668 252 695 259 719 274 C 742 289 761 310 777 338 C 792 366 803 399 811 438 C 819 477 823 521 823 569 C 823 615 818 656 810 693 C 802 730 790 762 774 788 C 758 814 739 834 716 848 C 693 862 667 870 637 870 C 607 870 580 862 557 848 C 533 834 514 814 498 788 C 482 762 469 730 461 693 C 453 656 449 615 449 569 Z M 1565 672 C 1565 702 1562 729 1556 755 C 1550 780 1541 802 1529 821 C 1516 839 1500 854 1480 865 C 1460 875 1435 881 1407 881 C 1385 881 1364 876 1344 868 C 1324 860 1305 847 1288 830 C 1271 813 1256 791 1243 765 C 1230 739 1220 708 1214 672 L 1565 672 Z" unicode="œ" />
<glyph horiz-adv-x="801" d="M 717 176 L 479 0 L 68 567 L 479 1122 L 719 948 L 416 567 L 717 176 Z" unicode="‹" />
<glyph horiz-adv-x="801" d="M 385 567 L 82 948 L 322 1122 L 733 567 L 322 0 L 84 176 L 385 567 Z" unicode="›" />
<glyph horiz-adv-x="2036" d="M 55 563 C 55 646 67 722 93 792 C 119 861 154 920 200 970 C 245 1020 299 1058 361 1086 C 423 1114 490 1128 563 1128 C 615 1128 661 1121 700 1109 C 738 1097 773 1081 803 1063 C 786 1085 773 1111 764 1140 C 754 1169 750 1201 750 1237 C 750 1285 758 1330 776 1372 C 794 1413 820 1449 855 1479 C 890 1509 933 1532 985 1549 C 1037 1566 1097 1575 1165 1575 C 1242 1575 1311 1566 1373 1549 C 1434 1531 1486 1505 1528 1470 C 1570 1434 1603 1390 1625 1337 C 1647 1284 1659 1222 1659 1151 L 1659 1120 L 1958 1120 L 1958 862 L 1659 862 L 1659 383 C 1659 345 1666 318 1681 303 C 1695 288 1719 281 1751 281 C 1774 281 1797 285 1820 294 C 1843 302 1863 313 1880 326 L 2013 102 C 1963 62 1907 30 1845 7 C 1782 -15 1715 -27 1645 -27 C 1581 -27 1526 -19 1480 -3 C 1433 12 1394 36 1364 69 C 1333 102 1310 144 1296 194 C 1281 244 1274 305 1274 375 L 1274 862 L 1116 862 L 1116 1120 L 1272 1120 L 1272 1151 C 1272 1205 1258 1249 1231 1282 C 1204 1314 1164 1331 1110 1331 C 1086 1331 1064 1327 1045 1319 C 1026 1311 1010 1301 997 1287 C 983 1273 973 1257 966 1239 C 959 1220 956 1200 956 1178 C 956 1142 965 1109 983 1078 C 1001 1046 1023 1018 1049 993 L 868 762 C 838 786 806 806 772 820 C 738 834 702 842 662 842 C 634 842 607 836 581 825 C 555 814 531 797 511 774 C 491 751 474 722 462 687 C 450 652 444 611 444 563 C 444 515 450 473 462 437 C 474 401 490 372 510 349 C 530 325 554 308 580 296 C 606 284 634 279 662 279 C 702 279 738 285 769 298 C 799 310 830 329 860 354 L 1063 139 C 1000 82 934 40 866 13 C 797 -13 724 -27 647 -27 C 564 -27 487 -13 415 13 C 343 39 280 78 227 129 C 173 179 131 241 101 314 C 70 387 55 470 55 563 Z" unicode="" />
<glyph horiz-adv-x="1098" d="M 698 121 C 698 13 681 -76 649 -147 C 617 -218 570 -274 510 -316 C 450 -358 376 -387 290 -404 C 204 -421 107 -430 0 -430 L 0 -147 C 67 -147 121 -141 161 -129 C 201 -117 232 -100 254 -78 C 276 -55 290 -27 297 5 C 303 37 307 75 307 117 L 307 1141 C 307 1221 319 1289 344 1344 C 369 1398 403 1442 447 1476 C 491 1509 542 1533 602 1547 C 662 1561 727 1569 797 1569 C 821 1569 846 1567 872 1564 C 898 1561 925 1557 951 1552 C 977 1546 1003 1540 1028 1533 C 1053 1525 1076 1517 1098 1509 L 1006 1253 C 978 1261 951 1269 924 1275 C 896 1281 865 1284 829 1284 C 781 1284 747 1271 727 1247 C 707 1223 698 1190 698 1149 L 698 121 Z" unicode="∫" />
<glyph horiz-adv-x="2400" d="M 944 846 L 569 846 L 569 0 L 186 0 L 186 846 L 25 846 L 25 1098 L 186 1098 L 186 1122 C 186 1267 227 1375 310 1445 C 392 1515 512 1550 670 1550 C 752 1550 825 1541 889 1523 C 953 1505 1013 1481 1071 1452 C 1154 1523 1272 1559 1425 1559 C 1507 1559 1580 1550 1646 1532 C 1712 1514 1773 1490 1831 1460 C 1874 1498 1925 1525 1985 1543 C 2044 1560 2109 1569 2179 1569 C 2203 1569 2229 1567 2255 1564 C 2281 1561 2306 1557 2332 1552 C 2358 1546 2383 1540 2408 1533 C 2432 1525 2456 1517 2478 1509 L 2388 1257 C 2361 1266 2334 1274 2308 1280 C 2281 1286 2249 1290 2212 1290 C 2166 1290 2134 1277 2115 1252 C 2096 1226 2087 1192 2087 1149 L 2087 1096 L 2349 1096 L 2349 846 L 2087 846 L 2087 0 L 1702 0 L 1702 846 L 1329 846 L 1329 0 L 944 0 L 944 846 Z M 1329 1096 L 1702 1096 L 1702 1124 C 1702 1144 1702 1164 1704 1184 C 1705 1203 1708 1222 1712 1241 C 1678 1256 1642 1268 1605 1277 C 1568 1285 1529 1290 1487 1290 C 1457 1290 1432 1285 1412 1277 C 1392 1269 1375 1257 1363 1243 C 1351 1229 1342 1212 1337 1193 C 1331 1174 1329 1154 1329 1133 L 1329 1096 Z M 569 1096 L 944 1096 L 944 1122 C 944 1141 944 1160 945 1178 C 946 1196 948 1214 952 1231 C 919 1247 884 1260 847 1269 C 810 1277 771 1282 729 1282 C 699 1282 673 1278 653 1271 C 633 1263 616 1253 604 1240 C 592 1226 583 1210 577 1192 C 571 1174 569 1154 569 1133 L 569 1096 Z" unicode="" />
<glyph horiz-adv-x="1843" d="M 1710 838 L 1063 227 L 866 444 L 1174 715 L 831 696 L 129 696 L 129 977 L 831 977 L 1174 958 L 877 1231 L 1063 1448 L 1710 838 Z" unicode="→" />
<glyph horiz-adv-x="1239" d="M 203 1561 L 494 1561 L 647 1395 L 655 1395 L 809 1561 L 1102 1561 L 874 1233 L 428 1233 L 203 1561 Z" unicode="ˇ" />
<glyph horiz-adv-x="1221" d="M 418 1128 C 392 1116 367 1101 342 1085 C 316 1069 293 1050 272 1030 L 88 1223 C 124 1257 162 1289 202 1318 C 242 1347 285 1372 331 1393 C 376 1414 424 1430 475 1442 C 526 1454 580 1460 637 1460 C 711 1460 780 1451 843 1434 C 905 1416 959 1391 1004 1357 C 1049 1323 1084 1282 1109 1233 C 1134 1184 1147 1128 1147 1065 C 1147 1006 1137 956 1117 915 C 1097 873 1072 837 1042 807 C 1012 776 979 749 944 726 C 908 703 875 681 845 659 C 814 637 788 615 766 591 C 744 567 733 540 731 508 L 727 463 L 457 463 L 418 1128 Z M 410 309 L 772 309 L 772 0 L 410 0 L 410 309 Z M 831 1061 C 831 1091 821 1114 803 1132 C 785 1150 758 1163 723 1171 L 641 786 C 659 813 680 837 702 859 C 724 881 745 902 764 923 C 783 943 799 964 812 986 C 824 1008 831 1033 831 1061 Z" unicode="‽" />
<glyph horiz-adv-x="2124" d="M 186 846 L 25 846 L 25 1098 L 186 1098 L 186 1126 C 186 1273 236 1384 337 1458 C 437 1532 583 1569 774 1569 C 966 1569 1109 1531 1203 1456 C 1296 1381 1343 1267 1343 1114 L 1343 1004 C 1382 1051 1428 1086 1482 1110 C 1535 1133 1590 1145 1647 1145 C 1709 1145 1765 1133 1816 1109 C 1867 1085 1911 1050 1948 1002 C 1984 954 2013 895 2033 823 C 2053 751 2064 666 2064 569 C 2064 471 2053 385 2033 311 C 2012 237 1983 175 1947 125 C 1911 75 1868 38 1818 13 C 1768 -12 1715 -25 1657 -25 C 1620 -25 1586 -21 1555 -14 C 1523 -6 1494 3 1466 16 C 1438 29 1413 45 1389 63 C 1365 81 1342 102 1321 125 L 1298 0 L 961 0 L 961 1116 C 961 1145 957 1170 951 1192 C 944 1214 933 1232 918 1247 C 903 1261 883 1272 858 1279 C 833 1286 802 1290 766 1290 C 728 1290 697 1286 672 1279 C 647 1272 627 1261 612 1247 C 596 1233 585 1215 579 1193 C 572 1171 569 1146 569 1118 L 569 1096 L 838 1096 L 838 846 L 569 846 L 569 0 L 186 0 L 186 846 Z M 1343 338 C 1369 311 1395 291 1423 279 C 1451 266 1482 260 1518 260 C 1546 260 1571 267 1591 283 C 1611 299 1628 320 1642 348 C 1655 376 1665 408 1671 446 C 1677 484 1681 525 1681 569 C 1681 661 1668 733 1642 784 C 1616 834 1574 860 1518 860 C 1482 860 1450 852 1422 837 C 1393 822 1367 802 1343 778 L 1343 338 Z" unicode="" />
<glyph horiz-adv-x="1475" d="M 868 1829 L 1145 1829 L 1145 1561 L 868 1561 L 868 1829 Z M 332 1829 L 612 1829 L 612 1561 L 332 1561 L 332 1829 Z M 537 571 L 6 1434 L 457 1434 L 737 967 L 741 967 L 1020 1434 L 1468 1434 L 938 571 L 938 0 L 537 0 L 537 571 Z" unicode="Ÿ" />
<glyph horiz-adv-x="1747" d="M 86 369 L 455 369 L 455 0 L 86 0 L 86 369 Z M 690 369 L 1059 369 L 1059 0 L 690 0 L 690 369 Z M 1296 369 L 1665 369 L 1665 0 L 1296 0 L 1296 369 Z" unicode="…" />
<glyph horiz-adv-x="1278" d="M 1208 0 L 82 0 L 82 539 L 623 694 L 82 799 L 82 1122 L 1208 879 L 1208 518 L 88 211 L 1208 211 L 1208 0 Z" unicode="≥" />
<glyph horiz-adv-x="2179" d="M 186 846 L 25 846 L 25 1098 L 186 1098 L 186 1126 C 186 1273 236 1384 337 1458 C 437 1532 583 1569 774 1569 C 966 1569 1109 1531 1203 1456 C 1296 1381 1343 1267 1343 1114 L 1343 670 L 1710 1120 L 2093 1120 L 1786 762 L 2167 0 L 1735 0 L 1536 471 L 1343 248 L 1343 0 L 961 0 L 961 1116 C 961 1145 957 1170 951 1192 C 944 1214 933 1232 918 1247 C 903 1261 883 1272 858 1279 C 833 1286 802 1290 766 1290 C 728 1290 697 1286 672 1279 C 647 1272 627 1261 612 1247 C 596 1233 585 1215 579 1193 C 572 1171 569 1146 569 1118 L 569 1096 L 838 1096 L 838 846 L 569 846 L 569 0 L 186 0 L 186 846 Z" unicode="" />
<glyph horiz-adv-x="1434" d="M 186 846 L 25 846 L 25 1098 L 186 1098 L 186 1126 C 186 1201 196 1266 218 1322 C 239 1377 272 1423 316 1459 C 360 1495 417 1522 485 1540 C 553 1558 635 1567 729 1567 C 774 1567 821 1564 869 1558 C 917 1552 965 1543 1013 1532 C 1060 1521 1105 1508 1149 1492 C 1193 1476 1233 1458 1270 1438 L 1139 1196 C 1115 1208 1089 1219 1060 1230 C 1031 1241 1001 1251 969 1260 C 937 1269 904 1276 871 1282 C 837 1287 805 1290 774 1290 C 734 1290 702 1286 676 1280 C 650 1273 629 1263 613 1249 C 597 1235 585 1217 579 1195 C 572 1173 569 1148 569 1118 L 569 1096 L 831 1096 L 831 846 L 569 846 L 569 0 L 186 0 L 186 846 Z M 948 1096 L 1331 1096 L 1331 20 C 1331 -280 1191 -430 911 -430 C 853 -430 802 -424 757 -413 C 712 -402 670 -390 631 -377 L 719 -106 C 741 -112 763 -117 783 -121 C 803 -125 823 -127 844 -127 C 876 -127 902 -118 920 -100 C 938 -82 948 -51 948 -6 L 948 1096 Z" unicode="" />
<glyph horiz-adv-x="2193" d="M 944 846 L 569 846 L 569 0 L 186 0 L 186 846 L 25 846 L 25 1098 L 186 1098 L 186 1122 C 186 1267 227 1375 310 1445 C 392 1515 512 1550 670 1550 C 750 1550 822 1541 886 1523 C 950 1505 1010 1482 1067 1454 C 1154 1529 1294 1567 1487 1567 C 1532 1567 1579 1564 1627 1558 C 1675 1552 1723 1543 1771 1532 C 1818 1521 1863 1508 1907 1492 C 1951 1476 1991 1458 2028 1438 L 1894 1196 C 1871 1208 1845 1219 1817 1230 C 1788 1241 1758 1251 1726 1260 C 1694 1269 1661 1276 1628 1282 C 1595 1287 1563 1290 1532 1290 C 1492 1290 1460 1286 1434 1280 C 1408 1273 1387 1263 1372 1249 C 1356 1235 1345 1217 1339 1195 C 1332 1173 1329 1148 1329 1118 L 1329 1096 L 1591 1096 L 1591 846 L 1329 846 L 1329 0 L 944 0 L 944 846 Z M 1706 1096 L 2089 1096 L 2089 0 L 1706 0 L 1706 1096 Z M 944 1096 L 944 1126 C 944 1144 944 1162 945 1180 C 946 1197 948 1214 952 1231 C 918 1247 882 1260 846 1269 C 810 1277 771 1282 729 1282 C 699 1282 673 1278 653 1271 C 633 1263 616 1253 604 1240 C 592 1226 583 1210 577 1192 C 571 1174 569 1154 569 1133 L 569 1096 L 944 1096 Z" unicode="ﬃ" />
<glyph horiz-adv-x="1843" d="M 778 1313 L 965 1096 L 668 823 L 1010 842 L 1712 842 L 1712 561 L 1010 561 L 668 580 L 975 309 L 778 92 L 131 702 L 778 1313 Z" unicode="←" />
<glyph horiz-adv-x="1843" d="M 309 686 L 922 1335 L 1534 686 L 1315 500 L 1044 797 L 1061 455 L 1061 -246 L 782 -246 L 782 455 L 801 797 L 528 500 L 309 686 Z" unicode="↑" />
<glyph horiz-adv-x="926" d="M -78 -117 C -58 -124 -37 -130 -15 -135 C 7 -140 29 -143 51 -143 C 67 -143 82 -141 95 -137 C 108 -133 119 -126 128 -116 C 137 -106 144 -93 149 -77 C 153 -61 156 -40 156 -16 L 156 481 L -6 481 L -6 741 L 156 741 L 156 780 C 156 860 168 928 192 983 C 216 1037 250 1081 293 1114 C 336 1147 387 1171 446 1185 C 504 1199 568 1206 637 1206 C 661 1206 687 1204 713 1201 C 739 1198 765 1194 791 1189 C 817 1184 842 1178 867 1171 C 892 1164 916 1157 938 1149 L 848 891 C 821 900 794 908 767 914 C 739 920 706 924 668 924 C 624 924 594 911 576 887 C 558 863 549 830 549 788 L 549 739 L 809 739 L 809 481 L 549 481 L 549 -16 C 549 -92 539 -157 521 -210 C 503 -262 476 -305 440 -338 C 404 -370 360 -394 308 -408 C 256 -422 195 -430 127 -430 C 79 -430 30 -425 -19 -416 C -69 -407 -116 -393 -160 -375 L -78 -117 L -78 -117 Z" unicode="ƒ" />
<glyph horiz-adv-x="1843" d="M 528 854 L 801 557 L 782 899 L 782 1599 L 1061 1599 L 1061 899 L 1044 557 L 1315 854 L 1534 668 L 922 18 L 309 668 L 528 854 Z" unicode="↓" />
<glyph horiz-adv-x="2882" d="M 944 846 L 569 846 L 569 0 L 186 0 L 186 846 L 25 846 L 25 1098 L 186 1098 L 186 1122 C 186 1267 227 1375 310 1445 C 392 1515 512 1550 670 1550 C 754 1550 829 1540 895 1522 C 961 1503 1023 1478 1081 1448 C 1181 1528 1331 1569 1532 1569 C 1723 1569 1866 1531 1961 1456 C 2055 1381 2103 1267 2103 1114 L 2103 1004 C 2141 1051 2186 1086 2239 1110 C 2291 1133 2346 1145 2404 1145 C 2466 1145 2522 1133 2574 1109 C 2625 1085 2669 1050 2706 1002 C 2742 954 2771 895 2791 823 C 2811 751 2822 666 2822 569 C 2822 471 2811 385 2791 311 C 2770 237 2741 175 2705 125 C 2668 75 2625 38 2576 13 C 2526 -12 2473 -25 2415 -25 C 2377 -25 2343 -21 2312 -14 C 2280 -6 2251 3 2224 16 C 2196 29 2171 45 2147 63 C 2123 81 2100 102 2079 125 L 2056 0 L 1718 0 L 1718 1116 C 1718 1145 1714 1170 1708 1192 C 1702 1214 1691 1232 1676 1247 C 1661 1261 1641 1272 1616 1279 C 1591 1286 1560 1290 1524 1290 C 1486 1290 1455 1286 1431 1279 C 1406 1272 1386 1261 1371 1247 C 1355 1233 1344 1215 1338 1193 C 1332 1171 1329 1146 1329 1118 L 1329 1096 L 1593 1096 L 1593 846 L 1329 846 L 1329 0 L 944 0 L 944 846 Z M 2103 338 C 2151 286 2207 260 2273 260 C 2302 260 2327 267 2348 283 C 2369 299 2386 320 2400 348 C 2413 376 2423 408 2429 446 C 2435 484 2439 525 2439 569 C 2439 662 2426 734 2400 784 C 2374 834 2331 860 2273 860 C 2239 860 2207 852 2179 837 C 2151 822 2125 802 2103 778 L 2103 338 Z M 569 1096 L 944 1096 L 944 1126 C 944 1144 944 1162 945 1180 C 946 1197 948 1214 952 1231 C 919 1247 884 1260 847 1269 C 810 1277 771 1282 729 1282 C 699 1282 673 1278 653 1271 C 633 1263 616 1253 604 1240 C 592 1226 583 1210 577 1192 C 571 1174 569 1154 569 1133 L 569 1096 Z" unicode="" />
<glyph horiz-adv-x="2867" d="M 944 846 L 569 846 L 569 0 L 186 0 L 186 846 L 25 846 L 25 1098 L 186 1098 L 186 1122 C 186 1267 227 1375 310 1445 C 392 1515 512 1550 670 1550 C 754 1550 829 1540 895 1522 C 961 1503 1023 1478 1081 1448 C 1181 1528 1331 1569 1532 1569 C 1723 1569 1866 1531 1961 1456 C 2055 1381 2103 1267 2103 1114 L 2103 999 C 2121 1018 2142 1037 2166 1055 C 2189 1073 2214 1088 2241 1102 C 2267 1116 2296 1127 2326 1135 C 2356 1143 2389 1147 2423 1147 C 2485 1147 2539 1138 2583 1120 C 2627 1102 2664 1075 2692 1040 C 2720 1005 2740 962 2753 911 C 2766 860 2773 802 2773 737 L 2773 0 L 2388 0 L 2388 748 C 2388 784 2379 814 2363 836 C 2347 858 2319 870 2279 870 C 2248 870 2217 861 2186 844 C 2155 826 2127 801 2103 768 L 2103 0 L 1718 0 L 1718 1116 C 1718 1145 1714 1170 1708 1192 C 1702 1214 1691 1232 1676 1247 C 1661 1261 1641 1272 1616 1279 C 1591 1286 1560 1290 1524 1290 C 1486 1290 1455 1286 1431 1279 C 1406 1272 1386 1261 1371 1247 C 1355 1233 1344 1215 1338 1193 C 1332 1171 1329 1146 1329 1118 L 1329 1096 L 1593 1096 L 1593 846 L 1329 846 L 1329 0 L 944 0 L 944 846 Z M 569 1096 L 944 1096 L 944 1126 C 944 1144 944 1162 945 1180 C 946 1197 948 1214 952 1231 C 919 1247 884 1260 847 1269 C 810 1277 771 1282 729 1282 C 699 1282 673 1278 653 1271 C 633 1263 616 1253 604 1240 C 592 1226 583 1210 577 1192 C 571 1174 569 1154 569 1133 L 569 1096 Z" unicode="" />
<glyph horiz-adv-x="1843" d="M 313 1266 L 1204 1239 L 1184 950 L 780 975 L 1034 745 L 1530 246 L 1331 47 L 838 547 L 606 803 L 631 395 L 340 375 L 313 1266 Z" unicode="↖" />
<glyph horiz-adv-x="1843" d="M 1503 375 L 1212 395 L 1237 803 L 1006 547 L 512 47 L 313 246 L 809 745 L 1063 975 L 659 950 L 639 1239 L 1530 1266 L 1503 375 Z" unicode="↗" />
<glyph horiz-adv-x="1843" d="M 1530 100 L 639 127 L 659 416 L 1063 391 L 809 621 L 313 1120 L 512 1319 L 1006 819 L 1237 563 L 1212 971 L 1503 991 L 1530 100 Z" unicode="↘" />
<glyph horiz-adv-x="1364" d="M 1180 1434 L 1403 1434 L 184 0 L -39 0 L 1180 1434 Z" unicode="⁄" />
<glyph horiz-adv-x="1843" d="M 205 1434 L 1636 1434 L 1636 0 L 205 0 L 205 1434 Z" unicode="■" />
<glyph horiz-adv-x="1843" d="M 205 1434 L 1636 1434 L 1636 0 L 205 0 L 205 1434 Z M 1511 125 L 1511 1309 L 330 1309 L 330 125 L 1511 125 Z" unicode="□" />
<glyph horiz-adv-x="1843" d="M 205 1434 L 1636 1434 L 1636 0 L 205 0 L 205 1434 Z M 1511 125 L 1511 1309 L 330 1309 L 330 125 L 1511 125 Z M 705 715 L 487 936 L 702 1147 L 922 924 L 1141 1147 L 1356 936 L 1139 715 L 1356 494 L 1141 283 L 922 506 L 702 283 L 487 494 L 705 715 Z" unicode="▣" />
<glyph horiz-adv-x="1260" d="M 68 649 C 66 658 66 667 66 677 C 66 687 66 696 66 705 C 66 759 73 809 88 854 C 102 898 124 936 153 968 C 181 999 216 1023 258 1041 C 299 1058 347 1067 401 1067 C 453 1067 499 1060 538 1047 C 577 1033 613 1018 646 1002 C 678 986 709 971 739 958 C 769 944 801 938 836 938 C 868 938 890 946 904 964 C 918 982 924 1008 922 1042 L 1190 1042 C 1191 1032 1192 1023 1192 1014 C 1192 1004 1192 995 1192 987 C 1192 932 1184 882 1170 838 C 1155 793 1133 755 1105 724 C 1077 692 1042 668 1001 651 C 959 633 912 625 858 625 C 806 625 760 631 721 645 C 682 658 646 673 614 689 C 581 705 550 720 520 734 C 490 747 458 754 424 754 C 392 754 369 744 355 726 C 341 708 336 682 338 649 L 68 649 Z M 68 80 C 66 89 66 98 66 107 C 66 116 66 125 66 133 C 66 187 73 237 88 282 C 102 326 124 364 153 396 C 181 428 216 452 258 470 C 299 487 347 496 401 496 C 453 496 499 489 538 476 C 577 462 613 447 646 431 C 678 415 709 400 739 387 C 769 373 801 367 836 367 C 868 367 890 375 904 393 C 918 410 924 435 922 469 L 1190 469 C 1191 459 1192 450 1192 440 C 1192 430 1192 422 1192 414 C 1192 359 1184 309 1170 265 C 1155 220 1133 182 1105 150 C 1077 118 1042 94 1001 77 C 959 59 912 51 858 51 C 806 51 760 57 721 71 C 682 84 646 99 614 115 C 581 131 550 146 520 160 C 490 173 458 180 424 180 C 392 180 369 171 355 154 C 341 136 336 112 338 80 L 68 80 Z" unicode="≈" />
<glyph horiz-adv-x="1843" d="M 922 1270 L 1595 135 L 246 135 L 922 1270 Z" unicode="▲" />
<glyph horiz-adv-x="1843" d="M 354 27 L 354 1376 L 1489 702 L 354 27 Z" unicode="▶" />
<glyph horiz-adv-x="1843" d="M 920 135 L 246 1270 L 1595 1270 L 920 135 Z" unicode="▼" />
<glyph horiz-adv-x="1739" d="M 1360 889 L 1360 471 C 1360 437 1363 409 1369 387 C 1375 364 1386 346 1402 332 C 1417 318 1437 308 1462 302 C 1487 296 1518 293 1556 293 L 1556 -10 C 1438 -10 1342 0 1267 18 C 1192 36 1133 65 1090 104 C 1046 143 1016 193 1000 254 C 983 314 975 387 975 471 L 975 889 L 756 889 L 756 0 L 369 0 L 369 889 L 102 889 L 102 1180 L 1636 1180 L 1636 889 L 1360 889 Z" unicode="π" />
<glyph horiz-adv-x="1260" d="M 66 973 L 786 973 L 887 1122 L 1104 1122 L 1004 973 L 1192 973 L 1192 666 L 801 666 L 664 459 L 1192 459 L 1192 152 L 471 152 L 369 0 L 152 0 L 254 152 L 66 152 L 66 459 L 461 459 L 598 666 L 66 666 L 66 973 Z" unicode="≠" />
<glyph horiz-adv-x="1843" d="M 702 715 C 702 685 707 656 719 630 C 731 604 746 581 766 561 C 786 541 809 526 835 515 C 861 503 890 498 920 498 C 950 498 978 503 1005 515 C 1031 526 1054 541 1074 561 C 1094 581 1109 604 1121 630 C 1133 656 1139 685 1139 715 C 1139 745 1133 773 1121 800 C 1109 826 1094 850 1074 870 C 1054 890 1031 905 1005 917 C 978 928 950 934 920 934 C 890 934 861 928 835 917 C 809 905 786 890 766 870 C 746 850 731 826 719 800 C 707 773 702 745 702 715 Z M 440 715 C 440 781 452 844 477 903 C 502 961 536 1012 580 1056 C 623 1099 674 1133 732 1158 C 790 1183 853 1196 920 1196 C 986 1196 1049 1183 1108 1158 C 1166 1133 1217 1099 1261 1056 C 1304 1012 1338 961 1363 903 C 1388 844 1401 781 1401 715 C 1401 648 1388 586 1363 528 C 1338 470 1304 419 1261 376 C 1217 332 1166 298 1108 273 C 1049 248 986 236 920 236 C 853 236 790 248 732 273 C 674 298 623 332 580 376 C 536 419 502 470 477 528 C 452 586 440 648 440 715 Z M 178 715 C 178 783 186 848 204 912 C 222 975 247 1034 279 1089 C 311 1144 350 1194 395 1240 C 440 1285 490 1324 545 1356 C 600 1388 659 1413 722 1431 C 785 1449 851 1458 920 1458 C 988 1458 1053 1449 1117 1431 C 1180 1413 1239 1388 1294 1356 C 1349 1324 1399 1285 1445 1240 C 1490 1194 1529 1144 1561 1089 C 1593 1034 1618 975 1636 912 C 1654 848 1663 783 1663 715 C 1663 647 1654 581 1636 518 C 1618 454 1593 395 1561 340 C 1529 285 1490 235 1445 190 C 1399 145 1349 106 1294 74 C 1239 42 1180 17 1117 0 C 1053 -18 988 -27 920 -27 C 852 -27 786 -18 723 0 C 659 17 600 42 545 74 C 490 106 440 145 395 190 C 350 235 311 285 279 340 C 247 395 222 454 204 517 C 186 580 178 646 178 715 Z M 305 715 C 305 629 321 549 353 475 C 385 400 430 335 486 279 C 542 223 607 178 682 146 C 756 114 836 98 922 98 C 978 98 1033 105 1086 120 C 1138 134 1187 155 1233 182 C 1279 209 1320 241 1358 279 C 1396 316 1428 357 1455 403 C 1482 449 1503 498 1518 551 C 1532 603 1540 658 1540 715 C 1540 771 1532 826 1518 879 C 1503 931 1482 980 1455 1026 C 1428 1072 1396 1113 1358 1151 C 1320 1189 1279 1221 1233 1248 C 1187 1275 1138 1296 1086 1311 C 1033 1325 978 1333 922 1333 C 865 1333 810 1325 758 1311 C 705 1296 656 1275 610 1248 C 564 1221 523 1189 486 1151 C 448 1113 416 1072 389 1026 C 362 980 341 931 327 879 C 312 826 305 771 305 715 Z" unicode="◉" />
<glyph horiz-adv-x="1292" d="M 647 432 L 850 721 L 647 1008 L 451 721 L 647 432 Z M 645 1464 L 1159 719 L 645 -27 L 133 719 L 645 1464 Z" unicode="◊" />
<glyph horiz-adv-x="1843" d="M 178 715 C 178 783 186 848 204 912 C 222 975 247 1034 279 1089 C 311 1144 350 1194 395 1240 C 440 1285 490 1324 545 1356 C 600 1388 659 1413 722 1431 C 785 1449 851 1458 920 1458 C 988 1458 1053 1449 1117 1431 C 1180 1413 1239 1388 1294 1356 C 1349 1324 1399 1285 1445 1240 C 1490 1194 1529 1144 1561 1089 C 1593 1034 1618 975 1636 912 C 1654 848 1663 783 1663 715 C 1663 647 1654 581 1636 518 C 1618 454 1593 395 1561 340 C 1529 285 1490 235 1445 190 C 1399 145 1349 106 1294 74 C 1239 42 1180 17 1117 0 C 1053 -18 988 -27 920 -27 C 852 -27 786 -18 723 0 C 659 17 600 42 545 74 C 490 106 440 145 395 190 C 350 235 311 285 279 340 C 247 395 222 454 204 517 C 186 580 178 646 178 715 Z M 301 713 C 301 627 317 547 350 472 C 382 396 427 330 483 274 C 539 218 605 173 681 141 C 756 108 836 92 922 92 C 978 92 1033 99 1086 114 C 1139 129 1189 150 1235 177 C 1281 203 1323 236 1361 274 C 1399 312 1431 354 1458 400 C 1485 446 1506 495 1521 548 C 1536 600 1544 655 1544 713 C 1544 798 1527 878 1495 954 C 1462 1030 1417 1096 1361 1152 C 1305 1208 1239 1253 1163 1286 C 1087 1318 1007 1335 922 1335 C 864 1335 809 1327 757 1312 C 704 1297 655 1276 609 1249 C 563 1222 521 1190 483 1152 C 445 1114 412 1072 386 1026 C 359 980 338 930 323 877 C 308 824 301 769 301 713 Z" unicode="○" />
<glyph horiz-adv-x="1843" d="M 178 715 C 178 783 186 848 204 912 C 222 975 247 1034 279 1089 C 311 1144 350 1194 395 1240 C 440 1285 490 1324 545 1356 C 600 1388 659 1413 722 1431 C 785 1449 851 1458 920 1458 C 988 1458 1053 1449 1117 1431 C 1180 1413 1239 1388 1294 1356 C 1349 1324 1399 1285 1445 1240 C 1490 1194 1529 1144 1561 1089 C 1593 1034 1618 975 1636 912 C 1654 848 1663 783 1663 715 C 1663 647 1654 581 1636 518 C 1618 454 1593 395 1561 340 C 1529 285 1490 235 1445 190 C 1399 145 1349 106 1294 74 C 1239 42 1180 17 1117 0 C 1053 -18 988 -27 920 -27 C 852 -27 786 -18 723 0 C 659 17 600 42 545 74 C 490 106 440 145 395 190 C 350 235 311 285 279 340 C 247 395 222 454 204 517 C 186 580 178 646 178 715 Z M 301 713 C 301 627 317 547 350 472 C 382 396 427 330 483 274 C 539 218 605 173 681 141 C 756 108 836 92 922 92 C 978 92 1033 99 1086 114 C 1139 129 1189 150 1235 177 C 1281 203 1323 236 1361 274 C 1399 312 1431 354 1458 400 C 1485 446 1506 495 1521 548 C 1536 600 1544 655 1544 713 C 1544 798 1527 878 1495 954 C 1462 1030 1417 1096 1361 1152 C 1305 1208 1239 1253 1163 1286 C 1087 1318 1007 1335 922 1335 C 864 1335 809 1327 757 1312 C 704 1297 655 1276 609 1249 C 563 1222 521 1190 483 1152 C 445 1114 412 1072 386 1026 C 359 980 338 930 323 877 C 308 824 301 769 301 713 Z M 705 715 L 487 936 L 702 1147 L 922 924 L 1141 1147 L 1356 936 L 1139 715 L 1356 494 L 1141 283 L 922 506 L 702 283 L 487 494 L 705 715 Z" unicode="◍" />
<glyph horiz-adv-x="1843" d="M 829 715 C 829 690 837 669 855 652 C 872 635 894 627 920 627 C 944 627 965 635 983 652 C 1001 669 1010 690 1010 715 C 1010 727 1007 739 1003 751 C 998 762 991 772 983 780 C 975 788 965 795 954 800 C 943 804 932 807 920 807 C 894 807 872 798 855 780 C 837 762 829 740 829 715 Z M 702 715 C 702 745 707 773 719 800 C 731 826 746 850 766 870 C 786 890 809 905 835 917 C 861 928 890 934 920 934 C 950 934 978 928 1005 917 C 1031 905 1054 890 1074 870 C 1094 850 1109 826 1121 800 C 1133 773 1139 745 1139 715 C 1139 685 1133 656 1121 630 C 1109 604 1094 581 1074 561 C 1054 541 1031 526 1005 515 C 978 503 950 498 920 498 C 890 498 861 503 835 515 C 809 526 786 541 766 561 C 746 581 731 604 719 630 C 707 656 702 685 702 715 Z M 440 715 C 440 781 452 844 477 903 C 502 961 536 1012 580 1056 C 623 1099 674 1133 732 1158 C 790 1183 853 1196 920 1196 C 986 1196 1049 1183 1108 1158 C 1166 1133 1217 1099 1261 1056 C 1304 1012 1338 961 1363 903 C 1388 844 1401 781 1401 715 C 1401 648 1388 586 1363 528 C 1338 470 1304 419 1261 376 C 1217 332 1166 298 1108 273 C 1049 248 986 236 920 236 C 853 236 790 248 732 273 C 674 298 623 332 580 376 C 536 419 502 470 477 528 C 452 586 440 648 440 715 Z M 567 715 C 567 666 576 620 594 577 C 612 534 638 497 670 465 C 702 433 739 407 782 389 C 825 371 871 362 920 362 C 968 362 1014 371 1057 389 C 1100 407 1138 433 1170 465 C 1202 497 1227 534 1246 577 C 1264 620 1274 666 1274 715 C 1274 763 1264 809 1246 852 C 1227 895 1202 933 1170 965 C 1138 997 1100 1022 1057 1041 C 1014 1059 968 1069 920 1069 C 871 1069 825 1059 782 1041 C 739 1022 702 997 670 965 C 638 933 612 895 594 852 C 576 809 567 763 567 715 Z M 178 715 C 178 783 186 848 204 912 C 222 975 247 1034 279 1089 C 311 1144 350 1194 395 1240 C 440 1285 490 1324 545 1356 C 600 1388 659 1413 722 1431 C 785 1449 851 1458 920 1458 C 988 1458 1053 1449 1117 1431 C 1180 1413 1239 1388 1294 1356 C 1349 1324 1399 1285 1445 1240 C 1490 1194 1529 1144 1561 1089 C 1593 1034 1618 975 1636 912 C 1654 848 1663 783 1663 715 C 1663 647 1654 581 1636 518 C 1618 454 1593 395 1561 340 C 1529 285 1490 235 1445 190 C 1399 145 1349 106 1294 74 C 1239 42 1180 17 1117 0 C 1053 -18 988 -27 920 -27 C 852 -27 786 -18 723 0 C 659 17 600 42 545 74 C 490 106 440 145 395 190 C 350 235 311 285 279 340 C 247 395 222 454 204 517 C 186 580 178 646 178 715 Z M 305 715 C 305 629 321 549 353 475 C 385 400 430 335 486 279 C 542 223 607 178 682 146 C 756 114 836 98 922 98 C 978 98 1033 105 1086 120 C 1138 134 1187 155 1233 182 C 1279 209 1320 241 1358 279 C 1396 316 1428 357 1455 403 C 1482 449 1503 498 1518 551 C 1532 603 1540 658 1540 715 C 1540 771 1532 826 1518 879 C 1503 931 1482 980 1455 1026 C 1428 1072 1396 1113 1358 1151 C 1320 1189 1279 1221 1233 1248 C 1187 1275 1138 1296 1086 1311 C 1033 1325 978 1333 922 1333 C 865 1333 810 1325 758 1311 C 705 1296 656 1275 610 1248 C 564 1221 523 1189 486 1151 C 448 1113 416 1072 389 1026 C 362 980 341 931 327 879 C 312 826 305 771 305 715 Z" unicode="◎" />
<glyph horiz-adv-x="1843" d="M 178 715 C 178 783 186 848 204 912 C 222 975 247 1034 279 1089 C 311 1144 350 1194 395 1240 C 440 1285 490 1324 545 1356 C 600 1388 659 1413 722 1431 C 785 1449 851 1458 920 1458 C 988 1458 1053 1449 1117 1431 C 1180 1413 1239 1388 1294 1356 C 1349 1324 1399 1285 1445 1240 C 1490 1194 1529 1144 1561 1089 C 1593 1034 1618 975 1636 912 C 1654 848 1663 783 1663 715 C 1663 647 1654 581 1636 518 C 1618 454 1593 395 1561 340 C 1529 285 1490 235 1445 190 C 1399 145 1349 106 1294 74 C 1239 42 1180 17 1117 0 C 1053 -18 988 -27 920 -27 C 852 -27 786 -18 723 0 C 659 17 600 42 545 74 C 490 106 440 145 395 190 C 350 235 311 285 279 340 C 247 395 222 454 204 517 C 186 580 178 646 178 715 Z" unicode="●" />
<glyph horiz-adv-x="1843" d="M 246 0 L 1567 1321 L 1567 0 L 246 0 Z" unicode="◢" />
<glyph horiz-adv-x="1843" d="M 276 0 L 276 1321 L 1597 0 L 276 0 Z" unicode="◣" />
<glyph horiz-adv-x="1843" d="M 1597 1434 L 276 113 L 276 1434 L 1597 1434 Z" unicode="◤" />
<glyph horiz-adv-x="1843" d="M 1567 1434 L 1567 113 L 246 1434 L 1567 1434 Z" unicode="◥" />
<glyph horiz-adv-x="1038" d="M 340 793 L 387 1004 L 233 983 L 82 983 L 82 1300 L 233 1300 L 385 1274 L 340 1509 L 340 1546 L 698 1546 L 698 1509 L 651 1274 L 803 1300 L 956 1300 L 956 983 L 803 983 L 651 1004 L 698 793 L 698 557 L 340 557 L 340 793 Z" unicode="†" />
</font>
</defs>
</svg>
