<?xml version="1.0" standalone="yes"?><svg version="1.1" xmlns = 'http://www.w3.org/2000/svg'><defs><font id='web' horiz-adv-x="1000">
<font-face font-family="web" descent="-492" cap-height="1434" units-per-em="2048" bbox="-127,-451,2613,1843" x-height="1083" ascent="1556" />
<missing-glyph horiz-adv-x="500" d="" /><glyph horiz-adv-x="1503" d="M 901 893 L 461 893 L 461 0 L 223 0 L 223 893 L 41 893 L 41 1071 L 223 1071 L 223 1128 C 223 1202 233 1266 254 1319 C 275 1372 305 1416 343 1450 C 381 1484 428 1508 483 1524 C 537 1540 598 1548 666 1548 C 734 1548 797 1539 855 1521 C 913 1503 966 1480 1014 1452 C 1052 1490 1097 1517 1151 1535 C 1205 1552 1265 1561 1331 1561 C 1370 1561 1409 1557 1447 1549 C 1485 1541 1519 1532 1548 1522 L 1489 1350 C 1467 1356 1444 1361 1420 1365 C 1396 1369 1368 1372 1337 1372 C 1269 1372 1219 1352 1187 1314 C 1155 1275 1139 1217 1139 1139 L 1139 1071 L 1427 1071 L 1427 893 L 1139 893 L 1139 0 L 901 0 L 901 893 Z M 461 1071 L 901 1071 L 901 1128 C 901 1196 909 1255 926 1305 C 890 1324 852 1339 811 1349 C 770 1359 727 1364 682 1364 C 604 1364 548 1345 513 1307 C 478 1269 461 1211 461 1133 L 461 1071 Z" unicode="ﬀ" />
<glyph horiz-adv-x="1286" d="M 1159 530 C 1159 436 1146 355 1121 286 C 1096 216 1061 159 1016 113 C 971 67 917 32 855 9 C 792 -13 723 -25 647 -25 C 564 -25 490 -12 426 13 C 361 38 306 73 262 117 C 217 161 183 214 160 275 C 136 336 125 403 125 475 C 125 545 136 608 158 666 C 180 723 212 772 252 813 C 292 854 339 886 394 908 C 448 930 508 942 573 942 C 635 942 694 933 751 915 C 808 897 861 869 911 831 C 903 911 890 979 874 1034 C 857 1089 835 1134 807 1168 C 779 1202 746 1226 707 1241 C 667 1256 621 1264 567 1264 C 540 1264 511 1262 481 1258 C 451 1254 421 1248 391 1242 C 361 1235 332 1227 304 1219 C 276 1210 251 1201 231 1192 L 152 1370 C 176 1382 205 1393 238 1404 C 271 1414 306 1424 343 1432 C 379 1440 417 1446 455 1451 C 493 1455 530 1458 565 1458 C 669 1458 758 1441 833 1409 C 908 1377 970 1324 1018 1251 C 1066 1178 1101 1083 1124 965 C 1147 847 1159 702 1159 530 Z M 924 516 C 924 539 923 562 923 585 C 922 607 922 629 922 651 C 898 671 874 689 851 703 C 828 717 804 728 780 737 C 756 745 731 752 705 756 C 679 760 651 762 623 762 C 587 762 553 755 521 743 C 489 731 462 713 438 689 C 414 665 396 635 382 599 C 368 563 362 522 362 475 C 362 429 368 388 382 350 C 396 312 415 280 440 253 C 464 226 494 205 529 190 C 564 175 603 168 647 168 C 689 168 728 175 762 190 C 796 204 825 226 849 256 C 873 285 891 321 904 365 C 917 408 924 458 924 516 Z" unicode="∂" />
<glyph horiz-adv-x="1843" d="M 920 403 L 1290 207 L 1219 618 L 1520 913 L 1104 973 L 920 1350 L 735 973 L 319 913 L 621 618 L 547 207 L 920 403 Z M 178 715 C 178 783 186 848 204 912 C 222 975 247 1034 279 1089 C 311 1144 350 1194 395 1240 C 440 1285 490 1324 545 1356 C 600 1388 659 1413 722 1431 C 785 1449 851 1458 920 1458 C 988 1458 1053 1449 1117 1431 C 1180 1413 1239 1388 1294 1356 C 1349 1324 1399 1285 1445 1240 C 1490 1194 1529 1144 1561 1089 C 1593 1034 1618 975 1636 912 C 1654 848 1663 783 1663 715 C 1663 647 1654 581 1636 518 C 1618 454 1593 395 1561 340 C 1529 285 1490 235 1445 190 C 1399 145 1349 106 1294 74 C 1239 42 1180 17 1117 0 C 1053 -18 988 -27 920 -27 C 852 -27 786 -18 723 0 C 659 17 600 42 545 74 C 490 106 440 145 395 190 C 350 235 311 285 279 340 C 247 395 222 454 204 517 C 186 580 178 646 178 715 Z" unicode="★" />
<glyph horiz-adv-x="1890" d="M 946 1452 L 1767 0 L 121 0 L 946 1452 Z M 475 205 L 1403 205 L 944 1047 L 475 205 Z" unicode="∆" />
<glyph horiz-adv-x="1319" d="M 55 494 L 223 494 C 221 506 219 518 219 532 C 219 545 219 559 219 573 C 219 584 219 596 219 608 C 219 620 219 631 221 643 L 55 643 L 55 791 L 254 791 C 274 847 301 898 336 944 C 371 990 412 1029 460 1061 C 508 1093 561 1118 619 1136 C 677 1154 740 1163 807 1163 C 886 1163 962 1149 1035 1123 C 1107 1097 1172 1057 1229 1004 L 1092 854 C 1056 888 1015 915 968 936 C 920 956 869 967 815 967 C 742 967 678 950 623 917 C 568 884 526 838 496 780 L 844 780 L 844 643 L 455 643 C 453 631 451 620 451 609 C 451 597 451 585 451 573 C 451 544 453 518 457 494 L 844 494 L 844 358 L 500 358 C 530 299 573 253 629 221 C 684 188 748 172 821 172 C 877 172 929 182 977 202 C 1025 222 1066 251 1100 289 L 1253 156 C 1199 98 1134 53 1060 22 C 985 -9 902 -25 811 -25 C 745 -25 682 -16 624 1 C 566 19 513 44 465 76 C 417 108 376 148 340 194 C 304 240 276 291 256 348 L 55 348 L 55 494 Z" unicode="€" />
<glyph horiz-adv-x="1716" d="M 1323 1235 L 1323 0 L 1087 0 L 1087 1235 L 629 1235 L 629 0 L 393 0 L 393 1235 L 121 1235 L 121 1434 L 1595 1434 L 1595 1235 L 1323 1235 Z" unicode="∏" />
<glyph horiz-adv-x="1382" d="M 121 0 L 121 156 L 670 731 L 152 1284 L 152 1434 L 1237 1434 L 1237 1235 L 487 1235 L 961 731 L 451 199 L 1262 199 L 1262 0 L 121 0 Z" unicode="∑" />
<glyph horiz-adv-x="1253" d="M 88 647 L 1165 647 L 1165 440 L 88 440 L 88 647 Z" unicode="–" />
<glyph horiz-adv-x="1864" d="M 92 647 L 1769 647 L 1769 440 L 92 440 L 92 647 Z" unicode="—" />
<glyph horiz-adv-x="475" d="M 373 885 L 102 885 L 102 1094 C 102 1143 106 1186 116 1223 C 125 1260 139 1292 158 1320 C 177 1348 201 1372 231 1392 C 260 1412 294 1430 334 1446 L 389 1348 C 345 1328 311 1303 288 1271 C 265 1239 254 1201 254 1157 L 373 1157 L 373 885 Z" unicode="‘" />
<glyph horiz-adv-x="475" d="M 102 1434 L 373 1434 L 373 1225 C 373 1175 368 1131 359 1094 C 349 1057 335 1025 316 997 C 297 969 273 946 244 926 C 214 906 180 888 141 872 L 86 971 C 130 990 163 1015 186 1047 C 209 1079 221 1117 221 1161 L 102 1161 L 102 1434 Z" unicode="’" />
<glyph horiz-adv-x="475" d="M 102 272 L 373 272 L 373 63 C 373 13 368 -29 359 -66 C 349 -103 335 -135 316 -163 C 297 -191 273 -215 244 -235 C 214 -255 180 -273 141 -289 L 86 -190 C 130 -170 163 -145 186 -113 C 209 -81 221 -44 221 0 L 102 0 L 102 272 Z" unicode="‚" />
<glyph horiz-adv-x="907" d="M 373 885 L 102 885 L 102 1094 C 102 1143 106 1186 116 1223 C 125 1260 139 1292 158 1320 C 177 1348 201 1372 231 1392 C 260 1412 294 1430 334 1446 L 389 1348 C 345 1328 311 1303 288 1271 C 265 1239 254 1201 254 1157 L 373 1157 L 373 885 Z M 805 885 L 535 885 L 535 1094 C 535 1143 539 1186 549 1223 C 558 1260 572 1292 591 1320 C 610 1348 634 1372 663 1392 C 692 1412 726 1430 766 1446 L 821 1348 C 777 1328 743 1303 720 1271 C 697 1239 686 1201 686 1157 L 805 1157 L 805 885 Z" unicode="“" />
<glyph horiz-adv-x="907" d="M 535 1434 L 805 1434 L 805 1225 C 805 1175 800 1131 791 1094 C 781 1057 767 1025 748 997 C 729 969 705 946 676 926 C 646 906 612 888 573 872 L 518 971 C 562 990 595 1015 618 1047 C 641 1079 653 1117 653 1161 L 535 1161 L 535 1434 Z M 102 1434 L 373 1434 L 373 1225 C 373 1175 368 1131 359 1094 C 349 1057 335 1025 316 997 C 297 969 273 946 244 926 C 214 906 180 888 141 872 L 86 971 C 130 990 163 1015 186 1047 C 209 1079 221 1117 221 1161 L 102 1161 L 102 1434 Z" unicode="”" />
<glyph horiz-adv-x="907" d="M 535 272 L 805 272 L 805 63 C 805 13 800 -29 791 -66 C 781 -103 767 -135 748 -163 C 729 -191 705 -215 676 -235 C 646 -255 612 -273 573 -289 L 518 -190 C 562 -170 595 -145 618 -113 C 641 -81 653 -44 653 0 L 535 0 L 535 272 Z M 102 272 L 373 272 L 373 63 C 373 13 368 -29 359 -66 C 349 -103 335 -135 316 -163 C 297 -191 273 -215 244 -235 C 214 -255 180 -273 141 -289 L 86 -190 C 130 -170 163 -145 186 -113 C 209 -81 221 -44 221 0 L 102 0 L 102 272 Z" unicode="„" />
<glyph horiz-adv-x="500" d="" unicode=" " />
<glyph horiz-adv-x="565" d="M 158 1174 L 158 1434 L 406 1434 L 406 1174 L 344 432 L 219 432 L 158 1174 Z M 150 240 L 416 240 L 416 0 L 150 0 L 150 240 Z" unicode="!" />
<glyph horiz-adv-x="860" d="M 98 1434 L 362 1434 L 238 885 L 98 885 L 98 1434 Z M 510 1434 L 774 1434 L 649 885 L 510 885 L 510 1434 Z" unicode="&#x22;" />
<glyph horiz-adv-x="1382" d="M 133 881 L 408 881 L 451 1139 L 643 1139 L 600 881 L 877 881 L 920 1139 L 1112 1139 L 1069 881 L 1315 881 L 1315 705 L 1040 705 L 997 434 L 1247 434 L 1247 260 L 969 260 L 926 0 L 731 0 L 774 260 L 498 260 L 455 0 L 262 0 L 305 260 L 66 260 L 66 434 L 334 434 L 379 705 L 133 705 L 133 881 Z M 526 434 L 803 434 L 848 705 L 571 705 L 526 434 Z" unicode="#" />
<glyph horiz-adv-x="1145" d="M 209 279 C 231 264 255 250 281 238 C 307 225 334 214 362 204 C 390 194 418 185 448 179 C 478 172 507 168 537 166 L 537 483 C 504 491 471 499 438 508 C 405 516 373 527 342 539 C 311 551 282 565 255 581 C 228 597 205 617 185 640 C 165 662 150 689 138 719 C 126 749 121 785 121 825 C 121 869 129 911 147 950 C 165 988 191 1022 225 1052 C 259 1082 302 1106 352 1124 C 402 1142 459 1154 524 1159 L 524 1343 L 657 1343 L 657 1159 C 721 1153 783 1142 843 1126 C 903 1110 960 1089 1012 1065 L 920 891 C 878 909 834 926 786 940 C 738 954 691 963 645 969 L 645 662 C 693 650 741 637 789 623 C 837 609 880 589 919 564 C 958 538 990 506 1014 466 C 1038 426 1051 375 1051 313 C 1051 269 1043 228 1027 190 C 1011 152 986 118 954 89 C 921 59 880 35 831 15 C 781 -4 723 -17 657 -23 L 657 -272 L 524 -272 L 524 -25 C 441 -20 363 -5 289 18 C 215 42 150 72 96 106 L 209 279 Z M 348 836 C 348 814 352 796 362 781 C 371 765 384 752 401 740 C 418 728 438 718 461 710 C 484 702 509 694 537 688 L 537 971 C 473 965 425 950 394 926 C 363 902 348 872 348 836 Z M 827 307 C 827 327 822 345 813 361 C 804 377 791 390 775 402 C 759 414 739 424 717 433 C 695 441 671 449 645 457 L 645 170 C 709 177 755 193 784 217 C 812 241 827 271 827 307 Z" unicode="$" />
<glyph horiz-adv-x="1581" d="M 1296 1139 L 457 0 L 285 0 L 1126 1139 L 1296 1139 Z M 96 860 C 96 902 104 942 120 979 C 136 1015 158 1047 186 1074 C 214 1100 248 1121 287 1136 C 325 1151 367 1159 412 1159 C 456 1159 497 1151 535 1136 C 573 1121 606 1100 634 1074 C 662 1047 685 1015 701 979 C 717 942 725 902 725 860 C 725 815 717 774 701 737 C 685 700 663 668 635 642 C 607 615 574 594 536 579 C 498 564 456 557 412 557 C 366 557 324 564 286 579 C 247 594 214 615 186 642 C 158 668 136 700 120 737 C 104 774 96 815 96 860 Z M 254 860 C 254 836 257 813 265 793 C 273 773 284 755 298 741 C 312 726 328 714 348 706 C 367 698 388 694 412 694 C 434 694 455 698 475 706 C 494 714 510 726 524 741 C 537 755 547 773 555 793 C 563 813 567 836 567 860 C 567 882 563 904 555 924 C 547 944 537 961 524 975 C 510 989 494 1001 475 1009 C 455 1017 434 1022 412 1022 C 388 1022 367 1017 348 1009 C 328 1001 312 989 298 975 C 284 961 273 944 265 924 C 257 904 254 882 254 860 Z M 856 283 C 856 325 864 365 880 402 C 896 438 918 470 946 497 C 974 523 1008 544 1046 559 C 1084 574 1126 582 1171 582 C 1215 582 1256 574 1294 559 C 1332 544 1366 523 1394 497 C 1422 470 1445 438 1461 402 C 1477 365 1485 325 1485 283 C 1485 238 1477 197 1461 160 C 1445 122 1423 90 1395 64 C 1367 37 1333 16 1295 2 C 1257 -12 1215 -20 1171 -20 C 1125 -20 1083 -12 1045 2 C 1007 16 974 37 946 64 C 918 90 896 122 880 160 C 864 197 856 238 856 283 Z M 1014 283 C 1014 259 1017 236 1025 216 C 1033 196 1044 178 1058 164 C 1072 149 1088 137 1107 129 C 1126 121 1147 117 1171 117 C 1194 117 1215 121 1234 129 C 1253 137 1269 149 1283 164 C 1297 178 1307 196 1315 216 C 1323 236 1327 259 1327 283 C 1327 305 1323 326 1315 346 C 1307 366 1297 383 1283 398 C 1269 412 1253 424 1234 432 C 1215 440 1194 444 1171 444 C 1147 444 1126 440 1107 432 C 1088 424 1072 412 1058 398 C 1044 383 1033 366 1025 346 C 1017 326 1014 305 1014 283 Z" unicode="%" />
<glyph horiz-adv-x="1532" d="M 84 403 C 84 452 91 498 106 540 C 121 582 141 620 167 655 C 193 690 223 722 258 751 C 293 779 331 805 371 829 C 341 868 317 910 299 955 C 281 999 272 1048 272 1100 C 272 1148 282 1194 302 1238 C 322 1282 350 1320 386 1352 C 422 1384 466 1410 516 1429 C 566 1448 622 1458 684 1458 C 766 1458 839 1440 904 1406 C 969 1372 1025 1328 1073 1274 L 920 1143 C 886 1180 848 1210 807 1233 C 766 1256 723 1268 678 1268 C 650 1268 626 1263 605 1254 C 583 1245 565 1233 550 1218 C 535 1202 524 1185 516 1165 C 508 1145 504 1124 504 1102 C 504 1078 507 1056 515 1034 C 522 1012 532 990 544 969 C 556 948 569 928 585 909 C 601 889 617 871 635 854 C 701 787 771 722 843 660 C 915 597 990 535 1069 473 C 1089 515 1105 559 1116 607 C 1127 654 1133 704 1133 756 L 1348 756 C 1348 681 1338 609 1319 539 C 1300 469 1273 404 1237 344 C 1279 313 1321 282 1364 252 C 1407 221 1451 190 1497 160 L 1368 -12 C 1324 18 1281 48 1237 80 C 1193 111 1150 143 1106 176 C 1040 114 964 65 878 29 C 792 -7 698 -25 596 -25 C 513 -25 440 -13 376 11 C 312 35 259 66 216 106 C 172 146 139 191 117 243 C 95 294 84 347 84 403 Z M 942 301 C 861 365 783 430 707 496 C 631 562 558 629 489 698 C 462 682 438 664 416 645 C 394 626 375 605 359 582 C 343 559 330 534 322 507 C 313 480 309 451 309 420 C 309 386 315 354 328 324 C 341 294 360 269 386 247 C 412 225 443 207 480 195 C 517 182 560 176 608 176 C 674 176 735 187 791 209 C 847 231 898 261 942 301 Z" unicode="&#x26;" />
<glyph horiz-adv-x="446" d="M 98 1434 L 362 1434 L 238 885 L 98 885 L 98 1434 Z" unicode="'" />
<glyph horiz-adv-x="819" d="M 119 567 C 119 673 128 773 147 867 C 166 961 192 1048 224 1130 C 256 1212 294 1287 336 1356 C 378 1425 423 1488 471 1546 L 741 1546 C 693 1497 646 1440 600 1374 C 553 1308 511 1233 475 1151 C 438 1069 408 979 386 881 C 363 783 352 679 352 567 C 352 455 363 351 386 254 C 408 156 438 67 475 -15 C 511 -97 553 -171 600 -237 C 646 -303 693 -361 741 -410 L 473 -410 C 425 -353 380 -290 337 -221 C 294 -151 256 -76 224 5 C 192 86 166 173 147 267 C 128 361 119 461 119 567 Z" unicode="(" />
<glyph horiz-adv-x="819" d="M 700 567 C 700 461 690 361 671 267 C 652 173 626 86 594 5 C 562 -76 524 -151 482 -221 C 439 -290 394 -353 346 -410 L 78 -410 C 125 -361 172 -303 219 -237 C 265 -171 307 -97 344 -15 C 380 67 410 156 433 254 C 455 351 467 455 467 567 C 467 679 455 783 433 881 C 410 979 380 1069 344 1151 C 307 1233 265 1308 219 1374 C 172 1440 125 1497 78 1546 L 348 1546 C 395 1488 440 1425 483 1356 C 525 1287 563 1212 595 1130 C 627 1048 652 961 671 867 C 690 773 700 673 700 567 Z" unicode=")" />
<glyph horiz-adv-x="870" d="M 354 1077 L 350 1079 L 92 1044 L 96 1229 L 354 1190 L 358 1194 L 256 1430 L 414 1475 L 463 1223 L 469 1221 L 664 1380 L 764 1239 L 535 1133 L 535 1126 L 756 993 L 647 860 L 463 1042 L 459 1040 L 387 784 L 236 840 L 354 1077 Z" unicode="*" />
<glyph horiz-adv-x="1262" d="M 88 645 L 520 645 L 520 1085 L 741 1085 L 741 645 L 1174 645 L 1174 442 L 741 442 L 741 0 L 520 0 L 520 442 L 88 442 L 88 645 Z" unicode="+" />
<glyph horiz-adv-x="475" d="M 102 272 L 373 272 L 373 63 C 373 13 368 -29 359 -66 C 349 -103 335 -135 316 -163 C 297 -191 273 -215 244 -235 C 214 -255 180 -273 141 -289 L 86 -190 C 130 -170 163 -145 186 -113 C 209 -81 221 -44 221 0 L 102 0 L 102 272 Z" unicode="," />
<glyph horiz-adv-x="793" d="M 82 647 L 711 647 L 711 440 L 82 440 L 82 647 Z" unicode="-" />
<glyph horiz-adv-x="475" d="M 102 272 L 373 272 L 373 0 L 102 0 L 102 272 Z" unicode="." />
<glyph horiz-adv-x="1092" d="M 879 1546 L 1114 1546 L 213 -410 L -23 -410 L 879 1546 Z" unicode="/" />
<glyph horiz-adv-x="1378" d="M 109 569 C 109 659 124 740 155 813 C 186 886 228 948 281 1000 C 333 1052 395 1091 465 1119 C 535 1147 610 1161 688 1161 C 766 1161 841 1147 912 1119 C 982 1091 1044 1052 1097 1000 C 1150 948 1192 886 1223 813 C 1254 740 1270 659 1270 569 C 1270 478 1254 396 1223 323 C 1192 250 1150 188 1097 136 C 1044 84 982 45 912 17 C 841 -11 766 -25 688 -25 C 610 -25 535 -11 465 17 C 395 45 333 84 281 136 C 228 188 186 250 155 323 C 124 396 109 478 109 569 Z M 354 569 C 354 511 362 459 379 411 C 395 363 418 321 448 287 C 478 253 513 226 554 207 C 594 187 639 178 688 178 C 736 178 781 187 822 207 C 863 226 899 253 929 287 C 959 321 982 363 999 411 C 1015 459 1024 511 1024 569 C 1024 626 1015 678 999 726 C 982 774 959 815 929 849 C 899 883 863 910 822 929 C 781 948 736 958 688 958 C 639 958 594 948 554 929 C 513 910 478 883 448 849 C 418 815 395 774 379 726 C 362 678 354 626 354 569 Z" unicode="0" />
<glyph horiz-adv-x="795" d="M 354 0 L 354 913 L 127 825 L 43 1004 L 414 1155 L 596 1155 L 596 0 L 354 0 Z" unicode="1" />
<glyph horiz-adv-x="1257" d="M 135 0 L 133 47 C 129 115 138 175 159 226 C 179 277 207 322 243 360 C 278 398 319 430 365 458 C 411 486 458 510 507 532 C 555 554 603 574 650 592 C 697 610 739 630 776 650 C 812 670 842 692 865 716 C 887 740 899 768 899 801 C 899 824 893 846 883 866 C 873 886 858 904 838 919 C 818 934 793 946 763 954 C 733 962 700 967 662 967 C 583 967 510 952 443 923 C 376 893 314 855 256 807 L 123 967 C 157 995 194 1020 234 1044 C 273 1068 315 1088 360 1106 C 404 1123 451 1136 501 1146 C 550 1156 602 1161 657 1161 C 735 1161 805 1152 865 1134 C 925 1116 976 1091 1017 1059 C 1058 1027 1089 989 1111 946 C 1132 902 1143 855 1143 805 C 1143 757 1133 714 1114 677 C 1094 640 1068 607 1036 579 C 1004 550 967 525 925 503 C 883 481 840 460 796 441 C 752 422 708 404 664 387 C 620 370 580 352 544 334 C 507 315 476 295 450 273 C 424 251 407 227 399 199 L 1135 199 L 1135 0 L 135 0 Z" unicode="2" />
<glyph horiz-adv-x="1243" d="M 182 -25 C 209 -39 238 -51 268 -63 C 298 -75 329 -85 361 -94 C 393 -103 425 -110 458 -115 C 490 -120 523 -123 555 -123 C 611 -123 662 -117 708 -105 C 754 -93 793 -77 827 -55 C 860 -33 886 -6 904 26 C 922 58 932 94 932 135 C 932 173 924 206 909 234 C 893 261 872 283 845 301 C 817 318 785 330 747 338 C 709 346 667 350 623 350 L 416 350 L 416 539 L 614 539 C 703 539 770 556 815 592 C 860 627 883 683 883 760 C 883 789 876 816 863 841 C 850 866 831 888 807 906 C 782 924 752 939 716 949 C 680 959 638 965 592 965 C 562 965 531 961 499 954 C 467 946 435 936 403 923 C 371 909 341 893 311 875 C 281 857 253 837 227 815 L 98 975 C 132 1001 169 1026 207 1049 C 245 1072 284 1092 326 1109 C 368 1126 412 1139 458 1149 C 504 1158 554 1163 606 1163 C 683 1163 753 1153 817 1134 C 881 1115 935 1089 981 1055 C 1027 1021 1062 980 1088 932 C 1113 884 1126 832 1126 776 C 1126 699 1106 635 1068 583 C 1030 531 977 491 909 463 C 995 431 1061 388 1108 334 C 1154 279 1178 209 1178 123 C 1178 51 1161 -12 1129 -68 C 1096 -123 1051 -169 995 -207 C 938 -245 872 -273 797 -293 C 721 -312 641 -322 557 -322 C 473 -322 392 -311 312 -290 C 232 -268 158 -241 92 -209 L 182 -25 Z" unicode="3" />
<glyph horiz-adv-x="1335" d="M 82 184 L 819 1139 L 1075 1139 L 1075 195 L 1280 195 L 1280 2 L 1075 2 L 1075 -297 L 842 -297 L 842 2 L 158 2 L 82 184 Z M 842 195 L 842 877 L 330 195 L 842 195 Z" unicode="4" />
<glyph horiz-adv-x="1208" d="M 178 -20 C 230 -50 289 -73 354 -91 C 418 -108 482 -117 545 -117 C 595 -117 641 -110 683 -96 C 725 -82 760 -63 790 -38 C 819 -13 842 16 858 52 C 874 87 883 126 883 170 C 883 208 876 242 863 274 C 849 306 830 333 806 356 C 781 379 751 397 715 410 C 679 423 638 430 594 430 C 556 430 511 424 461 413 C 410 402 359 387 309 369 L 172 453 L 203 1139 L 1049 1139 L 1049 946 L 420 946 L 403 565 C 439 581 480 595 527 606 C 574 617 621 623 668 623 C 732 623 791 612 847 591 C 903 569 951 539 993 500 C 1034 461 1066 414 1090 359 C 1114 303 1126 242 1126 174 C 1126 96 1110 26 1080 -35 C 1049 -97 1007 -149 954 -191 C 901 -233 839 -266 768 -288 C 697 -310 621 -322 541 -322 C 452 -322 370 -311 294 -290 C 218 -269 148 -241 86 -207 L 178 -20 Z" unicode="5" />
<glyph horiz-adv-x="1300" d="M 109 674 C 109 768 117 852 134 928 C 151 1003 174 1070 204 1128 C 234 1186 269 1235 311 1277 C 352 1319 397 1353 445 1380 C 493 1406 544 1426 598 1439 C 652 1451 706 1458 762 1458 C 830 1458 896 1450 958 1435 C 1020 1420 1082 1398 1143 1368 L 1049 1194 C 1007 1213 963 1229 915 1242 C 867 1255 815 1262 760 1262 C 708 1262 658 1252 612 1233 C 565 1214 523 1185 487 1146 C 450 1107 420 1057 396 997 C 372 936 358 864 352 782 C 376 802 404 821 434 839 C 464 857 496 872 530 885 C 563 898 597 908 633 915 C 668 922 703 926 739 926 C 808 926 871 915 928 894 C 984 872 1033 842 1073 802 C 1113 762 1145 713 1167 656 C 1189 599 1200 535 1200 463 C 1200 398 1187 336 1163 278 C 1139 219 1104 167 1058 122 C 1012 77 957 41 891 15 C 825 -11 752 -25 670 -25 C 602 -25 542 -16 488 0 C 434 17 386 41 345 72 C 303 103 268 140 238 183 C 208 226 183 273 164 325 C 145 377 131 432 122 491 C 113 550 109 611 109 674 Z M 354 596 C 357 532 366 475 380 423 C 394 371 414 326 440 288 C 466 250 499 221 538 201 C 576 180 622 170 674 170 C 718 170 758 177 794 193 C 830 209 860 230 885 257 C 910 283 929 314 943 349 C 956 384 963 421 963 461 C 963 503 957 541 945 576 C 933 610 915 640 893 665 C 871 690 843 710 811 724 C 778 738 741 745 700 745 C 666 745 632 741 599 733 C 566 725 535 714 505 700 C 475 686 447 671 421 653 C 395 635 373 616 354 596 Z" unicode="6" />
<glyph horiz-adv-x="1182" d="M 840 934 L 84 934 L 84 1139 L 1096 1139 L 1096 965 L 530 -297 L 268 -297 L 840 934 Z" unicode="7" />
<glyph horiz-adv-x="1366" d="M 104 381 C 104 427 112 470 130 509 C 147 548 170 583 199 614 C 228 644 262 671 300 694 C 338 716 378 734 420 748 C 386 760 353 776 323 796 C 292 816 265 839 242 867 C 218 894 200 924 186 958 C 172 992 166 1028 166 1067 C 166 1127 179 1182 205 1231 C 231 1279 267 1320 313 1354 C 359 1387 414 1413 478 1431 C 541 1449 610 1458 684 1458 C 758 1458 826 1449 889 1431 C 952 1413 1007 1387 1053 1354 C 1099 1320 1135 1279 1161 1231 C 1187 1182 1200 1127 1200 1067 C 1200 1028 1193 992 1179 958 C 1165 924 1147 894 1124 867 C 1100 839 1073 816 1043 796 C 1012 776 980 760 946 748 C 987 734 1027 716 1065 694 C 1103 671 1137 644 1166 614 C 1195 583 1218 548 1236 509 C 1253 470 1262 427 1262 381 C 1262 316 1247 258 1219 208 C 1190 158 1150 115 1099 81 C 1048 46 987 20 917 2 C 846 -16 768 -25 684 -25 C 599 -25 521 -16 450 2 C 379 20 318 46 267 81 C 215 115 175 158 147 208 C 118 258 104 316 104 381 Z M 346 389 C 346 353 354 322 371 294 C 387 266 411 243 441 224 C 471 204 506 189 548 179 C 589 169 634 164 684 164 C 732 164 777 169 818 179 C 859 189 895 204 925 224 C 955 243 978 266 995 294 C 1011 322 1020 353 1020 389 C 1020 425 1011 458 993 488 C 975 518 951 544 921 566 C 891 588 855 605 815 619 C 774 633 730 642 684 647 C 636 642 592 633 551 619 C 510 605 474 588 444 566 C 414 544 390 518 372 488 C 354 458 346 425 346 389 Z M 684 834 C 726 837 764 845 798 858 C 832 870 860 887 884 907 C 907 927 925 950 937 977 C 949 1003 956 1033 956 1065 C 956 1095 949 1123 935 1149 C 921 1174 903 1196 879 1214 C 855 1232 826 1245 793 1255 C 759 1265 723 1270 684 1270 C 644 1270 607 1265 573 1255 C 539 1245 511 1232 487 1214 C 463 1196 444 1174 430 1149 C 416 1123 410 1095 410 1065 C 410 1033 416 1003 429 977 C 441 950 459 927 483 907 C 507 887 535 870 569 858 C 603 845 641 837 684 834 Z" unicode="8" />
<glyph horiz-adv-x="1300" d="M 248 -41 C 287 -66 331 -86 380 -102 C 429 -117 484 -125 545 -125 C 597 -125 646 -115 693 -97 C 739 -78 781 -49 817 -11 C 853 27 883 77 907 137 C 930 197 944 268 950 352 C 924 330 897 311 868 294 C 839 276 809 261 777 249 C 745 236 711 226 677 219 C 643 212 608 209 573 209 C 503 209 438 219 380 241 C 321 263 270 294 228 334 C 186 374 153 423 129 481 C 105 538 94 602 94 674 C 94 738 106 800 130 859 C 154 918 188 970 234 1015 C 280 1059 335 1095 401 1121 C 466 1147 540 1161 623 1161 C 725 1161 812 1142 884 1105 C 956 1067 1015 1017 1061 953 C 1107 889 1140 814 1162 730 C 1183 645 1194 555 1194 461 C 1194 367 1185 282 1169 207 C 1152 131 1129 64 1099 6 C 1069 -51 1034 -101 994 -143 C 953 -185 909 -219 861 -246 C 813 -272 762 -292 708 -305 C 654 -317 600 -324 545 -324 C 471 -324 400 -314 332 -294 C 263 -274 199 -246 139 -211 L 248 -41 Z M 612 393 C 646 393 680 396 712 404 C 744 412 774 422 802 436 C 830 449 857 464 882 482 C 906 500 928 519 948 539 C 944 601 935 659 921 711 C 906 763 885 808 858 846 C 830 884 797 913 757 934 C 717 954 670 965 618 965 C 572 965 532 957 497 941 C 461 925 431 904 407 878 C 383 852 364 821 351 786 C 338 751 332 714 332 676 C 332 634 338 596 352 562 C 365 527 384 497 409 472 C 433 447 463 428 497 414 C 531 400 570 393 612 393 Z" unicode="9" />
<glyph horiz-adv-x="475" d="M 102 272 L 373 272 L 373 0 L 102 0 L 102 272 Z M 102 1085 L 373 1085 L 373 813 L 102 813 L 102 1085 Z" unicode=":" />
<glyph horiz-adv-x="475" d="M 102 272 L 373 272 L 373 63 C 373 13 368 -29 359 -66 C 349 -103 335 -135 316 -163 C 297 -191 273 -215 244 -235 C 214 -255 180 -273 141 -289 L 86 -190 C 130 -170 163 -145 186 -113 C 209 -81 221 -44 221 0 L 102 0 L 102 272 Z M 102 1085 L 373 1085 L 373 813 L 102 813 L 102 1085 Z" unicode=";" />
<glyph horiz-adv-x="1274" d="M 1159 0 L 78 438 L 78 649 L 1159 1085 L 1159 844 L 356 545 L 1159 238 L 1159 0 Z" unicode="&#x3C;" />
<glyph horiz-adv-x="1262" d="M 88 893 L 1174 893 L 1174 690 L 88 690 L 88 893 Z M 88 395 L 1174 395 L 1174 193 L 88 193 L 88 395 Z" unicode="=" />
<glyph horiz-adv-x="1274" d="M 115 238 L 918 545 L 115 844 L 115 1085 L 1196 649 L 1196 438 L 115 0 L 115 238 Z" unicode="&#x3E;" />
<glyph horiz-adv-x="1114" d="M 395 432 C 394 434 393 437 393 443 C 393 448 392 454 392 460 C 392 466 391 473 391 479 C 391 485 391 489 391 492 C 391 553 400 604 419 645 C 438 685 462 720 491 749 C 519 777 550 802 583 824 C 616 845 647 867 676 889 C 704 911 728 936 747 964 C 766 992 776 1027 776 1069 C 776 1097 770 1122 759 1145 C 747 1167 731 1187 710 1203 C 689 1219 664 1232 635 1241 C 606 1250 574 1255 539 1255 C 481 1255 425 1242 373 1217 C 320 1191 270 1156 223 1110 L 76 1249 C 138 1315 207 1366 284 1403 C 361 1439 447 1458 543 1458 C 613 1458 678 1449 736 1431 C 794 1413 844 1388 886 1356 C 927 1323 959 1283 982 1237 C 1004 1190 1016 1138 1016 1081 C 1016 1035 1009 994 997 959 C 985 923 968 892 948 864 C 928 836 905 812 879 791 C 853 769 827 749 800 730 C 773 711 747 693 721 675 C 695 657 671 637 651 617 C 631 597 614 574 602 550 C 589 525 582 497 582 465 L 580 432 L 395 432 Z M 356 240 L 623 240 L 623 0 L 356 0 L 356 240 Z" unicode="?" />
<glyph horiz-adv-x="1710" d="M 135 578 C 135 646 143 711 161 775 C 179 838 204 897 236 952 C 268 1007 307 1057 352 1103 C 397 1148 447 1187 502 1219 C 557 1251 616 1276 679 1294 C 742 1312 808 1321 877 1321 C 977 1321 1069 1304 1155 1270 C 1241 1236 1315 1190 1377 1131 C 1439 1071 1488 1001 1524 919 C 1559 837 1577 747 1577 651 C 1577 571 1564 501 1540 441 C 1515 381 1483 330 1444 290 C 1404 249 1360 218 1312 198 C 1264 178 1216 168 1169 168 C 1137 168 1108 171 1084 179 C 1059 186 1037 196 1019 209 C 1001 221 986 236 974 254 C 962 271 954 289 948 309 C 922 277 890 250 852 229 C 813 207 770 197 723 197 C 689 197 657 203 627 215 C 597 227 570 245 548 269 C 526 293 508 322 495 356 C 481 390 475 430 475 475 C 475 512 479 550 487 589 C 495 627 506 665 522 702 C 538 738 557 773 580 805 C 603 837 630 866 660 890 C 690 914 724 934 761 948 C 798 962 839 969 883 969 C 926 969 963 959 994 941 C 1025 923 1049 901 1067 877 L 1100 948 L 1249 948 L 1110 461 C 1092 403 1092 359 1109 330 C 1126 301 1156 287 1198 287 C 1229 287 1260 295 1291 311 C 1321 327 1349 350 1374 381 C 1398 411 1418 449 1433 495 C 1448 540 1456 592 1456 651 C 1456 731 1441 804 1412 872 C 1383 939 1343 997 1292 1045 C 1240 1093 1179 1131 1109 1159 C 1039 1186 962 1200 879 1200 C 822 1200 767 1192 714 1177 C 661 1162 612 1141 566 1114 C 520 1087 478 1055 440 1017 C 402 979 369 937 343 891 C 316 845 295 795 280 742 C 265 689 258 634 258 578 C 258 521 265 466 280 414 C 295 361 316 312 343 266 C 369 220 402 179 440 141 C 478 103 520 70 566 43 C 612 16 661 -4 714 -19 C 766 -33 821 -41 879 -41 C 943 -41 1004 -31 1062 -13 C 1120 5 1174 32 1225 66 L 1294 -35 C 1233 -76 1167 -108 1097 -130 C 1027 -152 953 -164 877 -164 C 809 -164 743 -155 680 -137 C 616 -119 557 -94 502 -62 C 447 -30 397 8 352 53 C 307 98 268 148 236 203 C 204 258 179 317 161 380 C 143 443 135 509 135 578 Z M 651 485 C 651 437 661 401 681 375 C 701 349 730 336 768 336 C 806 336 841 349 875 377 C 909 404 934 447 950 506 L 1028 772 C 1013 786 995 799 974 809 C 952 819 927 825 897 825 C 858 825 823 814 793 792 C 763 770 737 742 716 709 C 695 675 679 639 668 599 C 656 559 651 521 651 485 Z" unicode="@" />
<glyph horiz-adv-x="1450" d="M 580 1434 L 868 1434 L 1399 0 L 1135 0 L 1026 309 L 422 309 L 315 0 L 49 0 L 580 1434 Z M 489 508 L 956 508 L 725 1176 L 721 1176 L 489 508 Z" unicode="A" />
<glyph horiz-adv-x="1382" d="M 158 1434 L 735 1434 C 819 1434 892 1424 954 1404 C 1016 1384 1067 1357 1108 1323 C 1148 1289 1179 1248 1199 1202 C 1219 1155 1229 1105 1229 1051 C 1229 975 1209 911 1170 861 C 1131 811 1079 771 1014 743 C 1054 730 1091 714 1124 694 C 1157 674 1185 650 1209 622 C 1233 594 1251 563 1264 528 C 1277 492 1284 453 1284 410 C 1284 344 1272 285 1248 235 C 1224 184 1189 141 1145 106 C 1101 71 1047 45 984 27 C 920 9 850 0 772 0 L 158 0 L 158 1434 Z M 770 205 C 810 205 847 209 879 219 C 911 228 939 242 962 260 C 985 278 1003 301 1015 329 C 1027 356 1034 388 1034 424 C 1034 458 1027 487 1015 513 C 1002 539 984 560 961 578 C 938 595 910 608 878 617 C 846 626 810 631 770 631 L 401 631 L 401 205 L 770 205 Z M 723 825 C 766 825 804 830 836 841 C 868 851 895 866 916 884 C 937 902 953 924 963 950 C 973 975 979 1002 979 1032 C 979 1060 973 1086 963 1110 C 953 1134 937 1154 916 1172 C 895 1190 868 1204 836 1214 C 804 1224 766 1229 723 1229 L 401 1229 L 401 825 L 723 825 Z" unicode="B" />
<glyph horiz-adv-x="1448" d="M 98 729 C 98 835 116 933 152 1023 C 188 1112 238 1189 303 1254 C 368 1318 446 1368 536 1404 C 626 1440 726 1458 834 1458 C 1021 1458 1187 1401 1333 1288 L 1200 1112 C 1144 1155 1087 1188 1029 1211 C 970 1233 906 1245 838 1245 C 764 1245 698 1232 638 1208 C 578 1183 526 1148 483 1103 C 440 1058 407 1004 383 941 C 359 877 348 807 348 729 C 348 647 359 573 382 507 C 405 440 438 383 481 336 C 523 288 575 252 635 226 C 695 200 763 188 838 188 C 912 188 980 201 1042 227 C 1104 253 1162 292 1214 344 L 1366 184 C 1292 113 1210 60 1121 26 C 1032 -7 934 -25 827 -25 C 718 -25 619 -6 530 30 C 440 67 364 119 300 185 C 236 251 186 331 151 423 C 115 515 98 617 98 729 Z" unicode="C" />
<glyph horiz-adv-x="1475" d="M 158 1434 L 600 1434 C 726 1434 837 1417 934 1385 C 1031 1352 1113 1305 1179 1243 C 1245 1181 1295 1106 1329 1018 C 1363 930 1380 830 1380 719 C 1380 606 1363 505 1331 416 C 1299 327 1250 252 1185 190 C 1120 128 1039 81 942 49 C 844 16 730 0 600 0 L 158 0 L 158 1434 Z M 614 207 C 699 207 774 218 839 242 C 903 266 957 300 1000 344 C 1043 388 1075 441 1097 505 C 1119 568 1130 639 1130 719 C 1130 797 1118 867 1096 930 C 1073 992 1040 1046 996 1090 C 952 1134 898 1167 834 1191 C 770 1215 696 1227 614 1227 L 401 1227 L 401 207 L 614 207 Z" unicode="D" />
<glyph horiz-adv-x="1303" d="M 158 1434 L 1174 1434 L 1174 1217 L 401 1217 L 401 829 L 1094 829 L 1094 629 L 401 629 L 401 217 L 1184 217 L 1184 0 L 158 0 L 158 1434 Z" unicode="E" />
<glyph horiz-adv-x="1272" d="M 158 1434 L 1157 1434 L 1157 1217 L 403 1217 L 403 813 L 1055 813 L 1055 604 L 403 604 L 403 0 L 158 0 L 158 1434 Z" unicode="F" />
<glyph horiz-adv-x="1497" d="M 98 729 C 98 834 115 931 150 1021 C 185 1110 235 1187 299 1252 C 363 1316 440 1367 531 1403 C 621 1439 722 1458 834 1458 C 932 1458 1023 1443 1107 1415 C 1190 1386 1268 1346 1341 1296 L 1214 1122 C 1156 1161 1097 1191 1036 1213 C 975 1234 910 1245 840 1245 C 766 1245 699 1232 639 1207 C 579 1181 527 1146 484 1100 C 441 1054 408 1000 385 937 C 361 874 350 805 350 729 C 350 646 361 571 383 505 C 405 438 437 381 479 334 C 521 287 572 251 633 226 C 693 200 762 188 840 188 C 893 188 945 194 995 207 C 1045 219 1089 236 1126 258 L 1126 598 L 766 598 L 766 780 L 1354 780 L 1354 131 C 1283 81 1203 43 1115 16 C 1027 -11 933 -25 834 -25 C 722 -25 620 -6 530 29 C 439 65 362 117 298 183 C 234 249 184 328 150 421 C 115 513 98 616 98 729 Z" unicode="G" />
<glyph horiz-adv-x="1448" d="M 158 1434 L 403 1434 L 403 836 L 1047 836 L 1047 1434 L 1290 1434 L 1290 0 L 1047 0 L 1047 621 L 403 621 L 403 0 L 158 0 L 158 1434 Z" unicode="H" />
<glyph horiz-adv-x="559" d="M 158 1434 L 403 1434 L 403 0 L 158 0 L 158 1434 Z" unicode="I" />
<glyph horiz-adv-x="1182" d="M 279 385 C 307 324 344 277 388 243 C 432 209 484 193 545 193 C 625 193 684 218 724 269 C 764 320 784 391 784 481 L 784 1434 L 1030 1434 L 1030 477 C 1030 397 1019 325 998 263 C 977 201 946 148 906 106 C 865 63 815 30 757 8 C 698 -13 631 -25 555 -25 C 449 -25 356 0 276 52 C 196 103 132 174 84 266 L 279 385 Z" unicode="J" />
<glyph horiz-adv-x="1391" d="M 158 1434 L 403 1434 L 403 713 L 1012 1434 L 1292 1434 L 827 891 L 1341 0 L 1057 0 L 668 705 L 403 397 L 403 0 L 158 0 L 158 1434 Z" unicode="K" />
<glyph horiz-adv-x="1243" d="M 158 1434 L 403 1434 L 403 217 L 1163 217 L 1163 0 L 158 0 L 158 1434 Z" unicode="L" />
<glyph horiz-adv-x="1753" d="M 158 1434 L 406 1434 L 879 760 L 1352 1434 L 1597 1434 L 1597 0 L 1360 0 L 1360 1069 L 877 393 L 393 1069 L 393 0 L 158 0 L 158 1434 Z" unicode="M" />
<glyph horiz-adv-x="1501" d="M 158 1434 L 393 1434 L 1108 395 L 1108 1434 L 1343 1434 L 1343 0 L 1108 0 L 393 1036 L 393 0 L 158 0 L 158 1434 Z" unicode="N" />
<glyph horiz-adv-x="1661" d="M 98 725 C 98 835 116 936 154 1026 C 191 1116 242 1194 308 1258 C 374 1322 451 1371 541 1406 C 630 1440 727 1458 831 1458 C 935 1458 1031 1440 1121 1406 C 1210 1371 1287 1322 1353 1258 C 1418 1194 1469 1116 1507 1026 C 1544 936 1563 835 1563 725 C 1563 611 1544 507 1507 415 C 1469 323 1418 244 1353 179 C 1287 113 1210 63 1121 28 C 1031 -7 935 -25 831 -25 C 727 -25 630 -7 541 28 C 451 63 374 113 308 179 C 242 244 191 323 154 415 C 116 507 98 611 98 725 Z M 350 725 C 350 641 362 565 387 499 C 411 433 445 376 489 330 C 532 284 583 248 642 224 C 700 200 763 188 831 188 C 899 188 962 200 1021 224 C 1079 248 1130 284 1174 330 C 1217 376 1251 433 1276 499 C 1300 565 1313 641 1313 725 C 1313 805 1300 878 1276 943 C 1251 1007 1217 1062 1174 1107 C 1131 1152 1080 1187 1021 1211 C 962 1235 899 1247 831 1247 C 763 1247 699 1235 641 1211 C 582 1187 531 1152 488 1107 C 445 1062 411 1007 387 943 C 362 878 350 805 350 725 Z" unicode="O" />
<glyph horiz-adv-x="1368" d="M 158 1434 L 741 1434 C 837 1434 919 1421 986 1396 C 1052 1370 1106 1337 1148 1295 C 1190 1253 1220 1206 1238 1153 C 1256 1100 1266 1046 1266 991 C 1266 937 1256 883 1238 830 C 1219 777 1189 729 1148 687 C 1106 645 1052 610 985 584 C 918 558 837 545 741 545 L 403 545 L 403 0 L 158 0 L 158 1434 Z M 739 745 C 789 745 831 751 867 765 C 902 778 931 796 954 818 C 976 840 993 866 1004 896 C 1014 926 1020 957 1020 989 C 1020 1021 1014 1052 1004 1081 C 993 1110 976 1136 954 1158 C 932 1180 903 1197 868 1210 C 832 1222 790 1229 741 1229 L 403 1229 L 403 745 L 739 745 Z" unicode="P" />
<glyph horiz-adv-x="1675" d="M 98 725 C 98 835 116 936 154 1026 C 191 1116 242 1194 308 1258 C 374 1322 451 1371 541 1406 C 630 1440 727 1458 831 1458 C 935 1458 1031 1440 1121 1406 C 1210 1371 1287 1322 1353 1258 C 1418 1194 1469 1116 1507 1026 C 1544 936 1563 835 1563 725 C 1563 629 1549 542 1523 462 C 1496 382 1459 310 1411 248 L 1579 104 L 1446 -39 L 1276 115 C 1214 69 1145 35 1071 11 C 996 -13 916 -25 831 -25 C 727 -25 630 -7 541 28 C 451 63 374 113 308 179 C 242 244 191 323 154 415 C 116 507 98 611 98 725 Z M 981 623 L 1229 401 C 1255 444 1276 493 1291 547 C 1305 601 1313 660 1313 725 C 1313 805 1300 878 1276 943 C 1251 1007 1217 1062 1174 1107 C 1131 1152 1080 1187 1021 1211 C 962 1235 899 1247 831 1247 C 763 1247 699 1235 641 1211 C 582 1187 531 1152 488 1107 C 445 1062 411 1007 387 943 C 362 878 350 805 350 725 C 350 641 362 565 387 499 C 411 433 445 376 489 330 C 532 284 583 248 642 224 C 700 200 763 188 831 188 C 883 188 932 194 978 208 C 1024 221 1066 242 1104 270 L 854 481 L 981 623 Z" unicode="Q" />
<glyph horiz-adv-x="1423" d="M 158 1434 L 778 1434 C 874 1434 955 1421 1022 1396 C 1088 1370 1142 1337 1183 1295 C 1224 1253 1254 1206 1272 1153 C 1290 1100 1300 1046 1300 991 C 1300 947 1294 906 1282 866 C 1270 826 1253 788 1230 754 C 1207 719 1178 688 1144 660 C 1110 632 1070 610 1024 592 L 1311 0 L 1042 0 L 797 553 L 403 553 L 403 0 L 158 0 L 158 1434 Z M 774 745 C 822 745 864 751 900 764 C 935 777 964 795 987 817 C 1009 839 1026 865 1037 895 C 1047 925 1053 956 1053 989 C 1053 1022 1047 1053 1037 1082 C 1026 1111 1009 1136 987 1158 C 964 1180 935 1197 900 1210 C 865 1222 824 1229 776 1229 L 403 1229 L 403 745 L 774 745 Z" unicode="R" />
<glyph horiz-adv-x="1284" d="M 213 324 C 277 284 345 253 417 229 C 489 205 565 193 645 193 C 692 193 733 197 769 207 C 804 217 833 230 857 248 C 881 265 898 286 910 310 C 922 334 928 360 928 389 C 928 429 916 462 893 488 C 870 513 840 534 802 551 C 764 568 720 583 672 595 C 624 607 574 620 524 634 C 474 648 424 664 376 683 C 328 702 285 727 247 758 C 209 789 178 828 155 874 C 132 920 121 978 121 1047 C 121 1104 132 1158 155 1208 C 178 1258 212 1301 256 1338 C 300 1375 353 1404 417 1426 C 480 1447 552 1458 633 1458 C 727 1458 816 1447 898 1426 C 980 1404 1058 1376 1130 1341 L 1038 1145 C 977 1175 913 1198 847 1215 C 780 1232 711 1241 641 1241 C 599 1241 562 1236 530 1226 C 497 1216 469 1202 447 1185 C 424 1168 407 1148 395 1125 C 383 1102 377 1077 377 1051 C 377 1011 388 978 411 953 C 434 927 465 906 503 890 C 541 873 584 859 632 847 C 680 835 730 823 780 809 C 830 795 880 778 928 759 C 976 740 1020 715 1058 684 C 1096 652 1126 613 1149 566 C 1172 518 1184 460 1184 391 C 1184 332 1172 277 1150 227 C 1128 176 1094 132 1050 95 C 1005 57 949 28 881 7 C 813 -14 735 -25 645 -25 C 592 -25 540 -21 489 -13 C 437 -5 388 6 341 20 C 294 34 250 50 208 69 C 166 87 128 107 94 129 L 213 324 Z" unicode="S" />
<glyph horiz-adv-x="1352" d="M 553 1214 L 57 1214 L 57 1434 L 1294 1434 L 1294 1214 L 799 1214 L 799 0 L 553 0 L 553 1214 Z" unicode="T" />
<glyph horiz-adv-x="1475" d="M 152 1434 L 399 1434 L 399 539 C 399 481 407 431 425 387 C 442 343 466 307 496 278 C 526 248 561 226 603 211 C 644 195 689 188 737 188 C 785 188 829 195 871 211 C 913 226 949 248 979 278 C 1009 307 1033 343 1051 387 C 1068 431 1077 481 1077 539 L 1077 1434 L 1323 1434 L 1323 539 C 1323 445 1308 362 1278 292 C 1248 221 1207 162 1155 115 C 1103 68 1041 33 969 10 C 897 -13 820 -25 737 -25 C 653 -25 576 -13 505 10 C 433 33 371 68 319 115 C 267 162 226 221 196 292 C 166 362 152 445 152 539 L 152 1434 Z" unicode="U" />
<glyph horiz-adv-x="1440" d="M 49 1434 L 319 1434 L 717 281 L 721 281 L 1124 1434 L 1393 1434 L 860 0 L 575 0 L 49 1434 Z" unicode="V" />
<glyph horiz-adv-x="2146" d="M 55 1434 L 315 1434 L 645 346 L 649 346 L 961 1434 L 1190 1434 L 1499 346 L 1503 346 L 1835 1434 L 2093 1434 L 1640 0 L 1376 0 L 1075 1051 L 1071 1051 L 770 0 L 506 0 L 55 1434 Z" unicode="W" />
<glyph horiz-adv-x="1458" d="M 573 731 L 90 1434 L 389 1434 L 733 924 L 1075 1434 L 1370 1434 L 885 731 L 1391 0 L 1092 0 L 727 541 L 365 0 L 68 0 L 573 731 Z" unicode="X" />
<glyph horiz-adv-x="1415" d="M 584 580 L 43 1434 L 332 1434 L 707 817 L 711 817 L 1087 1434 L 1372 1434 L 831 580 L 831 0 L 584 0 L 584 580 Z" unicode="Y" />
<glyph horiz-adv-x="1331" d="M 104 190 L 893 1212 L 106 1212 L 106 1434 L 1212 1434 L 1212 1245 L 428 223 L 1237 223 L 1237 0 L 104 0 L 104 190 Z" unicode="Z" />
<glyph horiz-adv-x="850" d="M 723 -233 L 723 -410 L 166 -410 L 166 1546 L 723 1546 L 723 1370 L 406 1370 L 406 -233 L 723 -233 Z" unicode="[" />
<glyph horiz-adv-x="1092" d="M 1114 -410 L 879 -410 L -23 1546 L 213 1546 L 1114 -410 Z" unicode="\" />
<glyph horiz-adv-x="850" d="M 444 -233 L 444 1370 L 127 1370 L 127 1546 L 684 1546 L 684 -410 L 127 -410 L 127 -233 L 444 -233 Z" unicode="]" />
<glyph horiz-adv-x="1163" d="M 471 1526 L 694 1526 L 977 1151 L 801 1151 L 584 1346 L 362 1151 L 186 1151 L 471 1526 Z" unicode="^" />
<glyph horiz-adv-x="1137" d="M 1137 -27 L 1137 -233 L 0 -233 L 0 -27 L 1137 -27 Z" unicode="_" />
<glyph horiz-adv-x="1266" d="M 410 1454 L 575 1575 L 858 1196 L 700 1196 L 410 1454 Z" unicode="`" />
<glyph horiz-adv-x="1124" d="M 92 262 C 92 327 108 383 141 429 C 173 475 218 513 275 543 C 331 573 398 595 475 611 C 552 626 635 636 725 641 L 725 762 C 725 784 721 805 715 823 C 708 841 697 857 683 871 C 669 884 650 894 628 902 C 606 909 579 913 549 913 C 495 913 439 902 382 882 C 325 862 267 837 207 807 L 119 993 C 151 1009 186 1024 222 1038 C 258 1052 295 1064 333 1074 C 371 1084 408 1093 446 1099 C 484 1105 521 1108 557 1108 C 629 1108 690 1099 742 1082 C 793 1064 835 1040 868 1009 C 900 978 924 941 940 898 C 955 855 963 808 963 756 L 963 266 C 963 231 971 206 989 191 C 1007 175 1031 168 1063 168 L 1063 -4 C 1017 -4 978 -1 946 3 C 913 7 885 15 861 25 C 837 35 816 48 799 64 C 782 80 767 99 754 123 C 710 77 661 41 607 15 C 553 -11 490 -25 418 -25 C 370 -25 326 -18 286 -4 C 246 10 211 29 183 55 C 154 80 132 110 116 145 C 100 180 92 219 92 262 Z M 330 283 C 330 243 343 212 370 190 C 397 167 433 156 477 156 C 531 156 579 166 621 186 C 662 206 697 231 725 262 L 725 494 C 693 492 662 490 630 487 C 598 483 568 478 539 472 C 509 466 482 457 457 447 C 431 437 409 424 390 409 C 371 394 356 376 346 355 C 335 334 330 310 330 283 Z" unicode="a" />
<glyph horiz-adv-x="1233" d="M 147 1546 L 387 1546 L 387 956 C 430 1002 479 1039 535 1067 C 591 1094 650 1108 713 1108 C 777 1108 836 1096 889 1072 C 942 1048 988 1013 1026 967 C 1064 920 1093 862 1114 794 C 1134 726 1145 647 1145 559 C 1145 463 1134 379 1114 307 C 1093 234 1064 173 1026 124 C 988 74 943 37 890 12 C 836 -12 777 -25 713 -25 C 676 -25 642 -21 610 -13 C 578 -5 549 5 521 19 C 493 33 466 49 442 68 C 418 87 395 108 375 131 L 358 0 L 147 0 L 147 1546 Z M 387 295 C 428 249 469 215 511 195 C 552 174 599 164 653 164 C 694 164 730 172 762 190 C 794 208 820 233 841 267 C 862 301 878 342 889 391 C 899 439 905 495 905 557 C 905 677 883 767 841 828 C 799 889 736 920 653 920 C 601 920 554 908 511 885 C 467 861 426 827 387 782 L 387 295 Z" unicode="b" />
<glyph horiz-adv-x="1075" d="M 86 551 C 86 637 99 714 126 783 C 152 851 189 910 237 958 C 284 1006 340 1043 406 1069 C 472 1095 543 1108 621 1108 C 691 1108 758 1097 820 1075 C 882 1053 941 1021 995 979 L 870 819 C 838 843 802 864 763 882 C 723 900 678 909 627 909 C 583 909 543 900 507 884 C 471 868 439 844 413 813 C 386 782 365 745 350 701 C 335 657 328 607 328 551 C 328 491 335 438 350 391 C 364 344 385 304 411 272 C 437 239 469 214 506 197 C 542 180 583 172 627 172 C 681 172 727 181 767 199 C 807 217 845 241 881 272 L 1016 129 C 986 103 957 80 927 61 C 897 41 866 25 834 13 C 802 0 768 -9 733 -15 C 698 -21 661 -25 621 -25 C 543 -25 471 -12 406 14 C 340 40 284 77 236 127 C 188 177 151 237 125 309 C 99 380 86 461 86 551 Z" unicode="c" />
<glyph horiz-adv-x="1231" d="M 520 -25 C 454 -25 395 -12 342 12 C 289 37 244 74 206 124 C 168 173 139 234 119 307 C 98 379 88 463 88 559 C 88 647 98 726 119 794 C 139 862 169 920 207 967 C 245 1013 290 1048 343 1072 C 396 1096 455 1108 520 1108 C 584 1108 644 1094 700 1067 C 756 1039 806 1002 850 956 L 850 1546 L 1087 1546 L 1087 0 L 877 0 L 860 131 C 838 108 815 87 791 68 C 766 49 740 33 712 19 C 684 5 654 -5 622 -13 C 590 -21 556 -25 520 -25 Z M 580 164 C 633 164 681 174 724 195 C 766 215 808 249 850 295 L 850 782 C 810 827 767 861 723 885 C 679 908 631 920 580 920 C 496 920 433 889 391 828 C 349 767 328 677 328 557 C 328 433 349 336 391 267 C 433 198 496 164 580 164 Z" unicode="d" />
<glyph horiz-adv-x="1176" d="M 88 551 C 88 636 101 713 128 782 C 155 851 192 910 240 958 C 287 1006 343 1044 408 1070 C 472 1096 542 1110 618 1110 C 696 1110 765 1097 823 1072 C 881 1047 929 1013 967 969 C 1005 925 1034 872 1053 812 C 1071 751 1081 685 1081 614 C 1081 606 1080 597 1080 587 C 1080 577 1079 568 1078 558 C 1077 548 1076 538 1075 529 C 1074 520 1073 512 1073 506 L 328 506 C 334 394 363 310 415 253 C 467 196 541 168 639 168 C 695 168 748 177 799 195 C 850 213 898 237 944 266 L 1049 109 C 986 65 919 32 847 8 C 775 -15 701 -27 625 -27 C 543 -27 469 -13 403 12 C 337 38 280 76 234 126 C 187 175 151 235 126 307 C 100 379 88 460 88 551 Z M 625 932 C 588 932 554 925 523 913 C 491 901 463 883 438 860 C 413 836 392 808 375 774 C 358 740 346 701 338 659 L 852 659 C 852 697 848 732 840 766 C 832 799 819 828 801 852 C 783 876 760 896 731 910 C 702 924 667 932 625 932 Z" unicode="e" />
<glyph horiz-adv-x="827" d="M 223 893 L 41 893 L 41 1071 L 223 1071 L 223 1137 C 223 1214 233 1279 255 1333 C 276 1387 306 1430 344 1464 C 382 1498 428 1522 481 1538 C 533 1553 591 1561 655 1561 C 693 1561 731 1557 769 1549 C 807 1541 841 1532 870 1522 L 811 1350 C 789 1356 767 1361 743 1365 C 719 1369 692 1372 662 1372 C 592 1372 541 1352 509 1314 C 477 1275 461 1217 461 1139 L 461 1071 L 750 1071 L 750 893 L 461 893 L 461 0 L 223 0 L 223 893 Z" unicode="f" />
<glyph horiz-adv-x="1200" d="M 49 -141 C 49 -91 64 -47 94 -9 C 124 28 163 60 213 86 C 166 124 143 171 143 227 C 143 267 153 301 175 331 C 197 360 224 383 256 401 C 208 435 170 477 141 529 C 112 581 98 641 98 711 C 98 771 109 825 133 874 C 157 922 189 964 231 999 C 272 1033 320 1060 376 1079 C 432 1098 492 1108 557 1108 C 615 1108 670 1099 721 1083 C 772 1067 818 1044 858 1014 C 876 1028 895 1042 915 1054 C 935 1066 956 1076 980 1084 C 1004 1092 1030 1099 1058 1103 C 1086 1107 1117 1110 1153 1110 L 1153 934 C 1113 934 1076 932 1044 930 C 1012 928 981 922 952 913 C 969 884 983 853 994 819 C 1004 785 1010 749 1010 711 C 1010 647 997 590 971 540 C 945 490 911 449 869 415 C 827 381 778 355 724 337 C 670 319 614 311 557 311 C 526 311 496 313 467 318 C 437 323 409 330 381 340 C 347 323 330 299 330 268 C 330 252 335 239 345 229 C 355 218 373 209 398 202 C 423 195 456 189 498 185 C 539 180 591 176 653 174 C 727 170 793 161 851 149 C 909 137 959 119 999 96 C 1039 72 1070 43 1092 7 C 1113 -28 1124 -71 1124 -121 C 1124 -168 1113 -211 1091 -249 C 1069 -287 1035 -320 991 -347 C 947 -373 891 -394 823 -408 C 755 -422 676 -430 586 -430 C 500 -430 424 -423 358 -411 C 291 -399 235 -380 189 -356 C 143 -332 109 -302 85 -266 C 61 -230 49 -188 49 -141 Z M 557 481 C 589 481 619 486 647 497 C 675 507 699 523 719 543 C 739 563 754 587 765 615 C 776 643 782 675 782 711 C 782 745 776 776 765 804 C 754 832 739 857 719 877 C 699 897 675 912 647 923 C 619 934 589 940 557 940 C 523 940 493 934 465 923 C 437 912 414 897 394 877 C 374 857 358 832 347 804 C 335 776 330 745 330 711 C 330 675 335 643 347 615 C 358 587 374 563 394 543 C 414 523 437 507 465 497 C 493 486 523 481 557 481 Z M 610 -18 C 564 -16 523 -12 485 -8 C 447 -4 413 2 381 10 C 349 -4 323 -23 304 -47 C 285 -71 276 -99 276 -131 C 276 -177 299 -211 347 -233 C 395 -255 471 -266 575 -266 C 682 -266 763 -255 817 -235 C 871 -215 899 -184 899 -143 C 899 -121 894 -102 884 -88 C 874 -73 857 -61 834 -51 C 811 -41 781 -34 745 -29 C 708 -24 663 -20 610 -18 Z" unicode="g" />
<glyph horiz-adv-x="1208" d="M 147 1546 L 387 1546 L 387 954 C 407 975 430 995 455 1014 C 479 1033 506 1050 534 1064 C 562 1078 591 1089 623 1097 C 655 1105 688 1110 723 1110 C 783 1110 836 1100 880 1082 C 924 1064 961 1038 989 1004 C 1017 970 1038 929 1052 881 C 1066 833 1073 779 1073 721 L 1073 0 L 836 0 L 836 725 C 836 755 832 782 826 806 C 820 830 810 851 796 869 C 782 886 765 899 744 909 C 722 919 696 924 666 924 C 610 924 559 911 513 885 C 467 859 425 823 387 776 L 387 0 L 147 0 L 147 1546 Z" unicode="h" />
<glyph horiz-adv-x="532" d="M 147 1073 L 385 1073 L 385 0 L 147 0 L 147 1073 Z M 147 1532 L 385 1532 L 385 1303 L 147 1303 L 147 1532 Z" unicode="i" />
<glyph horiz-adv-x="553" d="M 168 1073 L 406 1073 L 406 -33 C 406 -103 397 -164 381 -214 C 365 -264 341 -305 311 -337 C 280 -369 243 -392 199 -407 C 155 -422 105 -430 51 -430 C 11 -430 -23 -426 -55 -419 C -86 -412 -110 -405 -127 -399 L -80 -215 C -63 -220 -46 -224 -28 -228 C -10 -231 8 -233 27 -233 C 49 -233 69 -229 87 -223 C 105 -216 120 -205 132 -190 C 144 -175 153 -156 159 -132 C 165 -108 168 -78 168 -43 L 168 1073 Z M 168 1532 L 406 1532 L 406 1300 L 168 1300 L 168 1532 Z" unicode="j" />
<glyph horiz-adv-x="1149" d="M 147 1546 L 387 1546 L 387 580 L 813 1083 L 1077 1083 L 741 707 L 1116 0 L 844 0 L 584 528 L 387 305 L 387 0 L 147 0 L 147 1546 Z" unicode="k" />
<glyph horiz-adv-x="535" d="M 150 1546 L 387 1546 L 387 0 L 150 0 L 150 1546 Z" unicode="l" />
<glyph horiz-adv-x="1849" d="M 141 1083 L 365 1083 L 377 958 C 398 979 421 999 447 1018 C 472 1036 499 1052 527 1066 C 555 1080 585 1090 615 1098 C 645 1106 677 1110 709 1110 C 785 1110 847 1095 895 1065 C 943 1035 980 994 1006 942 C 1057 994 1114 1035 1176 1065 C 1238 1095 1303 1110 1372 1110 C 1428 1110 1478 1100 1521 1082 C 1563 1064 1599 1038 1628 1005 C 1656 971 1678 931 1692 883 C 1706 835 1714 783 1714 725 L 1714 0 L 1477 0 L 1477 729 C 1477 789 1464 837 1439 871 C 1413 905 1372 922 1315 922 C 1265 922 1218 910 1172 886 C 1126 862 1085 828 1047 784 C 1048 772 1049 759 1050 747 C 1050 735 1051 723 1051 711 L 1051 0 L 811 0 L 811 729 C 811 789 798 837 773 871 C 747 905 706 922 649 922 C 597 922 548 909 502 884 C 456 859 415 823 379 776 L 379 0 L 141 0 L 141 1083 Z" unicode="m" />
<glyph horiz-adv-x="1200" d="M 141 1083 L 365 1083 L 377 954 C 397 975 420 995 445 1014 C 470 1033 497 1050 526 1064 C 554 1078 585 1089 617 1097 C 649 1105 682 1110 717 1110 C 777 1110 829 1100 873 1082 C 917 1064 953 1038 982 1004 C 1010 970 1032 929 1046 881 C 1060 833 1067 779 1067 721 L 1067 0 L 829 0 L 829 725 C 829 755 825 782 819 806 C 813 830 803 851 789 869 C 775 886 758 899 736 909 C 714 919 689 924 659 924 C 602 924 551 911 505 885 C 459 859 417 823 379 776 L 379 0 L 141 0 L 141 1083 Z" unicode="n" />
<glyph horiz-adv-x="1247" d="M 88 555 C 88 639 101 715 128 783 C 155 851 193 909 241 957 C 289 1005 345 1043 411 1069 C 476 1095 547 1108 625 1108 C 701 1108 771 1095 836 1069 C 901 1043 957 1005 1005 957 C 1053 909 1090 851 1117 783 C 1143 715 1157 639 1157 555 C 1157 465 1144 385 1118 313 C 1092 241 1056 181 1010 131 C 963 81 907 42 842 15 C 776 -11 704 -25 625 -25 C 544 -25 471 -11 405 15 C 339 42 282 81 235 131 C 188 181 152 241 126 313 C 100 385 88 465 88 555 Z M 330 553 C 330 493 336 440 350 392 C 363 344 382 303 407 269 C 432 235 463 208 500 190 C 536 171 578 162 625 162 C 669 162 709 171 745 190 C 781 208 811 235 836 269 C 861 303 880 344 893 392 C 906 440 913 493 913 553 C 913 607 906 657 892 702 C 878 747 858 786 833 818 C 808 850 778 875 742 893 C 706 911 667 920 625 920 C 581 920 541 911 505 893 C 469 875 438 850 412 818 C 386 786 365 747 351 702 C 337 657 330 607 330 553 Z" unicode="o" />
<glyph horiz-adv-x="1229" d="M 381 -410 L 145 -410 L 145 1083 L 358 1083 L 377 950 C 421 998 471 1037 527 1065 C 583 1093 644 1108 709 1108 C 773 1108 832 1096 885 1072 C 938 1048 984 1013 1022 967 C 1060 920 1089 862 1110 794 C 1130 726 1141 647 1141 559 C 1141 463 1130 379 1110 307 C 1089 234 1060 173 1022 124 C 984 74 939 37 887 12 C 834 -12 775 -25 711 -25 C 675 -25 642 -21 611 -13 C 579 -5 550 4 523 18 C 496 31 471 47 447 65 C 423 83 401 103 381 125 L 381 -410 Z M 381 295 C 422 249 464 215 506 195 C 548 174 595 164 649 164 C 690 164 726 172 758 190 C 790 208 816 233 837 267 C 858 301 874 342 885 391 C 895 439 901 495 901 557 C 901 677 879 767 837 828 C 795 889 732 920 649 920 C 597 920 550 908 506 885 C 462 861 421 827 381 782 L 381 295 Z" unicode="p" />
<glyph horiz-adv-x="1231" d="M 580 164 C 634 164 682 174 724 195 C 766 215 808 249 850 295 L 850 782 C 810 827 768 861 724 885 C 680 908 632 920 580 920 C 497 920 434 889 392 828 C 349 767 328 677 328 557 C 328 433 349 336 392 267 C 435 198 498 164 580 164 Z M 520 -25 C 454 -25 395 -12 342 12 C 289 37 244 74 206 124 C 168 173 139 234 119 307 C 98 379 88 463 88 559 C 88 647 98 726 119 794 C 139 862 169 920 207 967 C 245 1013 290 1048 343 1072 C 396 1096 455 1108 520 1108 C 586 1108 648 1093 704 1065 C 760 1037 810 998 854 950 L 872 1083 L 1087 1083 L 1087 -410 L 850 -410 L 850 125 C 829 103 807 83 783 65 C 759 47 734 31 707 18 C 680 4 651 -5 620 -13 C 588 -21 555 -25 520 -25 Z" unicode="q" />
<glyph horiz-adv-x="874" d="M 141 1083 L 358 1083 L 377 905 C 417 976 463 1028 515 1062 C 567 1095 626 1112 692 1112 C 721 1112 747 1109 771 1105 C 795 1100 816 1093 836 1085 L 793 866 C 772 874 751 881 729 886 C 707 890 683 893 655 893 C 595 893 544 874 501 837 C 457 800 417 746 379 676 L 379 0 L 141 0 L 141 1083 Z" unicode="r" />
<glyph horiz-adv-x="1022" d="M 174 266 C 224 236 277 211 335 192 C 392 173 451 164 512 164 C 540 164 567 166 591 171 C 615 176 635 184 653 195 C 671 205 684 219 694 235 C 704 251 709 271 709 295 C 709 322 700 344 682 362 C 664 379 641 394 613 406 C 585 418 552 428 516 437 C 479 446 441 456 403 467 C 365 478 327 491 291 506 C 254 521 221 540 193 564 C 165 588 142 617 124 652 C 106 686 98 729 98 780 C 98 832 108 879 130 920 C 152 960 181 995 219 1023 C 257 1051 301 1072 351 1086 C 401 1100 454 1108 510 1108 C 570 1108 632 1100 698 1086 C 763 1071 831 1048 901 1016 L 811 840 C 786 852 760 863 734 873 C 708 883 682 891 656 898 C 630 905 604 910 580 914 C 555 918 532 920 512 920 C 486 920 463 917 441 912 C 419 906 401 898 385 888 C 369 878 356 864 347 848 C 338 832 334 813 334 791 C 334 764 342 742 360 726 C 377 709 400 695 428 683 C 456 671 489 661 525 653 C 561 644 599 634 637 624 C 675 613 712 600 748 585 C 784 570 817 551 845 527 C 873 503 896 473 914 438 C 931 402 940 359 940 307 C 940 253 929 205 908 164 C 887 122 858 88 820 60 C 782 32 737 10 685 -3 C 633 -17 576 -25 514 -25 C 431 -25 354 -14 283 6 C 211 26 142 56 74 96 L 174 266 Z" unicode="s" />
<glyph horiz-adv-x="854" d="M 223 905 L 41 905 L 41 1083 L 223 1083 L 223 1374 L 461 1374 L 461 1083 L 762 1083 L 762 905 L 461 905 L 461 307 C 461 215 497 170 571 170 C 629 170 683 187 733 223 L 823 72 C 805 58 785 45 763 33 C 741 21 718 10 694 2 C 670 -5 645 -12 619 -17 C 593 -22 567 -25 541 -25 C 433 -25 353 1 301 55 C 249 109 223 191 223 303 L 223 905 Z" unicode="t" />
<glyph horiz-adv-x="1204" d="M 137 1083 L 375 1083 L 375 360 C 375 330 377 303 383 279 C 389 255 398 234 411 217 C 424 199 441 186 463 176 C 484 166 511 162 543 162 C 600 162 652 174 699 200 C 745 226 788 261 827 307 L 827 1083 L 1065 1083 L 1065 0 L 846 0 L 831 131 C 810 109 787 89 762 70 C 736 51 709 35 680 21 C 651 7 620 -4 588 -12 C 555 -20 521 -25 487 -25 C 425 -25 373 -15 329 2 C 285 20 248 47 220 81 C 191 115 170 156 157 204 C 143 252 137 305 137 365 L 137 1083 Z" unicode="u" />
<glyph horiz-adv-x="1083" d="M 37 1083 L 281 1083 L 543 260 L 547 260 L 813 1083 L 1044 1083 L 672 0 L 408 0 L 37 1083 Z" unicode="v" />
<glyph horiz-adv-x="1714" d="M 37 1083 L 276 1083 L 528 305 L 532 305 L 756 1083 L 961 1083 L 1186 305 L 1190 305 L 1440 1083 L 1673 1083 L 1311 0 L 1083 0 L 858 745 L 854 745 L 629 0 L 403 0 L 37 1083 Z" unicode="w" />
<glyph horiz-adv-x="1098" d="M 403 547 L 63 1083 L 322 1083 L 549 707 L 776 1083 L 1032 1083 L 694 547 L 1042 0 L 788 0 L 547 387 L 305 0 L 53 0 L 403 547 Z" unicode="x" />
<glyph horiz-adv-x="1092" d="M 92 -199 C 116 -208 141 -216 166 -224 C 191 -232 215 -236 238 -236 C 274 -236 304 -227 328 -211 C 352 -194 371 -164 387 -121 L 436 6 L 39 1083 L 283 1083 L 551 305 L 555 305 L 815 1083 L 1053 1083 L 623 -131 C 601 -190 577 -239 551 -277 C 525 -315 496 -346 465 -369 C 434 -391 400 -407 364 -416 C 328 -425 289 -430 248 -430 C 206 -430 166 -426 127 -418 C 88 -410 53 -400 23 -389 L 92 -199 L 92 -199 Z" unicode="y" />
<glyph horiz-adv-x="1053" d="M 94 160 L 653 893 L 109 893 L 109 1083 L 952 1083 L 952 922 L 395 188 L 973 188 L 973 0 L 94 0 L 94 160 Z" unicode="z" />
<glyph horiz-adv-x="989" d="M 868 -236 L 868 -410 L 733 -410 C 599 -410 500 -381 436 -325 C 372 -268 340 -184 340 -74 L 340 291 C 340 347 327 389 303 415 C 278 441 236 455 178 455 L 66 455 L 66 668 L 178 668 C 236 668 278 680 303 706 C 327 732 340 773 340 831 L 340 1210 C 340 1320 372 1404 436 1461 C 500 1517 599 1546 733 1546 L 868 1546 L 868 1372 L 745 1372 C 713 1372 687 1369 666 1363 C 645 1357 628 1347 616 1334 C 603 1320 594 1303 588 1283 C 582 1262 580 1237 580 1208 L 580 844 C 580 698 514 604 383 563 L 383 561 C 514 515 580 421 580 279 L 580 -72 C 580 -101 582 -126 588 -147 C 594 -167 603 -184 616 -197 C 628 -210 645 -220 666 -226 C 687 -232 713 -236 745 -236 L 868 -236 Z" unicode="{" />
<glyph horiz-adv-x="635" d="M 205 1546 L 430 1546 L 430 -410 L 205 -410 L 205 1546 Z" unicode="|" />
<glyph horiz-adv-x="989" d="M 244 -236 C 275 -236 301 -232 322 -226 C 343 -220 360 -210 373 -197 C 386 -184 395 -167 401 -147 C 407 -126 410 -101 410 -72 L 410 279 C 410 422 475 516 606 561 L 606 563 C 475 603 410 697 410 844 L 410 1208 C 410 1237 407 1262 401 1283 C 395 1303 386 1320 373 1334 C 360 1347 343 1357 322 1363 C 301 1369 275 1372 244 1372 L 121 1372 L 121 1546 L 256 1546 C 390 1546 489 1517 553 1461 C 617 1404 649 1320 649 1210 L 649 831 C 649 773 661 732 686 706 C 710 680 752 668 811 668 L 924 668 L 924 455 L 811 455 C 752 455 710 441 686 415 C 661 389 649 347 649 291 L 649 -74 C 649 -184 617 -268 553 -325 C 489 -381 390 -410 256 -410 L 121 -410 L 121 -236 L 244 -236 Z" unicode="}" />
<glyph horiz-adv-x="1165" d="M 143 403 C 141 412 141 420 141 428 C 141 436 141 444 141 453 C 141 495 146 535 156 571 C 166 607 182 638 203 665 C 224 691 250 712 281 727 C 311 742 347 750 389 750 C 417 750 443 745 467 737 C 491 729 514 718 535 706 C 556 693 576 679 596 665 C 615 650 634 636 653 624 C 672 611 691 600 710 592 C 729 584 749 580 770 580 C 804 580 828 592 841 618 C 854 643 860 675 858 715 L 1022 715 C 1023 706 1024 698 1024 691 C 1024 683 1024 676 1024 668 C 1024 624 1018 585 1008 549 C 998 513 982 481 961 455 C 940 428 914 407 883 393 C 852 378 816 371 776 371 C 748 371 721 375 697 383 C 673 391 650 402 629 415 C 608 427 588 441 569 456 C 549 470 530 484 512 497 C 493 509 474 520 456 528 C 437 536 417 541 397 541 C 379 541 364 537 352 530 C 340 523 330 513 323 501 C 316 489 311 474 309 457 C 306 440 305 422 307 403 L 143 403 L 143 403 Z" unicode="~" />
<glyph horiz-adv-x="1843" d="M 354 606 L 1489 1280 L 1489 -70 L 354 606 Z" unicode="◀" />
<glyph horiz-adv-x="977" d="M 375 412 L 410 639 L 260 614 L 106 614 L 106 819 L 260 819 L 410 799 L 385 965 L 410 1133 L 260 1110 L 106 1110 L 106 1315 L 260 1315 L 410 1292 L 375 1518 L 375 1546 L 602 1546 L 602 1518 L 565 1294 L 717 1315 L 870 1315 L 870 1110 L 717 1110 L 565 1135 L 592 965 L 567 797 L 717 819 L 870 819 L 870 614 L 717 614 L 567 639 L 602 412 L 602 172 L 375 172 L 375 412 Z" unicode="‡" />
<glyph horiz-adv-x="1974" d="M 901 893 L 461 893 L 461 0 L 223 0 L 223 893 L 41 893 L 41 1071 L 223 1071 L 223 1128 C 223 1202 233 1266 254 1319 C 275 1372 305 1416 343 1450 C 381 1484 428 1508 483 1524 C 537 1540 598 1548 666 1548 C 734 1548 797 1539 855 1521 C 913 1503 966 1480 1016 1452 C 1056 1489 1105 1516 1163 1533 C 1221 1550 1288 1559 1364 1559 C 1405 1559 1446 1555 1488 1549 C 1529 1542 1569 1533 1608 1522 C 1646 1510 1683 1497 1719 1482 C 1754 1466 1787 1450 1817 1432 L 1724 1270 C 1702 1282 1677 1295 1650 1307 C 1622 1319 1593 1330 1563 1340 C 1533 1349 1502 1357 1470 1363 C 1438 1369 1406 1372 1376 1372 C 1292 1372 1232 1352 1195 1313 C 1157 1273 1139 1211 1139 1126 L 1139 1071 L 1425 1071 L 1425 893 L 1139 893 L 1139 0 L 901 0 L 901 893 Z M 1589 1073 L 1827 1073 L 1827 -33 C 1827 -103 1818 -164 1802 -214 C 1786 -264 1762 -305 1732 -337 C 1701 -369 1664 -392 1620 -407 C 1576 -422 1527 -430 1473 -430 C 1433 -430 1398 -426 1366 -419 C 1334 -412 1310 -405 1294 -399 L 1341 -215 C 1357 -220 1375 -224 1393 -228 C 1411 -231 1429 -233 1448 -233 C 1470 -233 1490 -229 1508 -223 C 1525 -216 1540 -205 1552 -190 C 1564 -175 1573 -156 1579 -132 C 1585 -108 1589 -78 1589 -43 L 1589 1073 Z M 461 1071 L 901 1071 L 901 1130 C 901 1197 909 1255 926 1305 C 890 1324 852 1339 811 1349 C 770 1359 727 1364 682 1364 C 604 1364 548 1345 513 1307 C 478 1269 461 1211 461 1133 L 461 1071 Z" unicode="" />
<glyph horiz-adv-x="1311" d="M 78 520 L 78 758 L 1198 1085 L 1198 864 L 420 637 L 1198 391 L 1198 168 L 78 520 Z M 78 168 L 1198 168 L 1198 0 L 78 0 L 78 168 Z" unicode="≤" />
<glyph horiz-adv-x="1692" d="M 479 324 C 505 324 531 330 557 342 C 582 354 606 370 629 390 C 651 410 673 434 693 460 C 713 486 731 514 748 543 C 731 571 713 599 693 625 C 673 651 651 675 629 695 C 606 715 582 732 557 744 C 531 756 505 762 479 762 C 455 762 433 757 412 748 C 390 738 372 724 356 706 C 340 688 327 665 317 638 C 307 610 303 579 303 543 C 303 506 307 474 317 447 C 327 419 340 396 356 378 C 372 360 390 346 412 337 C 433 328 455 324 479 324 Z M 461 133 C 408 133 359 141 314 159 C 269 176 230 202 198 237 C 165 271 139 314 121 365 C 103 416 94 475 94 543 C 94 609 103 668 121 719 C 139 769 165 812 198 847 C 230 881 269 907 314 925 C 359 943 408 952 461 952 C 500 952 537 945 572 932 C 607 919 641 901 673 878 C 705 854 735 826 764 794 C 792 761 820 725 846 686 C 872 725 899 761 928 794 C 956 826 987 854 1019 878 C 1051 901 1084 919 1119 932 C 1154 945 1191 952 1231 952 C 1283 952 1332 943 1377 925 C 1421 907 1460 881 1493 847 C 1525 812 1551 769 1569 719 C 1587 668 1597 609 1597 543 C 1597 475 1587 416 1569 365 C 1551 314 1525 271 1493 237 C 1460 202 1421 176 1377 159 C 1332 141 1283 133 1231 133 C 1191 133 1154 139 1119 152 C 1084 165 1051 183 1019 207 C 987 230 956 258 928 291 C 899 323 872 359 846 399 C 820 359 792 323 764 291 C 735 258 705 230 673 207 C 641 183 607 165 572 152 C 537 139 500 133 461 133 Z M 946 543 C 962 514 979 486 999 460 C 1019 434 1040 410 1063 390 C 1086 370 1110 354 1135 342 C 1160 330 1186 324 1214 324 C 1238 324 1260 328 1281 337 C 1302 346 1321 360 1337 378 C 1353 396 1365 419 1375 447 C 1384 474 1389 506 1389 543 C 1389 579 1384 610 1375 638 C 1365 665 1353 688 1337 706 C 1321 724 1302 738 1281 748 C 1260 757 1238 762 1214 762 C 1186 762 1160 756 1135 744 C 1110 732 1086 715 1063 695 C 1040 675 1019 651 999 625 C 979 599 962 571 946 543 Z" unicode="∞" />
<glyph horiz-adv-x="1571" d="M 0 938 L 485 1122 L 707 352 L 1323 1434 L 1571 1434 L 733 -25 L 602 -25 L 346 842 L 74 737 L 0 938 Z" unicode="√" />
<glyph horiz-adv-x="563" d="M 219 653 L 344 653 L 406 -88 L 406 -348 L 158 -348 L 158 -88 L 219 653 Z M 150 1085 L 416 1085 L 416 846 L 150 846 L 150 1085 Z" unicode="¡" />
<glyph horiz-adv-x="1264" d="M 98 580 C 98 663 112 740 142 811 C 172 882 214 943 268 995 C 322 1047 387 1087 463 1117 C 539 1146 625 1161 719 1161 L 743 1161 L 788 1346 L 932 1346 L 883 1143 C 928 1132 973 1117 1017 1097 C 1061 1077 1105 1052 1147 1022 L 1026 858 C 959 906 892 938 825 954 L 637 176 C 650 172 664 170 678 169 C 692 168 706 168 721 168 C 783 168 839 178 890 199 C 940 219 988 251 1034 295 L 1178 152 C 1115 94 1046 49 970 19 C 894 -11 810 -27 719 -27 C 699 -27 680 -26 661 -24 C 641 -22 622 -20 604 -18 L 545 -272 L 401 -272 L 473 14 C 414 36 361 65 315 102 C 269 139 229 182 197 231 C 165 279 140 333 123 392 C 106 451 98 514 98 580 Z M 330 580 C 330 495 347 421 383 358 C 418 294 467 246 530 213 L 711 967 C 656 965 605 955 559 936 C 512 917 472 891 438 857 C 404 823 377 782 358 735 C 339 688 330 636 330 580 Z" unicode="¢" />
<glyph horiz-adv-x="1268" d="M 160 674 L 338 674 C 319 704 304 735 292 768 C 280 801 274 836 274 872 C 274 912 282 950 299 986 C 316 1021 341 1052 373 1078 C 405 1104 445 1125 492 1140 C 539 1155 593 1163 653 1163 C 703 1163 749 1157 791 1146 C 832 1134 869 1119 902 1100 C 934 1081 963 1059 987 1035 C 1011 1010 1031 984 1047 958 L 866 874 C 857 888 846 901 833 915 C 820 929 805 941 789 951 C 772 961 753 970 733 977 C 712 983 690 987 666 987 C 614 987 574 975 546 953 C 518 931 504 901 504 864 C 504 833 511 802 526 771 C 541 740 561 706 586 670 L 881 670 L 881 530 L 674 530 C 687 503 698 475 706 447 C 714 419 719 387 719 352 C 719 328 716 306 712 284 C 707 262 700 241 692 221 C 727 201 762 185 797 173 C 831 160 867 154 905 154 C 953 154 987 169 1009 200 C 1031 231 1036 278 1026 340 L 1233 340 C 1244 281 1246 229 1238 184 C 1230 138 1213 100 1189 69 C 1164 38 1132 15 1093 -1 C 1053 -17 1008 -25 956 -25 C 920 -25 886 -21 855 -14 C 823 -7 793 1 765 13 C 736 24 709 37 684 53 C 658 68 634 84 610 100 C 570 61 523 30 470 8 C 417 -13 363 -25 307 -25 C 271 -25 238 -19 210 -8 C 181 2 156 17 136 36 C 115 54 99 76 88 102 C 77 127 72 154 72 184 C 72 214 77 241 89 266 C 101 291 117 313 138 331 C 158 349 182 363 210 373 C 237 383 267 389 299 389 C 336 389 372 383 406 371 C 440 359 474 345 508 328 C 508 348 506 367 503 385 C 499 402 495 418 489 434 C 483 450 475 465 467 481 C 458 496 448 512 438 528 L 160 528 L 160 674 Z M 307 98 C 338 98 368 106 398 124 C 427 142 451 167 471 199 C 443 217 415 233 389 245 C 362 257 335 264 307 264 C 278 264 255 256 237 242 C 219 228 211 208 211 184 C 211 158 219 138 236 122 C 252 106 276 98 307 98 Z" unicode="£" />
<glyph horiz-adv-x="1366" d="M 133 549 C 133 613 143 673 163 731 C 183 789 212 841 250 887 L 139 1004 L 248 1106 L 354 989 C 400 1024 450 1051 506 1071 C 562 1090 621 1100 684 1100 C 746 1100 804 1090 860 1071 C 915 1051 966 1024 1012 989 L 1120 1106 L 1229 1004 L 1116 889 C 1153 841 1182 789 1203 731 C 1224 673 1235 613 1235 549 C 1235 485 1224 424 1203 367 C 1182 310 1154 258 1118 211 L 1229 94 L 1120 -6 L 1012 109 C 966 73 915 46 860 28 C 804 9 746 0 684 0 C 622 0 563 9 507 27 C 451 45 400 72 354 106 L 248 -6 L 139 94 L 248 211 C 212 258 183 310 163 367 C 143 424 133 485 133 549 Z M 344 549 C 344 502 353 458 371 417 C 389 376 413 340 444 310 C 475 279 511 255 553 237 C 594 219 638 211 686 211 C 732 211 776 219 817 237 C 858 255 894 279 925 310 C 956 340 981 376 999 417 C 1017 458 1026 502 1026 549 C 1026 595 1017 639 999 681 C 981 723 956 759 925 790 C 894 821 858 846 817 864 C 776 882 732 891 686 891 C 638 891 594 882 553 864 C 511 846 475 821 444 790 C 413 759 389 723 371 681 C 353 639 344 595 344 549 Z" unicode="¤" />
<glyph horiz-adv-x="1239" d="M 129 571 L 498 571 L 49 1139 L 332 1139 L 618 766 L 621 766 L 907 1139 L 1188 1139 L 739 571 L 1108 571 L 1108 432 L 739 432 L 739 315 L 1108 315 L 1108 176 L 739 176 L 739 0 L 498 0 L 498 176 L 129 176 L 129 315 L 498 315 L 498 432 L 129 432 L 129 571 Z" unicode="¥" />
<glyph horiz-adv-x="1108" d="M 981 385 C 981 363 977 342 971 322 C 965 302 956 283 946 266 C 935 248 922 232 908 217 C 894 201 879 188 864 176 C 891 153 912 126 928 96 C 944 65 952 28 952 -16 C 952 -64 942 -107 923 -145 C 903 -183 875 -215 839 -241 C 802 -267 758 -287 706 -301 C 654 -315 595 -322 530 -322 C 494 -322 457 -318 421 -310 C 384 -302 349 -291 315 -277 C 281 -263 248 -246 218 -226 C 188 -206 161 -185 139 -162 L 291 -37 C 321 -69 357 -94 401 -114 C 444 -133 491 -143 541 -143 C 597 -143 642 -133 675 -113 C 708 -93 725 -63 725 -25 C 725 0 716 22 699 40 C 682 58 660 73 632 87 C 604 101 572 113 536 125 C 500 136 463 148 426 161 C 388 173 352 188 316 204 C 280 220 248 239 220 262 C 192 285 169 312 152 344 C 135 375 127 413 127 457 C 127 479 130 499 136 519 C 142 539 151 557 162 575 C 172 593 185 609 199 624 C 213 639 228 653 244 666 C 216 688 195 715 179 746 C 163 776 156 814 156 860 C 156 908 165 950 185 988 C 204 1025 232 1057 269 1083 C 305 1109 350 1128 402 1142 C 454 1156 512 1163 578 1163 C 614 1163 650 1159 687 1151 C 723 1143 759 1133 793 1119 C 827 1105 859 1089 889 1069 C 919 1049 945 1028 969 1004 L 817 879 C 787 911 750 936 707 956 C 663 975 617 985 567 985 C 510 985 465 975 432 955 C 399 935 383 905 383 866 C 383 840 391 819 408 801 C 425 783 448 768 476 754 C 504 740 536 728 572 717 C 608 705 644 693 682 681 C 719 668 756 654 792 638 C 828 622 860 602 888 579 C 916 556 938 529 955 498 C 972 466 981 429 981 385 Z M 770 352 C 770 376 764 397 753 415 C 742 433 727 448 708 462 C 688 476 666 488 640 498 C 614 508 587 518 559 528 C 530 537 500 546 470 556 C 439 565 409 576 381 588 C 369 575 359 560 351 543 C 342 526 338 508 338 489 C 338 465 343 444 354 426 C 365 408 380 392 399 379 C 418 365 440 353 466 343 C 492 333 519 323 548 314 C 576 304 606 295 637 285 C 667 275 697 265 727 254 C 737 266 747 281 756 298 C 765 314 770 332 770 352 Z" unicode="§" />
<glyph horiz-adv-x="1298" d="M 764 1464 L 969 1464 L 969 1255 L 764 1255 L 764 1464 Z M 330 1464 L 537 1464 L 537 1255 L 330 1255 L 330 1464 Z" unicode="¨" />
<glyph horiz-adv-x="1735" d="M 465 578 C 465 634 475 686 495 735 C 515 784 544 827 581 863 C 618 899 662 927 714 948 C 765 968 821 979 883 979 C 932 979 982 971 1033 955 C 1084 939 1134 913 1182 877 L 1081 748 C 1049 770 1016 788 984 802 C 952 816 919 823 887 823 C 853 823 821 817 791 805 C 761 793 736 776 714 754 C 692 732 675 707 663 677 C 651 647 645 614 645 578 C 645 540 651 505 663 475 C 675 445 692 419 714 398 C 735 376 760 360 790 349 C 820 337 852 332 887 332 C 921 332 955 338 989 351 C 1023 363 1055 384 1085 412 L 1196 299 C 1152 257 1104 226 1052 204 C 1000 182 943 172 881 172 C 818 172 761 181 710 201 C 659 221 615 248 579 284 C 543 320 515 362 495 412 C 475 462 465 517 465 578 Z M 125 578 C 125 646 133 711 151 775 C 169 838 194 897 226 952 C 258 1007 296 1057 342 1103 C 387 1148 437 1187 492 1219 C 546 1251 605 1276 669 1294 C 732 1312 798 1321 866 1321 C 934 1321 999 1312 1063 1294 C 1126 1276 1185 1251 1241 1219 C 1296 1187 1346 1148 1392 1103 C 1437 1057 1476 1007 1508 952 C 1540 897 1565 838 1583 775 C 1601 711 1610 646 1610 578 C 1610 510 1601 444 1583 381 C 1565 317 1540 258 1508 203 C 1476 148 1437 98 1392 53 C 1346 8 1296 -30 1241 -62 C 1185 -94 1126 -119 1063 -137 C 999 -155 934 -164 866 -164 C 798 -164 732 -155 669 -137 C 605 -119 546 -94 492 -62 C 437 -30 387 8 342 53 C 296 98 258 148 226 203 C 194 258 169 317 151 380 C 133 443 125 509 125 578 Z M 250 578 C 250 521 257 466 272 414 C 286 361 307 312 334 266 C 360 220 392 179 430 141 C 468 103 509 70 555 43 C 601 16 650 -4 703 -19 C 755 -33 810 -41 868 -41 C 924 -41 979 -33 1032 -19 C 1085 -4 1135 16 1181 43 C 1227 70 1268 103 1306 141 C 1344 179 1376 220 1404 266 C 1431 312 1452 361 1467 414 C 1481 466 1489 521 1489 578 C 1489 634 1481 689 1466 742 C 1451 795 1430 845 1404 891 C 1377 937 1345 979 1307 1017 C 1269 1055 1227 1087 1181 1114 C 1135 1141 1085 1162 1032 1177 C 979 1192 924 1200 868 1200 C 810 1200 755 1192 703 1177 C 650 1162 601 1141 555 1114 C 509 1087 468 1055 430 1017 C 392 979 360 937 334 891 C 307 845 286 795 272 742 C 257 689 250 634 250 578 Z" unicode="©" />
<glyph horiz-adv-x="784" d="M 70 877 C 70 923 81 961 104 993 C 127 1025 158 1051 197 1071 C 236 1091 282 1106 334 1116 C 386 1126 441 1133 500 1137 L 500 1212 C 500 1240 491 1262 473 1280 C 455 1298 425 1307 383 1307 C 345 1307 307 1300 267 1286 C 227 1272 187 1255 147 1235 L 88 1368 C 110 1379 133 1389 158 1399 C 182 1409 207 1417 233 1425 C 259 1432 285 1438 311 1442 C 337 1446 362 1448 387 1448 C 435 1448 477 1442 512 1430 C 546 1418 575 1401 597 1380 C 619 1359 636 1334 646 1304 C 656 1274 662 1242 662 1208 L 662 885 C 662 861 668 844 680 834 C 692 824 709 819 731 819 L 731 696 C 699 696 672 697 650 700 C 628 703 608 708 592 714 C 576 720 562 729 551 739 C 539 749 529 762 520 776 C 490 747 457 724 422 707 C 386 690 345 682 297 682 C 263 682 233 686 205 696 C 177 706 154 719 134 737 C 114 754 98 775 87 799 C 75 823 70 849 70 877 Z M 236 893 C 236 868 244 848 261 833 C 278 818 302 811 332 811 C 366 811 398 817 426 829 C 454 841 479 857 500 877 L 500 1028 C 468 1026 436 1024 405 1020 C 373 1016 345 1009 320 999 C 295 989 275 976 259 959 C 243 941 236 919 236 893 Z" unicode="ª" />
<glyph horiz-adv-x="1300" d="M 664 123 L 498 0 L 90 545 L 498 1085 L 664 961 L 330 545 L 664 123 Z M 1192 123 L 1026 0 L 618 545 L 1026 1085 L 1192 961 L 858 545 L 1192 123 Z" unicode="«" />
<glyph horiz-adv-x="1307" d="M 121 1139 L 1186 1139 L 1186 549 L 936 549 L 936 940 L 121 940 L 121 1139 Z" unicode="¬" />
<glyph horiz-adv-x="1735" d="M 559 965 L 930 965 C 983 965 1028 957 1065 943 C 1102 929 1132 910 1156 886 C 1179 862 1196 836 1207 806 C 1217 776 1223 745 1223 713 C 1223 691 1220 670 1214 649 C 1208 628 1200 608 1188 589 C 1176 569 1160 551 1142 535 C 1123 519 1101 505 1075 494 C 1081 482 1089 469 1098 453 C 1106 437 1116 419 1126 400 C 1136 381 1146 362 1157 342 C 1167 322 1178 302 1188 284 C 1198 265 1207 248 1216 233 C 1224 217 1232 205 1239 195 L 1049 195 L 907 473 L 735 473 L 735 195 L 559 195 L 559 965 Z M 911 606 C 937 606 958 609 976 616 C 993 622 1007 631 1018 641 C 1029 651 1037 663 1042 676 C 1046 688 1049 701 1049 713 C 1049 727 1046 740 1042 754 C 1037 767 1029 779 1018 789 C 1007 799 993 808 976 815 C 958 821 937 825 911 825 L 735 825 L 735 606 L 911 606 Z M 125 578 C 125 646 133 711 151 775 C 169 838 194 897 226 952 C 258 1007 296 1057 342 1103 C 387 1148 437 1187 492 1219 C 546 1251 605 1276 669 1294 C 732 1312 798 1321 866 1321 C 934 1321 999 1312 1063 1294 C 1126 1276 1185 1251 1241 1219 C 1296 1187 1346 1148 1392 1103 C 1437 1057 1476 1007 1508 952 C 1540 897 1565 838 1583 775 C 1601 711 1610 646 1610 578 C 1610 510 1601 444 1583 381 C 1565 317 1540 258 1508 203 C 1476 148 1437 98 1392 53 C 1346 8 1296 -30 1241 -62 C 1185 -94 1126 -119 1063 -137 C 999 -155 934 -164 866 -164 C 798 -164 732 -155 669 -137 C 605 -119 546 -94 492 -62 C 437 -30 387 8 342 53 C 296 98 258 148 226 203 C 194 258 169 317 151 380 C 133 443 125 509 125 578 Z M 250 578 C 250 521 257 466 272 414 C 286 361 307 312 334 266 C 360 220 392 179 430 141 C 468 103 509 70 555 43 C 601 16 650 -4 703 -19 C 755 -33 810 -41 868 -41 C 924 -41 979 -33 1032 -19 C 1085 -4 1135 16 1181 43 C 1227 70 1268 103 1306 141 C 1344 179 1376 220 1404 266 C 1431 312 1452 361 1467 414 C 1481 466 1489 521 1489 578 C 1489 634 1481 689 1466 742 C 1451 795 1430 845 1404 891 C 1377 937 1345 979 1307 1017 C 1269 1055 1227 1087 1181 1114 C 1135 1141 1085 1162 1032 1177 C 979 1192 924 1200 868 1200 C 810 1200 755 1192 703 1177 C 650 1162 601 1141 555 1114 C 509 1087 468 1055 430 1017 C 392 979 360 937 334 891 C 307 845 286 795 272 742 C 257 689 250 634 250 578 Z" unicode="®" />
<glyph horiz-adv-x="1290" d="M 338 1438 L 975 1438 L 975 1280 L 338 1280 L 338 1438 Z" unicode="¯" />
<glyph horiz-adv-x="852" d="M 428 786 C 382 786 338 793 296 809 C 254 824 217 846 185 875 C 153 903 127 938 108 980 C 89 1022 80 1069 80 1122 C 80 1172 89 1217 108 1259 C 127 1300 153 1335 185 1365 C 217 1395 253 1418 295 1435 C 337 1451 380 1460 426 1460 C 470 1460 513 1451 555 1435 C 597 1418 633 1395 665 1365 C 697 1335 722 1300 741 1259 C 760 1217 770 1172 770 1122 C 770 1069 760 1022 742 980 C 723 938 698 903 667 875 C 635 846 599 824 558 809 C 516 793 473 786 428 786 Z M 428 930 C 453 930 477 934 500 943 C 523 952 543 965 561 982 C 578 998 592 1018 602 1042 C 612 1066 618 1092 618 1122 C 618 1150 612 1176 602 1200 C 592 1224 578 1244 561 1261 C 543 1278 523 1291 500 1301 C 477 1310 453 1315 428 1315 C 402 1315 378 1310 355 1301 C 331 1291 311 1278 293 1261 C 275 1244 260 1224 249 1200 C 238 1176 233 1150 233 1122 C 233 1092 238 1066 249 1042 C 260 1018 275 998 293 982 C 311 965 331 952 355 943 C 378 934 402 930 428 930 Z" unicode="°" />
<glyph horiz-adv-x="1262" d="M 88 168 L 520 168 L 520 506 L 88 506 L 88 709 L 520 709 L 520 1085 L 741 1085 L 741 709 L 1174 709 L 1174 506 L 741 506 L 741 168 L 1174 168 L 1174 0 L 88 0 L 88 168 Z" unicode="±" />
<glyph horiz-adv-x="1266" d="M 692 1575 L 856 1454 L 565 1196 L 408 1196 L 692 1575 Z" unicode="´" />
<glyph horiz-adv-x="1182" d="M 334 -410 L 121 -410 L 121 1139 L 362 1139 L 362 346 C 363 318 367 294 373 272 C 379 250 389 231 403 215 C 416 199 433 187 454 179 C 474 170 500 166 530 166 C 588 166 641 178 689 203 C 736 228 779 263 819 309 L 819 1139 L 1061 1139 L 1061 0 L 836 0 L 825 119 C 807 99 787 80 767 63 C 746 46 724 31 701 19 C 678 7 654 -2 629 -9 C 604 -16 579 -20 553 -20 C 503 -20 463 -14 431 -2 C 399 9 372 26 352 49 L 334 -410 Z" unicode="µ" />
<glyph horiz-adv-x="1475" d="M 686 567 L 614 567 C 524 567 448 580 386 606 C 323 632 272 667 233 709 C 193 751 164 797 146 849 C 128 900 119 951 119 1001 C 119 1053 127 1105 145 1157 C 163 1209 191 1255 230 1296 C 269 1337 320 1370 382 1396 C 444 1421 520 1434 610 1434 L 1309 1434 L 1309 0 L 1094 0 L 1094 1257 L 901 1257 L 901 0 L 686 0 L 686 567 Z" unicode="¶" />
<glyph horiz-adv-x="475" d="M 102 680 L 373 680 L 373 408 L 102 408 L 102 680 Z" unicode="·" />
<glyph horiz-adv-x="1266" d="M 438 -362 C 470 -338 500 -311 530 -282 C 559 -252 585 -221 609 -187 C 632 -153 652 -118 668 -82 C 684 -46 694 -9 700 29 L 846 29 C 840 -68 816 -157 776 -238 C 735 -319 680 -390 612 -451 L 438 -362 L 438 -362 Z" unicode="¸" />
<glyph horiz-adv-x="2642" d="M 901 893 L 461 893 L 461 0 L 223 0 L 223 893 L 41 893 L 41 1071 L 223 1071 L 223 1128 C 223 1202 233 1266 254 1319 C 275 1372 305 1416 343 1450 C 381 1484 428 1508 483 1524 C 537 1540 598 1548 666 1548 C 736 1548 800 1538 859 1520 C 918 1502 972 1478 1022 1448 C 1064 1486 1115 1514 1175 1533 C 1235 1551 1304 1561 1380 1561 C 1454 1561 1520 1552 1578 1535 C 1636 1517 1686 1491 1727 1455 C 1767 1419 1798 1373 1820 1319 C 1842 1264 1853 1200 1853 1126 L 1853 580 L 2279 1083 L 2546 1083 L 2224 723 L 2609 0 L 2335 0 L 2066 545 L 1853 305 L 1853 0 L 1616 0 L 1616 1128 C 1616 1209 1597 1270 1559 1311 C 1521 1351 1461 1372 1378 1372 C 1294 1372 1233 1351 1195 1310 C 1157 1269 1139 1208 1139 1128 L 1139 1071 L 1427 1071 L 1427 893 L 1139 893 L 1139 0 L 901 0 L 901 893 Z M 461 1071 L 901 1071 L 901 1130 C 901 1163 903 1194 907 1223 C 911 1251 918 1279 928 1305 C 892 1324 854 1339 813 1349 C 771 1359 728 1364 682 1364 C 604 1364 548 1345 513 1307 C 478 1269 461 1211 461 1133 L 461 1071 Z" unicode="" />
<glyph horiz-adv-x="866" d="M 53 1073 C 53 1129 62 1180 81 1226 C 99 1272 125 1312 158 1345 C 191 1377 230 1403 275 1421 C 320 1439 369 1448 422 1448 C 474 1448 523 1439 568 1421 C 612 1403 651 1377 684 1345 C 716 1312 742 1272 760 1226 C 778 1180 788 1129 788 1073 C 788 1011 779 956 761 908 C 743 860 718 819 686 786 C 654 752 615 727 570 709 C 525 691 476 682 422 682 C 366 682 316 691 271 709 C 225 727 186 752 154 786 C 122 819 97 860 79 908 C 61 956 53 1011 53 1073 Z M 219 1071 C 219 1033 223 998 233 967 C 242 935 255 908 273 886 C 290 864 311 847 336 835 C 361 823 390 817 422 817 C 452 817 479 823 503 835 C 527 847 548 864 565 886 C 582 908 595 935 604 967 C 613 998 618 1033 618 1071 C 618 1107 613 1139 604 1169 C 594 1198 581 1223 564 1244 C 546 1265 526 1281 502 1293 C 478 1305 451 1311 422 1311 C 392 1311 364 1305 340 1293 C 315 1281 294 1265 276 1244 C 258 1223 244 1198 234 1169 C 224 1139 219 1107 219 1071 Z" unicode="º" />
<glyph horiz-adv-x="1300" d="M 442 545 L 109 961 L 274 1085 L 682 545 L 274 0 L 109 123 L 442 545 Z M 973 545 L 639 961 L 805 1085 L 1212 545 L 805 0 L 639 123 L 973 545 Z" unicode="»" />
<glyph horiz-adv-x="1602" d="M 973 262 L 1327 731 L 1497 731 L 1497 270 L 1591 270 L 1591 145 L 1497 145 L 1497 0 L 1343 0 L 1343 145 L 1022 145 L 973 262 Z M 1343 270 L 1343 561 L 1135 270 L 1343 270 Z M 324 1292 L 184 1219 L 123 1333 L 358 1448 L 479 1448 L 479 717 L 324 717 L 324 1292 Z M 1407 1434 L 1577 1434 L 367 0 L 195 0 L 1407 1434 Z" unicode="¼" />
<glyph horiz-adv-x="1726" d="M 1163 74 C 1161 114 1166 149 1176 179 C 1186 209 1201 235 1219 258 C 1237 280 1257 300 1281 317 C 1304 333 1328 348 1352 362 C 1376 375 1400 387 1424 399 C 1448 411 1469 423 1488 435 C 1506 447 1521 461 1533 475 C 1544 489 1550 506 1550 526 C 1550 549 1539 569 1519 585 C 1498 601 1467 610 1425 610 C 1390 610 1356 601 1323 584 C 1290 567 1262 546 1239 522 L 1139 618 C 1157 635 1176 651 1198 667 C 1220 682 1243 695 1268 707 C 1293 718 1320 727 1348 733 C 1376 739 1406 743 1436 743 C 1481 743 1521 737 1556 726 C 1590 714 1619 699 1642 679 C 1665 659 1682 635 1694 609 C 1706 582 1712 554 1712 524 C 1712 483 1702 449 1684 421 C 1665 393 1642 368 1614 348 C 1586 328 1555 310 1523 295 C 1490 279 1459 264 1431 248 C 1403 232 1379 215 1360 197 C 1341 179 1331 157 1331 131 L 1710 131 L 1710 0 L 1165 0 L 1163 74 Z M 324 1292 L 184 1219 L 123 1333 L 358 1448 L 479 1448 L 479 717 L 324 717 L 324 1292 Z M 1405 1434 L 1575 1434 L 365 0 L 193 0 L 1405 1434 Z" unicode="½" />
<glyph horiz-adv-x="1571" d="M 125 891 C 153 874 185 860 219 850 C 253 839 287 834 319 834 C 343 834 364 836 384 842 C 404 847 421 854 435 864 C 449 874 459 885 467 898 C 475 910 479 924 479 938 C 479 1000 435 1032 348 1032 L 236 1032 L 236 1157 L 338 1157 C 382 1157 412 1165 429 1182 C 446 1199 455 1220 455 1245 C 455 1268 445 1288 425 1304 C 405 1320 378 1329 342 1329 C 308 1329 275 1322 244 1308 C 212 1294 182 1276 154 1253 L 72 1354 C 108 1384 150 1410 197 1430 C 243 1450 294 1460 348 1460 C 386 1460 421 1455 453 1445 C 485 1435 514 1422 538 1405 C 562 1387 580 1367 594 1343 C 607 1319 614 1294 614 1266 C 614 1226 606 1193 591 1168 C 575 1142 553 1121 524 1104 C 564 1086 593 1064 611 1036 C 629 1008 639 975 639 936 C 639 898 630 864 613 835 C 596 806 573 782 544 762 C 515 742 482 727 444 717 C 406 707 366 702 324 702 C 277 702 231 708 187 721 C 142 733 102 749 66 768 L 125 891 Z M 958 262 L 1313 731 L 1483 731 L 1483 270 L 1577 270 L 1577 145 L 1483 145 L 1483 0 L 1329 0 L 1329 145 L 1008 145 L 958 262 Z M 1329 270 L 1329 561 L 1120 270 L 1329 270 Z M 1376 1434 L 1546 1434 L 336 0 L 164 0 L 1376 1434 Z" unicode="¾" />
<glyph horiz-adv-x="1092" d="M 731 653 C 731 651 732 647 732 642 C 732 636 733 630 733 624 C 733 618 734 612 734 606 C 734 600 735 596 735 594 C 735 532 725 481 706 440 C 687 399 663 364 635 336 C 606 307 575 282 542 261 C 509 239 478 217 450 195 C 421 173 397 148 378 120 C 359 92 350 58 350 16 C 350 -11 355 -36 367 -59 C 378 -82 394 -102 415 -118 C 436 -134 461 -147 491 -156 C 520 -165 552 -170 588 -170 C 645 -170 700 -157 753 -132 C 805 -106 855 -71 903 -25 L 1051 -164 C 989 -230 919 -281 842 -318 C 764 -354 678 -373 584 -373 C 512 -373 448 -364 390 -346 C 332 -328 282 -303 241 -270 C 199 -237 167 -197 145 -151 C 122 -105 111 -53 111 4 C 111 66 121 118 143 161 C 164 203 191 240 223 272 C 255 303 289 331 326 355 C 363 379 398 404 430 429 C 462 454 489 482 511 512 C 533 542 544 578 545 621 L 547 653 L 731 653 Z M 770 846 L 504 846 L 504 1085 L 770 1085 L 770 846 Z" unicode="¿" />
<glyph horiz-adv-x="1450" d="M 580 1434 L 868 1434 L 1399 0 L 1135 0 L 1026 309 L 422 309 L 315 0 L 49 0 L 580 1434 Z M 489 508 L 956 508 L 725 1176 L 721 1176 L 489 508 Z M 420 1718 L 602 1843 L 838 1546 L 662 1546 L 420 1718 Z" unicode="À" />
<glyph horiz-adv-x="1450" d="M 580 1434 L 868 1434 L 1399 0 L 1135 0 L 1026 309 L 422 309 L 315 0 L 49 0 L 580 1434 Z M 489 508 L 956 508 L 725 1176 L 721 1176 L 489 508 Z M 846 1843 L 1030 1718 L 786 1546 L 612 1546 L 846 1843 Z" unicode="Á" />
<glyph horiz-adv-x="1450" d="M 580 1434 L 868 1434 L 1399 0 L 1135 0 L 1026 309 L 422 309 L 315 0 L 49 0 L 580 1434 Z M 489 508 L 956 508 L 725 1176 L 721 1176 L 489 508 Z M 612 1800 L 838 1800 L 1090 1546 L 928 1546 L 727 1673 L 725 1673 L 522 1546 L 362 1546 L 612 1800 Z" unicode="Â" />
<glyph horiz-adv-x="1450" d="M 580 1434 L 868 1434 L 1399 0 L 1135 0 L 1026 309 L 422 309 L 315 0 L 49 0 L 580 1434 Z M 489 508 L 956 508 L 725 1176 L 721 1176 L 489 508 Z M 393 1548 C 387 1588 388 1625 396 1658 C 403 1690 415 1718 432 1741 C 449 1764 471 1782 497 1794 C 523 1806 554 1812 588 1812 C 620 1812 649 1806 673 1795 C 697 1783 718 1771 738 1757 C 758 1743 776 1730 793 1719 C 810 1707 828 1702 848 1702 C 872 1702 890 1710 901 1727 C 912 1743 915 1767 911 1798 L 1055 1798 C 1059 1756 1058 1719 1051 1687 C 1044 1654 1032 1626 1014 1603 C 996 1580 974 1562 948 1550 C 922 1538 892 1532 858 1532 C 826 1532 798 1537 774 1549 C 750 1560 728 1573 709 1587 C 689 1601 671 1613 653 1625 C 635 1636 617 1642 598 1642 C 574 1642 557 1633 545 1617 C 533 1601 530 1578 535 1548 L 393 1548 Z" unicode="Ã" />
<glyph horiz-adv-x="1450" d="M 580 1434 L 868 1434 L 1399 0 L 1135 0 L 1026 309 L 422 309 L 315 0 L 49 0 L 580 1434 Z M 489 508 L 956 508 L 725 1176 L 721 1176 L 489 508 Z M 401 1778 L 608 1778 L 608 1569 L 401 1569 L 401 1778 Z M 844 1778 L 1051 1778 L 1051 1569 L 844 1569 L 844 1778 Z" unicode="Ä" />
<glyph horiz-adv-x="1450" d="M 563 1393 C 540 1412 522 1436 509 1465 C 495 1493 489 1525 489 1559 C 489 1591 495 1620 507 1648 C 519 1676 536 1700 557 1720 C 578 1740 603 1755 632 1767 C 660 1778 691 1784 723 1784 C 755 1784 786 1778 815 1767 C 843 1755 868 1740 889 1720 C 910 1700 927 1676 939 1648 C 951 1620 958 1591 958 1559 C 958 1525 951 1493 938 1465 C 924 1436 906 1412 883 1393 L 1399 0 L 1135 0 L 1026 309 L 422 309 L 315 0 L 49 0 L 563 1393 Z M 489 508 L 956 508 L 725 1176 L 721 1176 L 489 508 Z M 723 1434 C 740 1434 756 1437 772 1443 C 787 1449 800 1458 812 1470 C 823 1481 832 1494 838 1510 C 844 1525 848 1541 848 1559 C 848 1577 844 1593 838 1608 C 832 1623 823 1636 812 1647 C 800 1658 787 1667 772 1673 C 756 1679 740 1683 723 1683 C 705 1683 689 1679 675 1673 C 660 1667 647 1658 636 1647 C 624 1636 615 1623 609 1608 C 603 1593 600 1577 600 1559 C 600 1541 603 1525 609 1510 C 615 1494 624 1481 636 1470 C 647 1458 660 1449 675 1443 C 689 1437 705 1434 723 1434 Z" unicode="Å" />
<glyph horiz-adv-x="2165" d="M 694 1434 L 2036 1434 L 2036 1217 L 1100 1217 L 1208 831 L 1956 831 L 1956 627 L 1268 627 L 1384 217 L 2048 217 L 2048 0 L 1182 0 L 1098 309 L 451 309 L 315 0 L 39 0 L 694 1434 Z M 541 514 L 1044 514 L 856 1217 L 848 1217 L 541 514 Z" unicode="Æ" />
<glyph horiz-adv-x="1448" d="M 98 729 C 98 835 116 933 152 1023 C 188 1112 238 1189 303 1254 C 368 1318 446 1368 536 1404 C 626 1440 726 1458 834 1458 C 1021 1458 1187 1401 1333 1288 L 1200 1112 C 1144 1155 1087 1188 1029 1211 C 970 1233 906 1245 838 1245 C 764 1245 698 1232 638 1208 C 578 1183 526 1148 483 1103 C 440 1058 407 1004 383 941 C 359 877 348 807 348 729 C 348 647 359 573 382 507 C 405 440 438 383 481 336 C 523 288 575 252 635 226 C 695 200 763 188 838 188 C 912 188 980 201 1042 227 C 1104 253 1162 292 1214 344 L 1366 184 C 1294 115 1215 64 1130 30 C 1045 -4 951 -22 848 -25 C 836 -110 811 -188 772 -260 C 732 -331 682 -395 621 -451 L 446 -362 C 474 -340 502 -315 529 -289 C 555 -263 580 -235 602 -206 C 624 -176 644 -145 660 -113 C 676 -81 689 -48 698 -14 C 607 0 525 26 451 68 C 377 110 314 163 262 228 C 210 292 169 367 141 452 C 112 536 98 629 98 729 Z" unicode="Ç" />
<glyph horiz-adv-x="1303" d="M 367 1718 L 549 1843 L 784 1546 L 608 1546 L 367 1718 Z M 158 1434 L 1174 1434 L 1174 1217 L 401 1217 L 401 829 L 1094 829 L 1094 629 L 401 629 L 401 217 L 1184 217 L 1184 0 L 158 0 L 158 1434 Z" unicode="È" />
<glyph horiz-adv-x="1303" d="M 793 1843 L 977 1718 L 733 1546 L 559 1546 L 793 1843 Z M 158 1434 L 1174 1434 L 1174 1217 L 401 1217 L 401 829 L 1094 829 L 1094 629 L 401 629 L 401 217 L 1184 217 L 1184 0 L 158 0 L 158 1434 Z" unicode="É" />
<glyph horiz-adv-x="1303" d="M 559 1800 L 784 1800 L 1036 1546 L 874 1546 L 674 1673 L 672 1673 L 469 1546 L 309 1546 L 559 1800 Z M 158 1434 L 1174 1434 L 1174 1217 L 401 1217 L 401 829 L 1094 829 L 1094 629 L 401 629 L 401 217 L 1184 217 L 1184 0 L 158 0 L 158 1434 Z" unicode="Ê" />
<glyph horiz-adv-x="1303" d="M 791 1778 L 997 1778 L 997 1569 L 791 1569 L 791 1778 Z M 348 1778 L 555 1778 L 555 1569 L 348 1569 L 348 1778 Z M 158 1434 L 1174 1434 L 1174 1217 L 401 1217 L 401 829 L 1094 829 L 1094 629 L 401 629 L 401 217 L 1184 217 L 1184 0 L 158 0 L 158 1434 Z" unicode="Ë" />
<glyph horiz-adv-x="559" d="M -25 1718 L 158 1843 L 393 1546 L 217 1546 L -25 1718 Z M 158 1434 L 403 1434 L 403 0 L 158 0 L 158 1434 Z" unicode="Ì" />
<glyph horiz-adv-x="559" d="M 401 1843 L 586 1718 L 342 1546 L 168 1546 L 401 1843 Z M 158 1434 L 403 1434 L 403 0 L 158 0 L 158 1434 Z" unicode="Í" />
<glyph horiz-adv-x="559" d="M 168 1800 L 393 1800 L 645 1546 L 483 1546 L 283 1673 L 281 1673 L 78 1546 L -82 1546 L 168 1800 Z M 158 1434 L 403 1434 L 403 0 L 158 0 L 158 1434 Z" unicode="Î" />
<glyph horiz-adv-x="559" d="M 399 1778 L 606 1778 L 606 1569 L 399 1569 L 399 1778 Z M -43 1778 L 164 1778 L 164 1569 L -43 1569 L -43 1778 Z M 158 1434 L 403 1434 L 403 0 L 158 0 L 158 1434 Z" unicode="Ï" />
<glyph horiz-adv-x="1501" d="M 420 1548 C 414 1588 415 1625 422 1658 C 429 1690 441 1718 458 1741 C 475 1764 497 1782 523 1794 C 549 1806 580 1812 614 1812 C 646 1812 675 1806 699 1795 C 723 1783 745 1771 765 1757 C 784 1743 802 1730 820 1719 C 837 1707 855 1702 874 1702 C 899 1702 917 1710 928 1727 C 938 1743 942 1767 938 1798 L 1081 1798 C 1086 1756 1085 1719 1078 1687 C 1071 1654 1059 1626 1041 1603 C 1023 1580 1001 1562 975 1550 C 949 1538 919 1532 885 1532 C 853 1532 825 1537 801 1549 C 777 1560 755 1573 735 1587 C 715 1601 697 1613 680 1625 C 662 1636 644 1642 625 1642 C 601 1642 584 1633 572 1617 C 560 1601 557 1578 561 1548 L 420 1548 Z M 158 1434 L 393 1434 L 1108 395 L 1108 1434 L 1343 1434 L 1343 0 L 1108 0 L 393 1036 L 393 0 L 158 0 L 158 1434 Z" unicode="Ñ" />
<glyph horiz-adv-x="1661" d="M 528 1718 L 711 1843 L 946 1546 L 770 1546 L 528 1718 Z M 98 725 C 98 835 116 936 154 1026 C 191 1116 242 1194 308 1258 C 374 1322 451 1371 541 1406 C 630 1440 727 1458 831 1458 C 935 1458 1031 1440 1121 1406 C 1210 1371 1287 1322 1353 1258 C 1418 1194 1469 1116 1507 1026 C 1544 936 1563 835 1563 725 C 1563 611 1544 507 1507 415 C 1469 323 1418 244 1353 179 C 1287 113 1210 63 1121 28 C 1031 -7 935 -25 831 -25 C 727 -25 630 -7 541 28 C 451 63 374 113 308 179 C 242 244 191 323 154 415 C 116 507 98 611 98 725 Z M 350 725 C 350 641 362 565 387 499 C 411 433 445 376 489 330 C 532 284 583 248 642 224 C 700 200 763 188 831 188 C 899 188 962 200 1021 224 C 1079 248 1130 284 1174 330 C 1217 376 1251 433 1276 499 C 1300 565 1313 641 1313 725 C 1313 805 1300 878 1276 943 C 1251 1007 1217 1062 1174 1107 C 1131 1152 1080 1187 1021 1211 C 962 1235 899 1247 831 1247 C 763 1247 699 1235 641 1211 C 582 1187 531 1152 488 1107 C 445 1062 411 1007 387 943 C 362 878 350 805 350 725 Z" unicode="Ò" />
<glyph horiz-adv-x="1661" d="M 952 1843 L 1137 1718 L 893 1546 L 719 1546 L 952 1843 Z M 98 725 C 98 835 116 936 154 1026 C 191 1116 242 1194 308 1258 C 374 1322 451 1371 541 1406 C 630 1440 727 1458 831 1458 C 935 1458 1031 1440 1121 1406 C 1210 1371 1287 1322 1353 1258 C 1418 1194 1469 1116 1507 1026 C 1544 936 1563 835 1563 725 C 1563 611 1544 507 1507 415 C 1469 323 1418 244 1353 179 C 1287 113 1210 63 1121 28 C 1031 -7 935 -25 831 -25 C 727 -25 630 -7 541 28 C 451 63 374 113 308 179 C 242 244 191 323 154 415 C 116 507 98 611 98 725 Z M 350 725 C 350 641 362 565 387 499 C 411 433 445 376 489 330 C 532 284 583 248 642 224 C 700 200 763 188 831 188 C 899 188 962 200 1021 224 C 1079 248 1130 284 1174 330 C 1217 376 1251 433 1276 499 C 1300 565 1313 641 1313 725 C 1313 805 1300 878 1276 943 C 1251 1007 1217 1062 1174 1107 C 1131 1152 1080 1187 1021 1211 C 962 1235 899 1247 831 1247 C 763 1247 699 1235 641 1211 C 582 1187 531 1152 488 1107 C 445 1062 411 1007 387 943 C 362 878 350 805 350 725 Z" unicode="Ó" />
<glyph horiz-adv-x="1661" d="M 719 1800 L 944 1800 L 1196 1546 L 1034 1546 L 834 1673 L 831 1673 L 629 1546 L 469 1546 L 719 1800 Z M 98 725 C 98 835 116 936 154 1026 C 191 1116 242 1194 308 1258 C 374 1322 451 1371 541 1406 C 630 1440 727 1458 831 1458 C 935 1458 1031 1440 1121 1406 C 1210 1371 1287 1322 1353 1258 C 1418 1194 1469 1116 1507 1026 C 1544 936 1563 835 1563 725 C 1563 611 1544 507 1507 415 C 1469 323 1418 244 1353 179 C 1287 113 1210 63 1121 28 C 1031 -7 935 -25 831 -25 C 727 -25 630 -7 541 28 C 451 63 374 113 308 179 C 242 244 191 323 154 415 C 116 507 98 611 98 725 Z M 350 725 C 350 641 362 565 387 499 C 411 433 445 376 489 330 C 532 284 583 248 642 224 C 700 200 763 188 831 188 C 899 188 962 200 1021 224 C 1079 248 1130 284 1174 330 C 1217 376 1251 433 1276 499 C 1300 565 1313 641 1313 725 C 1313 805 1300 878 1276 943 C 1251 1007 1217 1062 1174 1107 C 1131 1152 1080 1187 1021 1211 C 962 1235 899 1247 831 1247 C 763 1247 699 1235 641 1211 C 582 1187 531 1152 488 1107 C 445 1062 411 1007 387 943 C 362 878 350 805 350 725 Z" unicode="Ô" />
<glyph horiz-adv-x="1661" d="M 500 1548 C 494 1588 495 1625 502 1658 C 509 1690 521 1718 538 1741 C 555 1764 577 1782 603 1794 C 629 1806 660 1812 694 1812 C 726 1812 755 1806 779 1795 C 803 1783 825 1771 845 1757 C 864 1743 882 1730 900 1719 C 917 1707 935 1702 954 1702 C 979 1702 997 1710 1008 1727 C 1018 1743 1022 1767 1018 1798 L 1161 1798 C 1166 1756 1165 1719 1158 1687 C 1151 1654 1139 1626 1121 1603 C 1103 1580 1081 1562 1055 1550 C 1029 1538 999 1532 965 1532 C 933 1532 905 1537 881 1549 C 857 1560 835 1573 815 1587 C 795 1601 777 1613 760 1625 C 742 1636 724 1642 705 1642 C 681 1642 663 1633 652 1617 C 640 1601 637 1578 641 1548 L 500 1548 Z M 98 725 C 98 835 116 936 154 1026 C 191 1116 242 1194 308 1258 C 374 1322 451 1371 541 1406 C 630 1440 727 1458 831 1458 C 935 1458 1031 1440 1121 1406 C 1210 1371 1287 1322 1353 1258 C 1418 1194 1469 1116 1507 1026 C 1544 936 1563 835 1563 725 C 1563 611 1544 507 1507 415 C 1469 323 1418 244 1353 179 C 1287 113 1210 63 1121 28 C 1031 -7 935 -25 831 -25 C 727 -25 630 -7 541 28 C 451 63 374 113 308 179 C 242 244 191 323 154 415 C 116 507 98 611 98 725 Z M 350 725 C 350 641 362 565 387 499 C 411 433 445 376 489 330 C 532 284 583 248 642 224 C 700 200 763 188 831 188 C 899 188 962 200 1021 224 C 1079 248 1130 284 1174 330 C 1217 376 1251 433 1276 499 C 1300 565 1313 641 1313 725 C 1313 805 1300 878 1276 943 C 1251 1007 1217 1062 1174 1107 C 1131 1152 1080 1187 1021 1211 C 962 1235 899 1247 831 1247 C 763 1247 699 1235 641 1211 C 582 1187 531 1152 488 1107 C 445 1062 411 1007 387 943 C 362 878 350 805 350 725 Z" unicode="Õ" />
<glyph horiz-adv-x="1661" d="M 950 1778 L 1157 1778 L 1157 1569 L 950 1569 L 950 1778 Z M 508 1778 L 715 1778 L 715 1569 L 508 1569 L 508 1778 Z M 98 725 C 98 835 116 936 154 1026 C 191 1116 242 1194 308 1258 C 374 1322 451 1371 541 1406 C 630 1440 727 1458 831 1458 C 935 1458 1031 1440 1121 1406 C 1210 1371 1287 1322 1353 1258 C 1418 1194 1469 1116 1507 1026 C 1544 936 1563 835 1563 725 C 1563 611 1544 507 1507 415 C 1469 323 1418 244 1353 179 C 1287 113 1210 63 1121 28 C 1031 -7 935 -25 831 -25 C 727 -25 630 -7 541 28 C 451 63 374 113 308 179 C 242 244 191 323 154 415 C 116 507 98 611 98 725 Z M 350 725 C 350 641 362 565 387 499 C 411 433 445 376 489 330 C 532 284 583 248 642 224 C 700 200 763 188 831 188 C 899 188 962 200 1021 224 C 1079 248 1130 284 1174 330 C 1217 376 1251 433 1276 499 C 1300 565 1313 641 1313 725 C 1313 805 1300 878 1276 943 C 1251 1007 1217 1062 1174 1107 C 1131 1152 1080 1187 1021 1211 C 962 1235 899 1247 831 1247 C 763 1247 699 1235 641 1211 C 582 1187 531 1152 488 1107 C 445 1062 411 1007 387 943 C 362 878 350 805 350 725 Z" unicode="Ö" />
<glyph horiz-adv-x="1661" d="M 98 725 C 98 835 116 936 154 1026 C 191 1116 242 1194 308 1258 C 374 1322 451 1371 541 1406 C 630 1440 727 1458 831 1458 C 906 1458 977 1449 1045 1431 C 1112 1413 1175 1386 1233 1352 L 1354 1507 L 1475 1411 L 1350 1260 C 1416 1196 1468 1118 1506 1028 C 1544 938 1563 837 1563 725 C 1563 611 1544 507 1507 415 C 1469 323 1418 244 1353 179 C 1287 113 1210 63 1121 28 C 1031 -7 935 -25 831 -25 C 756 -25 685 -16 618 2 C 550 20 488 46 432 82 L 307 -74 L 188 18 L 315 174 C 247 240 193 319 155 412 C 117 504 98 609 98 725 Z M 350 725 C 350 647 360 578 381 516 C 402 454 431 400 469 354 L 1100 1169 C 1062 1194 1020 1213 975 1227 C 929 1240 881 1247 831 1247 C 763 1247 699 1235 641 1211 C 582 1187 531 1152 488 1107 C 445 1062 411 1007 387 943 C 362 878 350 805 350 725 Z M 1313 725 C 1313 799 1302 865 1281 925 C 1260 985 1232 1037 1196 1081 L 563 266 C 640 214 729 188 831 188 C 899 188 962 200 1021 224 C 1079 248 1130 284 1174 330 C 1217 376 1251 433 1276 499 C 1300 565 1313 641 1313 725 Z" unicode="Ø" />
<glyph horiz-adv-x="1475" d="M 432 1718 L 614 1843 L 850 1546 L 674 1546 L 432 1718 Z M 152 1434 L 399 1434 L 399 539 C 399 481 407 431 425 387 C 442 343 466 307 496 278 C 526 248 561 226 603 211 C 644 195 689 188 737 188 C 785 188 829 195 871 211 C 913 226 949 248 979 278 C 1009 307 1033 343 1051 387 C 1068 431 1077 481 1077 539 L 1077 1434 L 1323 1434 L 1323 539 C 1323 445 1308 362 1278 292 C 1248 221 1207 162 1155 115 C 1103 68 1041 33 969 10 C 897 -13 820 -25 737 -25 C 653 -25 576 -13 505 10 C 433 33 371 68 319 115 C 267 162 226 221 196 292 C 166 362 152 445 152 539 L 152 1434 Z" unicode="Ù" />
<glyph horiz-adv-x="1475" d="M 858 1843 L 1042 1718 L 799 1546 L 625 1546 L 858 1843 Z M 152 1434 L 399 1434 L 399 539 C 399 481 407 431 425 387 C 442 343 466 307 496 278 C 526 248 561 226 603 211 C 644 195 689 188 737 188 C 785 188 829 195 871 211 C 913 226 949 248 979 278 C 1009 307 1033 343 1051 387 C 1068 431 1077 481 1077 539 L 1077 1434 L 1323 1434 L 1323 539 C 1323 445 1308 362 1278 292 C 1248 221 1207 162 1155 115 C 1103 68 1041 33 969 10 C 897 -13 820 -25 737 -25 C 653 -25 576 -13 505 10 C 433 33 371 68 319 115 C 267 162 226 221 196 292 C 166 362 152 445 152 539 L 152 1434 Z" unicode="Ú" />
<glyph horiz-adv-x="1475" d="M 625 1800 L 850 1800 L 1102 1546 L 940 1546 L 739 1673 L 737 1673 L 535 1546 L 375 1546 L 625 1800 Z M 152 1434 L 399 1434 L 399 539 C 399 481 407 431 425 387 C 442 343 466 307 496 278 C 526 248 561 226 603 211 C 644 195 689 188 737 188 C 785 188 829 195 871 211 C 913 226 949 248 979 278 C 1009 307 1033 343 1051 387 C 1068 431 1077 481 1077 539 L 1077 1434 L 1323 1434 L 1323 539 C 1323 445 1308 362 1278 292 C 1248 221 1207 162 1155 115 C 1103 68 1041 33 969 10 C 897 -13 820 -25 737 -25 C 653 -25 576 -13 505 10 C 433 33 371 68 319 115 C 267 162 226 221 196 292 C 166 362 152 445 152 539 L 152 1434 Z" unicode="Û" />
<glyph horiz-adv-x="1475" d="M 856 1778 L 1063 1778 L 1063 1569 L 856 1569 L 856 1778 Z M 414 1778 L 621 1778 L 621 1569 L 414 1569 L 414 1778 Z M 152 1434 L 399 1434 L 399 539 C 399 481 407 431 425 387 C 442 343 466 307 496 278 C 526 248 561 226 603 211 C 644 195 689 188 737 188 C 785 188 829 195 871 211 C 913 226 949 248 979 278 C 1009 307 1033 343 1051 387 C 1068 431 1077 481 1077 539 L 1077 1434 L 1323 1434 L 1323 539 C 1323 445 1308 362 1278 292 C 1248 221 1207 162 1155 115 C 1103 68 1041 33 969 10 C 897 -13 820 -25 737 -25 C 653 -25 576 -13 505 10 C 433 33 371 68 319 115 C 267 162 226 221 196 292 C 166 362 152 445 152 539 L 152 1434 Z" unicode="Ü" />
<glyph horiz-adv-x="1311" d="M 532 1575 L 700 1462 L 424 1196 L 272 1196 L 532 1575 Z M 895 1575 L 1061 1462 L 786 1196 L 637 1196 L 895 1575 Z" unicode="˝" />
<glyph horiz-adv-x="1329" d="M 141 1100 C 141 1174 153 1239 178 1297 C 203 1354 238 1402 282 1441 C 326 1480 379 1510 440 1530 C 500 1550 567 1561 639 1561 C 709 1561 775 1551 837 1531 C 898 1511 951 1482 997 1445 C 1042 1408 1078 1363 1104 1310 C 1130 1257 1143 1198 1143 1133 C 1143 1091 1137 1053 1125 1019 C 1113 984 1097 953 1077 926 C 1056 898 1031 874 1003 853 C 975 832 944 815 911 801 L 911 799 C 958 788 1002 772 1042 751 C 1082 729 1117 703 1147 671 C 1176 639 1199 601 1216 559 C 1232 517 1241 469 1241 416 C 1241 344 1228 281 1203 227 C 1177 173 1143 127 1099 91 C 1055 54 1005 26 947 8 C 889 -10 827 -20 762 -20 C 720 -20 680 -17 640 -11 C 600 -5 561 4 524 16 L 565 207 C 590 198 618 191 648 185 C 678 179 706 176 731 176 C 768 176 803 181 836 192 C 869 202 898 218 922 239 C 946 260 966 286 980 317 C 994 348 1001 384 1001 426 C 1001 470 993 509 977 541 C 961 573 938 600 910 621 C 882 642 849 658 811 668 C 773 678 732 684 688 684 L 596 684 L 596 881 L 645 881 C 683 881 719 886 751 898 C 783 910 810 926 833 948 C 856 969 874 994 886 1024 C 898 1053 905 1086 905 1122 C 905 1160 898 1194 886 1225 C 873 1256 855 1283 832 1305 C 809 1327 781 1344 749 1356 C 716 1368 679 1374 639 1374 C 599 1374 564 1368 532 1357 C 500 1345 472 1328 450 1306 C 427 1283 409 1255 397 1221 C 385 1187 379 1147 379 1102 L 379 0 L 141 0 L 141 1100 Z" unicode="ß" />
<glyph horiz-adv-x="1124" d="M 92 262 C 92 327 108 383 141 429 C 173 475 218 513 275 543 C 331 573 398 595 475 611 C 552 626 635 636 725 641 L 725 762 C 725 784 721 805 715 823 C 708 841 697 857 683 871 C 669 884 650 894 628 902 C 606 909 579 913 549 913 C 495 913 439 902 382 882 C 325 862 267 837 207 807 L 119 993 C 151 1009 186 1024 222 1038 C 258 1052 295 1064 333 1074 C 371 1084 408 1093 446 1099 C 484 1105 521 1108 557 1108 C 629 1108 690 1099 742 1082 C 793 1064 835 1040 868 1009 C 900 978 924 941 940 898 C 955 855 963 808 963 756 L 963 266 C 963 231 971 206 989 191 C 1007 175 1031 168 1063 168 L 1063 -4 C 1017 -4 978 -1 946 3 C 913 7 885 15 861 25 C 837 35 816 48 799 64 C 782 80 767 99 754 123 C 710 77 661 41 607 15 C 553 -11 490 -25 418 -25 C 370 -25 326 -18 286 -4 C 246 10 211 29 183 55 C 154 80 132 110 116 145 C 100 180 92 219 92 262 Z M 330 283 C 330 243 343 212 370 190 C 397 167 433 156 477 156 C 531 156 579 166 621 186 C 662 206 697 231 725 262 L 725 494 C 693 492 662 490 630 487 C 598 483 568 478 539 472 C 509 466 482 457 457 447 C 431 437 409 424 390 409 C 371 394 356 376 346 355 C 335 334 330 310 330 283 Z M 256 1454 L 422 1575 L 705 1196 L 547 1196 L 256 1454 Z" unicode="à" />
<glyph horiz-adv-x="1124" d="M 92 262 C 92 327 108 383 141 429 C 173 475 218 513 275 543 C 331 573 398 595 475 611 C 552 626 635 636 725 641 L 725 762 C 725 784 721 805 715 823 C 708 841 697 857 683 871 C 669 884 650 894 628 902 C 606 909 579 913 549 913 C 495 913 439 902 382 882 C 325 862 267 837 207 807 L 119 993 C 151 1009 186 1024 222 1038 C 258 1052 295 1064 333 1074 C 371 1084 408 1093 446 1099 C 484 1105 521 1108 557 1108 C 629 1108 690 1099 742 1082 C 793 1064 835 1040 868 1009 C 900 978 924 941 940 898 C 955 855 963 808 963 756 L 963 266 C 963 231 971 206 989 191 C 1007 175 1031 168 1063 168 L 1063 -4 C 1017 -4 978 -1 946 3 C 913 7 885 15 861 25 C 837 35 816 48 799 64 C 782 80 767 99 754 123 C 710 77 661 41 607 15 C 553 -11 490 -25 418 -25 C 370 -25 326 -18 286 -4 C 246 10 211 29 183 55 C 154 80 132 110 116 145 C 100 180 92 219 92 262 Z M 330 283 C 330 243 343 212 370 190 C 397 167 433 156 477 156 C 531 156 579 166 621 186 C 662 206 697 231 725 262 L 725 494 C 693 492 662 490 630 487 C 598 483 568 478 539 472 C 509 466 482 457 457 447 C 431 437 409 424 390 409 C 371 394 356 376 346 355 C 335 334 330 310 330 283 Z M 729 1575 L 893 1454 L 602 1196 L 444 1196 L 729 1575 Z" unicode="á" />
<glyph horiz-adv-x="1124" d="M 92 262 C 92 327 108 383 141 429 C 173 475 218 513 275 543 C 331 573 398 595 475 611 C 552 626 635 636 725 641 L 725 762 C 725 784 721 805 715 823 C 708 841 697 857 683 871 C 669 884 650 894 628 902 C 606 909 579 913 549 913 C 495 913 439 902 382 882 C 325 862 267 837 207 807 L 119 993 C 151 1009 186 1024 222 1038 C 258 1052 295 1064 333 1074 C 371 1084 408 1093 446 1099 C 484 1105 521 1108 557 1108 C 629 1108 690 1099 742 1082 C 793 1064 835 1040 868 1009 C 900 978 924 941 940 898 C 955 855 963 808 963 756 L 963 266 C 963 231 971 206 989 191 C 1007 175 1031 168 1063 168 L 1063 -4 C 1017 -4 978 -1 946 3 C 913 7 885 15 861 25 C 837 35 816 48 799 64 C 782 80 767 99 754 123 C 710 77 661 41 607 15 C 553 -11 490 -25 418 -25 C 370 -25 326 -18 286 -4 C 246 10 211 29 183 55 C 154 80 132 110 116 145 C 100 180 92 219 92 262 Z M 330 283 C 330 243 343 212 370 190 C 397 167 433 156 477 156 C 531 156 579 166 621 186 C 662 206 697 231 725 262 L 725 494 C 693 492 662 490 630 487 C 598 483 568 478 539 472 C 509 466 482 457 457 447 C 431 437 409 424 390 409 C 371 394 356 376 346 355 C 335 334 330 310 330 283 Z M 453 1524 L 696 1524 L 946 1196 L 778 1196 L 575 1393 L 571 1393 L 369 1196 L 203 1196 L 453 1524 Z" unicode="â" />
<glyph horiz-adv-x="1124" d="M 92 262 C 92 327 108 383 141 429 C 173 475 218 513 275 543 C 331 573 398 595 475 611 C 552 626 635 636 725 641 L 725 762 C 725 784 721 805 715 823 C 708 841 697 857 683 871 C 669 884 650 894 628 902 C 606 909 579 913 549 913 C 495 913 439 902 382 882 C 325 862 267 837 207 807 L 119 993 C 151 1009 186 1024 222 1038 C 258 1052 295 1064 333 1074 C 371 1084 408 1093 446 1099 C 484 1105 521 1108 557 1108 C 629 1108 690 1099 742 1082 C 793 1064 835 1040 868 1009 C 900 978 924 941 940 898 C 955 855 963 808 963 756 L 963 266 C 963 231 971 206 989 191 C 1007 175 1031 168 1063 168 L 1063 -4 C 1017 -4 978 -1 946 3 C 913 7 885 15 861 25 C 837 35 816 48 799 64 C 782 80 767 99 754 123 C 710 77 661 41 607 15 C 553 -11 490 -25 418 -25 C 370 -25 326 -18 286 -4 C 246 10 211 29 183 55 C 154 80 132 110 116 145 C 100 180 92 219 92 262 Z M 330 283 C 330 243 343 212 370 190 C 397 167 433 156 477 156 C 531 156 579 166 621 186 C 662 206 697 231 725 262 L 725 494 C 693 492 662 490 630 487 C 598 483 568 478 539 472 C 509 466 482 457 457 447 C 431 437 409 424 390 409 C 371 394 356 376 346 355 C 335 334 330 310 330 283 Z M 244 1233 C 239 1274 240 1311 247 1344 C 254 1377 266 1405 284 1428 C 301 1451 323 1469 349 1481 C 375 1493 406 1499 440 1499 C 472 1499 499 1493 523 1482 C 547 1470 568 1458 588 1444 C 607 1430 625 1417 642 1406 C 659 1394 677 1389 696 1389 C 746 1389 768 1421 760 1487 L 901 1487 C 906 1445 905 1407 898 1374 C 891 1340 879 1312 862 1289 C 845 1266 823 1249 797 1237 C 771 1225 741 1219 707 1219 C 675 1219 647 1224 624 1236 C 600 1247 579 1260 559 1274 C 539 1288 521 1300 504 1312 C 487 1323 469 1329 451 1329 C 400 1329 379 1297 387 1233 L 244 1233 Z" unicode="ã" />
<glyph horiz-adv-x="1124" d="M 92 262 C 92 327 108 383 141 429 C 173 475 218 513 275 543 C 331 573 398 595 475 611 C 552 626 635 636 725 641 L 725 762 C 725 784 721 805 715 823 C 708 841 697 857 683 871 C 669 884 650 894 628 902 C 606 909 579 913 549 913 C 495 913 439 902 382 882 C 325 862 267 837 207 807 L 119 993 C 151 1009 186 1024 222 1038 C 258 1052 295 1064 333 1074 C 371 1084 408 1093 446 1099 C 484 1105 521 1108 557 1108 C 629 1108 690 1099 742 1082 C 793 1064 835 1040 868 1009 C 900 978 924 941 940 898 C 955 855 963 808 963 756 L 963 266 C 963 231 971 206 989 191 C 1007 175 1031 168 1063 168 L 1063 -4 C 1017 -4 978 -1 946 3 C 913 7 885 15 861 25 C 837 35 816 48 799 64 C 782 80 767 99 754 123 C 710 77 661 41 607 15 C 553 -11 490 -25 418 -25 C 370 -25 326 -18 286 -4 C 246 10 211 29 183 55 C 154 80 132 110 116 145 C 100 180 92 219 92 262 Z M 330 283 C 330 243 343 212 370 190 C 397 167 433 156 477 156 C 531 156 579 166 621 186 C 662 206 697 231 725 262 L 725 494 C 693 492 662 490 630 487 C 598 483 568 478 539 472 C 509 466 482 457 457 447 C 431 437 409 424 390 409 C 371 394 356 376 346 355 C 335 334 330 310 330 283 Z M 688 1464 L 893 1464 L 893 1255 L 688 1255 L 688 1464 Z M 254 1464 L 461 1464 L 461 1255 L 254 1255 L 254 1464 Z" unicode="ä" />
<glyph horiz-adv-x="1124" d="M 92 262 C 92 327 108 383 141 429 C 173 475 218 513 275 543 C 331 573 398 595 475 611 C 552 626 635 636 725 641 L 725 762 C 725 784 721 805 715 823 C 708 841 697 857 683 871 C 669 884 650 894 628 902 C 606 909 579 913 549 913 C 495 913 439 902 382 882 C 325 862 267 837 207 807 L 119 993 C 151 1009 186 1024 222 1038 C 258 1052 295 1064 333 1074 C 371 1084 408 1093 446 1099 C 484 1105 521 1108 557 1108 C 629 1108 690 1099 742 1082 C 793 1064 835 1040 868 1009 C 900 978 924 941 940 898 C 955 855 963 808 963 756 L 963 266 C 963 231 971 206 989 191 C 1007 175 1031 168 1063 168 L 1063 -4 C 1017 -4 978 -1 946 3 C 913 7 885 15 861 25 C 837 35 816 48 799 64 C 782 80 767 99 754 123 C 710 77 661 41 607 15 C 553 -11 490 -25 418 -25 C 370 -25 326 -18 286 -4 C 246 10 211 29 183 55 C 154 80 132 110 116 145 C 100 180 92 219 92 262 Z M 330 283 C 330 243 343 212 370 190 C 397 167 433 156 477 156 C 531 156 579 166 621 186 C 662 206 697 231 725 262 L 725 494 C 693 492 662 490 630 487 C 598 483 568 478 539 472 C 509 466 482 457 457 447 C 431 437 409 424 390 409 C 371 394 356 376 346 355 C 335 334 330 310 330 283 Z M 573 1184 C 541 1184 510 1189 482 1201 C 454 1212 429 1228 408 1248 C 387 1268 370 1291 358 1318 C 346 1345 340 1375 340 1407 C 340 1439 346 1468 358 1496 C 370 1524 387 1548 408 1568 C 429 1588 454 1603 482 1615 C 510 1626 541 1632 573 1632 C 605 1632 635 1626 664 1615 C 692 1603 717 1588 738 1568 C 759 1548 776 1524 788 1496 C 800 1468 807 1439 807 1407 C 807 1375 800 1345 788 1318 C 776 1291 759 1268 738 1248 C 717 1228 692 1212 664 1201 C 635 1189 605 1184 573 1184 Z M 573 1282 C 590 1282 606 1285 622 1291 C 637 1297 650 1306 662 1318 C 673 1329 682 1342 688 1358 C 694 1373 698 1389 698 1407 C 698 1425 694 1441 688 1457 C 682 1472 673 1485 662 1496 C 650 1507 637 1516 622 1522 C 606 1528 590 1532 573 1532 C 555 1532 539 1528 524 1522 C 509 1516 496 1507 485 1496 C 473 1485 464 1472 458 1457 C 452 1441 449 1425 449 1407 C 449 1389 452 1373 458 1358 C 464 1342 473 1329 485 1318 C 496 1306 509 1297 524 1291 C 539 1285 555 1282 573 1282 Z" unicode="å" />
<glyph horiz-adv-x="1808" d="M 838 166 C 817 141 792 117 764 94 C 735 71 703 51 668 33 C 633 15 595 0 554 -10 C 513 -21 470 -27 426 -27 C 376 -27 330 -20 289 -6 C 247 8 212 27 183 53 C 154 78 132 108 116 143 C 100 178 92 217 92 260 C 91 325 107 380 140 426 C 172 472 217 509 275 538 C 332 567 399 589 477 604 C 554 619 637 629 727 633 L 727 764 C 727 808 713 843 685 871 C 657 899 614 913 555 913 C 503 913 448 903 389 883 C 329 863 269 837 209 807 L 119 993 C 153 1009 188 1024 225 1038 C 262 1052 299 1065 337 1075 C 374 1085 411 1094 449 1100 C 486 1106 522 1110 557 1110 C 601 1110 641 1106 677 1098 C 713 1090 744 1078 771 1064 C 798 1050 821 1033 840 1013 C 859 993 875 970 887 946 C 931 998 984 1038 1047 1067 C 1109 1095 1180 1110 1260 1110 C 1337 1110 1404 1097 1462 1072 C 1519 1047 1567 1013 1605 969 C 1643 925 1671 872 1690 812 C 1708 751 1718 685 1718 614 C 1718 606 1717 597 1717 587 C 1716 577 1715 568 1714 558 C 1713 548 1712 538 1711 529 C 1709 520 1708 512 1708 506 L 967 506 C 972 396 1000 313 1052 255 C 1103 197 1178 168 1276 168 C 1331 168 1384 177 1435 195 C 1485 213 1533 237 1579 266 L 1683 109 C 1619 63 1552 28 1482 6 C 1412 -15 1340 -27 1266 -27 C 1172 -27 1089 -10 1017 22 C 945 55 885 103 838 166 Z M 1487 659 C 1487 697 1483 732 1475 766 C 1467 799 1454 828 1436 852 C 1418 876 1395 896 1367 910 C 1338 924 1303 932 1262 932 C 1225 932 1191 925 1160 913 C 1128 901 1100 883 1075 860 C 1050 836 1029 808 1011 774 C 993 740 981 701 973 659 L 1487 659 Z M 332 281 C 332 243 345 213 373 189 C 400 165 435 154 479 154 C 543 154 598 167 645 195 C 691 223 730 259 762 305 C 742 361 731 423 727 492 C 680 490 633 485 586 479 C 539 472 497 461 459 446 C 421 430 391 409 367 383 C 343 357 332 323 332 281 Z" unicode="æ" />
<glyph horiz-adv-x="1075" d="M 250 -362 C 278 -340 306 -315 333 -289 C 359 -263 384 -235 407 -205 C 429 -175 449 -144 466 -112 C 482 -80 495 -46 504 -12 C 441 0 384 20 333 51 C 281 81 237 121 201 169 C 164 217 136 273 116 337 C 96 401 86 473 86 551 C 86 637 99 714 126 783 C 152 851 189 910 237 958 C 284 1006 340 1043 406 1069 C 472 1095 543 1108 621 1108 C 691 1108 758 1097 820 1075 C 882 1053 941 1021 995 979 L 870 819 C 838 843 802 864 763 882 C 723 900 678 909 627 909 C 583 909 543 900 507 884 C 471 868 439 844 413 813 C 386 782 365 745 350 701 C 335 657 328 607 328 551 C 328 491 335 438 350 391 C 364 344 385 304 411 272 C 437 239 469 214 506 197 C 542 180 583 172 627 172 C 681 172 727 181 767 199 C 807 217 845 241 881 272 L 1016 129 C 961 79 905 42 847 17 C 789 -7 724 -21 651 -25 C 639 -110 614 -188 575 -260 C 536 -331 486 -395 424 -451 L 250 -362 L 250 -362 Z" unicode="ç" />
<glyph horiz-adv-x="1176" d="M 88 551 C 88 636 101 713 128 782 C 155 851 192 910 240 958 C 287 1006 343 1044 408 1070 C 472 1096 542 1110 618 1110 C 696 1110 765 1097 823 1072 C 881 1047 929 1013 967 969 C 1005 925 1034 872 1053 812 C 1071 751 1081 685 1081 614 C 1081 606 1080 597 1080 587 C 1080 577 1079 568 1078 558 C 1077 548 1076 538 1075 529 C 1074 520 1073 512 1073 506 L 328 506 C 334 394 363 310 415 253 C 467 196 541 168 639 168 C 695 168 748 177 799 195 C 850 213 898 237 944 266 L 1049 109 C 986 65 919 32 847 8 C 775 -15 701 -27 625 -27 C 543 -27 469 -13 403 12 C 337 38 280 76 234 126 C 187 175 151 235 126 307 C 100 379 88 460 88 551 Z M 625 932 C 588 932 554 925 523 913 C 491 901 463 883 438 860 C 413 836 392 808 375 774 C 358 740 346 701 338 659 L 852 659 C 852 697 848 732 840 766 C 832 799 819 828 801 852 C 783 876 760 896 731 910 C 702 924 667 932 625 932 Z M 297 1454 L 463 1575 L 745 1196 L 588 1196 L 297 1454 Z" unicode="è" />
<glyph horiz-adv-x="1176" d="M 88 551 C 88 636 101 713 128 782 C 155 851 192 910 240 958 C 287 1006 343 1044 408 1070 C 472 1096 542 1110 618 1110 C 696 1110 765 1097 823 1072 C 881 1047 929 1013 967 969 C 1005 925 1034 872 1053 812 C 1071 751 1081 685 1081 614 C 1081 606 1080 597 1080 587 C 1080 577 1079 568 1078 558 C 1077 548 1076 538 1075 529 C 1074 520 1073 512 1073 506 L 328 506 C 334 394 363 310 415 253 C 467 196 541 168 639 168 C 695 168 748 177 799 195 C 850 213 898 237 944 266 L 1049 109 C 986 65 919 32 847 8 C 775 -15 701 -27 625 -27 C 543 -27 469 -13 403 12 C 337 38 280 76 234 126 C 187 175 151 235 126 307 C 100 379 88 460 88 551 Z M 625 932 C 588 932 554 925 523 913 C 491 901 463 883 438 860 C 413 836 392 808 375 774 C 358 740 346 701 338 659 L 852 659 C 852 697 848 732 840 766 C 832 799 819 828 801 852 C 783 876 760 896 731 910 C 702 924 667 932 625 932 Z M 770 1575 L 934 1454 L 643 1196 L 485 1196 L 770 1575 Z" unicode="é" />
<glyph horiz-adv-x="1176" d="M 88 551 C 88 636 101 713 128 782 C 155 851 192 910 240 958 C 287 1006 343 1044 408 1070 C 472 1096 542 1110 618 1110 C 696 1110 765 1097 823 1072 C 881 1047 929 1013 967 969 C 1005 925 1034 872 1053 812 C 1071 751 1081 685 1081 614 C 1081 606 1080 597 1080 587 C 1080 577 1079 568 1078 558 C 1077 548 1076 538 1075 529 C 1074 520 1073 512 1073 506 L 328 506 C 334 394 363 310 415 253 C 467 196 541 168 639 168 C 695 168 748 177 799 195 C 850 213 898 237 944 266 L 1049 109 C 986 65 919 32 847 8 C 775 -15 701 -27 625 -27 C 543 -27 469 -13 403 12 C 337 38 280 76 234 126 C 187 175 151 235 126 307 C 100 379 88 460 88 551 Z M 498 1524 L 741 1524 L 991 1196 L 823 1196 L 621 1393 L 616 1393 L 414 1196 L 248 1196 L 498 1524 Z M 625 932 C 588 932 554 925 523 913 C 491 901 463 883 438 860 C 413 836 392 808 375 774 C 358 740 346 701 338 659 L 852 659 C 852 697 848 732 840 766 C 832 799 819 828 801 852 C 783 876 760 896 731 910 C 702 924 667 932 625 932 Z" unicode="ê" />
<glyph horiz-adv-x="1176" d="M 88 551 C 88 636 101 713 128 782 C 155 851 192 910 240 958 C 287 1006 343 1044 408 1070 C 472 1096 542 1110 618 1110 C 696 1110 765 1097 823 1072 C 881 1047 929 1013 967 969 C 1005 925 1034 872 1053 812 C 1071 751 1081 685 1081 614 C 1081 606 1080 597 1080 587 C 1080 577 1079 568 1078 558 C 1077 548 1076 538 1075 529 C 1074 520 1073 512 1073 506 L 328 506 C 334 394 363 310 415 253 C 467 196 541 168 639 168 C 695 168 748 177 799 195 C 850 213 898 237 944 266 L 1049 109 C 986 65 919 32 847 8 C 775 -15 701 -27 625 -27 C 543 -27 469 -13 403 12 C 337 38 280 76 234 126 C 187 175 151 235 126 307 C 100 379 88 460 88 551 Z M 625 932 C 588 932 554 925 523 913 C 491 901 463 883 438 860 C 413 836 392 808 375 774 C 358 740 346 701 338 659 L 852 659 C 852 697 848 732 840 766 C 832 799 819 828 801 852 C 783 876 760 896 731 910 C 702 924 667 932 625 932 Z M 299 1464 L 506 1464 L 506 1255 L 299 1255 L 299 1464 Z M 733 1464 L 938 1464 L 938 1255 L 733 1255 L 733 1464 Z" unicode="ë" />
<glyph horiz-adv-x="532" d="M 147 1073 L 385 1073 L 385 0 L 147 0 L 147 1073 Z M -53 1454 L 113 1575 L 395 1196 L 238 1196 L -53 1454 Z" unicode="ì" />
<glyph horiz-adv-x="532" d="M 420 1575 L 584 1454 L 293 1196 L 135 1196 L 420 1575 Z M 147 1073 L 385 1073 L 385 0 L 147 0 L 147 1073 Z" unicode="í" />
<glyph horiz-adv-x="532" d="M 143 1524 L 387 1524 L 637 1196 L 469 1196 L 266 1393 L 262 1393 L 59 1196 L -106 1196 L 143 1524 Z M 147 1073 L 385 1073 L 385 0 L 147 0 L 147 1073 Z" unicode="î" />
<glyph horiz-adv-x="532" d="M 381 1464 L 586 1464 L 586 1255 L 381 1255 L 381 1464 Z M -53 1464 L 154 1464 L 154 1255 L -53 1255 L -53 1464 Z M 147 1073 L 385 1073 L 385 0 L 147 0 L 147 1073 Z" unicode="ï" />
<glyph horiz-adv-x="1200" d="M 141 1083 L 365 1083 L 377 954 C 397 975 420 995 445 1014 C 470 1033 497 1050 526 1064 C 554 1078 585 1089 617 1097 C 649 1105 682 1110 717 1110 C 777 1110 829 1100 873 1082 C 917 1064 953 1038 982 1004 C 1010 970 1032 929 1046 881 C 1060 833 1067 779 1067 721 L 1067 0 L 829 0 L 829 725 C 829 755 825 782 819 806 C 813 830 803 851 789 869 C 775 886 758 899 736 909 C 714 919 689 924 659 924 C 602 924 551 911 505 885 C 459 859 417 823 379 776 L 379 0 L 141 0 L 141 1083 Z M 272 1233 C 267 1274 268 1311 276 1344 C 283 1377 295 1405 313 1428 C 330 1451 352 1469 378 1481 C 404 1493 435 1499 469 1499 C 501 1499 528 1493 552 1482 C 576 1470 597 1458 617 1444 C 636 1430 654 1417 671 1406 C 687 1394 705 1389 725 1389 C 775 1389 796 1421 788 1487 L 930 1487 C 934 1445 933 1407 926 1374 C 919 1340 907 1312 890 1289 C 873 1266 851 1249 825 1237 C 799 1225 769 1219 735 1219 C 703 1219 675 1224 652 1236 C 628 1247 607 1260 588 1274 C 568 1288 550 1300 533 1312 C 515 1323 497 1329 479 1329 C 429 1329 408 1297 416 1233 L 272 1233 Z" unicode="ñ" />
<glyph horiz-adv-x="1247" d="M 301 1454 L 467 1575 L 750 1196 L 592 1196 L 301 1454 Z M 88 555 C 88 639 101 715 128 783 C 155 851 193 909 241 957 C 289 1005 345 1043 411 1069 C 476 1095 547 1108 625 1108 C 701 1108 771 1095 836 1069 C 901 1043 957 1005 1005 957 C 1053 909 1090 851 1117 783 C 1143 715 1157 639 1157 555 C 1157 465 1144 385 1118 313 C 1092 241 1056 181 1010 131 C 963 81 907 42 842 15 C 776 -11 704 -25 625 -25 C 544 -25 471 -11 405 15 C 339 42 282 81 235 131 C 188 181 152 241 126 313 C 100 385 88 465 88 555 Z M 330 553 C 330 493 336 440 350 392 C 363 344 382 303 407 269 C 432 235 463 208 500 190 C 536 171 578 162 625 162 C 669 162 709 171 745 190 C 781 208 811 235 836 269 C 861 303 880 344 893 392 C 906 440 913 493 913 553 C 913 607 906 657 892 702 C 878 747 858 786 833 818 C 808 850 778 875 742 893 C 706 911 667 920 625 920 C 581 920 541 911 505 893 C 469 875 438 850 412 818 C 386 786 365 747 351 702 C 337 657 330 607 330 553 Z" unicode="ò" />
<glyph horiz-adv-x="1247" d="M 776 1575 L 940 1454 L 649 1196 L 492 1196 L 776 1575 Z M 88 555 C 88 639 101 715 128 783 C 155 851 193 909 241 957 C 289 1005 345 1043 411 1069 C 476 1095 547 1108 625 1108 C 701 1108 771 1095 836 1069 C 901 1043 957 1005 1005 957 C 1053 909 1090 851 1117 783 C 1143 715 1157 639 1157 555 C 1157 465 1144 385 1118 313 C 1092 241 1056 181 1010 131 C 963 81 907 42 842 15 C 776 -11 704 -25 625 -25 C 544 -25 471 -11 405 15 C 339 42 282 81 235 131 C 188 181 152 241 126 313 C 100 385 88 465 88 555 Z M 330 553 C 330 493 336 440 350 392 C 363 344 382 303 407 269 C 432 235 463 208 500 190 C 536 171 578 162 625 162 C 669 162 709 171 745 190 C 781 208 811 235 836 269 C 861 303 880 344 893 392 C 906 440 913 493 913 553 C 913 607 906 657 892 702 C 878 747 858 786 833 818 C 808 850 778 875 742 893 C 706 911 667 920 625 920 C 581 920 541 911 505 893 C 469 875 438 850 412 818 C 386 786 365 747 351 702 C 337 657 330 607 330 553 Z" unicode="ó" />
<glyph horiz-adv-x="1247" d="M 502 1524 L 745 1524 L 995 1196 L 827 1196 L 625 1393 L 621 1393 L 418 1196 L 252 1196 L 502 1524 Z M 88 555 C 88 639 101 715 128 783 C 155 851 193 909 241 957 C 289 1005 345 1043 411 1069 C 476 1095 547 1108 625 1108 C 701 1108 771 1095 836 1069 C 901 1043 957 1005 1005 957 C 1053 909 1090 851 1117 783 C 1143 715 1157 639 1157 555 C 1157 465 1144 385 1118 313 C 1092 241 1056 181 1010 131 C 963 81 907 42 842 15 C 776 -11 704 -25 625 -25 C 544 -25 471 -11 405 15 C 339 42 282 81 235 131 C 188 181 152 241 126 313 C 100 385 88 465 88 555 Z M 330 553 C 330 493 336 440 350 392 C 363 344 382 303 407 269 C 432 235 463 208 500 190 C 536 171 578 162 625 162 C 669 162 709 171 745 190 C 781 208 811 235 836 269 C 861 303 880 344 893 392 C 906 440 913 493 913 553 C 913 607 906 657 892 702 C 878 747 858 786 833 818 C 808 850 778 875 742 893 C 706 911 667 920 625 920 C 581 920 541 911 505 893 C 469 875 438 850 412 818 C 386 786 365 747 351 702 C 337 657 330 607 330 553 Z" unicode="ô" />
<glyph horiz-adv-x="1247" d="M 88 555 C 88 639 101 715 128 783 C 155 851 193 909 241 957 C 289 1005 345 1043 411 1069 C 476 1095 547 1108 625 1108 C 701 1108 771 1095 836 1069 C 901 1043 957 1005 1005 957 C 1053 909 1090 851 1117 783 C 1143 715 1157 639 1157 555 C 1157 465 1144 385 1118 313 C 1092 241 1056 181 1010 131 C 963 81 907 42 842 15 C 776 -11 704 -25 625 -25 C 544 -25 471 -11 405 15 C 339 42 282 81 235 131 C 188 181 152 241 126 313 C 100 385 88 465 88 555 Z M 330 553 C 330 493 336 440 350 392 C 363 344 382 303 407 269 C 432 235 463 208 500 190 C 536 171 578 162 625 162 C 669 162 709 171 745 190 C 781 208 811 235 836 269 C 861 303 880 344 893 392 C 906 440 913 493 913 553 C 913 607 906 657 892 702 C 878 747 858 786 833 818 C 808 850 778 875 742 893 C 706 911 667 920 625 920 C 581 920 541 911 505 893 C 469 875 438 850 412 818 C 386 786 365 747 351 702 C 337 657 330 607 330 553 Z M 293 1233 C 288 1274 289 1311 296 1344 C 303 1377 315 1405 333 1428 C 350 1451 372 1469 398 1481 C 424 1493 455 1499 489 1499 C 521 1499 548 1493 572 1482 C 596 1470 617 1458 637 1444 C 656 1430 674 1417 691 1406 C 708 1394 726 1389 745 1389 C 795 1389 817 1421 809 1487 L 950 1487 C 955 1445 954 1407 947 1374 C 940 1340 928 1312 911 1289 C 894 1266 872 1249 846 1237 C 820 1225 790 1219 756 1219 C 724 1219 696 1224 673 1236 C 649 1247 628 1260 608 1274 C 588 1288 570 1300 553 1312 C 536 1323 518 1329 500 1329 C 449 1329 428 1297 436 1233 L 293 1233 Z" unicode="õ" />
<glyph horiz-adv-x="1247" d="M 737 1464 L 942 1464 L 942 1255 L 737 1255 L 737 1464 Z M 303 1464 L 510 1464 L 510 1255 L 303 1255 L 303 1464 Z M 88 555 C 88 639 101 715 128 783 C 155 851 193 909 241 957 C 289 1005 345 1043 411 1069 C 476 1095 547 1108 625 1108 C 701 1108 771 1095 836 1069 C 901 1043 957 1005 1005 957 C 1053 909 1090 851 1117 783 C 1143 715 1157 639 1157 555 C 1157 465 1144 385 1118 313 C 1092 241 1056 181 1010 131 C 963 81 907 42 842 15 C 776 -11 704 -25 625 -25 C 544 -25 471 -11 405 15 C 339 42 282 81 235 131 C 188 181 152 241 126 313 C 100 385 88 465 88 555 Z M 330 553 C 330 493 336 440 350 392 C 363 344 382 303 407 269 C 432 235 463 208 500 190 C 536 171 578 162 625 162 C 669 162 709 171 745 190 C 781 208 811 235 836 269 C 861 303 880 344 893 392 C 906 440 913 493 913 553 C 913 607 906 657 892 702 C 878 747 858 786 833 818 C 808 850 778 875 742 893 C 706 911 667 920 625 920 C 581 920 541 911 505 893 C 469 875 438 850 412 818 C 386 786 365 747 351 702 C 337 657 330 607 330 553 Z" unicode="ö" />
<glyph horiz-adv-x="1262" d="M 518 1047 L 743 1047 L 743 836 L 518 836 L 518 1047 Z M 518 250 L 743 250 L 743 39 L 518 39 L 518 250 Z M 88 645 L 1174 645 L 1174 442 L 88 442 L 88 645 Z" unicode="÷" />
<glyph horiz-adv-x="1247" d="M 88 555 C 88 639 101 715 128 783 C 155 851 193 909 241 957 C 289 1005 345 1043 411 1069 C 476 1095 547 1108 625 1108 C 679 1108 730 1101 778 1087 C 826 1073 871 1054 913 1030 L 1026 1178 L 1145 1083 L 1024 936 C 1066 888 1098 833 1122 769 C 1145 705 1157 633 1157 555 C 1157 465 1144 385 1118 313 C 1092 241 1056 181 1010 131 C 963 81 907 42 842 15 C 776 -11 704 -25 625 -25 C 511 -25 413 1 330 53 L 205 -104 L 82 -14 L 217 152 C 175 201 143 259 121 327 C 99 394 88 470 88 555 Z M 913 553 C 913 592 909 629 901 663 C 893 697 883 728 870 758 L 449 223 C 495 182 554 162 625 162 C 669 162 709 171 745 190 C 781 208 811 235 836 269 C 861 303 880 344 893 392 C 906 440 913 493 913 553 Z M 330 553 C 330 509 333 468 340 430 C 347 392 358 358 373 328 L 788 862 C 765 880 740 895 713 905 C 686 915 657 920 625 920 C 581 920 541 911 505 893 C 469 875 438 850 412 818 C 386 786 365 747 351 702 C 337 657 330 607 330 553 Z" unicode="ø" />
<glyph horiz-adv-x="1204" d="M 137 1083 L 375 1083 L 375 360 C 375 330 377 303 383 279 C 389 255 398 234 411 217 C 424 199 441 186 463 176 C 484 166 511 162 543 162 C 600 162 652 174 699 200 C 745 226 788 261 827 307 L 827 1083 L 1065 1083 L 1065 0 L 846 0 L 831 131 C 810 109 787 89 762 70 C 736 51 709 35 680 21 C 651 7 620 -4 588 -12 C 555 -20 521 -25 487 -25 C 425 -25 373 -15 329 2 C 285 20 248 47 220 81 C 191 115 170 156 157 204 C 143 252 137 305 137 365 L 137 1083 Z M 266 1454 L 432 1575 L 715 1196 L 557 1196 L 266 1454 Z" unicode="ù" />
<glyph horiz-adv-x="1204" d="M 762 1575 L 926 1454 L 635 1196 L 477 1196 L 762 1575 Z M 137 1083 L 375 1083 L 375 360 C 375 330 377 303 383 279 C 389 255 398 234 411 217 C 424 199 441 186 463 176 C 484 166 511 162 543 162 C 600 162 652 174 699 200 C 745 226 788 261 827 307 L 827 1083 L 1065 1083 L 1065 0 L 846 0 L 831 131 C 810 109 787 89 762 70 C 736 51 709 35 680 21 C 651 7 620 -4 588 -12 C 555 -20 521 -25 487 -25 C 425 -25 373 -15 329 2 C 285 20 248 47 220 81 C 191 115 170 156 157 204 C 143 252 137 305 137 365 L 137 1083 Z" unicode="ú" />
<glyph horiz-adv-x="1204" d="M 479 1524 L 723 1524 L 973 1196 L 805 1196 L 602 1393 L 598 1393 L 395 1196 L 229 1196 L 479 1524 Z M 137 1083 L 375 1083 L 375 360 C 375 330 377 303 383 279 C 389 255 398 234 411 217 C 424 199 441 186 463 176 C 484 166 511 162 543 162 C 600 162 652 174 699 200 C 745 226 788 261 827 307 L 827 1083 L 1065 1083 L 1065 0 L 846 0 L 831 131 C 810 109 787 89 762 70 C 736 51 709 35 680 21 C 651 7 620 -4 588 -12 C 555 -20 521 -25 487 -25 C 425 -25 373 -15 329 2 C 285 20 248 47 220 81 C 191 115 170 156 157 204 C 143 252 137 305 137 365 L 137 1083 Z" unicode="û" />
<glyph horiz-adv-x="1204" d="M 715 1464 L 920 1464 L 920 1255 L 715 1255 L 715 1464 Z M 281 1464 L 487 1464 L 487 1255 L 281 1255 L 281 1464 Z M 137 1083 L 375 1083 L 375 360 C 375 330 377 303 383 279 C 389 255 398 234 411 217 C 424 199 441 186 463 176 C 484 166 511 162 543 162 C 600 162 652 174 699 200 C 745 226 788 261 827 307 L 827 1083 L 1065 1083 L 1065 0 L 846 0 L 831 131 C 810 109 787 89 762 70 C 736 51 709 35 680 21 C 651 7 620 -4 588 -12 C 555 -20 521 -25 487 -25 C 425 -25 373 -15 329 2 C 285 20 248 47 220 81 C 191 115 170 156 157 204 C 143 252 137 305 137 365 L 137 1083 Z" unicode="ü" />
<glyph horiz-adv-x="1092" d="M 92 -199 C 116 -208 141 -216 166 -224 C 191 -232 215 -236 238 -236 C 274 -236 304 -227 328 -211 C 352 -194 371 -164 387 -121 L 436 6 L 39 1083 L 283 1083 L 551 305 L 555 305 L 815 1083 L 1053 1083 L 623 -131 C 601 -190 577 -239 551 -277 C 525 -315 496 -346 465 -369 C 434 -391 400 -407 364 -416 C 328 -425 289 -430 248 -430 C 206 -430 166 -426 127 -418 C 88 -410 53 -400 23 -389 L 92 -199 Z M 664 1464 L 868 1464 L 868 1255 L 664 1255 L 664 1464 Z M 229 1464 L 436 1464 L 436 1255 L 229 1255 L 229 1464 Z" unicode="ÿ" />
<glyph horiz-adv-x="1843" d="M 416 944 L 618 932 L 578 393 L 868 698 L 1333 1169 L 1481 1024 L 1012 555 L 705 264 L 1243 305 L 1255 102 L 360 49 L 416 944 Z" unicode="↙" />
<glyph horiz-adv-x="1296" d="M 223 893 L 41 893 L 41 1071 L 223 1071 L 223 1130 C 223 1206 233 1271 254 1325 C 275 1379 305 1424 345 1458 C 385 1492 433 1518 491 1534 C 548 1550 613 1559 686 1559 C 727 1559 768 1555 810 1549 C 851 1542 891 1533 930 1522 C 969 1510 1006 1497 1042 1482 C 1078 1466 1111 1450 1141 1432 L 1051 1270 C 1027 1282 1002 1295 974 1307 C 946 1319 916 1330 886 1340 C 856 1349 825 1357 793 1363 C 761 1369 729 1372 698 1372 C 614 1372 554 1352 517 1313 C 479 1273 461 1211 461 1126 L 461 1071 L 750 1071 L 750 893 L 461 893 L 461 0 L 223 0 L 223 893 Z M 913 1073 L 1151 1073 L 1151 0 L 913 0 L 913 1073 Z" unicode="ﬁ" />
<glyph horiz-adv-x="1323" d="M 223 893 L 41 893 L 41 1071 L 223 1071 L 223 1130 C 223 1203 234 1267 257 1321 C 279 1375 311 1419 353 1455 C 394 1491 444 1517 503 1535 C 562 1552 628 1561 702 1561 C 776 1561 842 1552 901 1535 C 959 1517 1009 1491 1050 1455 C 1091 1419 1123 1373 1145 1319 C 1167 1264 1178 1200 1178 1126 L 1178 0 L 940 0 L 940 1128 C 940 1208 921 1269 883 1310 C 845 1351 784 1372 700 1372 C 616 1372 555 1351 517 1310 C 479 1269 461 1208 461 1128 L 461 1071 L 752 1071 L 752 893 L 461 893 L 461 0 L 223 0 L 223 893 Z" unicode="ﬂ" />
<glyph horiz-adv-x="1159" d="M 279 543 C 279 584 286 623 302 660 C 318 696 339 728 367 756 C 394 783 426 804 463 820 C 499 836 538 844 580 844 C 621 844 660 836 696 820 C 732 804 764 783 792 756 C 819 728 841 696 857 660 C 873 623 881 584 881 543 C 881 501 873 462 857 426 C 841 390 819 358 792 331 C 764 304 732 283 696 267 C 660 251 621 244 580 244 C 538 244 499 251 463 267 C 426 283 394 304 367 331 C 339 358 318 390 302 426 C 286 462 279 501 279 543 Z" unicode="•" />
<glyph horiz-adv-x="2001" d="M 901 893 L 461 893 L 461 0 L 223 0 L 223 893 L 41 893 L 41 1071 L 223 1071 L 223 1128 C 223 1202 233 1266 254 1319 C 275 1372 305 1416 343 1450 C 381 1484 428 1508 483 1524 C 537 1540 598 1548 666 1548 C 736 1548 800 1538 859 1520 C 918 1502 972 1478 1022 1448 C 1064 1486 1115 1514 1175 1533 C 1235 1551 1304 1561 1380 1561 C 1454 1561 1520 1552 1578 1535 C 1636 1517 1686 1491 1727 1455 C 1767 1419 1798 1373 1820 1319 C 1842 1264 1853 1200 1853 1126 L 1853 0 L 1616 0 L 1616 1128 C 1616 1209 1597 1270 1559 1311 C 1521 1351 1461 1372 1378 1372 C 1294 1372 1233 1351 1195 1310 C 1157 1269 1139 1208 1139 1128 L 1139 1071 L 1427 1071 L 1427 893 L 1139 893 L 1139 0 L 901 0 L 901 893 Z M 461 1071 L 901 1071 L 901 1130 C 901 1163 903 1194 907 1223 C 911 1251 918 1279 928 1305 C 892 1324 854 1339 813 1349 C 771 1359 728 1364 682 1364 C 604 1364 548 1345 513 1307 C 478 1269 461 1211 461 1133 L 461 1071 Z" unicode="ﬄ" />
<glyph horiz-adv-x="1849" d="M 174 264 C 224 234 277 209 335 190 C 392 171 451 162 512 162 C 540 162 567 164 591 169 C 615 174 635 182 653 193 C 671 203 684 217 694 233 C 704 249 709 269 709 293 C 709 320 700 342 682 360 C 664 377 641 392 613 404 C 585 416 552 427 516 437 C 479 446 441 456 403 468 C 365 479 327 492 291 507 C 254 522 221 542 193 566 C 165 590 142 619 124 654 C 106 688 98 731 98 782 C 98 834 108 879 130 919 C 152 959 180 992 216 1019 C 251 1045 291 1065 336 1079 C 380 1093 426 1100 473 1100 C 493 1100 515 1098 537 1095 C 559 1092 580 1088 601 1083 C 622 1077 642 1070 660 1062 C 678 1054 695 1044 709 1034 C 688 1060 670 1090 655 1124 C 640 1157 633 1195 633 1239 C 633 1282 641 1324 658 1364 C 674 1404 699 1439 733 1469 C 766 1499 807 1524 857 1542 C 907 1560 964 1569 1030 1569 C 1096 1569 1155 1560 1208 1543 C 1260 1526 1305 1501 1342 1468 C 1378 1434 1406 1392 1426 1342 C 1446 1292 1456 1233 1456 1167 L 1456 1083 L 1757 1083 L 1757 905 L 1456 905 L 1456 311 C 1456 284 1458 262 1463 244 C 1468 226 1476 212 1487 202 C 1497 192 1511 184 1527 180 C 1543 176 1563 174 1587 174 C 1612 174 1638 178 1664 187 C 1690 196 1711 207 1729 221 L 1819 68 C 1801 53 1781 40 1759 29 C 1737 17 1714 8 1690 0 C 1666 -8 1642 -14 1617 -18 C 1592 -22 1568 -25 1544 -25 C 1434 -25 1352 1 1299 55 C 1245 109 1219 191 1219 303 L 1219 905 L 1051 905 L 1051 1083 L 1219 1083 L 1219 1167 C 1219 1202 1214 1234 1205 1263 C 1195 1292 1182 1317 1164 1337 C 1146 1357 1123 1373 1096 1384 C 1068 1395 1037 1401 1001 1401 C 969 1401 940 1396 914 1386 C 888 1376 866 1362 848 1345 C 830 1327 816 1307 806 1284 C 796 1260 791 1236 791 1210 C 791 1166 798 1128 814 1096 C 829 1064 857 1034 897 1006 L 811 842 C 786 854 760 864 734 874 C 707 884 680 892 654 899 C 627 905 601 910 576 914 C 551 918 528 920 508 920 C 482 920 459 917 438 912 C 416 906 398 898 383 888 C 367 878 355 864 347 848 C 338 832 334 813 334 791 C 334 764 342 742 360 726 C 377 709 400 695 428 683 C 456 671 489 661 525 653 C 561 644 599 634 637 624 C 675 613 712 600 748 585 C 784 570 817 550 845 526 C 873 502 896 472 914 436 C 931 400 940 357 940 305 C 940 251 929 203 908 162 C 887 120 858 86 820 58 C 782 30 737 8 685 -5 C 633 -19 576 -27 514 -27 C 431 -27 354 -16 283 4 C 211 24 142 54 74 94 L 174 264 Z" unicode="ﬆ" />
<glyph horiz-adv-x="1288" d="M 657 1180 C 605 1180 559 1188 518 1204 C 476 1220 441 1242 411 1272 C 381 1302 358 1338 340 1380 C 322 1422 311 1470 307 1524 L 465 1524 C 472 1464 492 1417 525 1385 C 557 1353 601 1337 657 1337 C 711 1337 755 1353 789 1385 C 822 1417 842 1464 850 1524 L 1006 1524 C 1002 1470 991 1421 973 1379 C 955 1337 931 1301 901 1271 C 871 1241 835 1219 794 1203 C 752 1187 707 1180 657 1180 Z" unicode="˘" />
<glyph horiz-adv-x="1083" d="M 121 504 C 157 519 191 535 225 551 C 259 567 292 583 324 600 L 324 1110 C 324 1166 331 1215 345 1259 C 359 1302 380 1338 407 1368 C 433 1398 466 1420 504 1436 C 542 1452 585 1460 633 1460 C 685 1460 731 1452 772 1437 C 813 1421 848 1399 876 1370 C 904 1340 926 1305 941 1263 C 955 1221 963 1173 963 1120 C 963 1062 953 1008 935 956 C 917 904 891 854 857 807 C 823 759 781 714 732 671 C 682 628 627 587 565 549 L 565 289 C 565 208 598 168 664 168 C 690 168 713 174 733 186 C 753 198 770 214 786 236 L 926 113 C 888 66 843 31 791 9 C 738 -13 684 -25 629 -25 C 529 -25 454 0 402 51 C 350 101 324 180 324 287 L 324 420 L 178 358 L 121 504 Z M 565 754 C 629 806 679 861 715 919 C 750 977 768 1039 768 1106 C 768 1126 766 1146 763 1165 C 759 1184 754 1201 746 1215 C 738 1229 727 1241 714 1249 C 701 1257 685 1262 666 1262 C 646 1262 630 1257 618 1249 C 605 1241 595 1229 587 1215 C 579 1201 573 1184 570 1165 C 566 1146 565 1126 565 1106 L 565 754 Z" unicode="ℓ" />
<glyph horiz-adv-x="1952" d="M 121 1139 L 332 1139 L 764 436 L 764 1139 L 1004 1139 L 1004 0 L 788 0 L 362 705 L 362 0 L 121 0 L 121 1139 Z M 1151 815 C 1151 861 1159 904 1175 945 C 1191 985 1215 1021 1245 1051 C 1275 1081 1311 1104 1353 1122 C 1395 1140 1441 1149 1493 1149 C 1545 1149 1592 1140 1634 1122 C 1676 1104 1711 1081 1741 1051 C 1771 1021 1794 985 1810 945 C 1826 904 1835 861 1835 815 C 1835 769 1826 726 1810 686 C 1793 646 1770 610 1740 579 C 1710 548 1674 524 1632 506 C 1590 488 1543 479 1493 479 C 1441 479 1395 488 1353 506 C 1311 524 1275 548 1245 579 C 1215 610 1191 646 1175 686 C 1159 726 1151 769 1151 815 Z M 1335 815 C 1335 791 1339 769 1347 749 C 1355 729 1366 711 1380 696 C 1394 681 1410 669 1430 661 C 1449 653 1470 649 1493 649 C 1515 649 1536 653 1556 661 C 1576 669 1593 681 1607 696 C 1621 711 1633 729 1641 749 C 1649 769 1653 791 1653 815 C 1653 837 1649 859 1641 880 C 1633 900 1621 918 1607 933 C 1593 948 1576 960 1556 969 C 1536 978 1515 983 1493 983 C 1470 983 1449 978 1430 969 C 1410 960 1394 948 1380 933 C 1366 918 1355 900 1347 880 C 1339 859 1335 837 1335 815 Z" unicode="№" />
<glyph horiz-adv-x="1249" d="M 522 1464 L 727 1464 L 727 1255 L 522 1255 L 522 1464 Z" unicode="˙" />
<glyph horiz-adv-x="1270" d="M 643 1184 C 611 1184 580 1189 552 1201 C 524 1212 499 1228 478 1248 C 457 1268 440 1291 428 1318 C 416 1345 410 1375 410 1407 C 410 1439 416 1468 428 1496 C 440 1524 457 1548 478 1568 C 499 1588 524 1603 552 1615 C 580 1626 611 1632 643 1632 C 675 1632 705 1626 734 1615 C 762 1603 787 1588 808 1568 C 829 1548 846 1524 858 1496 C 870 1468 877 1439 877 1407 C 877 1375 870 1345 858 1318 C 846 1291 829 1268 808 1248 C 787 1228 762 1212 734 1201 C 705 1189 675 1184 643 1184 Z M 643 1282 C 660 1282 676 1285 692 1291 C 707 1297 720 1306 732 1318 C 743 1329 752 1342 758 1358 C 764 1373 768 1389 768 1407 C 768 1425 764 1441 758 1457 C 752 1472 743 1485 732 1496 C 720 1507 707 1516 692 1522 C 676 1528 660 1532 643 1532 C 625 1532 609 1528 594 1522 C 578 1516 565 1507 554 1496 C 542 1485 533 1472 527 1457 C 521 1441 518 1425 518 1407 C 518 1389 521 1373 527 1358 C 533 1342 542 1329 554 1318 C 565 1306 578 1297 594 1291 C 609 1285 625 1282 643 1282 Z" unicode="˚" />
<glyph horiz-adv-x="1804" d="M 899 1434 L 1073 1434 L 1296 1137 L 1516 1434 L 1692 1434 L 1692 676 L 1520 676 L 1520 1171 L 1300 879 L 1071 1174 L 1071 676 L 899 676 L 899 1434 Z M 172 883 C 209 859 251 840 297 825 C 343 810 388 803 432 803 C 484 803 522 810 548 825 C 573 839 586 859 586 885 C 586 904 579 920 565 932 C 551 944 533 954 511 962 C 489 970 463 978 435 984 C 407 990 378 996 348 1004 C 318 1011 289 1020 261 1030 C 233 1040 207 1054 185 1071 C 163 1088 145 1109 131 1134 C 117 1159 111 1190 111 1227 C 111 1259 118 1289 132 1317 C 146 1345 167 1369 194 1389 C 221 1409 254 1424 294 1435 C 333 1446 378 1452 428 1452 C 482 1452 536 1445 590 1431 C 644 1417 695 1399 743 1378 L 672 1251 C 632 1269 590 1284 548 1296 C 505 1307 465 1313 428 1313 C 382 1313 347 1304 321 1288 C 295 1272 283 1251 283 1227 C 283 1208 289 1193 303 1182 C 316 1170 334 1161 356 1153 C 378 1145 404 1139 433 1134 C 461 1128 491 1122 521 1115 C 551 1107 580 1098 609 1088 C 637 1078 663 1064 685 1047 C 707 1029 725 1008 739 982 C 753 956 760 923 760 885 C 760 852 753 822 739 794 C 725 766 705 741 678 721 C 650 701 616 685 575 674 C 534 662 486 657 432 657 C 399 657 366 659 334 665 C 302 670 270 677 240 687 C 209 696 180 707 152 719 C 124 731 98 745 74 760 L 172 883 Z" unicode="℠" />
<glyph horiz-adv-x="2279" d="M 1554 283 C 1554 325 1562 365 1578 402 C 1594 438 1617 470 1645 497 C 1673 523 1707 544 1745 559 C 1783 574 1825 582 1870 582 C 1914 582 1955 574 1993 559 C 2031 544 2064 523 2092 497 C 2120 470 2143 438 2159 402 C 2175 365 2183 325 2183 283 C 2183 238 2175 197 2159 160 C 2143 122 2121 90 2093 64 C 2065 37 2032 16 1994 2 C 1956 -12 1914 -20 1870 -20 C 1824 -20 1782 -12 1744 2 C 1706 16 1672 37 1644 64 C 1616 90 1594 122 1578 160 C 1562 197 1554 238 1554 283 Z M 1712 283 C 1712 259 1715 236 1723 216 C 1731 196 1742 178 1756 164 C 1770 149 1786 137 1806 129 C 1825 121 1846 117 1870 117 C 1892 117 1913 121 1933 129 C 1952 137 1968 149 1982 164 C 1995 178 2005 196 2013 216 C 2021 236 2025 259 2025 283 C 2025 305 2021 326 2013 346 C 2005 366 1995 383 1982 398 C 1968 412 1952 424 1933 432 C 1913 440 1892 444 1870 444 C 1846 444 1825 440 1806 432 C 1786 424 1770 412 1756 398 C 1742 383 1731 366 1723 346 C 1715 326 1712 305 1712 283 Z M 1296 1139 L 457 0 L 285 0 L 1126 1139 L 1296 1139 Z M 96 860 C 96 902 104 942 120 979 C 136 1015 158 1047 186 1074 C 214 1100 248 1121 287 1136 C 325 1151 367 1159 412 1159 C 456 1159 497 1151 535 1136 C 573 1121 606 1100 634 1074 C 662 1047 685 1015 701 979 C 717 942 725 902 725 860 C 725 815 717 774 701 737 C 685 700 663 668 635 642 C 607 615 574 594 536 579 C 498 564 456 557 412 557 C 366 557 324 564 286 579 C 247 594 214 615 186 642 C 158 668 136 700 120 737 C 104 774 96 815 96 860 Z M 254 860 C 254 836 257 813 265 793 C 273 773 284 755 298 741 C 312 726 328 714 348 706 C 367 698 388 694 412 694 C 434 694 455 698 475 706 C 494 714 510 726 524 741 C 537 755 547 773 555 793 C 563 813 567 836 567 860 C 567 882 563 904 555 924 C 547 944 537 961 524 975 C 510 989 494 1001 475 1009 C 455 1017 434 1022 412 1022 C 388 1022 367 1017 348 1009 C 328 1001 312 989 298 975 C 284 961 273 944 265 924 C 257 904 254 882 254 860 Z M 856 283 C 856 325 864 365 880 402 C 896 438 918 470 946 497 C 974 523 1008 544 1046 559 C 1084 574 1126 582 1171 582 C 1215 582 1256 574 1294 559 C 1332 544 1366 523 1394 497 C 1422 470 1445 438 1461 402 C 1477 365 1485 325 1485 283 C 1485 238 1477 197 1461 160 C 1445 122 1423 90 1395 64 C 1367 37 1333 16 1295 2 C 1257 -12 1215 -20 1171 -20 C 1125 -20 1083 -12 1045 2 C 1007 16 974 37 946 64 C 918 90 896 122 880 160 C 864 197 856 238 856 283 Z M 1014 283 C 1014 259 1017 236 1025 216 C 1033 196 1044 178 1058 164 C 1072 149 1088 137 1107 129 C 1126 121 1147 117 1171 117 C 1194 117 1215 121 1234 129 C 1253 137 1269 149 1283 164 C 1297 178 1307 196 1315 216 C 1323 236 1327 259 1327 283 C 1327 305 1323 326 1315 346 C 1307 366 1297 383 1283 398 C 1269 412 1253 424 1234 432 C 1215 440 1194 444 1171 444 C 1147 444 1126 440 1107 432 C 1088 424 1072 412 1058 398 C 1044 383 1033 366 1025 346 C 1017 326 1014 305 1014 283 Z" unicode="‰" />
<glyph horiz-adv-x="1806" d="M 899 1434 L 1075 1434 L 1298 1137 L 1516 1434 L 1694 1434 L 1694 676 L 1522 676 L 1522 1171 L 1303 879 L 1073 1174 L 1073 676 L 899 676 L 899 1434 Z M 336 1282 L 74 1282 L 74 1434 L 770 1434 L 770 1282 L 510 1282 L 510 676 L 336 676 L 336 1282 Z" unicode="™" />
<glyph horiz-adv-x="1270" d="M 797 -397 C 775 -405 752 -412 728 -417 C 703 -421 676 -424 647 -424 C 609 -424 576 -419 546 -409 C 516 -399 490 -384 469 -366 C 447 -348 431 -326 420 -300 C 408 -274 403 -246 403 -215 C 403 -177 411 -142 428 -109 C 445 -76 469 -45 499 -17 C 529 11 566 38 609 62 C 651 86 698 109 750 129 L 799 51 C 765 33 734 16 708 0 C 681 -16 658 -33 640 -51 C 621 -69 607 -87 597 -105 C 587 -123 582 -143 582 -164 C 582 -189 590 -209 608 -224 C 625 -238 650 -246 684 -246 C 704 -246 724 -243 743 -239 C 761 -234 777 -227 791 -219 L 797 -223 L 797 -397 Z" unicode="˛" />
<glyph horiz-adv-x="1298" d="M 326 1233 C 321 1274 322 1311 329 1344 C 336 1377 348 1405 366 1428 C 383 1451 405 1469 431 1481 C 457 1493 488 1499 522 1499 C 554 1499 581 1493 605 1482 C 629 1470 650 1458 670 1444 C 689 1430 707 1417 724 1406 C 740 1394 758 1389 778 1389 C 828 1389 850 1421 842 1487 L 983 1487 C 988 1445 987 1407 980 1374 C 973 1340 961 1312 944 1289 C 927 1266 905 1249 879 1237 C 852 1225 822 1219 788 1219 C 756 1219 729 1224 705 1236 C 681 1247 660 1260 641 1274 C 621 1288 603 1300 586 1312 C 568 1323 550 1329 532 1329 C 482 1329 461 1297 469 1233 L 326 1233 L 326 1233 Z" unicode="˜" />
<glyph horiz-adv-x="1409" d="M 121 561 C 121 653 136 736 167 810 C 197 884 240 947 296 999 C 351 1051 417 1092 495 1120 C 572 1148 658 1163 752 1163 C 830 1163 901 1151 967 1127 C 1033 1103 1089 1070 1137 1026 C 1185 982 1222 929 1248 867 C 1274 805 1288 735 1288 659 C 1288 638 1287 618 1285 599 C 1283 579 1282 560 1280 541 L 453 541 L 453 242 C 491 208 537 182 589 165 C 641 147 699 139 762 139 C 884 139 1000 174 1110 246 L 1202 104 C 1068 16 921 -27 762 -27 C 668 -27 581 -13 503 15 C 424 43 356 82 300 134 C 243 185 199 247 168 319 C 136 391 121 472 121 561 Z M 748 1010 C 691 1010 638 1002 588 986 C 538 970 493 946 453 915 L 453 678 L 981 678 L 983 938 C 951 961 914 979 874 991 C 834 1003 792 1010 748 1010 Z" unicode="℮" />
<glyph horiz-adv-x="532" d="M 147 1073 L 385 1073 L 385 0 L 147 0 L 147 1073 Z" unicode="ı" />
<glyph horiz-adv-x="2001" d="M 223 893 L 41 893 L 41 1071 L 223 1071 L 223 1130 C 223 1203 234 1267 257 1321 C 279 1375 311 1419 353 1455 C 394 1491 444 1517 503 1535 C 562 1552 628 1561 702 1561 C 776 1561 842 1552 901 1535 C 959 1517 1009 1491 1050 1455 C 1091 1419 1123 1373 1145 1319 C 1167 1264 1178 1200 1178 1126 L 1178 954 C 1198 975 1221 995 1246 1014 C 1270 1033 1297 1050 1325 1064 C 1353 1078 1382 1089 1414 1097 C 1445 1105 1478 1110 1513 1110 C 1573 1110 1626 1100 1670 1082 C 1714 1064 1751 1038 1780 1004 C 1808 970 1829 929 1843 881 C 1857 833 1864 779 1864 721 L 1864 0 L 1626 0 L 1626 725 C 1626 755 1622 782 1616 806 C 1610 830 1600 851 1587 869 C 1573 886 1556 899 1534 909 C 1512 919 1486 924 1456 924 C 1400 924 1350 911 1304 885 C 1258 859 1216 823 1178 776 L 1178 0 L 940 0 L 940 1128 C 940 1208 921 1269 883 1310 C 845 1351 784 1372 700 1372 C 616 1372 555 1351 517 1310 C 479 1269 461 1208 461 1128 L 461 1071 L 752 1071 L 752 893 L 461 893 L 461 0 L 223 0 L 223 893 Z" unicode="" />
<glyph horiz-adv-x="1309" d="M 545 1524 L 788 1524 L 1038 1196 L 870 1196 L 668 1393 L 664 1393 L 461 1196 L 295 1196 L 545 1524 Z" unicode="ˆ" />
<glyph horiz-adv-x="2443" d="M 100 729 C 100 797 108 863 124 926 C 140 988 164 1047 194 1101 C 224 1155 261 1204 304 1248 C 346 1292 394 1329 447 1360 C 499 1391 556 1415 618 1432 C 680 1449 745 1458 813 1458 C 915 1458 1007 1437 1090 1397 C 1173 1357 1243 1301 1300 1229 L 1300 1434 L 2314 1434 L 2314 1217 L 1544 1217 L 1544 831 L 2234 831 L 2234 627 L 1544 627 L 1544 217 L 2327 217 L 2327 0 L 1300 0 L 1300 201 C 1244 128 1175 72 1093 33 C 1010 -5 917 -25 813 -25 C 708 -25 612 -6 525 31 C 437 68 362 120 299 187 C 236 253 187 333 152 425 C 117 517 100 619 100 729 Z M 348 729 C 348 649 359 575 382 509 C 405 443 437 386 479 338 C 521 290 571 253 629 227 C 687 201 752 188 823 188 C 893 188 957 201 1016 228 C 1074 254 1125 291 1167 339 C 1209 387 1241 444 1265 510 C 1288 576 1300 649 1300 729 C 1300 803 1288 871 1264 934 C 1240 997 1206 1052 1164 1098 C 1121 1144 1070 1180 1012 1206 C 954 1232 891 1245 823 1245 C 754 1245 691 1232 633 1206 C 575 1180 524 1144 482 1098 C 440 1052 407 997 383 934 C 359 871 348 803 348 729 Z" unicode="Œ" />
<glyph horiz-adv-x="2001" d="M 88 555 C 88 639 101 715 129 783 C 156 851 194 910 242 958 C 290 1006 346 1044 412 1070 C 478 1096 549 1110 627 1110 C 719 1110 800 1090 869 1051 C 937 1012 992 957 1032 887 C 1075 957 1132 1012 1203 1051 C 1274 1090 1355 1110 1446 1110 C 1524 1110 1592 1097 1650 1072 C 1708 1047 1757 1013 1796 969 C 1834 925 1863 872 1882 812 C 1901 751 1911 685 1911 614 C 1911 606 1910 597 1910 587 C 1909 577 1908 568 1907 558 C 1906 548 1905 538 1904 529 C 1902 520 1901 512 1901 506 L 1159 506 C 1163 396 1190 313 1242 255 C 1294 197 1368 168 1466 168 C 1522 168 1575 177 1626 195 C 1677 213 1725 237 1769 266 L 1876 109 C 1812 64 1745 30 1675 7 C 1605 -15 1532 -27 1458 -27 C 1359 -27 1274 -7 1202 30 C 1130 68 1073 123 1032 195 C 990 123 936 68 868 30 C 800 -7 719 -27 627 -27 C 546 -27 473 -13 407 14 C 341 41 284 80 237 130 C 189 180 153 241 127 313 C 101 385 88 465 88 555 Z M 332 555 C 332 495 338 441 352 393 C 365 345 384 303 409 269 C 434 235 465 208 501 190 C 537 171 579 162 625 162 C 669 162 710 171 746 190 C 782 208 812 235 837 269 C 862 303 881 345 895 393 C 908 441 915 495 915 555 C 915 609 908 659 894 704 C 880 749 860 788 835 820 C 809 852 779 877 743 895 C 707 913 668 922 625 922 C 581 922 542 913 506 895 C 470 877 439 852 413 820 C 387 788 367 749 353 704 C 339 659 332 609 332 555 Z M 1679 659 C 1679 697 1675 732 1667 766 C 1659 799 1645 828 1627 852 C 1609 876 1585 896 1556 910 C 1527 924 1492 932 1450 932 C 1414 932 1381 925 1350 913 C 1319 901 1291 883 1267 860 C 1242 836 1221 808 1203 774 C 1185 740 1173 701 1165 659 L 1679 659 Z" unicode="œ" />
<glyph horiz-adv-x="772" d="M 664 123 L 498 0 L 90 545 L 498 1085 L 664 961 L 330 545 L 664 123 Z" unicode="‹" />
<glyph horiz-adv-x="772" d="M 442 545 L 109 961 L 274 1085 L 682 545 L 274 0 L 109 123 L 442 545 Z" unicode="›" />
<glyph horiz-adv-x="1909" d="M 88 551 C 88 633 100 708 124 776 C 148 844 182 902 226 950 C 270 998 321 1035 381 1061 C 440 1087 505 1100 575 1100 C 621 1100 662 1093 699 1081 C 735 1069 767 1052 795 1032 C 773 1060 755 1091 740 1125 C 724 1159 717 1199 717 1243 C 717 1286 725 1327 742 1367 C 759 1406 784 1441 816 1471 C 848 1501 889 1524 937 1542 C 985 1560 1040 1569 1102 1569 C 1165 1569 1222 1560 1274 1543 C 1325 1526 1369 1501 1405 1468 C 1441 1434 1468 1392 1488 1342 C 1508 1292 1518 1233 1518 1167 L 1518 1083 L 1817 1083 L 1817 905 L 1518 905 L 1518 311 C 1518 284 1520 262 1525 244 C 1530 226 1538 212 1548 202 C 1558 192 1572 184 1588 180 C 1604 176 1624 174 1647 174 C 1672 174 1697 178 1722 187 C 1747 196 1769 207 1788 221 L 1878 68 C 1840 38 1797 15 1749 0 C 1700 -16 1652 -25 1604 -25 C 1492 -25 1410 2 1357 56 C 1304 110 1278 192 1278 303 L 1278 905 L 1112 905 L 1112 1083 L 1278 1083 L 1278 1167 C 1278 1202 1273 1234 1264 1263 C 1255 1292 1242 1317 1224 1337 C 1206 1357 1185 1373 1159 1384 C 1133 1395 1104 1401 1071 1401 C 1041 1401 1013 1396 989 1386 C 964 1376 943 1362 925 1345 C 907 1327 894 1307 884 1284 C 874 1260 870 1235 870 1208 C 870 1164 880 1122 901 1083 C 922 1044 951 1007 987 971 L 870 821 C 854 833 837 844 819 855 C 801 865 783 875 763 883 C 743 891 721 898 699 903 C 676 908 652 911 627 911 C 583 911 544 902 508 886 C 472 869 440 845 414 814 C 387 783 366 745 352 701 C 337 657 330 607 330 551 C 330 491 337 438 351 391 C 365 344 386 304 412 272 C 438 239 470 214 506 197 C 542 180 583 172 627 172 C 681 172 727 180 767 198 C 807 215 845 239 881 270 L 1016 127 C 986 101 957 78 927 59 C 897 39 866 23 834 11 C 802 -1 768 -11 733 -17 C 698 -23 661 -27 621 -27 C 543 -27 471 -13 406 12 C 340 38 284 76 237 126 C 190 176 153 236 127 308 C 101 380 88 461 88 551 Z" unicode="" />
<glyph horiz-adv-x="973" d="M 561 43 C 561 -45 548 -119 523 -179 C 497 -239 461 -288 413 -325 C 365 -362 306 -389 237 -405 C 167 -421 88 -430 0 -430 L 0 -240 C 64 -240 117 -234 159 -222 C 200 -210 232 -193 256 -169 C 280 -145 296 -116 305 -81 C 314 -46 319 -5 319 41 L 319 1137 C 319 1214 329 1279 351 1333 C 373 1387 403 1430 442 1464 C 480 1498 526 1522 580 1538 C 634 1553 692 1561 756 1561 C 794 1561 832 1557 871 1549 C 909 1541 943 1532 973 1522 L 913 1346 C 891 1352 868 1357 844 1362 C 820 1367 792 1370 762 1370 C 692 1370 641 1350 609 1312 C 577 1273 561 1215 561 1139 L 561 43 Z" unicode="∫" />
<glyph horiz-adv-x="2179" d="M 901 893 L 461 893 L 461 0 L 223 0 L 223 893 L 41 893 L 41 1071 L 223 1071 L 223 1128 C 223 1202 233 1266 254 1319 C 275 1372 305 1416 343 1450 C 381 1484 428 1508 483 1524 C 537 1540 598 1548 666 1548 C 734 1548 798 1539 856 1521 C 914 1503 968 1480 1018 1450 C 1056 1486 1102 1512 1156 1529 C 1210 1545 1271 1554 1339 1554 C 1410 1554 1475 1545 1533 1527 C 1591 1509 1646 1486 1696 1456 C 1735 1492 1781 1518 1834 1535 C 1886 1552 1945 1561 2009 1561 C 2048 1561 2086 1557 2123 1549 C 2160 1541 2194 1532 2224 1522 L 2165 1350 C 2144 1356 2122 1361 2098 1365 C 2074 1369 2046 1372 2015 1372 C 1947 1372 1897 1352 1865 1314 C 1833 1275 1817 1217 1817 1139 L 1817 1071 L 2103 1071 L 2103 893 L 1817 893 L 1817 0 L 1579 0 L 1579 893 L 1139 893 L 1139 0 L 901 0 L 901 893 Z M 1139 1071 L 1579 1071 L 1579 1128 C 1579 1163 1581 1196 1585 1227 C 1589 1257 1596 1285 1606 1311 C 1570 1330 1532 1345 1490 1355 C 1448 1365 1404 1370 1358 1370 C 1281 1370 1225 1350 1191 1310 C 1156 1270 1139 1211 1139 1133 L 1139 1071 Z M 461 1071 L 901 1071 L 901 1128 C 901 1196 909 1255 926 1305 C 890 1324 852 1339 811 1349 C 770 1359 727 1364 682 1364 C 604 1364 548 1345 513 1307 C 478 1269 461 1211 461 1133 L 461 1071 Z" unicode="" />
<glyph horiz-adv-x="1843" d="M 1661 657 L 991 61 L 854 215 L 1266 565 L 844 555 L 182 555 L 182 760 L 844 760 L 1266 748 L 858 1100 L 991 1253 L 1661 657 Z" unicode="→" />
<glyph horiz-adv-x="1309" d="M 295 1524 L 461 1524 L 664 1327 L 668 1327 L 870 1524 L 1038 1524 L 788 1196 L 545 1196 L 295 1524 Z" unicode="ˇ" />
<glyph horiz-adv-x="1135" d="M 432 1243 C 392 1231 353 1214 316 1192 C 279 1170 245 1143 213 1112 L 76 1249 C 138 1313 210 1364 291 1402 C 372 1439 460 1458 555 1458 C 625 1458 690 1449 748 1431 C 806 1413 855 1388 896 1356 C 937 1323 969 1283 992 1237 C 1014 1190 1026 1138 1026 1081 C 1026 1035 1020 994 1009 959 C 997 923 982 892 964 864 C 945 836 924 812 900 791 C 876 769 852 749 828 730 C 803 711 779 693 755 675 C 731 657 709 637 691 617 C 672 597 657 574 645 550 C 633 525 627 497 627 465 L 625 432 L 455 432 L 432 1243 Z M 401 240 L 670 240 L 670 0 L 401 0 L 401 240 Z M 805 1077 C 805 1119 791 1155 764 1186 C 737 1217 699 1239 651 1251 L 580 721 C 593 744 608 765 625 783 C 641 801 658 819 675 836 C 691 852 707 868 723 884 C 739 900 753 917 765 936 C 777 954 786 975 794 998 C 801 1020 805 1047 805 1077 Z" unicode="‽" />
<glyph horiz-adv-x="2025" d="M 223 893 L 41 893 L 41 1071 L 223 1071 L 223 1130 C 223 1203 234 1267 257 1321 C 279 1375 311 1419 353 1455 C 394 1491 444 1517 503 1535 C 562 1552 628 1561 702 1561 C 776 1561 842 1552 901 1535 C 959 1517 1009 1491 1050 1455 C 1091 1419 1123 1373 1145 1319 C 1167 1264 1178 1200 1178 1126 L 1178 956 C 1221 1004 1270 1041 1326 1069 C 1381 1096 1441 1110 1505 1110 C 1569 1110 1627 1098 1680 1074 C 1732 1050 1778 1014 1816 968 C 1854 921 1883 863 1904 795 C 1924 726 1935 647 1935 559 C 1935 464 1924 380 1904 307 C 1883 234 1854 173 1816 124 C 1778 74 1733 37 1680 11 C 1626 -14 1567 -27 1503 -27 C 1467 -27 1433 -23 1401 -15 C 1369 -7 1340 4 1312 18 C 1284 32 1257 48 1233 68 C 1208 87 1185 108 1165 131 L 1149 0 L 940 0 L 940 1128 C 940 1208 921 1269 883 1310 C 845 1351 784 1372 700 1372 C 616 1372 555 1351 517 1310 C 479 1269 461 1208 461 1128 L 461 1071 L 752 1071 L 752 893 L 461 893 L 461 0 L 223 0 L 223 893 Z M 1178 295 C 1198 271 1219 251 1239 235 C 1259 218 1280 204 1302 194 C 1323 183 1345 175 1369 170 C 1393 164 1418 162 1446 162 C 1486 162 1522 171 1554 189 C 1585 207 1611 232 1632 266 C 1653 300 1669 341 1680 390 C 1690 439 1696 495 1696 557 C 1696 677 1675 767 1633 829 C 1591 891 1528 922 1446 922 C 1393 922 1345 910 1301 886 C 1257 862 1216 827 1178 782 L 1178 295 Z" unicode="" />
<glyph horiz-adv-x="1415" d="M 825 1778 L 1032 1778 L 1032 1569 L 825 1569 L 825 1778 Z M 383 1778 L 590 1778 L 590 1569 L 383 1569 L 383 1778 Z M 584 580 L 43 1434 L 332 1434 L 707 817 L 711 817 L 1087 1434 L 1372 1434 L 831 580 L 831 0 L 584 0 L 584 580 Z" unicode="Ÿ" />
<glyph horiz-adv-x="1501" d="M 102 272 L 373 272 L 373 0 L 102 0 L 102 272 Z M 614 272 L 885 272 L 885 0 L 614 0 L 614 272 Z M 1128 272 L 1399 272 L 1399 0 L 1128 0 L 1128 272 Z" unicode="…" />
<glyph horiz-adv-x="1311" d="M 113 168 L 113 391 L 891 637 L 113 864 L 113 1085 L 1233 758 L 1233 520 L 113 168 Z M 1233 0 L 113 0 L 113 168 L 1233 168 L 1233 0 Z" unicode="≥" />
<glyph horiz-adv-x="1964" d="M 223 893 L 41 893 L 41 1071 L 223 1071 L 223 1130 C 223 1203 234 1267 257 1321 C 279 1375 311 1419 353 1455 C 394 1491 444 1517 503 1535 C 562 1552 628 1561 702 1561 C 776 1561 842 1552 901 1535 C 959 1517 1009 1491 1050 1455 C 1091 1419 1123 1373 1145 1319 C 1167 1264 1178 1200 1178 1126 L 1178 580 L 1604 1083 L 1868 1083 L 1546 721 L 1931 0 L 1657 0 L 1391 545 L 1178 305 L 1178 0 L 940 0 L 940 1128 C 940 1208 921 1269 883 1310 C 845 1351 784 1372 700 1372 C 616 1372 555 1351 517 1310 C 479 1269 461 1208 461 1128 L 461 1071 L 752 1071 L 752 893 L 461 893 L 461 0 L 223 0 L 223 893 Z" unicode="" />
<glyph horiz-adv-x="1296" d="M 223 893 L 41 893 L 41 1071 L 223 1071 L 223 1130 C 223 1206 233 1271 254 1325 C 275 1379 305 1424 345 1458 C 385 1492 433 1518 491 1534 C 548 1550 613 1559 686 1559 C 727 1559 768 1555 810 1549 C 851 1542 891 1533 930 1522 C 969 1510 1006 1497 1042 1482 C 1078 1466 1111 1450 1141 1432 L 1051 1270 C 1027 1282 1002 1295 974 1307 C 946 1319 916 1330 886 1340 C 856 1349 825 1357 793 1363 C 761 1369 729 1372 698 1372 C 614 1372 554 1352 517 1313 C 479 1273 461 1211 461 1126 L 461 1071 L 750 1071 L 750 893 L 461 893 L 461 0 L 223 0 L 223 893 Z M 913 1073 L 1151 1073 L 1151 -33 C 1151 -103 1142 -164 1126 -214 C 1109 -264 1085 -305 1055 -337 C 1024 -369 987 -392 943 -407 C 899 -422 849 -430 795 -430 C 757 -430 722 -426 690 -419 C 658 -412 633 -405 616 -399 L 664 -215 C 680 -220 697 -224 715 -228 C 733 -231 751 -233 770 -233 C 792 -233 813 -229 831 -223 C 849 -216 864 -205 876 -190 C 888 -175 897 -156 903 -132 C 909 -108 913 -78 913 -43 L 913 1073 Z" unicode="" />
<glyph horiz-adv-x="1974" d="M 901 893 L 461 893 L 461 0 L 223 0 L 223 893 L 41 893 L 41 1071 L 223 1071 L 223 1128 C 223 1202 233 1266 254 1319 C 275 1372 305 1416 343 1450 C 381 1484 428 1508 483 1524 C 537 1540 598 1548 666 1548 C 734 1548 797 1539 855 1521 C 913 1503 966 1480 1016 1452 C 1056 1489 1105 1516 1163 1533 C 1221 1550 1288 1559 1364 1559 C 1405 1559 1446 1555 1488 1549 C 1529 1542 1569 1533 1608 1522 C 1646 1510 1683 1497 1719 1482 C 1754 1466 1787 1450 1817 1432 L 1724 1270 C 1702 1282 1677 1295 1650 1307 C 1622 1319 1593 1330 1563 1340 C 1533 1349 1502 1357 1470 1363 C 1438 1369 1406 1372 1376 1372 C 1292 1372 1232 1352 1195 1313 C 1157 1273 1139 1211 1139 1126 L 1139 1071 L 1425 1071 L 1425 893 L 1139 893 L 1139 0 L 901 0 L 901 893 Z M 1589 1073 L 1827 1073 L 1827 0 L 1589 0 L 1589 1073 Z M 461 1071 L 901 1071 L 901 1130 C 901 1197 909 1255 926 1305 C 890 1324 852 1339 811 1349 C 770 1359 727 1364 682 1364 C 604 1364 548 1345 513 1307 C 478 1269 461 1211 461 1133 L 461 1071 Z" unicode="ﬃ" />
<glyph horiz-adv-x="1843" d="M 852 1202 L 985 1049 L 578 696 L 999 709 L 1661 709 L 1661 504 L 999 504 L 578 514 L 989 164 L 852 10 L 182 606 L 852 1202 Z" unicode="←" />
<glyph horiz-adv-x="1843" d="M 326 614 L 922 1286 L 1518 614 L 1364 481 L 1012 889 L 1024 467 L 1024 -195 L 819 -195 L 819 467 L 831 889 L 479 481 L 326 614 Z" unicode="↑" />
<glyph horiz-adv-x="844" d="M -55 -215 C -36 -221 -15 -226 7 -231 C 29 -235 53 -238 78 -238 C 99 -238 118 -234 135 -228 C 151 -222 165 -211 177 -197 C 189 -182 198 -163 204 -139 C 210 -115 213 -85 213 -51 L 213 494 L 29 494 L 29 676 L 213 676 L 213 739 C 213 816 223 882 245 936 C 266 990 296 1033 334 1067 C 372 1101 418 1125 471 1140 C 523 1155 581 1163 645 1163 C 684 1163 723 1159 761 1151 C 799 1143 833 1134 862 1124 L 803 948 C 781 954 758 960 734 965 C 710 970 682 973 651 973 C 583 973 533 953 502 915 C 470 876 455 818 455 741 L 455 674 L 741 674 L 741 494 L 455 494 L 455 -51 C 455 -121 447 -181 431 -229 C 415 -277 392 -315 362 -345 C 332 -375 295 -396 251 -409 C 207 -421 158 -428 102 -428 C 66 -428 29 -424 -8 -418 C -46 -411 -81 -401 -115 -389 L -55 -215 L -55 -215 Z" unicode="ƒ" />
<glyph horiz-adv-x="1843" d="M 479 711 L 831 303 L 819 725 L 819 1386 L 1024 1386 L 1024 725 L 1012 303 L 1364 711 L 1518 578 L 922 -94 L 326 578 L 479 711 Z" unicode="↓" />
<glyph horiz-adv-x="2701" d="M 901 893 L 461 893 L 461 0 L 223 0 L 223 893 L 41 893 L 41 1071 L 223 1071 L 223 1128 C 223 1202 233 1266 254 1319 C 275 1372 305 1416 343 1450 C 381 1484 428 1508 483 1524 C 537 1540 598 1548 666 1548 C 736 1548 800 1538 859 1520 C 918 1502 972 1478 1022 1448 C 1064 1486 1115 1514 1175 1533 C 1235 1551 1304 1561 1380 1561 C 1454 1561 1520 1552 1578 1535 C 1636 1517 1686 1491 1727 1455 C 1767 1419 1798 1373 1820 1319 C 1842 1264 1853 1200 1853 1126 L 1853 956 C 1897 1004 1947 1041 2002 1069 C 2057 1096 2117 1110 2181 1110 C 2245 1110 2304 1098 2357 1074 C 2410 1050 2456 1014 2494 968 C 2532 921 2561 863 2582 795 C 2602 726 2613 647 2613 559 C 2613 464 2602 380 2582 307 C 2561 234 2532 173 2494 124 C 2456 74 2411 37 2358 11 C 2304 -14 2245 -27 2181 -27 C 2145 -27 2111 -23 2079 -15 C 2047 -7 2017 4 1989 18 C 1961 32 1934 48 1910 68 C 1886 87 1863 108 1843 131 L 1827 0 L 1616 0 L 1616 1128 C 1616 1209 1597 1270 1559 1311 C 1521 1351 1461 1372 1378 1372 C 1294 1372 1233 1351 1195 1310 C 1157 1269 1139 1208 1139 1128 L 1139 1071 L 1427 1071 L 1427 893 L 1139 893 L 1139 0 L 901 0 L 901 893 Z M 1853 295 C 1895 249 1937 215 1979 194 C 2021 172 2068 162 2122 162 C 2163 162 2199 171 2231 189 C 2263 207 2289 232 2310 266 C 2331 300 2347 341 2358 390 C 2368 439 2374 495 2374 557 C 2374 677 2352 767 2310 829 C 2268 891 2205 922 2122 922 C 2070 922 2022 910 1978 886 C 1934 862 1893 827 1853 782 L 1853 295 Z M 461 1071 L 901 1071 L 901 1130 C 901 1163 903 1194 907 1223 C 911 1251 918 1279 928 1305 C 892 1324 854 1339 813 1349 C 771 1359 728 1364 682 1364 C 604 1364 548 1345 513 1307 C 478 1269 461 1211 461 1133 L 461 1071 Z" unicode="" />
<glyph horiz-adv-x="2677" d="M 901 893 L 461 893 L 461 0 L 223 0 L 223 893 L 41 893 L 41 1071 L 223 1071 L 223 1128 C 223 1202 233 1266 254 1319 C 275 1372 305 1416 343 1450 C 381 1484 428 1508 483 1524 C 537 1540 598 1548 666 1548 C 736 1548 800 1538 859 1520 C 918 1502 972 1478 1022 1448 C 1064 1486 1115 1514 1175 1533 C 1235 1551 1304 1561 1380 1561 C 1454 1561 1520 1552 1578 1535 C 1636 1517 1686 1491 1727 1455 C 1767 1419 1798 1373 1820 1319 C 1842 1264 1853 1200 1853 1126 L 1853 954 C 1873 975 1896 995 1921 1014 C 1946 1033 1973 1050 2001 1064 C 2029 1078 2059 1089 2091 1097 C 2123 1105 2156 1110 2191 1110 C 2251 1110 2304 1100 2348 1082 C 2392 1064 2428 1038 2457 1004 C 2485 970 2507 929 2521 881 C 2535 833 2542 779 2542 721 L 2542 0 L 2304 0 L 2304 725 C 2304 755 2300 782 2294 806 C 2288 830 2278 851 2265 869 C 2251 886 2234 899 2212 909 C 2190 919 2164 924 2134 924 C 2078 924 2026 911 1980 885 C 1933 859 1891 823 1853 776 L 1853 0 L 1616 0 L 1616 1128 C 1616 1209 1597 1270 1559 1311 C 1521 1351 1461 1372 1378 1372 C 1294 1372 1233 1351 1195 1310 C 1157 1269 1139 1208 1139 1128 L 1139 1071 L 1427 1071 L 1427 893 L 1139 893 L 1139 0 L 901 0 L 901 893 Z M 461 1071 L 901 1071 L 901 1130 C 901 1163 903 1194 907 1223 C 911 1251 918 1279 928 1305 C 892 1324 854 1339 813 1349 C 771 1359 728 1364 682 1364 C 604 1364 548 1345 513 1307 C 478 1269 461 1211 461 1133 L 461 1071 Z" unicode="" />
<glyph horiz-adv-x="1843" d="M 360 1149 L 1255 1096 L 1243 893 L 705 934 L 1012 643 L 1481 174 L 1333 29 L 868 500 L 578 805 L 618 266 L 416 254 L 360 1149 Z" unicode="↖" />
<glyph horiz-adv-x="1843" d="M 1425 254 L 1223 266 L 1264 805 L 973 500 L 508 29 L 360 174 L 829 643 L 1137 934 L 598 893 L 586 1096 L 1481 1149 L 1425 254 Z" unicode="↗" />
<glyph horiz-adv-x="1843" d="M 1481 49 L 586 102 L 598 305 L 1137 264 L 829 555 L 360 1024 L 508 1169 L 973 698 L 1264 393 L 1223 932 L 1425 944 L 1481 49 Z" unicode="↘" />
<glyph horiz-adv-x="1364" d="M 1202 1434 L 1372 1434 L 162 0 L -10 0 L 1202 1434 Z" unicode="⁄" />
<glyph horiz-adv-x="1843" d="M 205 1434 L 1636 1434 L 1636 0 L 205 0 L 205 1434 Z" unicode="■" />
<glyph horiz-adv-x="1843" d="M 205 1434 L 1636 1434 L 1636 0 L 205 0 L 205 1434 Z M 1511 125 L 1511 1309 L 330 1309 L 330 125 L 1511 125 Z" unicode="□" />
<glyph horiz-adv-x="1843" d="M 205 1434 L 1636 1434 L 1636 0 L 205 0 L 205 1434 Z M 1511 125 L 1511 1309 L 330 1309 L 330 125 L 1511 125 Z M 791 715 L 518 1001 L 653 1130 L 922 848 L 1190 1130 L 1325 1001 L 1053 715 L 1325 428 L 1190 299 L 922 582 L 653 299 L 518 428 L 791 715 Z" unicode="▣" />
<glyph horiz-adv-x="1262" d="M 90 651 C 88 660 88 669 88 677 C 88 685 88 694 88 702 C 88 744 94 784 107 820 C 120 856 139 888 164 915 C 188 941 219 962 255 977 C 291 991 331 999 377 999 C 415 999 450 994 482 986 C 514 978 543 967 571 955 C 599 942 625 928 650 914 C 675 899 700 885 724 873 C 748 860 773 849 798 841 C 822 833 849 829 877 829 C 917 829 947 842 967 868 C 986 894 994 927 991 967 L 1171 967 C 1172 957 1173 948 1173 940 C 1173 932 1174 923 1174 915 C 1174 871 1167 832 1154 796 C 1141 760 1122 729 1098 703 C 1073 677 1043 656 1007 642 C 971 628 930 621 885 621 C 847 621 812 625 780 633 C 748 641 719 652 691 664 C 663 676 637 690 613 704 C 588 718 563 732 539 744 C 515 756 490 767 465 775 C 440 783 414 788 387 788 C 345 788 314 775 294 749 C 274 723 266 691 270 651 L 90 651 Z M 90 119 C 88 128 88 136 88 144 C 88 152 88 160 88 168 C 88 210 94 250 107 286 C 120 322 139 354 164 380 C 188 406 219 426 255 441 C 291 455 331 463 377 463 C 415 463 450 458 482 450 C 514 442 543 431 571 419 C 599 407 625 393 650 379 C 675 364 700 350 724 338 C 748 326 773 315 798 307 C 822 299 849 295 877 295 C 917 295 947 307 967 333 C 986 359 994 392 991 432 L 1171 432 C 1172 422 1173 413 1173 405 C 1173 397 1174 389 1174 381 C 1174 337 1167 298 1154 262 C 1141 226 1122 194 1098 168 C 1073 141 1043 120 1007 106 C 971 91 930 84 885 84 C 847 84 812 88 780 96 C 748 104 719 115 691 128 C 663 140 637 154 613 169 C 588 183 563 197 539 210 C 515 222 490 233 465 241 C 440 249 414 254 387 254 C 345 254 314 241 294 216 C 274 190 266 158 270 119 L 90 119 Z" unicode="≈" />
<glyph horiz-adv-x="1843" d="M 922 1186 L 1595 51 L 246 51 L 922 1186 Z" unicode="▲" />
<glyph horiz-adv-x="1843" d="M 354 -70 L 354 1280 L 1489 606 L 354 -70 Z" unicode="▶" />
<glyph horiz-adv-x="1843" d="M 920 39 L 246 1174 L 1595 1174 L 920 39 Z" unicode="▼" />
<glyph horiz-adv-x="1585" d="M 1171 940 L 1171 393 C 1171 354 1174 321 1182 295 C 1190 269 1202 247 1220 231 C 1238 215 1261 203 1290 196 C 1318 189 1354 186 1397 186 L 1397 -8 C 1310 -8 1237 -1 1178 13 C 1118 27 1070 49 1034 81 C 998 113 972 154 956 205 C 940 256 932 319 932 393 L 932 940 L 637 940 L 637 0 L 397 0 L 397 940 L 121 940 L 121 1139 L 1464 1139 L 1464 940 L 1171 940 Z" unicode="π" />
<glyph horiz-adv-x="1262" d="M 88 893 L 776 893 L 909 1085 L 1092 1085 L 961 893 L 1174 893 L 1174 690 L 823 690 L 625 395 L 1174 395 L 1174 193 L 489 193 L 356 0 L 174 0 L 305 193 L 88 193 L 88 395 L 444 395 L 643 690 L 88 690 L 88 893 Z" unicode="≠" />
<glyph horiz-adv-x="1843" d="M 702 715 C 702 685 707 656 719 630 C 731 604 746 581 766 561 C 786 541 809 526 835 515 C 861 503 890 498 920 498 C 950 498 978 503 1005 515 C 1031 526 1054 541 1074 561 C 1094 581 1109 604 1121 630 C 1133 656 1139 685 1139 715 C 1139 745 1133 773 1121 800 C 1109 826 1094 850 1074 870 C 1054 890 1031 905 1005 917 C 978 928 950 934 920 934 C 890 934 861 928 835 917 C 809 905 786 890 766 870 C 746 850 731 826 719 800 C 707 773 702 745 702 715 Z M 440 715 C 440 781 452 844 477 903 C 502 961 536 1012 580 1056 C 623 1099 674 1133 732 1158 C 790 1183 853 1196 920 1196 C 986 1196 1049 1183 1108 1158 C 1166 1133 1217 1099 1261 1056 C 1304 1012 1338 961 1363 903 C 1388 844 1401 781 1401 715 C 1401 648 1388 586 1363 528 C 1338 470 1304 419 1261 376 C 1217 332 1166 298 1108 273 C 1049 248 986 236 920 236 C 853 236 790 248 732 273 C 674 298 623 332 580 376 C 536 419 502 470 477 528 C 452 586 440 648 440 715 Z M 178 715 C 178 783 186 848 204 912 C 222 975 247 1034 279 1089 C 311 1144 350 1194 395 1240 C 440 1285 490 1324 545 1356 C 600 1388 659 1413 722 1431 C 785 1449 851 1458 920 1458 C 988 1458 1053 1449 1117 1431 C 1180 1413 1239 1388 1294 1356 C 1349 1324 1399 1285 1445 1240 C 1490 1194 1529 1144 1561 1089 C 1593 1034 1618 975 1636 912 C 1654 848 1663 783 1663 715 C 1663 647 1654 581 1636 518 C 1618 454 1593 395 1561 340 C 1529 285 1490 235 1445 190 C 1399 145 1349 106 1294 74 C 1239 42 1180 17 1117 0 C 1053 -18 988 -27 920 -27 C 852 -27 786 -18 723 0 C 659 17 600 42 545 74 C 490 106 440 145 395 190 C 350 235 311 285 279 340 C 247 395 222 454 204 517 C 186 580 178 646 178 715 Z M 305 715 C 305 629 321 549 353 475 C 385 400 430 335 486 279 C 542 223 607 178 682 146 C 756 114 836 98 922 98 C 978 98 1033 105 1086 120 C 1138 134 1187 155 1233 182 C 1279 209 1320 241 1358 279 C 1396 316 1428 357 1455 403 C 1482 449 1503 498 1518 551 C 1532 603 1540 658 1540 715 C 1540 771 1532 826 1518 879 C 1503 931 1482 980 1455 1026 C 1428 1072 1396 1113 1358 1151 C 1320 1189 1279 1221 1233 1248 C 1187 1275 1138 1296 1086 1311 C 1033 1325 978 1333 922 1333 C 865 1333 810 1325 758 1311 C 705 1296 656 1275 610 1248 C 564 1221 523 1189 486 1151 C 448 1113 416 1072 389 1026 C 362 980 341 931 327 879 C 312 826 305 771 305 715 Z" unicode="◉" />
<glyph horiz-adv-x="1292" d="M 645 260 L 961 719 L 645 1180 L 334 719 L 645 260 Z M 645 1464 L 1159 719 L 645 -27 L 133 719 L 645 1464 Z" unicode="◊" />
<glyph horiz-adv-x="1843" d="M 178 715 C 178 783 186 848 204 912 C 222 975 247 1034 279 1089 C 311 1144 350 1194 395 1240 C 440 1285 490 1324 545 1356 C 600 1388 659 1413 722 1431 C 785 1449 851 1458 920 1458 C 988 1458 1053 1449 1117 1431 C 1180 1413 1239 1388 1294 1356 C 1349 1324 1399 1285 1445 1240 C 1490 1194 1529 1144 1561 1089 C 1593 1034 1618 975 1636 912 C 1654 848 1663 783 1663 715 C 1663 647 1654 581 1636 518 C 1618 454 1593 395 1561 340 C 1529 285 1490 235 1445 190 C 1399 145 1349 106 1294 74 C 1239 42 1180 17 1117 0 C 1053 -18 988 -27 920 -27 C 852 -27 786 -18 723 0 C 659 17 600 42 545 74 C 490 106 440 145 395 190 C 350 235 311 285 279 340 C 247 395 222 454 204 517 C 186 580 178 646 178 715 Z M 301 713 C 301 627 317 547 350 472 C 382 396 427 330 483 274 C 539 218 605 173 681 141 C 756 108 836 92 922 92 C 978 92 1033 99 1086 114 C 1139 129 1189 150 1235 177 C 1281 203 1323 236 1361 274 C 1399 312 1431 354 1458 400 C 1485 446 1506 495 1521 548 C 1536 600 1544 655 1544 713 C 1544 798 1527 878 1495 954 C 1462 1030 1417 1096 1361 1152 C 1305 1208 1239 1253 1163 1286 C 1087 1318 1007 1335 922 1335 C 864 1335 809 1327 757 1312 C 704 1297 655 1276 609 1249 C 563 1222 521 1190 483 1152 C 445 1114 412 1072 386 1026 C 359 980 338 930 323 877 C 308 824 301 769 301 713 Z" unicode="○" />
<glyph horiz-adv-x="1843" d="M 178 715 C 178 783 186 848 204 912 C 222 975 247 1034 279 1089 C 311 1144 350 1194 395 1240 C 440 1285 490 1324 545 1356 C 600 1388 659 1413 722 1431 C 785 1449 851 1458 920 1458 C 988 1458 1053 1449 1117 1431 C 1180 1413 1239 1388 1294 1356 C 1349 1324 1399 1285 1445 1240 C 1490 1194 1529 1144 1561 1089 C 1593 1034 1618 975 1636 912 C 1654 848 1663 783 1663 715 C 1663 647 1654 581 1636 518 C 1618 454 1593 395 1561 340 C 1529 285 1490 235 1445 190 C 1399 145 1349 106 1294 74 C 1239 42 1180 17 1117 0 C 1053 -18 988 -27 920 -27 C 852 -27 786 -18 723 0 C 659 17 600 42 545 74 C 490 106 440 145 395 190 C 350 235 311 285 279 340 C 247 395 222 454 204 517 C 186 580 178 646 178 715 Z M 301 713 C 301 627 317 547 350 472 C 382 396 427 330 483 274 C 539 218 605 173 681 141 C 756 108 836 92 922 92 C 978 92 1033 99 1086 114 C 1139 129 1189 150 1235 177 C 1281 203 1323 236 1361 274 C 1399 312 1431 354 1458 400 C 1485 446 1506 495 1521 548 C 1536 600 1544 655 1544 713 C 1544 798 1527 878 1495 954 C 1462 1030 1417 1096 1361 1152 C 1305 1208 1239 1253 1163 1286 C 1087 1318 1007 1335 922 1335 C 864 1335 809 1327 757 1312 C 704 1297 655 1276 609 1249 C 563 1222 521 1190 483 1152 C 445 1114 412 1072 386 1026 C 359 980 338 930 323 877 C 308 824 301 769 301 713 Z M 791 715 L 518 1001 L 653 1130 L 922 848 L 1190 1130 L 1325 1001 L 1053 715 L 1325 428 L 1190 299 L 922 582 L 653 299 L 518 428 L 791 715 Z" unicode="◍" />
<glyph horiz-adv-x="1843" d="M 829 715 C 829 690 837 669 855 652 C 872 635 894 627 920 627 C 944 627 965 635 983 652 C 1001 669 1010 690 1010 715 C 1010 727 1007 739 1003 751 C 998 762 991 772 983 780 C 975 788 965 795 954 800 C 943 804 932 807 920 807 C 894 807 872 798 855 780 C 837 762 829 740 829 715 Z M 702 715 C 702 745 707 773 719 800 C 731 826 746 850 766 870 C 786 890 809 905 835 917 C 861 928 890 934 920 934 C 950 934 978 928 1005 917 C 1031 905 1054 890 1074 870 C 1094 850 1109 826 1121 800 C 1133 773 1139 745 1139 715 C 1139 685 1133 656 1121 630 C 1109 604 1094 581 1074 561 C 1054 541 1031 526 1005 515 C 978 503 950 498 920 498 C 890 498 861 503 835 515 C 809 526 786 541 766 561 C 746 581 731 604 719 630 C 707 656 702 685 702 715 Z M 440 715 C 440 781 452 844 477 903 C 502 961 536 1012 580 1056 C 623 1099 674 1133 732 1158 C 790 1183 853 1196 920 1196 C 986 1196 1049 1183 1108 1158 C 1166 1133 1217 1099 1261 1056 C 1304 1012 1338 961 1363 903 C 1388 844 1401 781 1401 715 C 1401 648 1388 586 1363 528 C 1338 470 1304 419 1261 376 C 1217 332 1166 298 1108 273 C 1049 248 986 236 920 236 C 853 236 790 248 732 273 C 674 298 623 332 580 376 C 536 419 502 470 477 528 C 452 586 440 648 440 715 Z M 567 715 C 567 666 576 620 594 577 C 612 534 638 497 670 465 C 702 433 739 407 782 389 C 825 371 871 362 920 362 C 968 362 1014 371 1057 389 C 1100 407 1138 433 1170 465 C 1202 497 1227 534 1246 577 C 1264 620 1274 666 1274 715 C 1274 763 1264 809 1246 852 C 1227 895 1202 933 1170 965 C 1138 997 1100 1022 1057 1041 C 1014 1059 968 1069 920 1069 C 871 1069 825 1059 782 1041 C 739 1022 702 997 670 965 C 638 933 612 895 594 852 C 576 809 567 763 567 715 Z M 178 715 C 178 783 186 848 204 912 C 222 975 247 1034 279 1089 C 311 1144 350 1194 395 1240 C 440 1285 490 1324 545 1356 C 600 1388 659 1413 722 1431 C 785 1449 851 1458 920 1458 C 988 1458 1053 1449 1117 1431 C 1180 1413 1239 1388 1294 1356 C 1349 1324 1399 1285 1445 1240 C 1490 1194 1529 1144 1561 1089 C 1593 1034 1618 975 1636 912 C 1654 848 1663 783 1663 715 C 1663 647 1654 581 1636 518 C 1618 454 1593 395 1561 340 C 1529 285 1490 235 1445 190 C 1399 145 1349 106 1294 74 C 1239 42 1180 17 1117 0 C 1053 -18 988 -27 920 -27 C 852 -27 786 -18 723 0 C 659 17 600 42 545 74 C 490 106 440 145 395 190 C 350 235 311 285 279 340 C 247 395 222 454 204 517 C 186 580 178 646 178 715 Z M 305 715 C 305 629 321 549 353 475 C 385 400 430 335 486 279 C 542 223 607 178 682 146 C 756 114 836 98 922 98 C 978 98 1033 105 1086 120 C 1138 134 1187 155 1233 182 C 1279 209 1320 241 1358 279 C 1396 316 1428 357 1455 403 C 1482 449 1503 498 1518 551 C 1532 603 1540 658 1540 715 C 1540 771 1532 826 1518 879 C 1503 931 1482 980 1455 1026 C 1428 1072 1396 1113 1358 1151 C 1320 1189 1279 1221 1233 1248 C 1187 1275 1138 1296 1086 1311 C 1033 1325 978 1333 922 1333 C 865 1333 810 1325 758 1311 C 705 1296 656 1275 610 1248 C 564 1221 523 1189 486 1151 C 448 1113 416 1072 389 1026 C 362 980 341 931 327 879 C 312 826 305 771 305 715 Z" unicode="◎" />
<glyph horiz-adv-x="1843" d="M 178 715 C 178 783 186 848 204 912 C 222 975 247 1034 279 1089 C 311 1144 350 1194 395 1240 C 440 1285 490 1324 545 1356 C 600 1388 659 1413 722 1431 C 785 1449 851 1458 920 1458 C 988 1458 1053 1449 1117 1431 C 1180 1413 1239 1388 1294 1356 C 1349 1324 1399 1285 1445 1240 C 1490 1194 1529 1144 1561 1089 C 1593 1034 1618 975 1636 912 C 1654 848 1663 783 1663 715 C 1663 647 1654 581 1636 518 C 1618 454 1593 395 1561 340 C 1529 285 1490 235 1445 190 C 1399 145 1349 106 1294 74 C 1239 42 1180 17 1117 0 C 1053 -18 988 -27 920 -27 C 852 -27 786 -18 723 0 C 659 17 600 42 545 74 C 490 106 440 145 395 190 C 350 235 311 285 279 340 C 247 395 222 454 204 517 C 186 580 178 646 178 715 Z" unicode="●" />
<glyph horiz-adv-x="1843" d="M 246 0 L 1567 1321 L 1567 0 L 246 0 Z" unicode="◢" />
<glyph horiz-adv-x="1843" d="M 276 0 L 276 1321 L 1597 0 L 276 0 Z" unicode="◣" />
<glyph horiz-adv-x="1843" d="M 1597 1434 L 276 113 L 276 1434 L 1597 1434 Z" unicode="◤" />
<glyph horiz-adv-x="1843" d="M 1567 1434 L 1567 113 L 246 1434 L 1567 1434 Z" unicode="◥" />
<glyph horiz-adv-x="977" d="M 375 829 L 412 1087 L 260 1065 L 106 1065 L 106 1268 L 260 1268 L 410 1245 L 375 1518 L 375 1546 L 602 1546 L 602 1518 L 565 1247 L 717 1268 L 870 1268 L 870 1065 L 717 1065 L 565 1090 L 602 829 L 602 557 L 375 557 L 375 829 Z" unicode="†" />
</font>
</defs>
</svg>
