<?xml version="1.0" standalone="no"?>
<!DOCTYPE svg PUBLIC "-//W3C//DTD SVG 1.1//EN" "http://www.w3.org/Graphics/SVG/1.1/DTD/svg11.dtd" >
<svg xmlns="http://www.w3.org/2000/svg">
<metadata>Generated by IcoMoon</metadata>
<defs>
<font id="icons" horiz-adv-x="512">
<font-face units-per-em="512" ascent="480" descent="-32" />
<missing-glyph horiz-adv-x="512" />
<glyph unicode="&#x20;" horiz-adv-x="256" d="" />
<glyph unicode="&#xe000;" glyph-name="linkedin" horiz-adv-x="554" d="M126.080-33.877v347.946h-119.040v-347.989l119.040 0.043zM66.56 361.6c41.557 0 67.371 26.795 67.371 60.203-0.811 34.133-25.814 60.074-66.603 60.074-40.704 0-67.328-25.941-67.328-60.117 0-31.744 27.733-59.52 67.413-60.203l-0.853 0.043zM192-33.877h119.125l-0.042 194.304c0 10.453 0.853 20.736 3.925 28.245 8.704 20.693 28.288 42.24 61.056 42.24 43.179 0 59.52-31.701 59.52-78.635v-186.155h119.125v199.553c0 106.923-58.709 156.629-137.088 156.629-64.256 0-92.459-34.859-108.203-58.667h0.854v50.432h-119.125c2.432-34.517-0.683-347.946-0.683-347.946h1.536z" />
<glyph unicode="&#xe001;" glyph-name="twitter" horiz-adv-x="597" d="M597.333 409.387c-22.187-9.813-45.909-16.469-70.912-19.413 25.557 15.275 45.056 39.381 54.315 68.267-23.936-14.165-50.304-24.405-78.379-29.952-22.442 23.892-54.442 38.954-90.069 38.954-68.096 0-123.477-55.296-123.477-124.374 0-8.021 0-20.053 4.096-28.16-102.614 5.163-193.536 54.315-254.464 128.982-10.752-18.219-16.768-39.424-16.768-60.16 0-44.117 20.053-80.213 56.107-102.741-20.139 0.639-39.254 6.186-55.937 15.445 0 0 0 0 0-1.536 0-60.16 44.16-108.288 100.267-120.32-10.453-2.774-21.205-4.352-32.555-4.352-7.851 0-15.701 0.768-23.211 2.304 15.829-48.128 60.16-84.267 116.309-84.267-42.325-33.195-95.488-52.821-153.259-52.821-10.027 0-19.755 0.597-29.397 1.707 54.571-36.096 120.32-56.149 188.459-56.149 227.072 0 351.275 188.075 351.275 351.275 0 5.333-0.171 10.667-0.384 15.872 20.438 15.017 41.899 35.071 57.984 61.439z" />
<glyph unicode="&#xe002;" glyph-name="tc-logo" horiz-adv-x="1024" d="M512 309.613v-341.613h512v170.387h-341.622v171.226zM512 480h-512v-170.387h170.387v-341.613h171.226v341.613h170.387zM682.378 480h341.622v-170.387h-341.622z" />
<glyph unicode="&#xe003;" glyph-name="stumbleupon" horiz-adv-x="669" d="M370.334 288.236l45.726-21.346 68.254 20.441v47.262c-2.364 80.541-68.255 145.21-149.427 145.21-80.896 0-146.55-64.276-149.464-144.345v-216.3c0-19.535-15.99-35.525-35.407-35.525-19.535 0-35.446 15.99-35.446 35.525l-0.040 91.609h-114.53c0 0 0-91.884 0-92.908 0-82.708 67.033-149.701 149.622-149.701 81.881 0 148.322 65.89 149.622 147.535l0.158 213.701c0 19.535 15.911 35.446 35.446 35.446 19.495 0 35.446-15.911 35.446-35.446l0.040-41.158zM555.166 210.806v-96.020c0-19.535-15.911-35.446-35.446-35.446-19.456 0-35.446 15.911-35.446 35.446l-0.040 94.248-68.254-20.48-45.725 21.425v-93.341c0.748-82.038 67.426-148.401 149.622-148.401 82.826 0 149.662 67.072 149.662 149.701 0 1.024 0 92.83 0 92.83l-114.373 0.038z" />
<glyph unicode="&#xe004;" glyph-name="rss" horiz-adv-x="494" d="M-7.287 207.855c63.573 0 123.136-25.207 168.038-70.076 44.954-44.834 70.007-106.445 70.007-169.745h98.15c0 186.351-151.091 337.954-336.657 337.954v-98.167l0.462 0.034zM-7.185 381.815c226.97 0 411.597-184.798 411.597-413.815h98.219c0.016 282.283-228.626 512-509.714 512v-98.185h-0.102zM-7.305 36.301c0-37.128 30.098-67.226 67.226-67.226s67.226 30.098 67.226 67.226c0 37.128-30.098 67.226-67.226 67.226s-67.226-30.098-67.226-67.226z" />
<glyph unicode="&#xe005;" glyph-name="quote" horiz-adv-x="752" d="M350.384 338.736c-57.392-10.56-108.72-27.168-108.72-61.92 0-28.736 40.72-34.784 67.888-58.88 21.104-19.616 48.272-49.824 48.272-105.696 0-87.584-70.976-144.944-167.568-144.944-101.168 0-190.256 63.424-190.256 209.888 0 188.752 114.752 286.912 350.336 303.52v-141.936l0.048-0.032zM744.48 338.736c-57.36-10.56-108.704-27.168-108.704-61.904 0-28.736 40.72-34.784 67.888-58.88 21.136-19.616 48.336-49.824 48.336-105.696 0-87.584-71.008-144.944-167.6-144.944-101.168 0-190.304 63.424-190.304 209.888-0.016 188.736 114.8 286.896 350.288 303.504v-141.936l0.096-0.032z" />
<glyph unicode="&#xe006;" glyph-name="mag" horiz-adv-x="476" d="M329.143 237.714q0 52.857-37.572 90.428t-90.428 37.571-90.428-37.571-37.572-90.428 37.572-90.428 90.428-37.572 90.428 37.572 37.572 90.428zM475.428 0q0-14.857-10.857-25.714t-25.714-10.857q-15.428 0-25.714 10.857l-98 97.714q-51.143-35.428-114-35.428-40.857 0-78.143 15.857t-64.285 42.857-42.857 64.286-15.857 78.143 15.857 78.143 42.857 64.285 64.285 42.857 78.143 15.857 78.143-15.857 64.286-42.857 42.857-64.285 15.857-78.143q0-62.857-35.428-114l98-98q10.572-10.572 10.572-25.714z" />
<glyph unicode="&#xe007;" glyph-name="itunes" horiz-adv-x="442" d="M70.545-32c-1.536 0-3.1 0.055-4.636 0.111-26.028 0.941-47.173 12.841-57.966 32.602-10.309 18.889-9.258 42.427 2.864 62.907 19.733 33.391 62.215 36.989 79.581 36.989 13.893 0 24.036-2.159 28.243-4.331l8.358-4.968-0.027 333.297c13.699 7.431 90.029 28.769 143.083 38.511 56.777 10.392 144.495 15.761 171.88 16.882v-394.849l-2.325-0.318c-6.628-17.962-29.71-59.724-90.472-59.724-0.623 0-1.757 0.055-2.339 0.111-0.623 0.055-1.508 0.111-2.117 0.111-40.379 1.093-61.357 24.258-67.446 45.623-7.334 25.891 3.363 52.791 27.399 68.497 19.414 12.703 39.244 19.11 59.005 19.11 20.688 0 30.928-7.32 31.066-7.403l6.186-5.272v199.112l-3.418-0.304c-1.467-0.055-151.704-7.016-237.153-41.61l-5.936-1.578v-4.207c0-2.325 2.975-237.374 2.975-268.343-0.069-28.769-35.079-60.956-86.805-60.956z" />
<glyph unicode="&#xe008;" glyph-name="hamburger" horiz-adv-x="551" d="M0 480h551.385v-118.154h-551.385zM0 283.077h551.385v-118.154h-551.385zM0 86.154h551.385v-118.154h-551.385z" />
<glyph unicode="&#xe009;" glyph-name="facebook" horiz-adv-x="236" d="M55.769-32v240.246h-65.339v86.528h65.339c0 0 0 35.446 0 73.846 0 58.093 38.675 111.38 127.606 111.38 35.879 0 62.11-3.702 62.11-3.348l-2.127-80.817c0 0-27.175 0.276-56.871 0.276-32.059 0-37.258-14.375-37.258-36.588 0-18.274 0 40.251 0-63.212h96.61l-4.175-86.411h-92.278v-240.246l-93.617-1.654z" />
<glyph unicode="&#xe00a;" glyph-name="google-plus" horiz-adv-x="597" d="M597.333 367.957h-106.325v106.326h-26.453v-106.326h-106.326v-26.581h106.326v-79.744h26.453v79.744h106.325zM258.688 187.904c-14.165 10.027-41.173 34.304-41.173 48.683 0 16.683 4.736 25.003 30.123 44.757 25.899 20.096 44.288 45.781 44.288 78.891 0 39.253-17.621 87.509-50.517 87.509h49.621l34.943 26.539c0 0-117.291 0-156.416 0-70.229 0-136.234-50.944-136.234-112.427 0-63.787 47.787-111.659 119.552-112.469 4.949 0 9.771 0.597 14.592 0.896-4.566-8.875-7.894-18.475-7.894-28.886 0-18.56 10.581-31.915 21.291-43.093-8.96 0-17.664-0.171-26.965 0-86.912 0-153.899-55.211-153.899-112.555 0-55.808 74.368-93.013 159.403-91.904 98.944 0 153.771 56.235 153.771 112.725 0.512 44.971-13.099 71.552-53.035 101.419l-1.451 0.043v-0.128zM175.019 266.325c-40.32 1.109-78.635 45.056-85.547 98.091-6.997 52.907 19.968 93.44 60.459 92.203 40.235 0 79.573-42.581 84.779-96.597 7.68-53.035-20.011-95.659-59.989-93.696l0.298 0.042v-0.043zM159.275-1.493c-59.989 0-103.381 37.973-103.381 83.669 0 44.715 53.717 81.963 113.835 81.28 13.995 0 26.581-2.603 39.851-5.291 32.555-23.851 55.808-34.517 63.787-61.355 1.108-5.247 2.558-10.623 2.558-16.085-2.773-47.659-32.171-82.219-117.205-82.304h0.597l-0.042 0.086z" />
<glyph unicode="&#xe00b;" glyph-name="email" horiz-adv-x="748" d="M746.378 444.711l-229.534-196.372-142.572-116.696-141.312 115.712-230.479 197.356c-1.496-4.293-2.481-8.861-2.481-11.854v-415.744c0-4.017 0-4.017 0-7.877 3.82-19.929 23.828-35.801 43.874-37.258h658.432c19.968 0 36.549 13.115 42.457 30.956h0.315c1.575 4.529 2.402 9.295 2.402 14.297l-0.039 413.853c1.221 2.796 0.827 10.752 0.827 13.627l-1.89 0.040v-0.040zM310.233 237.391l64.118-52.224 96.768 78.888 245.13 209.92c-4.018 1.181-8.114 2.008-12.446 2.008h-658.944c-4.293 0-8.586-0.827-12.603-2.048l245.445-209.92 32.532-26.624z" />
<glyph unicode="&#xe00c;" glyph-name="comment" horiz-adv-x="558" d="M0 484.701h558.545v-332.474h-89.367v-189.021l-178.734 189.021h-290.444v332.474z" />
<glyph unicode="&#xe00d;" glyph-name="close" d="M512 32.032l-192.064 192.032 192.064 191.936-63.968 64-192.064-191.968-191.968 191.968-64-64 191.968-191.936-191.968-192.032 64-64 191.968 192.032 192.064-192.032z" />
<glyph unicode="&#xe00e;" glyph-name="caret-right" horiz-adv-x="232" d="M232.727 224l-232.727-256v512z" />
<glyph unicode="&#xe00f;" glyph-name="caret-down" horiz-adv-x="1126" d="M563.2-32l-563.2 512h1126.4z" />
<glyph unicode="&#xe010;" glyph-name="arrow" horiz-adv-x="597" d="M337.408-35.925h-61.227l237.739 237.099-513.92-0.001v45.611h513.963l-237.782 237.099h61.227l259.925-259.925-259.925-259.883z" />
<glyph unicode="&#xe011;" glyph-name="arrow-left" horiz-adv-x="597" d="M0 207.488l272.512 272.512h64.171l-249.259-248.576h538.837v-47.829h-538.837l249.259-248.576h-64.171l-272.512 272.469z" />
<glyph unicode="&#xe012;" glyph-name="caret-left" horiz-adv-x="232" d="M232.727 480v-512l-232.727 256z" />
<glyph unicode="&#xe013;" glyph-name="reddit" horiz-adv-x="558" d="M159.139 190.161c0-0.001 0-0.002 0-0.003 0-17.403 14.108-31.511 31.511-31.511s31.509 14.106 31.511 31.507c0 0 0 0 0 0 0 17.403-14.108 31.511-31.511 31.511s-31.511-14.108-31.511-31.511c0 0 0 0 0 0zM335.22 190.161c0-0.001 0-0.002 0-0.003 0-17.404 14.108-31.512 31.512-31.512 17.402 0 31.51 14.106 31.512 31.508 0 17.404-14.108 31.512-31.512 31.512s-31.512-14.108-31.512-31.512zM360.588 101.167c-5.167-5.26-15.919-11.404-30.488-15.547-14.475-4.189-32.442-6.842-51.805-6.842s-37.422 2.653-51.851 6.842c-14.523 4.189-25.368 10.333-30.441 15.547-5.306 5.352-14.010 5.399-19.363 0.046-5.539-5.306-5.539-14.010-0.047-19.316 10.287-10.333 24.623-17.408 42.124-22.528 17.455-5.073 37.516-7.959 59.532-7.959 21.783 0 42.124 2.886 59.485 7.959 17.408 5.167 31.884 12.241 42.217 22.528 5.399 5.306 5.352 14.010 0 19.316-5.446 5.353-14.057 5.306-19.363-0.046zM558.545 232.145c0 37.329-31.697 67.677-70.656 67.677-23.319 0-43.799-10.985-56.739-27.695-38.633 24.25-88.623 39.61-143.732 41.612l16.524 101.702 71.354-16.849c0-0.233-0.047-0.419-0.047-0.652 0-35.607 29.044-64.652 64.652-64.652 35.607 0 64.652 29.044 64.652 64.652s-28.998 64.745-64.605 64.745c-26.997 0-50.13-16.663-59.765-40.215l-95.884 22.668-21.364-131.305c-52.55-1.955-100.584-15.965-138.379-38.4-13.033 14.801-32.21 24.436-53.9 24.436-38.959 0-70.656-30.394-70.656-67.724 0-27.881 17.734-51.898 42.961-62.231-1.117-6.563-1.908-13.312-1.908-20.154 0-90.671 105.053-164.445 234.263-164.445 129.164 0 234.263 73.775 234.263 164.445 0 6.097-0.559 12.009-1.489 17.92 29.045 8.378 50.455 33.978 50.455 64.465zM439.948 438.435c22.249 0 40.401-18.153 40.401-40.448s-18.153-40.401-40.401-40.401c-22.295 0-40.401 18.106-40.401 40.401s18.152 40.448 40.401 40.448zM24.25 232.145c0 23.971 20.852 43.427 46.452 43.427 13.265 0 25.228-5.353 33.652-13.777-25.413-18.991-44.403-42.31-54.597-68.143-15.034 7.122-25.507 21.644-25.507 38.493zM275.316 9.612c-115.805 0-210.013 62.883-210.013 140.148 0 5.12 0.465 10.147 1.303 15.127 1.304 8.332 3.817 16.384 7.262 24.204 8.471 19.363 23.040 36.957 42.263 51.898 6.377 4.98 13.359 9.681 20.806 14.010 37.004 21.69 85.364 35.002 138.38 35.002 56.227 0 107.287-14.941 145.036-39.052 7.773-4.98 14.895-10.333 21.504-16.012 15.174-13.265 27.089-28.253 34.444-44.591 3.677-8.145 6.377-16.663 7.773-25.367 0.838-4.98 1.257-10.007 1.257-15.127-0.048-77.357-94.256-140.24-210.015-140.24zM501.807 190.999c-9.356 25.274-26.996 48.128-50.828 67.165 8.518 10.519 21.783 17.408 36.911 17.408 25.553 0 46.406-19.503 46.406-43.427-0.001-19.362-13.778-35.607-32.489-41.146zM159.139 190.161c0-0.001 0-0.002 0-0.003 0-17.403 14.108-31.511 31.511-31.511s31.509 14.106 31.511 31.507c0 0 0 0 0 0 0 17.403-14.108 31.511-31.511 31.511s-31.511-14.108-31.511-31.511c0 0 0 0 0 0zM335.22 190.161c0-0.001 0-0.002 0-0.003 0-17.404 14.108-31.512 31.512-31.512 17.402 0 31.51 14.106 31.512 31.508 0 17.404-14.108 31.512-31.512 31.512s-31.512-14.108-31.512-31.512zM360.588 101.167c-5.167-5.26-15.919-11.404-30.488-15.547-14.475-4.189-32.442-6.842-51.805-6.842s-37.422 2.653-51.851 6.842c-14.523 4.189-25.368 10.333-30.441 15.547-5.306 5.352-14.010 5.399-19.363 0.046-5.539-5.306-5.539-14.010-0.047-19.316 10.287-10.333 24.623-17.408 42.124-22.528 17.455-5.073 37.516-7.959 59.532-7.959 21.783 0 42.124 2.886 59.485 7.959 17.408 5.167 31.884 12.241 42.217 22.528 5.399 5.306 5.352 14.010 0 19.316-5.446 5.353-14.057 5.306-19.363-0.046z" />
<glyph unicode="&#xe014;" glyph-name="video-play" horiz-adv-x="307" d="M0 480v-512l307.2 256z" />
<glyph unicode="&#xe015;" glyph-name="open-caret" horiz-adv-x="343" d="M134.631 223l198.782 197.709-63.227 62-259.925-259.883 259.925-259.925 63.227 63z" />
<glyph unicode="&#xe016;" glyph-name="flipboard" d="M512 308h-170v-169h-172v-171h-170v512h512v-172z" />
<glyph unicode="&#xe017;" glyph-name="whatsapp" horiz-adv-x="508" d="M375.567 174.703c-6.253 3.423-36.962 20-42.723 22.344-5.76 2.336-9.962 3.553-14.447-2.662-4.488-6.197-17.226-20.077-21.087-24.192-3.878-4.115-7.61-4.495-13.863-1.064-6.24 3.417-26.51 10.913-50.008 33.506-18.29 17.579-30.287 38.907-33.766 45.413-3.482 6.51-0.026 9.833 3.28 12.88 2.969 2.753 6.649 7.201 9.972 10.797 3.313 3.599 4.481 6.208 6.76 10.381 2.281 4.167 1.363 7.925-0.114 11.171-1.477 3.238-13.033 35.044-17.858 47.986-4.829 12.942-10.206 11.017-13.922 11.16-3.72 0.136-7.941 0.831-12.185 0.986-4.244 0.163-11.206-1.175-17.274-7.33-6.072-6.146-23.1-20.928-24.271-52.257-1.172-31.322 20.504-62.447 23.525-66.805 3.024-4.375 41.388-72.27 105.146-100.195 63.768-27.914 64.102-19.406 75.8-18.779 11.705 0.613 38.244 13.994 44.108 28.652 5.867 14.662 6.338 27.409 4.845 30.125-1.493 2.71-5.673 4.472-11.92 7.885zM258.627 23.753c-42.164 0-81.438 12.649-114.227 34.324l-79.785-25.539 25.932 77.099c-24.852 34.236-39.536 76.294-39.536 121.736 0 114.49 93.14 207.633 207.616 207.633 114.49 0 207.627-93.143 207.627-207.633 0-114.484-93.136-207.619-207.626-207.619zM258.627 480.781c-137.734 0-249.398-111.659-249.398-249.408 0-47.124 13.078-91.19 35.785-128.785l-45.014-133.808 138.082 44.209c35.733-19.757 76.823-31.027 120.544-31.027 137.751 0 249.408 111.676 249.408 249.411 0 137.748-111.656 249.408-249.408 249.408z" />
<glyph unicode="&#xe018;" glyph-name="youtube" d="M317.964 104.116v-69.918q0-22.202-12.923-22.202-7.622 0-14.911 7.29v99.74q7.29 7.29 14.911 7.29 12.923 0 12.923-22.202zM429.964 103.784v-15.243h-29.822v15.243q0 22.532 14.911 22.532t14.911-22.532zM109.87 176.021h35.456v31.148h-103.385v-31.148h34.792v-188.545h33.136v188.545zM205.302-12.524h29.49v163.692h-29.49v-125.254q-9.941-13.917-18.888-13.917-5.964 0-6.958 6.959-0.332 0.994-0.332 11.598v120.615h-29.49v-129.562q0-16.237 2.651-24.19 3.977-12.261 19.22-12.261 15.905 0 33.799 20.212v-17.893zM347.455 36.518v65.278q0 24.19-2.983 32.805-5.633 18.557-23.527 18.557-16.569 0-30.817-17.893v71.905h-29.49v-219.693h29.49v15.905q14.911-18.225 30.817-18.225 17.893 0 23.527 18.225 2.983 8.947 2.983 33.137zM459.455 39.831v4.307h-30.154q0-16.9-0.663-20.212-2.32-11.929-13.253-11.929-15.243 0-15.243 22.863v28.828h59.313v34.13q0 26.178-8.947 38.438-12.923 16.9-35.125 16.9-22.532 0-35.456-16.9-9.278-12.261-9.278-38.438v-57.325q0-26.178 9.61-38.438 12.923-16.9 35.786-16.9 23.858 0 35.786 17.563 5.964 8.947 6.959 17.893 0.663 2.983 0.663 19.22zM257.988 342.364v69.586q0 22.864-14.249 22.864t-14.249-22.864v-69.586q0-23.196 14.249-23.196t14.249 23.196zM496.237 93.511q0-77.538-8.615-115.976-4.639-19.55-19.22-32.805t-33.799-15.243q-60.971-6.958-183.905-6.958t-183.905 6.958q-19.22 1.988-33.964 15.243t-19.052 32.805q-8.615 37.113-8.615 115.976 0 77.538 8.615 115.976 4.639 19.55 19.22 32.805t34.129 15.573q60.639 6.627 183.575 6.627t183.905-6.627q19.22-2.32 33.965-15.573t19.053-32.805q8.615-37.113 8.615-115.976zM165.538 516.328h33.799l-40.095-132.213v-89.798h-33.137v89.798q-4.639 24.521-20.212 70.25-12.261 34.129-21.539 61.964h35.124l23.527-87.148zM288.142 405.985v-57.988q0-26.84-9.278-39.101-12.261-16.9-35.125-16.9-22.202 0-34.792 16.9-9.278 12.591-9.278 39.101v57.988q0 26.508 9.278 38.769 12.591 16.9 34.792 16.9 22.863 0 35.125-16.9 9.278-12.261 9.278-38.769zM399.147 459.666v-165.349h-30.154v18.225q-17.563-20.544-34.13-20.544-15.243 0-19.55 12.261-2.651 7.952-2.651 24.852v130.557h30.154v-121.609q0-10.934 0.332-11.598 0.994-7.29 6.959-7.29 8.947 0 18.888 14.249v126.248h30.154z" />
<glyph unicode="&#xe019;" glyph-name="pinterest" horiz-adv-x="558" d="M482 295q0-47-17.5-92t-48.5-72q-17-14-45-23.5t-56-9.5q-36 0-60 17-7 15-11 15l-4-2q-29-122-53-149-15-21-23-21v0l-10 21q-2 14-2 27 0 28 4 54 3 18 13.5 51.5t18 61 7.5 50.5v7q0 9-4 30t-4 33v7q4 22 24 40t40 18q22 0 33-24 6-13 6-27 0-21-15-59.5t-15-54.5q0-19 14-32 12-12 38-12 4 0 14 2 38 7 59 46.5t21 90.5q0 39-13.5 71.5t-38.5 46.5q-34 20-73 20-40 0-75.5-21t-57-55-21.5-72v-10q2-14 14-35.5t12-32.5q0-14-14-27-72 25-72 112 1 56 31.5 99t80 66.5 108.5 23.5q19 0 28-1 64-7 111.5-50t53.5-100q2-18 2-28z" />
<glyph unicode="&#xe01a;" glyph-name="instagram" d="M438.769 60.923v199.385h-41.538q6.154-19.385 6.154-40.308 0-38.769-19.692-71.538t-53.538-51.846-73.846-19.077q-60.615 0-103.692 41.692t-43.077 100.769q0 20.923 6.154 40.308h-43.385v-199.385q0-8 5.385-13.385t13.385-5.385h328.923q7.692 0 13.231 5.385t5.538 13.385zM351.384 224.923q0 38.154-27.846 65.077t-67.231 26.923q-39.077 0-66.923-26.923t-27.846-65.077 27.846-65.077 66.923-26.923q39.385 0 67.231 26.923t27.846 65.077zM438.769 335.692v50.769q0 8.615-6.154 14.923t-15.077 6.308h-53.538q-8.923 0-15.077-6.308t-6.154-14.923v-50.769q0-8.923 6.154-15.077t15.077-6.154h53.538q8.923 0 15.077 6.154t6.154 15.077zM492.307 399.692v-351.385q0-24.923-17.846-42.769t-42.769-17.846h-351.385q-24.923 0-42.77 17.846t-17.846 42.769v351.385q0 24.923 17.846 42.769t42.77 17.846h351.385q24.923 0 42.769-17.846t17.846-42.769z" />
<glyph unicode="&#xe01b;" glyph-name="trending" d="M511 408l-220-161-115 73-139-140-39 38 176 172 117-78 187 140zM512 349v-273h-512l174 179 119-70z" />
<glyph unicode="&#xe01c;" glyph-name="embed" d="M288 112l48-48 160 160-160 160-48-48 112-112zM224 336l-48 48-160-160 160-160 48 48-112 112z" />
<glyph unicode="&#xe01d;" glyph-name="fat-arrow-left" d="M438.857 219.429v-36.572q0-15.143-9.286-25.857t-24.143-10.714h-201.143l83.715-84q10.857-10.286 10.857-25.714t-10.857-25.714l-21.428-21.714q-10.572-10.572-25.714-10.572-14.857 0-26 10.572l-186 186.286q-10.572 10.572-10.572 25.714 0 14.857 10.572 26l186 185.714q10.857 10.857 26 10.857 14.857 0 25.714-10.857l21.428-21.143q10.857-10.857 10.857-26t-10.857-26l-83.714-83.714h201.143q14.857 0 24.143-10.714t9.286-25.857z" />
<glyph unicode="&#xe01e;" glyph-name="fat-arrow-right" d="M420.572 201.143q0-15.428-10.572-26l-186-186q-11.143-10.572-26-10.572-14.572 0-25.714 10.572l-21.428 21.428q-10.857 10.857-10.857 26t10.857 26l83.714 83.714h-201.143q-14.857 0-24.143 10.714t-9.286 25.857v36.572q0 15.143 9.286 25.857t24.143 10.714h201.143l-83.714 84q-10.857 10.286-10.857 25.714t10.857 25.715l21.428 21.428q10.857 10.857 25.714 10.857 15.143 0 26-10.857l186-186q10.572-10 10.572-25.714z" />
<glyph unicode="&#xe01f;" glyph-name="rocket" d="M352 448l-160-160h-96l-96-128c0 0 101.6 28 160.8 15.2l-160.8-207.2 211.2 164c29.6-67.2-19.2-164-19.2-164l128 96v96l160 160 32 160-160-32zM348 276c-22.4 0-40 17.6-40 40s17.6 40 40 40 40-17.6 40-40-17.6-40-40-40z" />
</font>
</defs>
</svg>
