<?xml version="1.0" encoding="utf-8"?>
<!-- Generator: Adobe Illustrator 18.1.1, SVG Export Plug-In . SVG Version: 6.00 Build 0)  -->
<svg version="1.1" id="Layer_1" xmlns="http://www.w3.org/2000/svg" xmlns:xlink="http://www.w3.org/1999/xlink" x="0px" y="0px"
	 viewBox="0 0 122.7 146.8" enable-background="new 0 0 122.7 146.8" xml:space="preserve">
<path fill="#A7A7A7" d="M111.8,26.1C92.3-1.8,53.9-8.3,26,11.3s-34.3,58-14.7,85.9c7.1,10.1,17.1,17.1,27.5,21.6l0,0l82.5,28
	l1.4-88.1l0,0C123.2,48.6,118.9,36.2,111.8,26.1z M86.8,72.7l-1,1.9l4.7,6.7l14,20l0,21.4l-20.1-7.2L72.6,98.8l-7-9.9l-2.2,0.3
	c-3.3,0.4-6.5,0.4-9.7-0.2c-8.2-1.4-15.4-6-20.2-12.8c-7.3-10.3-7.5-24.1-0.8-34.7l18.4,26.2L66,68l4.7-14.2L52.4,27.6
	c4-0.9,8.2-1,12.2-0.3c8.2,1.4,15.4,6,20.2,12.8C91.4,49.7,92.2,62.4,86.8,72.7z"/>
</svg>
