<?xml version="1.0" encoding="UTF-8"?>
<svg width="12px" height="23px" viewBox="0 0 12 23" version="1.1" xmlns="http://www.w3.org/2000/svg" xmlns:xlink="http://www.w3.org/1999/xlink">
    <!-- Generator: Sketch 41.2 (35397) - http://www.bohemiancoding.com/sketch -->
    <title>Facebook</title>
    <desc>Created with Sketch.</desc>
    <defs></defs>
    <g id="Symbols" stroke="none" stroke-width="1" fill="none" fill-rule="evenodd" opacity="1">
        <g id="main-nav-with-dropdown-search-&amp;-Social" transform="translate(-1087.000000, -94.000000)" fill="#FFFFFF">
            <path d="M1098.54914,94.0042973 L1095.67052,94 C1092.43686,94 1090.34651,96.1283237 1090.34651,99.4217966 L1090.34651,101.921982 L1087.45201,101.921982 C1087.20292,101.921982 1087,102.122238 1087,102.370624 L1087,105.993272 C1087,106.240512 1087.20292,106.441913 1087.45201,106.441913 L1090.34651,106.441913 L1090.34651,115.581472 C1090.34651,115.828998 1090.54943,116.0304 1090.79968,116.0304 L1094.57454,116.0304 C1094.82479,116.0304 1095.02742,115.828998 1095.02742,115.581472 L1095.02742,106.441913 L1098.41146,106.441913 C1098.66171,106.441913 1098.86376,106.240512 1098.86376,105.993272 L1098.86578,102.370624 C1098.86578,102.252017 1098.81729,102.137995 1098.73272,102.052908 C1098.64815,101.968967 1098.53327,101.921982 1098.41261,101.921982 L1095.02742,101.921982 L1095.02742,99.8025399 C1095.02742,98.784073 1095.27248,98.2669611 1096.6086,98.2669611 L1098.54799,98.2658151 C1098.79824,98.2658151 1099,98.0644136 1099,97.817174 L1099,94.4543709 C1099,94.2056988 1098.79824,94.0054433 1098.54914,94.0042973 L1098.54914,94.0042973 Z" id="Facebook"></path>
        </g>
    </g>
</svg>
