<?xml version="1.0" encoding="UTF-8"?>
<svg width="22px" height="23px" viewBox="0 0 22 23" version="1.1" xmlns="http://www.w3.org/2000/svg" xmlns:xlink="http://www.w3.org/1999/xlink">
    <!-- Generator: Sketch 41.2 (35397) - http://www.bohemiancoding.com/sketch -->
    <title>Page 1</title>
    <desc>Created with Sketch.</desc>
    <defs></defs>
    <g id="Symbols" stroke="none" stroke-width="1" fill="none" fill-rule="evenodd" opacity="0.7">
        <g id="main-nav-with-dropdown-search-&amp;-Social" transform="translate(-1121.000000, -94.000000)" fill="#FFFFFF">
            <g id="Page-1" transform="translate(1121.000000, 94.000000)">
                <path d="M0,4.22878273 C9.78903976,4.22878273 17.7539068,12.2364043 17.7539068,22.0679363 L21.9811093,22.0679363 C21.9811093,9.89876496 12.1182094,0 0,0 L0,4.22878273 Z" id="Fill-1"></path>
                <path d="M0,7.66666667 L0,11.8954494 C2.74484744,11.8954494 5.32823326,12.9729012 7.26577263,14.9261058 C9.21190038,16.8706907 10.2785776,19.4703664 10.2785776,22.2389864 L14.5126508,22.2389864 C14.5126508,14.205506 8.00437363,7.66666667 0,7.66666667" id="Fill-4"></path>
                <path d="M2.9252035,16.8666667 C1.31574039,16.8666667 0,18.1854676 0,19.7956116 C0,21.417823 1.31574039,22.7245565 2.9252035,22.7245565 C4.54840802,22.7245565 5.8572777,21.417823 5.8572777,19.7956116 C5.8572777,18.1854676 4.54840802,16.8666667 2.9252035,16.8666667" id="Fill-6"></path>
            </g>
        </g>
    </g>
</svg>