<svg xmlns="http://www.w3.org/2000/svg" width="450" height="50" viewBox="0 0 450 50">
<path fill="#1D8FC1" d="M28.5,23.6c0,4.1-1.4,7.7-3.9,10.3c-2.6,2.6-6.2,3.9-10.3,3.9c-4.2,0-7.7-1.4-10.3-3.9 C1.4,31.4,0,27.7,0,23.6v-7.3C0,12.2,1.4,8.6,3.9,6c2.6-2.6,6.2-3.9,10.3-3.9c4.1,0,7.7,1.4,10.3,3.9c2.6,2.6,3.9,6.2,3.9,10.3V23.6 z M21.5,15.8c0-4.3-2.8-7.3-7.3-7.3C9.7,8.5,7,11.2,7,15.8v8.4c0,4.6,2.6,7.2,7.3,7.2c4.6,0,7.3-2.6,7.3-7.2V15.8z M35.9,8 c0-1.9,1.2-3.6,3-4.1c3.4-1.1,6.9-1.8,10.6-1.8c4,0,7.4,1.3,9.9,3.8c2.4,2.4,3.8,5.8,3.8,9.8v8.6c0,4-1.3,7.5-3.7,10 C57,36.7,54,37.9,50,37.9c-2.2,0-5-0.8-7.1-1.8v8.3c0,2-1.6,3.5-3.5,3.5c-2,0-3.5-1.6-3.5-3.5V8z M56.1,15.1c0-4.1-2.5-6.6-6.7-6.6 c-2.2,0-4.4,0.3-6.6,0.8V29c1.9,1.6,4.1,2.4,6.6,2.4c4.2,0,6.7-2.4,6.7-6.6V15.1z M76.6,23.3c0,2.8,0.5,4.6,1.4,5.8 c1.2,1.5,2.9,2.3,5.2,2.3c2.6,0,5-0.7,7.3-1.8c0.5-0.2,0.9-0.3,1.4-0.3c1.7,0,3.3,1.4,3.3,3.2c0,1.3-0.5,2.4-1.8,3.1 c-3.3,1.6-6.7,2.3-10.3,2.3c-3.9,0-7.3-1.3-9.9-3.8c-2.4-2.4-3.7-5.8-3.7-9.9v-8.6c0-3.9,1.3-7.3,3.7-9.8c2.5-2.5,5.9-3.8,9.9-3.8 c4,0,7.4,1.3,9.9,3.8c2.5,2.4,3.8,5.8,3.8,9.8v3.2c0,2.4-2,4.4-4.4,4.4H76.6z M89.8,16.8c0-5.6-2.3-8.3-6.7-8.3 c-4.3,0-6.6,2.6-6.6,8.3H89.8z M124.4,34.3c0,2,1.5,3.5,3.5,3.5c2,0,3.5-1.6,3.5-3.5V15.7c0-3.9-1.4-7.3-3.8-9.8 c-2.4-2.5-5.8-3.8-9.9-3.8c-3.7,0-7.3,0.6-10.6,1.8c-1.8,0.6-3,2.3-3,4.1v26.4c0,2,1.6,3.5,3.5,3.5c1.9,0,3.5-1.6,3.5-3.5V9.4 c2.1-0.6,4.3-0.9,6.6-0.9c4.2,0,6.7,2.4,6.7,6.6V34.3z M150.6,23.7c2.5,0.9,4.6,1.7,4.6,4.2c0,2.3-1.7,3.5-5,3.5 c-3,0-5.2-0.6-7.1-1.6c-0.5-0.2-1.1-0.4-1.6-0.4c-1.9,0-3.4,1.6-3.4,3.4c0,1.4,0.8,2.5,2.1,3.1c2.5,1.2,5.8,1.9,9.8,1.9 c7.3,0,12.1-4.7,12.1-10.7c0-5-2.7-8-7.2-9.5l-6.7-2.2c-1.4-0.5-2.8-1.6-2.8-3.3c0-2.3,1.8-3.7,4.6-3.7c2.2,0,5,0.5,6.7,1.4 c0.5,0.2,1.2,0.3,1.6,0.3c1.8,0,3.3-1.5,3.3-3.3c0-1.4-0.9-2.6-2.2-3.2c-2.2-1-4.6-1.7-9.2-1.7c-6.8,0-11.8,4.3-11.8,10.3 c0,5.1,2.9,7.9,6.5,9.3L150.6,23.7z M196.5,23.7c0,4.1-1.4,7.7-3.9,10.3c-2.6,2.6-6.2,3.9-10.3,3.9c-4.1,0-7.7-1.4-10.3-3.9 c-2.6-2.6-3.9-6.2-3.9-10.3v-7.3c0-4.1,1.4-7.7,3.9-10.3c2.6-2.6,6.2-3.9,10.3-3.9c4.1,0,7.7,1.4,10.3,3.9c2.6,2.6,3.9,6.2,3.9,10.3 V23.7z M189.5,15.9c0-4.3-2.8-7.3-7.3-7.3c-4.6,0-7.3,2.6-7.3,7.3v8.4c0,4.6,2.6,7.2,7.3,7.2c4.6,0,7.3-2.6,7.3-7.2V15.9z  M223.9,30.6c-2.1,0.5-4.3,0.8-6.7,0.8c-4.2,0-6.6-2.4-6.6-6.6V5.7c0-2-1.6-3.5-3.5-3.5c-2,0-3.5,1.6-3.5,3.5v18.6 c0,4,1.2,7.5,3.6,10c2.5,2.5,6.1,3.7,10,3.7c3.7,0,7.3-0.6,10.7-1.8c1.8-0.6,3-2.2,3-4.1V5.7c0-2-1.6-3.5-3.5-3.5 c-2,0-3.5,1.6-3.5,3.5V30.6z M239.4,34.4c0,2,1.6,3.5,3.5,3.5c1.9,0,3.5-1.6,3.5-3.5V11.7c0-1.7,1.4-3.1,3.1-3.1 c1.1,0,2.3,0.3,3.4,0.5c0.5,0.1,0.7,0.1,1.2,0.1c2,0,3.3-1.4,3.3-3.3c0-1.6-1.2-3-2.8-3.3c-1.7-0.3-3.4-0.5-5.1-0.5 c-5.8,0-10.1,4.4-10.1,10.1V34.4z M260.8,24.3c0,4,1.3,7.4,3.7,9.9c2.5,2.5,5.9,3.8,9.9,3.8c3.3,0,6.5-0.7,9.4-2.2 c1.3-0.6,2-1.8,2-3.1c0-1.9-1.6-3.3-3.3-3.3c-0.5,0-1,0.1-1.5,0.3c-2,1-4.4,1.7-6.7,1.7c-4.1,0-6.6-2.4-6.6-6.6v-9.7 c0-4.1,2.4-6.6,6.6-6.6c2.2,0,4.5,0.8,6.5,1.6c0.5,0.2,1,0.4,1.6,0.4c1.9,0,3.3-1.5,3.3-3.2c0-1.3-0.7-2.5-2-3.1 c-2.9-1.4-6.1-2.2-9.4-2.2c-3.9,0-7.3,1.3-9.9,3.8c-2.4,2.4-3.7,5.8-3.7,9.8V24.3z M297.7,23.3c0,2.8,0.5,4.6,1.4,5.8 c1.2,1.5,2.9,2.3,5.2,2.3c2.6,0,5-0.7,7.3-1.8c0.5-0.2,1-0.3,1.4-0.3c1.7,0,3.3,1.4,3.3,3.2c0,1.3-0.5,2.4-1.8,3.1 c-3.3,1.6-6.7,2.3-10.3,2.3c-3.9,0-7.3-1.3-9.9-3.8c-2.5-2.4-3.7-5.8-3.7-9.9v-8.6c0-3.9,1.3-7.3,3.7-9.8c2.5-2.5,5.9-3.8,9.9-3.8 c4,0,7.4,1.3,9.9,3.8c2.5,2.4,3.8,5.8,3.8,9.8v3.2c0,2.4-2,4.4-4.4,4.4H297.7z M311,16.9c0-5.6-2.3-8.3-6.7-8.3 c-4.3,0-6.6,2.6-6.6,8.3H311z M330.1,29.9c-2.3-1-5,0.1-6,2.4c-0.9,2.2,0.2,4.9,2.5,5.9c2.3,1,4.9-0.2,5.8-2.4 C333.4,33.5,332.4,30.9,330.1,29.9 M339.8,25.2c0,4,1.3,7.4,3.7,9.9c2.5,2.5,5.9,3.8,9.9,3.8c3.3,0,6.5-0.7,9.4-2.2 c1.3-0.6,2-1.8,2-3.1c0-1.9-1.6-3.3-3.3-3.3c-0.5,0-1,0.1-1.5,0.3c-2,0.9-4.4,1.7-6.7,1.7c-4.1,0-6.6-2.4-6.6-6.6v-9.6 c0-4.1,2.4-6.6,6.6-6.6c2.2,0,4.5,0.7,6.5,1.6c0.5,0.2,1,0.4,1.6,0.4c1.9,0,3.3-1.5,3.3-3.2c0-1.3-0.7-2.5-2-3.1 c-2.9-1.4-6.1-2.2-9.4-2.2c-3.9,0-7.3,1.3-9.9,3.8c-2.5,2.4-3.7,5.8-3.7,9.8V25.2z M398.3,24.6c0,4.2-1.4,7.8-3.9,10.3 c-2.6,2.6-6.2,3.9-10.3,3.9c-4.1,0-7.7-1.4-10.3-3.9c-2.6-2.6-3.9-6.2-3.9-10.3v-7.3c0-4.1,1.4-7.7,3.9-10.3 c2.6-2.6,6.2-3.9,10.3-3.9c4.1,0,7.8,1.4,10.3,3.9c2.6,2.6,3.9,6.2,3.9,10.3V24.6z M391.3,16.8c0-4.3-2.8-7.3-7.3-7.3 c-4.6,0-7.3,2.6-7.3,7.3v8.4c0,4.6,2.7,7.2,7.3,7.2c4.6,0,7.3-2.7,7.3-7.2V16.8z M443,35.3c0,2,1.5,3.5,3.5,3.5c2,0,3.5-1.6,3.5-3.5 V15.9c0-7.3-5.5-12.8-12.8-12.8c-3.4,0-6.7,1-9.5,2.8c-2.1-1.8-5-2.8-8.2-2.8c-3.9,0-7.4,0.6-10.9,2c-1.7,0.7-2.9,2.3-2.9,4.1v26.2 c0,2,1.6,3.5,3.5,3.5c1.9,0,3.5-1.6,3.5-3.5V10.5c2.2-0.6,3.7-0.9,6.1-0.9c3,0,5.6,1,5.6,5v20.9c0,2,1.6,3.5,3.5,3.5 c2,0,3.5-1.6,3.5-3.5V11.3c1.7-1.1,3.7-1.8,5.8-1.8c3.2,0,5.8,2.7,5.8,5.8V35.3z"/>
</svg>
