<svg xmlns="http://www.w3.org/2000/svg" width="32" height="32" viewBox="0 0 32 32">
<circle fill="#6f7070" cx="16" cy="16" r="16"/>
<path fill="#fff" d="M13.353,23.209c-1.902,0-3.275-1.204-3.275-2.648c0-1.42,1.705-2.6,3.605-2.578 c0.444,0.006,0.858,0.076,1.233,0.197c1.032,0.719,1.772,1.123,1.981,1.941c0.039,0.166,0.061,0.336,0.061,0.511 C16.959,22.08,16.028,23.209,13.353,23.209 M13.853,14.728c-1.275-0.038-2.49-1.428-2.71-3.104 c-0.221-1.677,0.636-2.959,1.912-2.922c1.275,0.039,2.49,1.383,2.71,3.06C15.986,13.437,15.13,14.767,13.853,14.728 M16.5,17.21 c-0.447-0.315-1.304-1.087-1.304-1.541c0-0.531,0.151-0.793,0.951-1.417c0.819-0.641,1.399-1.541,1.399-2.587 c0-1.247-0.555-2.462-1.597-2.863h1.571L18.632,8h-4.957c-2.222,0-4.312,1.684-4.312,3.633c0,1.992,1.515,3.6,3.774,3.6 c0.156,0,0.31-0.002,0.459-0.014c-0.147,0.28-0.252,0.598-0.252,0.925c0,0.555,0.298,1.004,0.674,1.37 c-0.284,0-0.56,0.008-0.858,0.008c-2.752,0-4.87,1.752-4.87,3.569C8.29,22.88,10.611,24,13.363,24c3.137,0,4.87-1.779,4.87-3.568 C18.233,18.996,17.81,18.136,16.5,17.21 M23.71,14.874h-1.93v-1.929h-1.553v1.929H18.3v1.552h1.928v1.93h1.553v-1.93h1.93V14.874z"/>
</svg>
