<svg xmlns="http://www.w3.org/2000/svg" width="32" height="32" viewBox="0 0 32 32">
<circle fill="#655852" cx="16" cy="16" r="16"/>
<path fill="#fff" d="M21.22,7.5H10.78c-1.81,0-3.29,1.47-3.29,3.29v3.47v6.96c0,1.81,1.47,3.29,3.29,3.29h10.43 c1.81,0,3.29-1.47,3.29-3.29v-6.96v-3.47C24.5,8.97,23.03,7.5,21.22,7.5z M22.16,9.46l0.38,0v0.38v2.51l-2.87,0.01l-0.01-2.88 L22.16,9.46z M13.57,14.25C14.12,13.5,15,13,16,13s1.88,0.49,2.43,1.25c0.35,0.49,0.57,1.09,0.57,1.75c0,1.65-1.34,2.99-2.99,2.99 s-2.99-1.34-2.99-2.99C13.01,15.35,13.22,14.75,13.57,14.25z M22.85,21.22c0,0.9-0.73,1.63-1.63,1.63H10.78 c-0.9,0-1.63-0.73-1.63-1.63v-6.96h2.54c-0.22,0.54-0.34,1.13-0.34,1.75c0,2.56,2.09,4.65,4.65,4.65s4.65-2.09,4.65-4.65 c0-0.62-0.12-1.21-0.34-1.75h2.54L22.85,21.22L22.85,21.22z"/>
</svg>
