<svg xmlns="http://www.w3.org/2000/svg" width="32" height="32" viewBox="0 0 32 32">
<circle fill="#6e6f6f" cx="16" cy="16" r="16"/>
<path fill="#fff" d="M11.527,22.691H8.409v-9.98h3.119V22.691z M9.887,11.463H9.865c-1.129,0-1.861-0.763-1.861-1.729 c0-0.986,0.754-1.733,1.905-1.733s1.858,0.745,1.881,1.73C11.791,10.697,11.06,11.463,9.887,11.463z M24.005,22.691h-3.536v-5.164 c0-1.353-0.552-2.274-1.77-2.274c-0.931,0-1.447,0.623-1.688,1.224c-0.091,0.215-0.076,0.514-0.076,0.815v5.4h-3.503 c0,0,0.045-9.148,0-9.98h3.503v1.566c0.207-0.685,1.326-1.662,3.114-1.662c2.215,0,3.958,1.436,3.958,4.526v5.549H24.005z"/>
</svg>
