<?xml version="1.0" encoding="UTF-8"?>
<svg width="24px" height="25px" viewBox="0 0 24 25" version="1.1" xmlns="http://www.w3.org/2000/svg" xmlns:xlink="http://www.w3.org/1999/xlink">
    <!-- Generator: Sketch 41.2 (35397) - http://www.bohemiancoding.com/sketch -->
    <title>Fill 1</title>
    <desc>Created with Sketch.</desc>
    <defs></defs>
    <g id="Symbols" stroke="none" stroke-width="1" fill="none" fill-rule="evenodd">
        <g id="main-nav-with-dropdown-search-&amp;-Social" transform="translate(-1187.000000, -95.000000)" fill="#FFFFFF">
            <g id="main-nav-with-dropdown-search">
                <path d="M1196.81065,97.7312222 C1200.79533,97.7312222 1204.03726,100.973152 1204.03726,104.9557 C1204.03726,108.940374 1200.79533,112.181773 1196.81065,112.181773 C1192.82811,112.181773 1189.58671,108.940374 1189.58671,104.9557 C1189.58671,100.973152 1192.82811,97.7312222 1196.81065,97.7312222 M1210.05571,117.233276 L1204.2944,111.241921 C1205.77617,109.479633 1206.58798,107.263092 1206.58798,104.9557 C1206.58798,99.5657658 1202.20271,95.1805 1196.81065,95.1805 C1191.42125,95.1805 1187.03598,99.5657658 1187.03598,104.9557 C1187.03598,110.347229 1191.42125,114.732495 1196.81065,114.732495 C1198.83434,114.732495 1200.76451,114.122574 1202.41204,112.962237 L1208.21904,119.001408 C1208.46184,119.254833 1208.78752,119.3935 1209.1387,119.3935 C1209.46863,119.3935 1209.78209,119.267053 1210.02064,119.037005 C1210.52909,118.549281 1210.54343,117.74172 1210.05571,117.233276" id="Fill-1"></path>
            </g>
        </g>
    </g>
</svg>