<svg xmlns="http://www.w3.org/2000/svg" width="14" height="14" viewBox="0 0 14 14">
<path fill="#1690BC" d="M1.49,7.505h1.085c0.578-0.01,0.712-0.201,0.77-0.237c0.224,0.4,0.435,0.757,0.966,1.274 c0.53,0.517,1.341,2.021,1.93,3.576c-0.031,0.397-0.031,1.03,0.28,1.448l0.331,0.429l0.537-0.011c0.917,0,1.737-0.578,1.995-1.467 c0.345-1.191-0.265-2.303-0.481-3.447c0.012,0,0.021,0,0.031,0c1.612,0.363,5.174,0.277,4.399-2.359 c0.42-0.692,0.42-1.491-0.033-2.168c0.183-0.644,0.076-1.438-0.547-2.081c0.174-2.357-2.896-2.578-4.537-2.424 c-1.294,0-3.515-0.251-4.642,0.551c-0.266-0.246-0.611-0.4-0.998-0.4H1.49c-0.813,0-1.479,0.664-1.479,1.49v4.336 C0.009,6.839,0.675,7.505,1.49,7.505z M4.073,1.638c0-0.259,0.514-0.322,0.514-0.322c1.219-0.15,2.443-0.204,3.671-0.204 c1.289-0.082,3.506-0.193,3.391,1.514c-0.027,0.414,0.611,0.791,0.654,1.24c0.029,0.301-0.312,0.797-0.088,1.042 c0.201,0.201,0.359,0.465,0.365,0.763c0.012,0.56-0.738,0.778-0.434,1.11c0.467,0.489-0.025,1.148-0.516,1.293 c-0.785,0.23-1.705,0.123-2.494-0.042c-0.012,0-0.021,0-0.033-0.013C8.954,7.999,8.782,7.956,8.609,7.924 c-1.257-0.418-0.68,1.754-0.537,2.217c0.262,0.842,0.818,2.771-0.695,2.771c-0.076-0.098-0.097-0.495-0.054-0.826 c0.103-0.518-0.584-1.546-0.79-1.979C6.095,9.188,5.548,8.148,4.77,7.451C4.263,6.995,4.073,6.42,4.073,6.228V1.638z M1.083,1.679 c0-0.225,0.184-0.418,0.407-0.418h1.085c0.225,0,0.406,0.183,0.406,0.418v4.336c0,0.172-0.096,0.32-0.246,0.385H2.724 C2.681,6.421,2.628,6.433,2.585,6.433H1.489c-0.225,0-0.406-0.184-0.406-0.418V1.679L1.083,1.679z"/>
</svg>
