<svg xmlns="http://www.w3.org/2000/svg" width="14" height="14" viewBox="0 0 14 14">
<path fill="#0098C3" d="M0.011,7.98v4.336c0,0.826,0.666,1.49,1.479,1.49h1.085c0.387,0,0.732-0.154,0.998-0.4 c1.127,0.802,3.347,0.551,4.641,0.551c1.642,0.154,4.711-0.066,4.538-2.424c0.622-0.643,0.729-1.438,0.547-2.081 c0.452-0.677,0.452-1.476,0.032-2.168c0.774-2.637-2.786-2.723-4.399-2.36c-0.011,0-0.021,0-0.031,0 c0.219-1.145,0.826-2.255,0.481-3.446C9.124,0.589,8.305,0.01,7.388,0.01L6.852,0L6.521,0.429C6.209,0.847,6.209,1.48,6.24,1.877 c-0.589,1.556-1.399,3.06-1.93,3.576C3.779,5.969,3.568,6.327,3.345,6.727C3.287,6.691,3.153,6.5,2.575,6.49H1.49 C0.675,6.49,0.009,7.156,0.011,7.98z M4.073,7.768c0-0.192,0.19-0.768,0.697-1.224c0.778-0.698,1.325-1.736,1.764-2.657 c0.206-0.432,0.893-1.46,0.79-1.978C7.28,1.578,7.301,1.18,7.377,1.083c1.512,0,0.956,1.93,0.695,2.772 C7.93,4.317,7.352,6.489,8.609,6.072c0.173-0.033,0.345-0.076,0.494-0.097c0.013-0.011,0.021-0.011,0.033-0.011 c0.789-0.165,1.707-0.273,2.494-0.042c0.489,0.144,0.98,0.804,0.516,1.293c-0.307,0.332,0.443,0.551,0.434,1.11 c-0.006,0.298-0.164,0.562-0.365,0.763c-0.225,0.245,0.116,0.741,0.088,1.042c-0.043,0.449-0.684,0.826-0.654,1.24 c0.115,1.707-2.102,1.596-3.392,1.514c-1.227,0-2.451-0.054-3.67-0.204c0,0-0.514-0.063-0.514-0.322V7.768z M1.083,12.316V7.98 c0-0.234,0.182-0.418,0.406-0.418h1.096c0.043,0,0.096,0.012,0.139,0.033h0.012C2.886,7.66,2.981,7.809,2.981,7.98v4.336 c0,0.234-0.182,0.418-0.406,0.418H1.49C1.267,12.734,1.083,12.541,1.083,12.316L1.083,12.316z"/>
</svg>
