<?xml version="1.0" encoding="UTF-8"?>
<svg width="25px" height="21px" viewBox="0 0 25 21" version="1.1" xmlns="http://www.w3.org/2000/svg" xmlns:xlink="http://www.w3.org/1999/xlink">
    <!-- Generator: Sketch 41.2 (35397) - http://www.bohemiancoding.com/sketch -->
    <title>Imported Layers</title>
    <desc>Created with Sketch.</desc>
    <defs></defs>
    <g id="Symbols" stroke="none" stroke-width="1" fill="none" fill-rule="evenodd" opacity="1">
        <g id="main-nav-with-dropdown-search-&amp;-Social" transform="translate(-1044.000000, -96.000000)" fill="#FFFFFF">
            <path d="M1069,98.4281844 C1068.08406,98.8388042 1067.09195,99.1230794 1066.05492,99.2474498 C1067.11538,98.6058564 1067.92391,97.5891776 1068.31255,96.3770595 C1067.32044,96.9712737 1066.22287,97.403609 1065.04718,97.6345826 C1064.11757,96.6317228 1062.78174,96 1061.30919,96 C1058.47934,96 1056.18264,98.3215811 1056.18264,101.182101 C1056.18264,101.590746 1056.22951,101.983599 1056.31349,102.362633 C1052.0482,102.145478 1048.2731,100.086457 1045.7401,96.9475841 C1045.29677,97.7115739 1045.04484,98.6058564 1045.04484,99.5554147 C1045.04484,101.351876 1045.95297,102.941054 1047.32591,103.864948 C1046.48613,103.843233 1045.70104,103.604363 1045.00773,103.217433 L1045.00773,103.280605 C1045.00773,105.793677 1046.77713,107.890207 1049.11874,108.369921 C1048.69104,108.484421 1048.23404,108.547593 1047.76924,108.547593 C1047.44114,108.547593 1047.12085,108.516007 1046.80056,108.454809 C1047.45676,110.51383 1049.34724,112.00825 1051.5912,112.055629 C1049.83548,113.443445 1047.62276,114.268633 1045.22061,114.268633 C1044.80853,114.268633 1044.40427,114.244943 1044,114.199538 C1046.27326,115.672242 1048.96641,116.527041 1051.86462,116.527041 C1061.29552,116.527041 1066.45137,108.630507 1066.45137,101.784212 L1066.43575,101.113006 C1067.44348,100.380603 1068.31255,99.4705269 1069,98.4281844 L1069,98.4281844 Z" id="Imported-Layers"></path>
        </g>
    </g>
</svg>
