<svg xmlns="http://www.w3.org/2000/svg" width="32" height="32" viewBox="0 0 32 32">
<circle fill="#79ccf0" cx="16" cy="16" r="16"/>
<path fill="#fff" d="M24.026,11.808c-0.589,0.262-1.224,0.438-1.888,0.518c0.679-0.407,1.2-1.051,1.444-1.818 c-0.636,0.376-1.337,0.65-2.087,0.797c-0.599-0.639-1.453-1.039-2.4-1.039c-1.814,0-3.286,1.472-3.286,3.288 c0,0.257,0.028,0.509,0.084,0.749c-2.732-0.137-5.154-1.445-6.778-3.436c-0.283,0.487-0.445,1.052-0.445,1.655 c0,1.139,0.581,2.146,1.463,2.736c-0.539-0.017-1.046-0.166-1.49-0.411v0.041c0,1.593,1.133,2.922,2.639,3.224 c-0.275,0.077-0.566,0.115-0.866,0.115c-0.212,0-0.419-0.02-0.618-0.059c0.417,1.307,1.632,2.258,3.071,2.283 c-1.125,0.882-2.543,1.408-4.083,1.408c-0.265,0-0.528-0.016-0.785-0.046c1.456,0.934,3.184,1.478,5.04,1.478 c6.048,0,9.355-5.009,9.355-9.356c0-0.143-0.002-0.285-0.008-0.425C23.028,13.047,23.587,12.468,24.026,11.808"/>
</svg>
