<svg xmlns="http://www.w3.org/2000/svg" width="32" height="32" viewBox="0 0 32 32">
<circle fill="#e9644b" cx="16" cy="16" r="16"/>
<path fill="#fff" d="M20.4,8.736v4.098c-0.098,0.119-0.215,0.217-0.335,0.293c-0.132,0.077-0.229,0.119-0.314,0.119 c-0.097,0-0.174-0.032-0.216-0.087c-0.056-0.064-0.077-0.151-0.077-0.282V8.736h-1.107v4.51c0,0.326,0.066,0.564,0.196,0.726 c0.128,0.164,0.327,0.24,0.575,0.24c0.217,0,0.422-0.056,0.65-0.163c0.216-0.12,0.422-0.283,0.628-0.51v0.596h1.106V8.736H20.4z  M17.029,8.996c-0.293-0.271-0.671-0.402-1.125-0.402c-0.5,0-0.9,0.131-1.204,0.379c-0.293,0.25-0.443,0.574-0.443,0.999v2.798 c0,0.465,0.151,0.823,0.432,1.094c0.293,0.271,0.684,0.412,1.161,0.412c0.498,0,0.9-0.129,1.181-0.401 c0.294-0.259,0.434-0.617,0.434-1.083v-2.786C17.462,9.593,17.31,9.257,17.029,8.996z M16.335,12.877c0,0.141-0.043,0.25-0.13,0.336 c-0.086,0.087-0.206,0.13-0.356,0.13c-0.141,0-0.26-0.042-0.337-0.13c-0.074-0.077-0.119-0.195-0.119-0.336v-2.95 c0-0.118,0.045-0.215,0.131-0.281c0.076-0.077,0.195-0.108,0.325-0.108c0.141,0,0.261,0.031,0.357,0.108 c0.087,0.065,0.131,0.163,0.131,0.281v2.95H16.335z M12.91,6.817l-0.769,2.927h-0.087l-0.802-2.927H9.996l1.485,4.423v2.895h1.245 v-3.036l1.442-4.283L12.91,6.817L12.91,6.817z M21.528,19.708c0.065,0.086,0.098,0.237,0.098,0.433v0.499h-0.857v-0.499 c0-0.195,0.021-0.347,0.099-0.433c0.064-0.088,0.174-0.142,0.336-0.142C21.355,19.566,21.463,19.62,21.528,19.708z M18.124,19.686 c-0.064-0.087-0.174-0.13-0.303-0.13c-0.065,0-0.141,0.011-0.206,0.043c-0.066,0.033-0.141,0.087-0.206,0.152v3.057 c0.075,0.076,0.162,0.142,0.238,0.175c0.076,0.032,0.151,0.055,0.228,0.055c0.132,0,0.216-0.033,0.271-0.109 c0.054-0.063,0.087-0.174,0.087-0.335v-2.536C18.232,19.892,18.199,19.774,18.124,19.686z M18.124,19.686 c-0.064-0.087-0.174-0.13-0.303-0.13c-0.065,0-0.141,0.011-0.206,0.043c-0.066,0.033-0.141,0.087-0.206,0.152v3.057 c0.075,0.076,0.162,0.142,0.238,0.175c0.076,0.032,0.151,0.055,0.228,0.055c0.132,0,0.216-0.033,0.271-0.109 c0.054-0.063,0.087-0.174,0.087-0.335v-2.536C18.232,19.892,18.199,19.774,18.124,19.686z M23.686,15.902H8.314 c-1.682,0-3.068,1.388-3.068,3.078v3.134c0,1.691,1.386,3.067,3.068,3.067h15.372c1.681,0,3.068-1.376,3.068-3.067V18.98 C26.754,17.291,25.366,15.902,23.686,15.902z M12.456,18.058h-1.149v5.682h-1.107v-5.682H9.061v-0.962h3.395V18.058z M15.684,23.739 h-0.986v-0.54c-0.173,0.204-0.369,0.357-0.563,0.453c-0.195,0.108-0.38,0.164-0.565,0.164c-0.227,0-0.4-0.077-0.519-0.228 c-0.109-0.141-0.163-0.358-0.163-0.651v-4.108h0.975v3.772c0,0.108,0.021,0.197,0.065,0.25c0.033,0.056,0.108,0.076,0.196,0.076 c0.074,0,0.162-0.032,0.271-0.108c0.119-0.065,0.216-0.151,0.302-0.26v-3.729h0.986v4.908H15.684z M19.241,22.721 c0,0.348-0.076,0.618-0.228,0.803c-0.151,0.184-0.379,0.282-0.671,0.282c-0.196,0-0.359-0.033-0.511-0.107 c-0.151-0.077-0.292-0.185-0.422-0.337v0.38h-0.987v-6.645h0.987v2.136c0.129-0.141,0.271-0.261,0.422-0.337 c0.152-0.076,0.303-0.118,0.455-0.118c0.304,0,0.542,0.108,0.704,0.314c0.164,0.206,0.25,0.509,0.25,0.912V22.721z M22.646,21.409 h-1.877v0.921c0,0.261,0.021,0.436,0.088,0.531c0.064,0.108,0.185,0.152,0.336,0.152c0.163,0,0.271-0.044,0.335-0.131 c0.065-0.076,0.097-0.271,0.097-0.553v-0.229h1.02v0.249c0,0.511-0.128,0.89-0.379,1.14c-0.237,0.26-0.607,0.379-1.094,0.379 c-0.445,0-0.791-0.13-1.042-0.402c-0.248-0.269-0.378-0.639-0.378-1.117v-2.2c0-0.422,0.141-0.769,0.424-1.039 c0.27-0.262,0.626-0.402,1.072-0.402c0.445,0,0.792,0.131,1.029,0.38c0.239,0.251,0.369,0.596,0.369,1.062V21.409z M17.821,19.556 c-0.065,0-0.141,0.011-0.206,0.043c-0.066,0.033-0.141,0.087-0.206,0.152v3.057c0.075,0.076,0.162,0.142,0.238,0.175 c0.076,0.032,0.151,0.055,0.228,0.055c0.132,0,0.216-0.033,0.271-0.109c0.054-0.063,0.087-0.174,0.087-0.335v-2.536 c0-0.163-0.033-0.282-0.108-0.37C18.06,19.599,17.951,19.556,17.821,19.556z M18.124,19.686c-0.064-0.087-0.174-0.13-0.303-0.13 c-0.065,0-0.141,0.011-0.206,0.043c-0.066,0.033-0.141,0.087-0.206,0.152v3.057c0.075,0.076,0.162,0.142,0.238,0.175 c0.076,0.032,0.151,0.055,0.228,0.055c0.132,0,0.216-0.033,0.271-0.109c0.054-0.063,0.087-0.174,0.087-0.335v-2.536 C18.232,19.892,18.199,19.774,18.124,19.686z M18.124,19.686c-0.064-0.087-0.174-0.13-0.303-0.13c-0.065,0-0.141,0.011-0.206,0.043 c-0.066,0.033-0.141,0.087-0.206,0.152v3.057c0.075,0.076,0.162,0.142,0.238,0.175c0.076,0.032,0.151,0.055,0.228,0.055 c0.132,0,0.216-0.033,0.271-0.109c0.054-0.063,0.087-0.174,0.087-0.335v-2.536C18.232,19.892,18.199,19.774,18.124,19.686z"/>
</svg>
