<svg xmlns="http://www.w3.org/2000/svg" viewBox="0 0 539.2 159.8">
  <style>
    .st3{fill:#FFFFFF;}
	 @media screen and (max-width: 150px) {
                #from-idg{
                    stroke-width:1;stroke-linecap:butt;stroke-miterlimit:4;stroke-dasharray:none;stroke:#ffffff;stroke-opacity:1;fill:#ffffff;
                }
            }
  </style>
  <g id="from-idg">
    <path class="st3" d="M337.3 130.1h19.5v2.6h-16.5v7.1h15.8v2.6h-15.8v9.6h-3v-21.9zm25.5 0h14.9c1.9 0 4.3.1 6.2 1.8.7.6 2 2.1 2 4.7 0 5.3-4.4 6-5.9 6.2l8.1 9.3H384l-7.4-8.8H366v8.8h-3.1v-22zm3.1 2.7v8h10.9c1.7 0 3.9 0 5.1-1.7.6-.7.7-1.6.7-2.3 0-.8-.2-1.7-.7-2.3-1-1.6-2.6-1.6-4-1.6h-12zm52.5 8.6c0 7.5-6.2 11.3-13.2 11.3-3.2 0-6.4-.6-9-2.4-2.1-1.5-4.4-4.2-4.4-8.9 0-8.1 6.7-11.8 13.2-11.8 7.6 0 13.4 4.5 13.4 11.8zm-23.6-.2c0 1.7.4 3.9 1.9 5.6 2.1 2.4 5.3 3.2 8.4 3.2 8.1 0 10.1-5.1 10.1-8.9 0-5.8-4.6-9-10.6-8.8-4.6.1-9.8 2.4-9.8 8.9zm30-11.1h4.3l6.8 14.3c1.1 2.4 1.3 2.8 2.1 4.9.7-2.1 1-2.6 2-4.8l6.9-14.4h4.2v22h-2.9v-12.6c0-4.2.1-4.9.3-6.7-.6 1.7-.8 2.1-1.6 3.9l-7.5 15.5h-2.9l-6.9-14.2c-1.2-2.5-1.5-3.2-2.2-5 .2 1.7.2 2.1.2 5.6v13.7h-2.9v-22.2zm45.8 0h3.2v22h-3.2v-22zm11.3 0h10.9c2.5 0 5.5 0 8.4 2.4 1.8 1.5 3.6 4.2 3.6 8.4 0 4-1.8 6.7-3.1 8-3.1 3-7.4 3.1-11.1 3.1h-8.8v-21.9zm3.2 2.6v16.7h6.4c2.8 0 6.2-.1 8.5-3.1 1.2-1.6 1.7-3.6 1.7-5.5 0-3-1.2-4.9-2.3-6.1-2.1-2.1-4.5-2.1-6.5-2.1h-7.8zm47.3 16.4c-.4.4-.7.7-1.2 1.1-1.6 1.2-4.6 2.4-8.4 2.4-7.6 0-12.6-5.3-12.6-11.5 0-3.1 1.3-5.3 1.9-6.3 2.1-3 6.1-5.2 11.2-5.2s8.3 2.1 9.5 3.1c1.2 1 1.7 1.9 2.1 2.7l-3.1.9c-.4-.6-.7-1.1-1.4-1.6-1.9-1.6-4.4-2.4-6.9-2.4-5.4 0-10 3-10 8.6 0 2.3.8 4.1 1.5 5.1 2.4 3.7 7 4 8.4 4 2.1 0 5.2-.7 7.2-2.9 1.4-1.5 1.6-2.7 1.7-4h-9.7v-2.6h12.3v11.6h-2.7v-3z"/>
  </g>
  <path class="st3" d="M19 78.9v35H0V7.9h30c29.4 0 45.5 4.4 45.5 33.5 0 30.5-22.1 37.5-37.2 37.5H19zm0-55v37h16.8c14.1 0 20-4.9 20-19.3 0-12.1-4.2-17.7-20.5-17.7H19zm60.4 36.8c0-33.4 22-55.2 52.3-55.2 11.1 0 22.4 2.4 30.2 6.2l-2.1 18.5c-8.8-3.5-17-6.1-28.1-6.1-20.6 0-31.1 15.3-31.1 36.6 0 21.2 10.5 36.6 31.1 36.6 11.1 0 19.3-2.6 28.1-6.1l2.1 18.5c-7.7 3.8-19.1 6.2-30.2 6.2-30.3 0-52.3-21.9-52.3-55.2zm198.1 53.2h-17.1l-23.7-70.8-23.5 70.8h-18.4L165 7.9h20.2l21.2 75.4 23.7-75.4h13.5l24.6 73.4 20.3-73.4h20.2l-31.2 106zM298.3 76c0-21.2 14.1-39.3 38.4-39.3 24.3 0 38.4 18 38.4 39.3 0 21.2-14.1 39.3-38.4 39.3-24.3 0-38.4-18.1-38.4-39.3zm19.2 0c0 14.1 7 23.8 19.1 23.8s19.1-9.7 19.1-23.8c0-14.1-7-23.8-19.1-23.8s-19.1 9.7-19.1 23.8zm104.7-21.1h-7c-6.2 0-11.2 2.9-14.2 7.1v51.9h-18v-76h17.2l.5 8.1c3.9-4.1 11.5-9.1 20.2-9.1h5l-3.7 18zm34.7 60h-6.8c-13.5 0-19.1-8.6-19.1-19.5V-.1h18v87.8c0 12.1 1.9 11.9 9.3 11.9l-1.4 15.3zm59.7-1l-.3-4.3c-5.3 3.6-10.3 5.7-18.5 5.7-24.3 0-37.2-18.1-37.2-39.3 0-21.2 13.1-39.3 37.4-39.3 7.7 0 13 1.8 18 5V-.1h18v114h-17.4zM479.9 76c0 14.1 7 23.8 19.1 23.8 12.1 0 17.4-9.7 17.4-23.8 0-14.1-5.3-23.8-17.4-23.8-12.1 0-19.1 9.7-19.1 23.8z" id="pcworld-logo"/>
</svg>
