<?xml version="1.0" encoding="utf-8"?>
<!-- Generator: Adobe Illustrator 18.1.1, SVG Export Plug-In . SVG Version: 6.00 Build 0)  -->
<svg version="1.1" id="Layer_1" xmlns="http://www.w3.org/2000/svg" xmlns:xlink="http://www.w3.org/1999/xlink" x="0px" y="0px"
	 viewBox="0 0 27 26.7" enable-background="new 0 0 27 26.7" xml:space="preserve">
<g>
	<path fill="#FFFFFF" d="M8,24.4c0,0,0.6,0.4,1.7,0.6s1.8-1.3,1.8-1.3l4.9-1.5l5.1-3.6l2.5-8.2l-5.7-6.7l-7.6-1.1L6,5.5l-3.4,5
		l0.9,6.9L8,24.4z"/>
	<g>
		<path fill="#CB2027" d="M13,25.5c-1.2,0-2.4-0.2-3.6-0.5c0.5-0.7,1-1.7,1.3-2.7c0.1-0.5,0.9-3.4,0.9-3.4c0.4,0.8,1.7,1.6,3.1,1.6
			c4,0,6.7-3.7,6.7-8.6c0-3.7-3.1-7.2-7.9-7.2c-6,0-8.9,4.2-8.9,7.8c0,2.2,0.8,4.1,2.5,4.8c0.3,0.1,0.5,0,0.6-0.3
			c0-0.2,0.2-0.8,0.3-1c0.1-0.3,0-0.4-0.2-0.7C7.3,14.7,7,13.9,7,12.8c0-3.2,2.4-6,6.2-6c3.4,0,5.2,2.1,5.2,4.8c0,3.6-1.6,6.6-4,6.6
			c-1.3,0-2.3-1.1-2-2.4c0.4-1.6,1.1-3.3,1.1-4.4c0-1-0.5-1.9-1.7-1.9c-1.3,0-2.4,1.4-2.4,3.2c0,1.2,0.4,2,0.4,2s-1.4,5.8-1.6,6.8
			c-0.2,0.9-0.3,2-0.2,2.9C3.6,22.5,0.5,18.1,0.5,13C0.5,6.1,6.1,0.5,13,0.5S25.5,6.1,25.5,13S19.9,25.5,13,25.5z"/>
	</g>
</g>
</svg>
