<?xml version="1.0" encoding="utf-8"?>
<!-- Generator: Adobe Illustrator 21.0.2, SVG Export Plug-In . SVG Version: 6.00 Build 0)  -->
<svg version="1.1" id="Layer_1" xmlns="http://www.w3.org/2000/svg" xmlns:xlink="http://www.w3.org/1999/xlink" x="0px" y="0px"
	 viewBox="0 0 500 500" style="enable-background:new 0 0 500 500;" xml:space="preserve">
<style type="text/css">
	.st0{fill:#98D6F7;}
	.st1{fill:#FFFFFF;}
	.st2{fill:#891B1F;}
	.st3{fill:#CD181F;}
	.st4{fill:#36A9E1;}
	.st5{opacity:0.2;fill:#1D1D1B;enable-background:new    ;}
	.st6{fill:#BE1622;}
	.st7{fill:#E23025;}
	.st8{fill:#9C1B1E;}
	.st9{opacity:0.2;}
	.st10{fill:#1D1D1B;}
	.st11{fill:#FFDE00;}
	.st12{fill:none;stroke:#FFFFFF;stroke-width:2.96;stroke-miterlimit:10;}
</style>
<title>Artboard 1</title>
<circle class="st0" cx="251.4" cy="248.6" r="246.8"/>
<path class="st1" d="M72.9,275.6c5.4,4.2,12.4,4.9,16.5,4.9l7,46.9c0.2,1.6,1.6,2.8,3.2,2.9c6.6,0.2,13.3-0.5,19.7-2.3
	c4.9-1.4,9.5-3.3,13.9-5.9c25.4,22.6,56.5,37.8,89.9,44.2c9.2,1.8,18.5,2.9,27.8,3.3c7.1,0.4,14.2,0.4,21.2,0
	c3.5,21.5,9.4,48.6,16.5,80.4c3.1,14,6.3,28.1,9,41.2c99-18.9,176.6-96.2,196-195.1c-18.9-10.8-39-19.4-59.9-25.6
	c3.8-13.6,2.4-28.9-0.3-41.7c0.3,0.1,0.5,0.2,0.8,0.2c1.8,0.3,3.5-1,3.8-2.8c2.8-17.8-7.1-33.4-18.3-45l1.8,1.3
	c1.2,0.9,2.9,0.9,4.1,0c1.5-1.1,1.8-3.2,0.6-4.7c-12-17.1-37.4-26.5-46.1-29.3c9.5-56-0.3-75-0.7-75.8c-0.6-1.1-1.7-1.8-3-1.8
	c-6.3,0.2-12.6,1.1-18.7,2.8c-30.1,8.3-51.8,32.3-57.8,39.5c-13.8-5.5-29-6.4-43.2-2.4c-3.8,1-7.4,2.4-10.8,4.2
	c-0.9,0.5-1.5,1.3-1.7,2.3c-0.4,1.8,0.8,3.6,2.7,4c-4.8,0.9-9.3,2-13.5,3.2l-2.6,0.8c-6.8-5.8-25.5-17.9-56.5-9.2
	c-2.8,0.8-5.6,1.7-8.4,2.8l-0.2,0.1c-2.1,0.8-4.3,1.6-6.5,2.6c-1.4,0.6-2.3,2.1-2,3.7c0.2,1.3,5.6,31.5,19.4,47.3
	c-8.9,10.4-8.5,16.1-8.4,17.2c0.1,0.5,0.3,1,0.6,1.4c1.1,1.5,3.2,1.9,4.7,0.8l7.6-5.4l4.5,26.1c-9.1,7.2-16,16.9-19.8,27.9
	c-0.6,1.5,0,3.2,1.4,4.1c1.6,1,3.7,0.5,4.6-1.1c0.2-0.2,0.4-0.4,0.6-0.6c-5.6,10.2-8.5,21.6-8.4,33.3l-25.6-24.3l-10.2-9.7v0
	c0.3-1,0.6-1.9,0.9-2.9c0.1-0.3,0.2-0.7,0.3-1c0.2-0.6,0.3-1.2,0.5-1.8l0.3-1.2c0.1-0.5,0.3-1.2,0.4-1.6s0.2-0.6,0.3-1.2
	s0.2-1.2,0.3-1.6s0.2-0.8,0.2-1.2c0.1-0.8,0.2-1.5,0.3-2.3c0.1-0.4,0.1-0.8,0.1-1.2s0-0.8,0.1-1.2c0.1-0.4,0.1-0.8,0.1-1.2v-4.5
	c0-0.7-0.1-1.3-0.2-2c0-0.3-0.1-0.4-0.1-0.8s-0.1-0.9-0.2-1.2s-0.1-0.5-0.2-0.9s-0.2-0.8-0.3-1.1s-0.1-0.4-0.2-0.8s-0.3-0.9-0.4-1.1
	s-0.2-0.5-0.3-0.7c-0.2-0.5-0.4-1-0.6-1.5c-0.9-1.9-2-3.6-3.4-5.1c-8.8-9.7-24.5-7.8-29.8-6.8c-6.4-5.3-12.4-7.2-17.7-5.7
	c-9.4,2.6-13.1,14.7-14.2,19.5c-7.8,3.6-12.3,7.9-13.4,13c-0.5,2.3-0.2,4.7,0.7,6.9c-6.6,5.1-9.6,10.3-8.7,15.7
	c1.7,10.4,17.3,16.4,23.3,18.4C67.1,269.1,69.5,272.9,72.9,275.6z"/>
<path class="st1" d="M230.3,336.9c-27.6-4.9-52.7-16.8-74.8-35.5c3.7-5.1,6.8-10.6,9.2-16.5c0.4,1.2,1.3,2,2.5,2.3
	c1.8,0.4,3.6-0.7,4-2.5c0.1-0.5,0.2-0.9,0.4-1.4c1.7,31.3,27.1,33.9,27.4,33.9c0.7,0.1,1.4-0.1,2.1-0.5
	C209.7,325,219.6,331.8,230.3,336.9z M241.8,336.2c1.9,1.1,3.9,2.1,5.8,2.9c-2.1-0.2-4.1-0.4-6.2-0.6
	C241.8,337.8,242,337,241.8,336.2L241.8,336.2z M265.7,338.9c0.5,0.2,1,0.4,1.4,0.7h-1C266,339.3,265.8,339.1,265.7,338.9
	L265.7,338.9z"/>
<path class="st1" d="M254.2,413.7c-10-1.6-17.9,3.6-20.7,13.6c9.6-32.4-34.5-36.1-37.9-7c-2.7-8-8-21.4-17.4-23.6
	c-15.6-4.5-18.7,17.2-12.8,27.6c3.9,7.3,12.1,12,19.6,14.9c-9.3-1-28.6-2.9-34.5,6.5c-7.8,11.9,18.3,16.3,36,9.4
	c1.4,3.6,4.2,6.5,7.8,8c15.1,7,35.8-4.1,32.8-20.7c6.5,10.9,12.2,17,25.1,12.9C271.8,449.1,278.9,417.4,254.2,413.7z"/>
<path class="st1" d="M182.1,45.5c7.3-1.1,13.1,2.7,15.1,10c-7-23.8,25.3-26.5,27.8-5.1c2-5.9,5.9-15.7,12.8-17.4
	c11.4-3.3,13.7,12.6,9.4,20.2c-2.9,5.4-8.9,8.8-14.4,10.9c6.8-0.7,20.9-2.1,25.3,4.8c5.7,8.8-13.4,12-26.5,6.9
	c-1,2.6-3.1,4.7-5.7,5.8c-11.1,5.1-26.3-3-24.1-15.2c-4.8,8-9,12.5-18.4,9.5C169.2,71.5,163.9,48.2,182.1,45.5z"/>
<path class="st2" d="M275.8,318.3c-13.1,15.8,11.8,107.9,25.2,172.2c88.3-18.2,159.7-82.9,186.3-169l-39.5-42.9L324,259.7
	L275.8,318.3z"/>
<path class="st3" d="M310.6,261c78.8,3,134.5,31.8,173.8,69.2c3.5-10.1,6.4-20.4,8.6-30.8C403.6,248,306.1,260.9,310.6,261z"/>
<path class="st4" d="M356.3,272l-14.1,34.1c0,0-16.1,3.9-39.3,7.4c9.9,5,20.1,9.3,30.6,13.1c9.1,2.6,18.4,4.4,27.8,5.6l1.7-0.1
	c0.9-1,1.7-2,2.5-3.1c2.9-5.5,5.3-11.1,7.4-16.9c1-3.8,2-7.7,2.8-11.5c-0.8-0.8-1.6-1.6-2.4-2.5C365.7,289.8,359.7,282.3,356.3,272z
	"/>
<path class="st4" d="M372.2,237.9l-78.9,33.4c2.5,53.8,12.4,106.7,28.4,158.1c5.2,16.8,10.6,33.7,17,50.1
	c43.4-16.5,81.4-44.8,109.5-81.9c-18.5-28.1-35-57.3-48.8-89C397.2,303.6,368.6,239.2,372.2,237.9z"/>
<path class="st5" d="M306.3,349.7l-2.6,8.1c4.7,24.2,10.7,48.1,18,71.6c5.2,16.7,10.6,33.5,16.9,49.8c2.8-1.1,5.5-2.1,8.2-3.3
	C313.8,409.9,306.3,349.7,306.3,349.7z"/>
<path class="st3" d="M373.2,237.9l-78.9,33.4c0.8,16.9,2.3,33.7,4.5,50.4c2.9-1.7,5.9-3.1,9.1-4.3c12.8-4.9,26.3-7.2,39.7-9.7
	c1.2-0.2,2.4-0.4,3.6-0.6c0.5-5.3,1.6-10.6,3.5-15.6c4.6-11.9,17.6-19.8,30.1-19.2C377.8,255.3,371.4,238.6,373.2,237.9z"/>
<path class="st4" d="M365.6,308l9.3,21.4c22-9.5,58.5-16.9,109.7,0.4c2.5-7.3,4.8-14.8,6.6-22.4C455.1,295.4,409.4,289,365.6,308z"
	/>
<path class="st4" d="M223.7,362.9c-55.2-10.5-100.4-43.8-134.4-99l19.9-12.3c46.9,76,117,105.5,202.7,85c4.9-1.1,6.9-1.6,9.7-1.1
	l-3.9,23c1,0.2,2,0.2,3.1,0.1c-0.4,0.1-2,0.5-3.4,0.8c-10.7,2.6-35.2,8.4-66.2,6.8C241.9,365.8,232.7,364.7,223.7,362.9z"/>
<path class="st6" d="M372.5,273.5c-12.4,2.9-13.7,10.6-16.5,20.8c-6,21.6-32,29.7-52.6,25.7c-5.3-1.1-10.4-2.8-15.8-3
	s-11.2,1.4-14.4,5.7c-14.5,19.6,24.2,36.6,37.7,38.7c19.6,3,40.7-2.1,57-12.8c17.7-11.5,42.5-34.2,33.9-58c-0.6-1.7-1.4-3.4-2.4-5
	C393.9,276.5,383.4,270.8,372.5,273.5z"/>
<polygon class="st1" points="291,317.5 223.4,287.7 192.3,242.9 197.6,182.4 167,121.8 205.7,130.7 282.4,148.3 317.6,106.7 
	354.7,79.3 373.4,83.8 370.2,139.7 377.6,165.3 399.4,246.3 351.2,301 "/>
<path class="st7" d="M175.2,273.8c-3.3,37.6,24.1,40,24.1,40c-1.7-1.3-5-10.2-5-10.2c15.7,22.6,44.1,33.1,44.1,33.1
	c-2.5-2.5-10.6-16.8-10.6-16.8c10.8,15.3,35.2,20.8,35.2,20.8c-3.1-1.4-12-15.1-12-15.1c12.7,10.1,24.4,13.8,31.8,15
	c2.8,0.5,5.6,0.7,8.4,0.6l3.2-0.2l0,0l-0.1,0.2c5-1.1,10.1-1.6,15.2-1.5c-19.5-0.4-11.5,1.2-1-2.4c7.7-2.6,13.3-3.1,19.2-7.5
	c12.3-9.2,24.8-17.9,37.6-26.3c14-9.3,21.2-17.2,32.8-28l8-5.4c3.3-6.1,6.8-12,10.7-17.9c0.6-1,1.3-1.8,2-2.7
	c0.1-6.7-0.2-13.4-0.8-20c2.9,3,4.4,9.1,5.3,15c2-1.9,4.1-3.6,6.3-5.1v-0.3c0.2-1.2,0.6-2.5,1.1-3.6l-0.7,0.9c-1-16.5-9.3-33-9.3-33
	c7.5,3.5,13.8,22.1,13.8,22.1c5.5-34.8-43.1-62.1-43.1-62.1c10.4,1.4,31.9,16.1,31.9,16.1c-13.8-19.6-47.1-28.9-47.1-28.9
	c10.3-57.8,0.2-76.5,0.2-76.5c-43.5,1.1-75.6,43.1-75.6,43.1c-29.3-12.9-53.3,0.6-53.3,0.6c10.5-1.9,22.4,3.3,22.4,3.3
	c-13.6,1.2-27,3.8-40,7.7c-6-5.7-28.5-22.7-69.5-4.5c0,0,5.8,33.5,20.7,47.8c-10.5,11.3-9.6,16.8-9.6,16.8l11.9-8.5l5.8,33.4
	c-9.3,6.9-16.4,16.5-20.2,27.4c2.3-3.1,12.7-6.4,12.7-6.4C162.4,259.1,168,284,168,284C168.9,279.8,171.5,276.1,175.2,273.8z
	 M324.1,119.2c0,0,20.2-29,42.3-29.2c0,0,3.3,29.4-6.1,46C360.3,136,342.3,123.2,324.1,119.2z M282.6,248.7
	c-18.8,4.4-35.7-6.9-41-29.6s2.1-59,20.9-63.4s41.7,24.8,47,47.4C314.8,225.8,301.4,244.3,282.6,248.7L282.6,248.7z M195.8,170.3
	c-14.8-7.1-19.9-38.5-20-38.5c24.1-7.5,45,4.8,41.9,7.5C210.7,145.5,195.8,170.3,195.8,170.3L195.8,170.3z"/>
<path class="st7" d="M394.2,215.6c-0.9,0.6-26,60-26,60L284.3,341c61.6,9.4,113.2-53.7,113.2-53.7c-2.7,10.9-8.1,21-15.7,29.3
	c47.9-31.1,42.1-70.1,42.1-70.1c3.2,8.8,4,30.3,4,30.3c13.7-28.5-5.6-73-5.6-73S395.1,215.1,394.2,215.6z"/>
<path class="st1" d="M347.9,270.4c24.5-32.7,14.1-77.3,14-77.8c-0.2-0.6-0.8-0.9-1.4-0.9c-0.7,0.1-1.2,0.7-1.1,1.4
	c0.1,0.4,10.2,43.9-13.5,75.6c-15.3,20.5-41,31.7-76.6,33.5c-0.6,0.1-1.1,0.6-1.1,1.2c0,0.7,0.5,1.3,1.2,1.3
	c33.3-1.7,58.3-11.5,74.3-29.3C345.2,273.9,346.6,272.2,347.9,270.4z"/>
<path class="st1" d="M378.7,195.5c-22.7-25.7-32.3-1.3-32.3-1.3c8.7-32.9,29.8-3.6,29.8-3.6"/>
<path class="st1" d="M215.9,258.6c5.6,8,17,15.1,17,15.1s28.8-22.9,12.3-23.1C228.7,250.4,210.3,250.5,215.9,258.6z"/>
<ellipse transform="matrix(0.9152 -0.4029 0.4029 0.9152 -54.8208 118.4592)" class="st7" cx="254.1" cy="189.5" rx="5.2" ry="12.3"/>
<ellipse transform="matrix(0.9739 -0.2272 0.2272 0.9739 -41.0789 55.5253)" class="st1" cx="220.7" cy="206.2" rx="5.2" ry="12.3"/>
<path class="st8" d="M124.1,242.9c18.9-54.2-28.7-42.4-28.7-42.4c-22.5-20-28,12.5-28,12.5c-20.4,8.6-11.2,18.5-11.2,18.5
	c-28.5,19,13.1,30.5,13.1,30.5c1.9,17.4,22.9,14.8,22.9,14.8l7.5,49.9c47.9,1.5,63.5-46.9,63.5-46.9L124.1,242.9z"/>
<g class="st9">
	<path class="st10" d="M113.9,243.6l38.7,44c1.5,1.7,3,3.4,4.5,5c2.4-4,4.3-8.3,5.9-12.7l-39-36.9c5.6-16,5.4-26.3,2.3-32.8
		C127.5,222.4,123.1,235.2,113.9,243.6z"/>
</g>
<path class="st5" d="M77.1,258.1c2.7-25,28.3-16.5,28.3-16.5"/>
<path class="st11" d="M412.5,435.6c-22.1,14.1-50.5,29-77.2,35.1c1,2.9,2.3,5.9,3.4,8.9C365.6,469.2,390.6,454.4,412.5,435.6z"/>
<polygon class="st7" points="387.2,443.4 320.7,404.3 322.1,379.9 398.4,347.9 425.4,363.9 "/>
<polygon class="st11" points="383.3,430.7 330,399.3 330.7,386.1 397.7,358 413.7,367.4 "/>
<path class="st7" d="M357.5,384.3c3.4-3.5,10.6-10.8,16-6.9c4.4,3.2-1,8.5-3.4,11c-1.9,2-4.3,3.8-5.9,6c-2.4,3.2-3.9,7-4.4,11
	c-0.6,6,2.8,10.9,7.8,13.9c16.3,9.9,32.9-11.3,32.9-11.3l-8-7.5c-0.6,1-1.3,1.9-2,2.9c-2.4,2.8-5.5,5-8.9,6.4
	c-1.4,0.6-3,0.8-4.6,0.5c-3.8-0.8-4.8-4.8-3.4-8c3.4-8,12-12.8,13.7-21.7c1.1-5.7-1.7-10.5-6.6-13.3c-14.9-8.7-30.6,10-30.6,10
	l7.6,7.9"/>
<path class="st3" d="M378.9,454.8c-1.3,0.8-2.6,1.4-4,2l2.7,3.9c1.3-0.8,2.5-1.5,3.8-2.3L378.9,454.8z"/>
<path class="st3" d="M356.4,464.4c-1.4,0.6-2.8,1.1-4.3,1.6l4.2,6.1c1.3-0.6,2.7-1.3,4-1.9L356.4,464.4z"/>
<line class="st12" x1="180.9" y1="389.2" x2="119.3" y2="327.9"/>
<line class="st12" x1="180.9" y1="369.4" x2="151.8" y2="342.6"/>
<line class="st12" x1="474" y1="257.9" x2="444.8" y2="231.1"/>
</svg>
